ply
format ascii 1.0
comment Created by Blender 2.91.2 - www.blender.org
element vertex 288
property float x
property float y
property float z
property float nx
property float ny
property float nz
element face 132
property list uchar uint vertex_indices
end_header
-0.034894 0.221099 -0.054593 0.000000 0.000000 -1.000000
0.034894 -0.221099 -0.054593 0.000000 0.000000 -1.000000
-0.034894 -0.221099 -0.054593 0.000000 0.000000 -1.000000
-0.049000 0.221099 0.038877 -1.000000 0.000000 0.000000
-0.049000 -0.221099 -0.038877 -1.000000 0.000000 0.000000
-0.049000 -0.221099 0.038877 -1.000000 0.000000 0.000000
0.034894 0.310478 0.038877 -0.000000 1.000000 0.000000
-0.034894 0.310478 -0.038877 -0.000000 1.000000 0.000000
-0.034894 0.310478 0.038877 -0.000000 1.000000 0.000000
0.049000 0.221099 -0.038877 1.000000 -0.000000 0.000000
0.049000 -0.221099 0.038877 1.000000 -0.000000 0.000000
0.049000 -0.221099 -0.038877 1.000000 -0.000000 0.000000
0.034894 0.221099 0.054593 0.000000 -0.000000 1.000000
-0.034894 -0.221099 0.054593 0.000000 -0.000000 1.000000
0.034894 -0.221099 0.054593 0.000000 -0.000000 1.000000
0.034894 -0.310478 -0.038877 0.739123 -0.116648 -0.663393
0.034894 -0.221099 -0.054593 0.739123 -0.116648 -0.663393
0.049000 -0.221099 -0.038877 0.739123 -0.116648 -0.663393
0.034894 0.221099 -0.054593 0.739123 0.116648 -0.663393
0.034894 0.310478 -0.038877 0.739123 0.116648 -0.663393
0.049000 0.221099 -0.038877 0.739123 0.116648 -0.663393
0.034894 -0.310478 0.038877 0.739123 -0.116648 0.663393
0.049000 -0.221099 0.038877 0.739123 -0.116648 0.663393
0.034894 -0.221099 0.054593 0.739123 -0.116648 0.663393
0.034894 0.310478 0.038877 0.739123 0.116648 0.663393
0.034894 0.221099 0.054593 0.739123 0.116648 0.663393
0.049000 0.221099 0.038877 0.739123 0.116648 0.663393
-0.034894 -0.310478 -0.038877 -0.739123 -0.116648 -0.663393
-0.049000 -0.221099 -0.038877 -0.739123 -0.116648 -0.663393
-0.034894 -0.221099 -0.054593 -0.739123 -0.116648 -0.663393
-0.034894 0.310478 -0.038877 -0.739123 0.116648 -0.663393
-0.034894 0.221099 -0.054593 -0.739123 0.116648 -0.663393
-0.049000 0.221099 -0.038877 -0.739123 0.116648 -0.663393
-0.034894 -0.310478 0.038877 -0.739123 -0.116648 0.663393
-0.034894 -0.221099 0.054593 -0.739123 -0.116648 0.663393
-0.049000 -0.221099 0.038877 -0.739123 -0.116648 0.663393
-0.034894 0.310478 0.038877 -0.739123 0.116648 0.663393
-0.049000 0.221099 0.038877 -0.739123 0.116648 0.663393
-0.034894 0.221099 0.054593 -0.739123 0.116648 0.663393
0.034894 -0.310478 -0.038877 0.987774 -0.155890 0.000000
0.049000 -0.221099 0.038877 0.987774 -0.155890 0.000000
0.034894 -0.310478 0.038877 0.987774 -0.155890 0.000000
0.034894 0.221099 -0.054593 0.744203 0.000000 -0.667953
0.049000 -0.221099 -0.038877 0.744203 0.000000 -0.667953
0.034894 -0.221099 -0.054593 0.744203 0.000000 -0.667953
0.034894 0.310478 0.038877 0.987774 0.155890 0.000000
0.049000 0.221099 -0.038877 0.987774 0.155890 0.000000
0.034894 0.310478 -0.038877 0.987774 0.155890 0.000000
0.034894 -0.221099 0.054593 0.744203 0.000000 0.667953
0.049000 0.221099 0.038877 0.744203 0.000000 0.667953
0.034894 0.221099 0.054593 0.744203 0.000000 0.667953
0.034894 -0.310478 0.038877 0.000000 -0.173179 0.984890
-0.034894 -0.221099 0.054593 0.000000 -0.173179 0.984890
-0.034894 -0.310478 0.038877 0.000000 -0.173179 0.984890
-0.034894 0.310478 0.038877 0.000000 0.173179 0.984890
0.034894 0.221099 0.054593 0.000000 0.173179 0.984890
0.034894 0.310478 0.038877 0.000000 0.173179 0.984890
-0.049000 -0.221099 0.038877 -0.744203 0.000000 0.667953
-0.034894 0.221099 0.054593 -0.744203 0.000000 0.667953
-0.049000 0.221099 0.038877 -0.744203 0.000000 0.667953
-0.034894 -0.310478 0.038877 -0.987774 -0.155890 0.000000
-0.049000 -0.221099 -0.038877 -0.987774 -0.155890 0.000000
-0.034894 -0.310478 -0.038877 -0.987774 -0.155890 0.000000
-0.034894 0.310478 -0.038877 -0.987774 0.155890 0.000000
-0.049000 0.221099 0.038877 -0.987774 0.155890 0.000000
-0.034894 0.310478 0.038877 -0.987774 0.155890 0.000000
-0.034894 -0.221099 -0.054593 -0.744203 0.000000 -0.667953
-0.049000 0.221099 -0.038877 -0.744203 0.000000 -0.667953
-0.034894 0.221099 -0.054593 -0.744203 0.000000 -0.667953
-0.034894 -0.310478 -0.038877 0.000000 -0.173179 -0.984890
0.034894 -0.221099 -0.054593 0.000000 -0.173179 -0.984890
0.034894 -0.310478 -0.038877 0.000000 -0.173179 -0.984890
0.034894 0.310478 -0.038877 0.000000 0.173179 -0.984890
-0.034894 0.221099 -0.054593 0.000000 0.173179 -0.984890
-0.034894 0.310478 -0.038877 0.000000 0.173179 -0.984890
-0.034894 -0.310478 0.038877 -0.000000 -1.000000 -0.000000
0.034894 -0.310478 -0.038877 -0.000000 -1.000000 -0.000000
0.034894 -0.310478 0.038877 -0.000000 -1.000000 -0.000000
0.137179 0.221099 -0.054410 0.000000 0.000000 -1.000000
0.206967 -0.221099 -0.054410 0.000000 0.000000 -1.000000
0.137179 -0.221099 -0.054410 0.000000 0.000000 -1.000000
0.123073 0.221099 0.039060 -1.000000 0.000000 0.000000
0.123073 -0.221099 -0.038694 -1.000000 0.000000 0.000000
0.123073 -0.221099 0.039060 -1.000000 0.000000 0.000000
0.206967 0.310478 0.039060 -0.000000 1.000000 0.000000
0.137179 0.310478 -0.038694 -0.000000 1.000000 0.000000
0.137179 0.310478 0.039060 -0.000000 1.000000 0.000000
0.221073 0.221099 -0.038694 1.000000 -0.000000 0.000000
0.221073 -0.221099 0.039060 1.000000 -0.000000 0.000000
0.221073 -0.221099 -0.038694 1.000000 -0.000000 0.000000
0.206967 0.221099 0.054776 0.000000 -0.000000 1.000000
0.137179 -0.221099 0.054776 0.000000 -0.000000 1.000000
0.206967 -0.221099 0.054776 0.000000 -0.000000 1.000000
0.206967 -0.310478 -0.038694 0.739123 -0.116648 -0.663394
0.206967 -0.221099 -0.054410 0.739123 -0.116648 -0.663394
0.221073 -0.221099 -0.038694 0.739123 -0.116648 -0.663394
0.206967 0.221099 -0.054410 0.739123 0.116648 -0.663394
0.206967 0.310478 -0.038694 0.739123 0.116648 -0.663394
0.221073 0.221099 -0.038694 0.739123 0.116648 -0.663394
0.206967 -0.310478 0.039060 0.739123 -0.116648 0.663393
0.221073 -0.221099 0.039060 0.739123 -0.116648 0.663393
0.206967 -0.221099 0.054776 0.739123 -0.116648 0.663393
0.206967 0.310478 0.039060 0.739123 0.116648 0.663393
0.206967 0.221099 0.054776 0.739123 0.116648 0.663393
0.221073 0.221099 0.039060 0.739123 0.116648 0.663393
0.137179 -0.310478 -0.038694 -0.739123 -0.116648 -0.663394
0.123073 -0.221099 -0.038694 -0.739123 -0.116648 -0.663394
0.137179 -0.221099 -0.054410 -0.739123 -0.116648 -0.663394
0.137179 0.310478 -0.038694 -0.739123 0.116648 -0.663394
0.137179 0.221099 -0.054410 -0.739123 0.116648 -0.663394
0.123073 0.221099 -0.038694 -0.739123 0.116648 -0.663394
0.137179 -0.310478 0.039060 -0.739123 -0.116648 0.663393
0.137179 -0.221099 0.054776 -0.739123 -0.116648 0.663393
0.123073 -0.221099 0.039060 -0.739123 -0.116648 0.663393
0.137179 0.310478 0.039060 -0.739123 0.116648 0.663393
0.123073 0.221099 0.039060 -0.739123 0.116648 0.663393
0.137179 0.221099 0.054776 -0.739123 0.116648 0.663393
0.206967 -0.310478 -0.038694 0.987774 -0.155891 0.000000
0.221073 -0.221099 0.039060 0.987774 -0.155891 0.000000
0.206967 -0.310478 0.039060 0.987774 -0.155891 0.000000
0.206967 0.221099 -0.054410 0.744203 0.000000 -0.667954
0.221073 -0.221099 -0.038694 0.744203 0.000000 -0.667954
0.206967 -0.221099 -0.054410 0.744203 0.000000 -0.667954
0.206967 0.310478 0.039060 0.987774 0.155891 0.000000
0.221073 0.221099 -0.038694 0.987774 0.155891 0.000000
0.206967 0.310478 -0.038694 0.987774 0.155891 0.000000
0.206967 -0.221099 0.054776 0.744203 0.000000 0.667953
0.221073 0.221099 0.039060 0.744203 0.000000 0.667953
0.206967 0.221099 0.054776 0.744203 0.000000 0.667953
0.206967 -0.310478 0.039060 0.000000 -0.173179 0.984890
0.137179 -0.221099 0.054776 0.000000 -0.173179 0.984890
0.137179 -0.310478 0.039060 0.000000 -0.173179 0.984890
0.137179 0.310478 0.039060 0.000000 0.173179 0.984890
0.206967 0.221099 0.054776 0.000000 0.173179 0.984890
0.206967 0.310478 0.039060 0.000000 0.173179 0.984890
0.123073 -0.221099 0.039060 -0.744203 0.000000 0.667953
0.137179 0.221099 0.054776 -0.744203 0.000000 0.667953
0.123073 0.221099 0.039060 -0.744203 0.000000 0.667953
0.137179 -0.310478 0.039060 -0.987774 -0.155891 0.000000
0.123073 -0.221099 -0.038694 -0.987774 -0.155891 0.000000
0.137179 -0.310478 -0.038694 -0.987774 -0.155891 0.000000
0.137179 0.310478 -0.038694 -0.987774 0.155891 0.000000
0.123073 0.221099 0.039060 -0.987774 0.155891 0.000000
0.137179 0.310478 0.039060 -0.987774 0.155891 0.000000
0.137179 -0.221099 -0.054410 -0.744203 0.000000 -0.667954
0.123073 0.221099 -0.038694 -0.744203 0.000000 -0.667954
0.137179 0.221099 -0.054410 -0.744203 0.000000 -0.667954
0.137179 -0.310478 -0.038694 0.000000 -0.173179 -0.984890
0.206967 -0.221099 -0.054410 0.000000 -0.173179 -0.984890
0.206967 -0.310478 -0.038694 0.000000 -0.173179 -0.984890
0.206967 0.310478 -0.038694 0.000000 0.173179 -0.984890
0.137179 0.221099 -0.054410 0.000000 0.173179 -0.984890
0.137179 0.310478 -0.038694 0.000000 0.173179 -0.984890
0.137179 -0.310478 0.039060 -0.000000 -1.000000 -0.000000
0.206967 -0.310478 -0.038694 -0.000000 -1.000000 -0.000000
0.206967 -0.310478 0.039060 -0.000000 -1.000000 -0.000000
-0.195196 0.221099 -0.054410 0.000000 0.000000 -1.000000
-0.125408 -0.221099 -0.054410 0.000000 0.000000 -1.000000
-0.195196 -0.221099 -0.054410 0.000000 0.000000 -1.000000
-0.209301 0.221099 0.039060 -1.000000 0.000000 0.000000
-0.209301 -0.221099 -0.038694 -1.000000 0.000000 0.000000
-0.209301 -0.221099 0.039060 -1.000000 0.000000 0.000000
-0.125408 0.310478 0.039060 -0.000000 1.000000 0.000000
-0.195196 0.310478 -0.038694 -0.000000 1.000000 0.000000
-0.195196 0.310478 0.039060 -0.000000 1.000000 0.000000
-0.111302 0.221099 -0.038694 1.000000 -0.000000 0.000000
-0.111302 -0.221099 0.039060 1.000000 -0.000000 0.000000
-0.111302 -0.221099 -0.038694 1.000000 -0.000000 0.000000
-0.125408 0.221099 0.054776 0.000000 -0.000000 1.000000
-0.195196 -0.221099 0.054776 0.000000 -0.000000 1.000000
-0.125408 -0.221099 0.054776 0.000000 -0.000000 1.000000
-0.125408 -0.310478 -0.038694 0.739123 -0.116648 -0.663393
-0.125408 -0.221099 -0.054410 0.739123 -0.116648 -0.663393
-0.111302 -0.221099 -0.038694 0.739123 -0.116648 -0.663393
-0.125408 0.221099 -0.054410 0.739123 0.116648 -0.663393
-0.125408 0.310478 -0.038694 0.739123 0.116648 -0.663393
-0.111302 0.221099 -0.038694 0.739123 0.116648 -0.663393
-0.125408 -0.310478 0.039060 0.739123 -0.116648 0.663393
-0.111302 -0.221099 0.039060 0.739123 -0.116648 0.663393
-0.125408 -0.221099 0.054776 0.739123 -0.116648 0.663393
-0.125408 0.310478 0.039060 0.739123 0.116648 0.663393
-0.125408 0.221099 0.054776 0.739123 0.116648 0.663393
-0.111302 0.221099 0.039060 0.739123 0.116648 0.663393
-0.195196 -0.310478 -0.038694 -0.739123 -0.116648 -0.663393
-0.209301 -0.221099 -0.038694 -0.739123 -0.116648 -0.663393
-0.195196 -0.221099 -0.054410 -0.739123 -0.116648 -0.663393
-0.195196 0.310478 -0.038694 -0.739123 0.116648 -0.663393
-0.195196 0.221099 -0.054410 -0.739123 0.116648 -0.663393
-0.209301 0.221099 -0.038694 -0.739123 0.116648 -0.663393
-0.195196 -0.310478 0.039060 -0.739123 -0.116648 0.663393
-0.195196 -0.221099 0.054776 -0.739123 -0.116648 0.663393
-0.209301 -0.221099 0.039060 -0.739123 -0.116648 0.663393
-0.195196 0.310478 0.039060 -0.739123 0.116648 0.663393
-0.209301 0.221099 0.039060 -0.739123 0.116648 0.663393
-0.195196 0.221099 0.054776 -0.739123 0.116648 0.663393
-0.125408 -0.310478 -0.038694 0.987774 -0.155891 0.000000
-0.111302 -0.221099 0.039060 0.987774 -0.155891 0.000000
-0.125408 -0.310478 0.039060 0.987774 -0.155891 0.000000
-0.125408 0.221099 -0.054410 0.744203 0.000000 -0.667953
-0.111302 -0.221099 -0.038694 0.744203 0.000000 -0.667953
-0.125408 -0.221099 -0.054410 0.744203 0.000000 -0.667953
-0.125408 0.310478 0.039060 0.987774 0.155891 0.000000
-0.111302 0.221099 -0.038694 0.987774 0.155891 0.000000
-0.125408 0.310478 -0.038694 0.987774 0.155891 0.000000
-0.125408 -0.221099 0.054776 0.744203 0.000000 0.667953
-0.111302 0.221099 0.039060 0.744203 0.000000 0.667953
-0.125408 0.221099 0.054776 0.744203 0.000000 0.667953
-0.125408 -0.310478 0.039060 0.000000 -0.173179 0.984890
-0.195196 -0.221099 0.054776 0.000000 -0.173179 0.984890
-0.195196 -0.310478 0.039060 0.000000 -0.173179 0.984890
-0.195196 0.310478 0.039060 0.000000 0.173179 0.984890
-0.125408 0.221099 0.054776 0.000000 0.173179 0.984890
-0.125408 0.310478 0.039060 0.000000 0.173179 0.984890
-0.209301 -0.221099 0.039060 -0.744203 0.000000 0.667953
-0.195196 0.221099 0.054776 -0.744203 0.000000 0.667953
-0.209301 0.221099 0.039060 -0.744203 0.000000 0.667953
-0.195196 -0.310478 0.039060 -0.987774 -0.155890 0.000000
-0.209301 -0.221099 -0.038694 -0.987774 -0.155890 0.000000
-0.195196 -0.310478 -0.038694 -0.987774 -0.155890 0.000000
-0.195196 0.310478 -0.038694 -0.987774 0.155890 0.000000
-0.209301 0.221099 0.039060 -0.987774 0.155890 0.000000
-0.195196 0.310478 0.039060 -0.987774 0.155890 0.000000
-0.195196 -0.221099 -0.054410 -0.744203 0.000000 -0.667953
-0.209301 0.221099 -0.038694 -0.744203 0.000000 -0.667953
-0.195196 0.221099 -0.054410 -0.744203 0.000000 -0.667953
-0.195196 -0.310478 -0.038694 0.000000 -0.173179 -0.984890
-0.125408 -0.221099 -0.054410 0.000000 -0.173179 -0.984890
-0.125408 -0.310478 -0.038694 0.000000 -0.173179 -0.984890
-0.125408 0.310478 -0.038694 0.000000 0.173179 -0.984890
-0.195196 0.221099 -0.054410 0.000000 0.173179 -0.984890
-0.195196 0.310478 -0.038694 0.000000 0.173179 -0.984890
-0.195196 -0.310478 0.039060 -0.000000 -1.000000 -0.000000
-0.125408 -0.310478 -0.038694 -0.000000 -1.000000 -0.000000
-0.125408 -0.310478 0.039060 -0.000000 -1.000000 -0.000000
0.034894 0.221099 -0.054593 0.000000 0.000000 -1.000000
-0.049000 0.221099 -0.038877 -1.000000 0.000000 0.000000
0.034894 0.310478 -0.038877 0.000000 1.000000 0.000000
0.049000 0.221099 0.038877 1.000000 -0.000000 0.000000
-0.034894 0.221099 0.054593 0.000000 0.000000 1.000000
0.049000 -0.221099 -0.038877 0.987774 -0.155890 0.000000
0.049000 0.221099 -0.038877 0.744203 0.000000 -0.667953
0.049000 0.221099 0.038877 0.987774 0.155890 -0.000000
0.049000 -0.221099 0.038877 0.744203 0.000000 0.667953
0.034894 -0.221099 0.054593 0.000000 -0.173179 0.984890
-0.034894 0.221099 0.054593 0.000000 0.173179 0.984890
-0.034894 -0.221099 0.054593 -0.744203 0.000000 0.667953
-0.049000 -0.221099 0.038877 -0.987774 -0.155890 0.000000
-0.049000 0.221099 -0.038877 -0.987774 0.155890 0.000000
-0.049000 -0.221099 -0.038877 -0.744203 -0.000000 -0.667953
-0.034894 -0.221099 -0.054593 -0.000000 -0.173179 -0.984890
0.034894 0.221099 -0.054593 0.000000 0.173179 -0.984890
-0.034894 -0.310478 -0.038877 0.000000 -1.000000 0.000000
0.206967 0.221099 -0.054410 0.000000 0.000000 -1.000000
0.123073 0.221099 -0.038694 -1.000000 0.000000 0.000000
0.206967 0.310478 -0.038694 0.000000 1.000000 0.000000
0.221073 0.221099 0.039060 1.000000 -0.000000 0.000000
0.137179 0.221099 0.054776 0.000000 0.000000 1.000000
0.221073 -0.221099 -0.038694 0.987774 -0.155891 0.000000
0.221073 0.221099 -0.038694 0.744203 0.000000 -0.667954
0.221073 0.221099 0.039060 0.987774 0.155891 -0.000000
0.221073 -0.221099 0.039060 0.744203 0.000000 0.667953
0.206967 -0.221099 0.054776 0.000000 -0.173179 0.984890
0.137179 0.221099 0.054776 0.000000 0.173179 0.984890
0.137179 -0.221099 0.054776 -0.744203 0.000000 0.667953
0.123073 -0.221099 0.039060 -0.987774 -0.155891 0.000000
0.123073 0.221099 -0.038694 -0.987774 0.155891 0.000000
0.123073 -0.221099 -0.038694 -0.744203 -0.000000 -0.667954
0.137179 -0.221099 -0.054410 -0.000000 -0.173179 -0.984890
0.206967 0.221099 -0.054410 0.000000 0.173179 -0.984890
0.137179 -0.310478 -0.038694 0.000000 -1.000000 0.000000
-0.125408 0.221099 -0.054410 0.000000 0.000000 -1.000000
-0.209301 0.221099 -0.038694 -1.000000 0.000000 0.000000
-0.125408 0.310478 -0.038694 0.000000 1.000000 0.000000
-0.111302 0.221099 0.039060 1.000000 -0.000000 0.000000
-0.195196 0.221099 0.054776 0.000000 0.000000 1.000000
-0.111302 -0.221099 -0.038694 0.987774 -0.155891 0.000000
-0.111302 0.221099 -0.038694 0.744203 0.000000 -0.667953
-0.111302 0.221099 0.039060 0.987774 0.155891 -0.000000
-0.111302 -0.221099 0.039060 0.744203 0.000000 0.667953
-0.125408 -0.221099 0.054776 0.000000 -0.173179 0.984890
-0.195196 0.221099 0.054776 0.000000 0.173179 0.984890
-0.195196 -0.221099 0.054776 -0.744203 0.000000 0.667953
-0.209301 -0.221099 0.039060 -0.987774 -0.155890 0.000000
-0.209301 0.221099 -0.038694 -0.987774 0.155890 0.000000
-0.209301 -0.221099 -0.038694 -0.744203 -0.000000 -0.667953
-0.195196 -0.221099 -0.054410 -0.000000 -0.173179 -0.984890
-0.125408 0.221099 -0.054410 0.000000 0.173179 -0.984890
-0.195196 -0.310478 -0.038694 0.000000 -1.000000 0.000000
3 0 1 2
3 3 4 5
3 6 7 8
3 9 10 11
3 12 13 14
3 15 16 17
3 18 19 20
3 21 22 23
3 24 25 26
3 27 28 29
3 30 31 32
3 33 34 35
3 36 37 38
3 39 40 41
3 42 43 44
3 45 46 47
3 48 49 50
3 51 52 53
3 54 55 56
3 57 58 59
3 60 61 62
3 63 64 65
3 66 67 68
3 69 70 71
3 72 73 74
3 75 76 77
3 78 79 80
3 81 82 83
3 84 85 86
3 87 88 89
3 90 91 92
3 93 94 95
3 96 97 98
3 99 100 101
3 102 103 104
3 105 106 107
3 108 109 110
3 111 112 113
3 114 115 116
3 117 118 119
3 120 121 122
3 123 124 125
3 126 127 128
3 129 130 131
3 132 133 134
3 135 136 137
3 138 139 140
3 141 142 143
3 144 145 146
3 147 148 149
3 150 151 152
3 153 154 155
3 156 157 158
3 159 160 161
3 162 163 164
3 165 166 167
3 168 169 170
3 171 172 173
3 174 175 176
3 177 178 179
3 180 181 182
3 183 184 185
3 186 187 188
3 189 190 191
3 192 193 194
3 195 196 197
3 198 199 200
3 201 202 203
3 204 205 206
3 207 208 209
3 210 211 212
3 213 214 215
3 216 217 218
3 219 220 221
3 222 223 224
3 225 226 227
3 228 229 230
3 231 232 233
3 0 234 1
3 3 235 4
3 6 236 7
3 9 237 10
3 12 238 13
3 39 239 40
3 42 240 43
3 45 241 46
3 48 242 49
3 51 243 52
3 54 244 55
3 57 245 58
3 60 246 61
3 63 247 64
3 66 248 67
3 69 249 70
3 72 250 73
3 75 251 76
3 78 252 79
3 81 253 82
3 84 254 85
3 87 255 88
3 90 256 91
3 117 257 118
3 120 258 121
3 123 259 124
3 126 260 127
3 129 261 130
3 132 262 133
3 135 263 136
3 138 264 139
3 141 265 142
3 144 266 145
3 147 267 148
3 150 268 151
3 153 269 154
3 156 270 157
3 159 271 160
3 162 272 163
3 165 273 166
3 168 274 169
3 195 275 196
3 198 276 199
3 201 277 202
3 204 278 205
3 207 279 208
3 210 280 211
3 213 281 214
3 216 282 217
3 219 283 220
3 222 284 223
3 225 285 226
3 228 286 229
3 231 287 232
