ply
format ascii 1.0
comment Created by Blender 2.91.2 - www.blender.org
element vertex 96
property float x
property float y
property float z
property float nx
property float ny
property float nz
property uchar red
property uchar green
property uchar blue
property uchar alpha
element face 32
property list uchar uint vertex_indices
end_header
-0.000089 -0.225497 -0.015980 -0.786722 -0.586824 -0.191590 251 255 0 255
-0.086330 -0.208343 0.285605 -0.786722 -0.586824 -0.191590 251 255 0 255
-0.060106 -0.145036 -0.015980 -0.786722 -0.586824 -0.191590 251 255 18 255
-0.086330 -0.208343 0.285605 0.141335 -0.971246 -0.191586 251 255 0 255
-0.159441 -0.159492 -0.015980 0.141335 -0.971246 -0.191586 251 255 0 255
-0.060106 -0.145036 -0.015980 0.141335 -0.971246 -0.191586 251 255 18 255
-0.159441 -0.159492 -0.015980 -0.971243 0.141352 -0.191590 251 255 0 255
-0.208292 -0.086380 0.285605 -0.971243 0.141352 -0.191590 251 255 0 255
-0.144984 -0.060158 -0.015980 -0.971243 0.141352 -0.191590 251 255 0 255
-0.208292 -0.086380 0.285605 -0.586827 -0.786720 -0.191589 251 255 0 255
-0.225446 -0.000140 -0.015980 -0.586827 -0.786720 -0.191589 251 255 0 255
-0.144984 -0.060158 -0.015980 -0.586827 -0.786720 -0.191589 251 255 0 255
-0.225446 -0.000140 -0.015980 -0.586826 0.786720 -0.191589 251 255 0 255
-0.208292 0.086100 0.285605 -0.586826 0.786720 -0.191589 251 255 0 255
-0.144984 0.059878 -0.015980 -0.586826 0.786720 -0.191589 251 255 0 255
-0.208292 0.086100 0.285605 -0.971243 -0.141352 -0.191590 251 255 0 255
-0.159441 0.159211 -0.015980 -0.971243 -0.141352 -0.191590 251 255 0 255
-0.144984 0.059878 -0.015980 -0.971243 -0.141352 -0.191590 251 255 0 255
-0.159441 0.159211 -0.015980 0.141335 0.971246 -0.191587 251 255 0 255
-0.086330 0.208063 0.285605 0.141335 0.971246 -0.191587 251 255 0 255
-0.060106 0.144756 -0.015980 0.141335 0.971246 -0.191587 251 255 0 255
-0.086330 0.208063 0.285605 -0.786722 0.586823 -0.191590 251 255 0 255
-0.000089 0.225217 -0.015980 -0.786722 0.586823 -0.191590 251 255 5 255
-0.060106 0.144756 -0.015980 -0.786722 0.586823 -0.191590 251 255 0 255
-0.000089 0.225217 -0.015980 0.786708 0.586844 -0.191585 251 255 5 255
0.086151 0.208063 0.285605 0.786708 0.586844 -0.191585 251 255 0 255
0.059930 0.144756 -0.015980 0.786708 0.586844 -0.191585 251 255 0 255
0.086151 0.208063 0.285605 -0.141340 0.971245 -0.191588 251 255 0 255
0.159262 0.159211 -0.015980 -0.141340 0.971245 -0.191588 251 255 0 255
0.059930 0.144756 -0.015980 -0.141340 0.971245 -0.191588 251 255 0 255
0.159262 0.159211 -0.015980 0.971249 -0.141322 -0.191584 251 255 0 255
0.208113 0.086100 0.285605 0.971249 -0.141322 -0.191584 251 255 6 255
0.144808 0.059878 -0.015980 0.971249 -0.141322 -0.191584 251 255 0 255
0.208113 0.086100 0.285605 0.586841 0.786710 -0.191585 251 255 6 255
0.225268 -0.000140 -0.015980 0.586841 0.786710 -0.191585 251 255 0 255
0.144808 0.059878 -0.015980 0.586841 0.786710 -0.191585 251 255 0 255
0.225268 -0.000140 -0.015980 0.586842 -0.786710 -0.191585 251 255 0 255
0.208113 -0.086381 0.285605 0.586842 -0.786710 -0.191585 251 255 0 255
0.144808 -0.060158 -0.015980 0.586842 -0.786710 -0.191585 251 255 0 255
0.208113 -0.086381 0.285605 0.971249 0.141322 -0.191584 251 255 0 255
0.159262 -0.159492 -0.015980 0.971249 0.141322 -0.191584 251 255 0 255
0.144808 -0.060158 -0.015980 0.971249 0.141322 -0.191584 251 255 0 255
0.159262 -0.159492 -0.015980 -0.141339 -0.971245 -0.191587 251 255 0 255
0.086151 -0.208343 0.285605 -0.141339 -0.971245 -0.191587 251 255 0 255
0.059930 -0.145036 -0.015980 -0.141339 -0.971245 -0.191587 251 255 0 255
0.086151 -0.208343 0.285605 0.786708 -0.586844 -0.191584 251 255 0 255
-0.000089 -0.225497 -0.015980 0.786708 -0.586844 -0.191584 251 255 0 255
0.059930 -0.145036 -0.015980 0.786708 -0.586844 -0.191584 251 255 0 255
-0.000089 -0.225497 -0.015980 -0.195091 -0.980785 0.000000 251 255 0 255
-0.000089 -0.225497 0.434734 -0.195091 -0.980785 0.000000 251 255 0 255
-0.086330 -0.208343 0.285605 -0.195091 -0.980785 0.000000 251 255 0 255
-0.086330 -0.208343 0.285605 -0.555570 -0.831470 0.000000 251 255 0 255
-0.159441 -0.159492 0.434734 -0.555570 -0.831470 0.000000 251 255 0 255
-0.159441 -0.159492 -0.015980 -0.555570 -0.831470 0.000000 251 255 0 255
-0.159441 -0.159492 -0.015980 -0.831470 -0.555570 0.000000 251 255 0 255
-0.159441 -0.159492 0.434734 -0.831470 -0.555570 0.000000 251 255 0 255
-0.208292 -0.086380 0.285605 -0.831470 -0.555570 0.000000 251 255 0 255
-0.208292 -0.086380 0.285605 -0.980785 -0.195091 0.000000 251 255 0 255
-0.225446 -0.000140 0.434734 -0.980785 -0.195091 0.000000 251 255 0 255
-0.225446 -0.000140 -0.015980 -0.980785 -0.195091 0.000000 251 255 0 255
-0.225446 -0.000140 -0.015980 -0.980785 0.195090 -0.000000 251 255 0 255
-0.225446 -0.000140 0.434734 -0.980785 0.195090 -0.000000 251 255 0 255
-0.208292 0.086100 0.285605 -0.980785 0.195090 -0.000000 251 255 0 255
-0.208292 0.086100 0.285605 -0.831469 0.555570 -0.000000 251 255 0 255
-0.159441 0.159211 0.434734 -0.831469 0.555570 -0.000000 251 255 0 255
-0.159441 0.159211 -0.015980 -0.831469 0.555570 -0.000000 251 255 0 255
-0.159441 0.159211 -0.015980 -0.555570 0.831469 -0.000000 251 255 0 255
-0.159441 0.159211 0.434734 -0.555570 0.831469 -0.000000 251 255 0 255
-0.086330 0.208063 0.285605 -0.555570 0.831469 -0.000000 251 255 0 255
-0.086330 0.208063 0.285605 -0.195090 0.980785 -0.000000 251 255 0 255
-0.000089 0.225217 0.434733 -0.195090 0.980785 -0.000000 251 255 0 255
-0.000089 0.225217 -0.015980 -0.195090 0.980785 -0.000000 251 255 5 255
-0.000089 0.225217 -0.015980 0.195090 0.980785 -0.000000 251 255 5 255
-0.000089 0.225217 0.434733 0.195090 0.980785 -0.000000 251 255 0 255
0.086151 0.208063 0.285605 0.195090 0.980785 -0.000000 251 255 0 255
0.086151 0.208063 0.285605 0.555570 0.831470 -0.000000 251 255 0 255
0.159262 0.159211 0.434734 0.555570 0.831470 -0.000000 251 255 11 255
0.159262 0.159211 -0.015980 0.555570 0.831470 -0.000000 251 255 0 255
0.159262 0.159211 -0.015980 0.831469 0.555570 -0.000000 251 255 0 255
0.159262 0.159211 0.434734 0.831469 0.555570 -0.000000 251 255 11 255
0.208113 0.086100 0.285605 0.831469 0.555570 -0.000000 251 255 6 255
0.208113 0.086100 0.285605 0.980785 0.195090 -0.000000 251 255 6 255
0.225268 -0.000140 0.434734 0.980785 0.195090 -0.000000 251 255 0 255
0.225268 -0.000140 -0.015980 0.980785 0.195090 -0.000000 251 255 0 255
0.225268 -0.000140 -0.015980 0.980785 -0.195090 0.000000 251 255 0 255
0.225268 -0.000140 0.434734 0.980785 -0.195090 0.000000 251 255 0 255
0.208113 -0.086381 0.285605 0.980785 -0.195090 0.000000 251 255 0 255
0.208113 -0.086381 0.285605 0.831469 -0.555570 0.000000 251 255 0 255
0.159262 -0.159492 0.434734 0.831469 -0.555570 0.000000 251 255 0 255
0.159262 -0.159492 -0.015980 0.831469 -0.555570 0.000000 251 255 0 255
0.159262 -0.159492 -0.015980 0.555570 -0.831470 0.000000 251 255 0 255
0.159262 -0.159492 0.434734 0.555570 -0.831470 0.000000 251 255 0 255
0.086151 -0.208343 0.285605 0.555570 -0.831470 0.000000 251 255 0 255
0.086151 -0.208343 0.285605 0.195090 -0.980785 0.000000 251 255 0 255
-0.000089 -0.225497 0.434734 0.195090 -0.980785 0.000000 251 255 0 255
-0.000089 -0.225497 -0.015980 0.195090 -0.980785 0.000000 251 255 0 255
3 0 1 2
3 3 4 5
3 6 7 8
3 9 10 11
3 12 13 14
3 15 16 17
3 18 19 20
3 21 22 23
3 24 25 26
3 27 28 29
3 30 31 32
3 33 34 35
3 36 37 38
3 39 40 41
3 42 43 44
3 45 46 47
3 48 49 50
3 51 52 53
3 54 55 56
3 57 58 59
3 60 61 62
3 63 64 65
3 66 67 68
3 69 70 71
3 72 73 74
3 75 76 77
3 78 79 80
3 81 82 83
3 84 85 86
3 87 88 89
3 90 91 92
3 93 94 95
