ply
format ascii 1.0
comment Created by Blender 2.91.2 - www.blender.org
element vertex 330
property float x
property float y
property float z
property float nx
property float ny
property float nz
property uchar red
property uchar green
property uchar blue
property uchar alpha
element face 120
property list uchar uint vertex_indices
end_header
0.000000 -1.000000 0.000000 -0.102381 -0.943523 -0.315090 83 82 79 255
-0.425323 -0.850654 -0.309011 -0.102381 -0.943523 -0.315090 83 82 79 255
0.162456 -0.850654 -0.499995 -0.102381 -0.943523 -0.315090 83 82 79 255
-0.723607 -0.447220 -0.525725 -0.700224 -0.661699 -0.268032 83 82 79 255
-0.425323 -0.850654 -0.309011 -0.700224 -0.661699 -0.268032 83 82 79 255
-0.850648 -0.525736 0.000000 -0.700224 -0.661699 -0.268032 83 82 79 255
0.000000 -1.000000 0.000000 -0.000000 0.000000 -1.000000 83 82 79 255
0.525730 -0.850652 0.000000 -0.000000 0.000000 -1.000000 83 82 79 255
0.522807 -0.851482 0.000000 -0.000000 0.000000 -1.000000 83 82 79 255
-0.723607 -0.447220 -0.525725 -0.927916 -0.263604 -0.263598 83 82 79 255
-0.850648 -0.525736 0.000000 -0.927916 -0.263604 -0.263598 83 82 79 255
-1.000000 0.000000 0.000000 -0.927916 -0.263604 -0.263598 83 82 79 255
0.276388 -0.447220 -0.850649 -0.024747 -0.330386 -0.943521 83 82 79 255
-0.262869 -0.525738 -0.809012 -0.024747 -0.330386 -0.943521 83 82 79 255
0.000000 0.000000 -1.000000 -0.024747 -0.330386 -0.943521 83 82 79 255
0.894426 -0.447216 0.000000 0.889697 -0.330385 -0.315095 83 82 79 255
0.688189 -0.525736 -0.499997 0.889697 -0.330385 -0.315095 83 82 79 255
0.951058 0.000000 -0.309013 0.889697 -0.330385 -0.315095 83 82 79 255
-0.723607 -0.447220 -0.525725 -0.890878 -0.016977 -0.453925 83 82 79 255
-1.000000 0.000000 0.000000 -0.890878 -0.016977 -0.453925 83 82 79 255
-0.587786 0.000000 -0.809017 -0.890878 -0.016977 -0.453925 83 82 79 255
0.276388 -0.447220 -0.850649 0.306569 -0.125629 -0.943522 83 82 79 255
0.000000 0.000000 -1.000000 0.306569 -0.125629 -0.943522 83 82 79 255
0.587786 0.000000 -0.809017 0.306569 -0.125629 -0.943522 83 82 79 255
0.894426 -0.447216 0.000000 0.961888 -0.227072 -0.152346 83 82 79 255
0.951058 0.000000 -0.309013 0.961888 -0.227072 -0.152346 83 82 79 255
1.000000 0.000000 0.000000 0.961888 -0.227072 -0.152346 83 82 79 255
-0.276388 0.447220 -0.850649 -0.408946 0.661698 -0.628425 83 82 79 255
-0.688189 0.525736 -0.499997 -0.408946 0.661698 -0.628425 83 82 79 255
-0.162456 0.850654 -0.499995 -0.408946 0.661698 -0.628425 83 82 79 255
0.723607 0.447220 -0.525725 0.471300 0.661699 -0.583122 83 82 79 255
0.262869 0.525738 -0.809012 0.471300 0.661699 -0.583122 83 82 79 255
0.425323 0.850654 -0.309011 0.471300 0.661699 -0.583122 83 82 79 255
0.525730 0.850654 0.000000 0.272191 0.958170 -0.088443 83 82 79 255
0.425323 0.850654 -0.309011 0.272191 0.958170 -0.088443 83 82 79 255
0.000000 1.000000 0.000000 0.272191 0.958170 -0.088443 83 82 79 255
0.537134 0.839250 0.000000 0.689151 0.689150 -0.223926 83 82 79 255
0.425323 0.850654 -0.309011 0.689151 0.689150 -0.223926 83 82 79 255
0.525730 0.850654 0.000000 0.689151 0.689150 -0.223926 83 82 79 255
0.850648 0.525736 0.000000 0.700224 0.661699 -0.268032 83 82 79 255
0.723607 0.447220 -0.525725 0.700224 0.661699 -0.268032 83 82 79 255
0.425323 0.850654 -0.309011 0.700224 0.661699 -0.268032 83 82 79 255
0.425323 0.850654 -0.309011 0.102381 0.943523 -0.315090 83 82 79 255
-0.162456 0.850654 -0.499995 0.102381 0.943523 -0.315090 83 82 79 255
0.000000 1.000000 0.000000 0.102381 0.943523 -0.315090 83 82 79 255
0.425323 0.850654 -0.309011 0.187594 0.794658 -0.577345 83 82 79 255
0.262869 0.525738 -0.809012 0.187594 0.794658 -0.577345 83 82 79 255
-0.162456 0.850654 -0.499995 0.187594 0.794658 -0.577345 83 82 79 255
0.262869 0.525738 -0.809012 -0.038530 0.661699 -0.748779 83 82 79 255
-0.276388 0.447220 -0.850649 -0.038530 0.661699 -0.748779 83 82 79 255
-0.162456 0.850654 -0.499995 -0.038530 0.661699 -0.748779 83 82 79 255
-0.162456 0.850654 -0.499995 -0.268034 0.943523 -0.194737 83 82 79 255
-0.525730 0.850652 0.000000 -0.268034 0.943523 -0.194737 83 82 79 255
0.000000 1.000000 0.000000 -0.268034 0.943523 -0.194737 83 82 79 255
-0.162456 0.850654 -0.499995 -0.491119 0.794657 -0.356821 83 82 79 255
-0.688189 0.525736 -0.499997 -0.491119 0.794657 -0.356821 83 82 79 255
-0.525730 0.850652 0.000000 -0.491119 0.794657 -0.356821 83 82 79 255
-0.688189 0.525736 -0.499997 -0.724042 0.661695 -0.194736 83 82 79 255
-0.880232 0.462747 0.000000 -0.724042 0.661695 -0.194736 83 82 79 255
-0.525730 0.850652 0.000000 -0.724042 0.661695 -0.194736 83 82 79 255
1.000000 0.000000 0.000000 0.950964 0.270152 -0.150616 83 82 79 255
0.951058 0.000000 -0.309013 0.950964 0.270152 -0.150616 83 82 79 255
0.850648 0.525736 0.000000 0.950964 0.270152 -0.150616 83 82 79 255
0.951058 0.000000 -0.309013 0.904989 0.330385 -0.268031 83 82 79 255
0.723607 0.447220 -0.525725 0.904989 0.330385 -0.268031 83 82 79 255
0.850648 0.525736 0.000000 0.904989 0.330385 -0.268031 83 82 79 255
0.587786 0.000000 -0.809017 0.534576 0.330387 -0.777865 83 82 79 255
0.262869 0.525738 -0.809012 0.534576 0.330387 -0.777865 83 82 79 255
0.723607 0.447220 -0.525725 0.534576 0.330387 -0.777865 83 82 79 255
0.587786 0.000000 -0.809017 0.303531 0.187597 -0.934171 83 82 79 255
0.000000 0.000000 -1.000000 0.303531 0.187597 -0.934171 83 82 79 255
0.262869 0.525738 -0.809012 0.303531 0.187597 -0.934171 83 82 79 255
0.000000 0.000000 -1.000000 0.024747 0.330386 -0.943521 83 82 79 255
-0.276388 0.447220 -0.850649 0.024747 0.330386 -0.943521 83 82 79 255
0.262869 0.525738 -0.809012 0.024747 0.330386 -0.943521 83 82 79 255
-0.587786 0.000000 -0.809017 -0.574602 0.330388 -0.748784 83 82 79 255
-0.688189 0.525736 -0.499997 -0.574602 0.330388 -0.748784 83 82 79 255
-0.276388 0.447220 -0.850649 -0.574602 0.330388 -0.748784 83 82 79 255
-0.587786 0.000000 -0.809017 -0.886871 0.096238 -0.451883 83 82 79 255
-1.000000 0.000000 0.000000 -0.886871 0.096238 -0.451883 83 82 79 255
-0.688189 0.525736 -0.499997 -0.886871 0.096238 -0.451883 83 82 79 255
-1.000000 0.000000 0.000000 -0.914145 0.215801 -0.343173 83 82 79 255
-0.894426 0.447216 0.000000 -0.914145 0.215801 -0.343173 83 82 79 255
-0.688189 0.525736 -0.499997 -0.914145 0.215801 -0.343173 83 82 79 255
0.951058 0.000000 -0.309013 0.802609 0.125627 -0.583126 83 82 79 255
0.587786 0.000000 -0.809017 0.802609 0.125627 -0.583126 83 82 79 255
0.723607 0.447220 -0.525725 0.802609 0.125627 -0.583126 83 82 79 255
0.951058 0.000000 -0.309013 0.794656 -0.187595 -0.577348 83 82 79 255
0.688189 -0.525736 -0.499997 0.794656 -0.187595 -0.577348 83 82 79 255
0.587786 0.000000 -0.809017 0.794656 -0.187595 -0.577348 83 82 79 255
0.688189 -0.525736 -0.499997 0.574602 -0.330388 -0.748784 83 82 79 255
0.276388 -0.447220 -0.850649 0.574602 -0.330388 -0.748784 83 82 79 255
0.587786 0.000000 -0.809017 0.574602 -0.330388 -0.748784 83 82 79 255
0.000000 0.000000 -1.000000 -0.306569 0.125629 -0.943522 83 82 79 255
-0.587786 0.000000 -0.809017 -0.306569 0.125629 -0.943522 83 82 79 255
-0.276388 0.447220 -0.850649 -0.306569 0.125629 -0.943522 83 82 79 255
0.000000 0.000000 -1.000000 -0.303531 -0.187597 -0.934171 83 82 79 255
-0.262869 -0.525738 -0.809012 -0.303531 -0.187597 -0.934171 83 82 79 255
-0.587786 0.000000 -0.809017 -0.303531 -0.187597 -0.934171 83 82 79 255
-0.262869 -0.525738 -0.809012 -0.534576 -0.330387 -0.777865 83 82 79 255
-0.723607 -0.447220 -0.525725 -0.534576 -0.330387 -0.777865 83 82 79 255
-0.587786 0.000000 -0.809017 -0.534576 -0.330387 -0.777865 83 82 79 255
0.525730 -0.850652 0.000000 0.724042 -0.661695 -0.194736 83 82 79 255
0.688189 -0.525736 -0.499997 0.724042 -0.661695 -0.194736 83 82 79 255
0.894426 -0.447216 0.000000 0.724042 -0.661695 -0.194736 83 82 79 255
0.525730 -0.850652 0.000000 0.491119 -0.794657 -0.356821 83 82 79 255
0.162456 -0.850654 -0.499995 0.491119 -0.794657 -0.356821 83 82 79 255
0.688189 -0.525736 -0.499997 0.491119 -0.794657 -0.356821 83 82 79 255
0.162456 -0.850654 -0.499995 0.408946 -0.661698 -0.628425 83 82 79 255
0.276388 -0.447220 -0.850649 0.408946 -0.661698 -0.628425 83 82 79 255
0.688189 -0.525736 -0.499997 0.408946 -0.661698 -0.628425 83 82 79 255
-0.850648 -0.525736 0.000000 -0.689151 -0.689150 -0.223926 83 82 79 255
-0.425323 -0.850654 -0.309011 -0.689151 -0.689150 -0.223926 83 82 79 255
-0.525730 -0.850654 0.000000 -0.689151 -0.689150 -0.223926 83 82 79 255
-0.425323 -0.850654 -0.309011 -0.272190 -0.958170 -0.088443 83 82 79 255
0.000000 -1.000000 0.000000 -0.272190 -0.958170 -0.088443 83 82 79 255
-0.525730 -0.850654 0.000000 -0.272190 -0.958170 -0.088443 83 82 79 255
0.162456 -0.850654 -0.499995 0.038530 -0.661699 -0.748779 83 82 79 255
-0.262869 -0.525738 -0.809012 0.038530 -0.661699 -0.748779 83 82 79 255
0.276388 -0.447220 -0.850649 0.038530 -0.661699 -0.748779 83 82 79 255
0.162456 -0.850654 -0.499995 -0.187594 -0.794658 -0.577345 83 82 79 255
-0.425323 -0.850654 -0.309011 -0.187594 -0.794658 -0.577345 83 82 79 255
-0.262869 -0.525738 -0.809012 -0.187594 -0.794658 -0.577345 83 82 79 255
-0.425323 -0.850654 -0.309011 -0.471300 -0.661699 -0.583122 83 82 79 255
-0.723607 -0.447220 -0.525725 -0.471300 -0.661699 -0.583122 83 82 79 255
-0.262869 -0.525738 -0.809012 -0.471300 -0.661699 -0.583122 83 82 79 255
0.719788 -0.355521 0.003183 -0.454755 0.445231 -0.771341 83 82 79 255
0.067402 -0.111434 0.528698 -0.454755 0.445231 -0.771341 141 139 143 255
0.124496 -0.053119 0.528698 -0.454755 0.445231 -0.771341 141 139 143 255
-0.742555 0.384282 0.003183 -0.015200 0.013891 0.999788 83 82 79 255
-0.880232 0.462747 0.000000 -0.015200 0.013891 0.999788 83 82 79 255
-0.894426 0.447216 0.000000 -0.015200 0.013891 0.999788 83 82 79 255
0.442559 0.684050 0.003183 0.012742 0.012742 0.999838 83 82 79 255
0.537134 0.839250 0.000000 0.012742 0.012742 0.999838 83 82 79 255
0.525730 0.850654 0.000000 0.012742 0.012742 0.999838 83 82 79 255
0.000000 -1.000000 0.000000 -0.005720 -0.020135 0.999781 83 82 79 255
-0.440845 -0.716706 0.003183 -0.005720 -0.020135 0.999781 83 82 79 255
-0.525730 -0.850654 0.000000 -0.005720 -0.020135 0.999781 83 82 79 255
0.442559 0.684050 0.003183 -0.853987 0.520123 -0.013334 83 82 79 255
0.346359 0.539572 0.528698 -0.853987 0.520123 -0.013334 107 106 109 255
0.537134 0.839250 0.000000 -0.853987 0.520123 -0.013334 83 82 79 255
-0.436349 0.705294 0.003183 -0.005295 0.018640 0.999812 83 82 79 255
0.000000 1.000000 0.000000 -0.005295 0.018640 0.999812 83 82 79 255
-0.525730 0.850652 0.000000 -0.005295 0.018640 0.999812 83 82 79 255
-0.742555 0.384282 0.003183 -0.495432 -0.868300 0.024548 83 82 79 255
-0.564584 0.297593 0.528698 -0.495432 -0.868300 0.024548 107 106 109 255
-0.880232 0.462747 0.000000 -0.495432 -0.868300 0.024548 83 82 79 255
0.687963 0.421587 0.003183 0.016554 0.004703 0.999852 83 82 79 255
1.000000 0.000000 0.000000 0.016554 0.004703 0.999852 83 82 79 255
0.850648 0.525736 0.000000 0.016554 0.004703 0.999852 83 82 79 255
0.000013 0.000000 -0.545387 -0.511340 0.238633 0.825582 102 255 255 255
0.719788 -0.355521 0.003183 -0.511340 0.238633 0.825582 83 82 79 255
0.827215 -0.020786 -0.027034 -0.511340 0.238633 0.825582 0 95 95 255
0.428925 -0.697526 0.003183 0.005006 -0.017621 0.999832 83 82 79 255
0.000000 -1.000000 0.000000 0.005006 -0.017621 0.999832 83 82 79 255
0.522807 -0.851482 0.000000 0.005006 -0.017621 0.999832 83 82 79 255
-0.850648 -0.525736 0.000000 -0.067459 -0.019164 0.997538 83 82 79 255
-0.873316 -0.020786 0.008168 -0.067459 -0.019164 0.997538 0 95 95 255
-1.000000 0.000000 0.000000 -0.067459 -0.019164 0.997538 83 82 79 255
-0.880232 0.462747 0.000000 -0.618509 0.565249 0.545839 83 82 79 255
-0.336745 0.546900 0.528698 -0.618509 0.565249 0.545839 107 106 109 255
-0.525730 0.850652 0.000000 -0.618509 0.565249 0.545839 83 82 79 255
-0.436349 0.705294 0.003183 0.408324 -0.389492 0.825571 83 82 79 255
-0.742555 0.384282 0.003183 0.408324 -0.389492 0.825571 83 82 79 255
0.000013 0.000000 -0.545387 0.408324 -0.389492 0.825571 102 255 255 255
0.687963 0.421587 0.003183 -0.416465 -0.389397 0.821539 83 82 79 255
0.442559 0.684050 0.003183 -0.416465 -0.389397 0.821539 83 82 79 255
0.000013 0.000000 -0.545387 -0.416465 -0.389397 0.821539 102 255 255 255
0.428925 -0.697526 0.003183 -0.438737 0.373131 0.817486 83 82 79 255
0.719788 -0.355521 0.003183 -0.438737 0.373131 0.817486 83 82 79 255
0.000013 0.000000 -0.545387 -0.438737 0.373131 0.817486 102 255 255 255
-0.719966 -0.434121 0.003183 0.396493 0.391634 0.830311 83 82 79 255
-0.440845 -0.716706 0.003183 0.396493 0.391634 0.830311 83 82 79 255
0.000013 0.000000 -0.545387 0.396493 0.391634 0.830311 102 255 255 255
0.124496 -0.053119 0.528698 -0.000000 0.000000 1.000000 141 139 143 255
0.339030 -0.546531 0.528698 -0.000000 0.000000 1.000000 107 106 109 255
0.575991 -0.287242 0.528698 -0.000000 0.000000 1.000000 104 103 105 255
-0.564584 0.297593 0.528698 0.000000 -0.000000 1.000000 107 106 109 255
-0.102971 0.165054 0.528698 0.000000 -0.000000 1.000000 141 139 143 255
-0.336745 0.546900 0.528698 0.000000 -0.000000 1.000000 107 106 109 255
0.346359 0.539572 0.528698 -0.000000 -0.000000 1.000000 107 106 109 255
0.130566 0.100510 0.528698 -0.000000 -0.000000 1.000000 141 139 143 255
0.547855 0.338076 0.528698 -0.000000 -0.000000 1.000000 107 106 109 255
-0.091116 -0.118056 0.528698 0.000000 0.000000 1.000000 141 139 143 255
-0.147005 -0.071040 0.528698 0.000000 0.000000 1.000000 141 139 143 255
-0.507632 -0.312324 0.528698 0.000000 0.000000 1.000000 107 106 109 255
-0.525730 -0.850654 0.000000 -0.590293 -0.590292 0.550554 83 82 79 255
-0.336745 -0.546533 0.528698 -0.590293 -0.590292 0.550554 107 106 109 255
-0.498692 -0.384585 0.528698 -0.590293 -0.590292 0.550554 106 105 107 255
0.687963 0.421587 0.003183 0.494738 -0.869020 -0.006197 83 82 79 255
0.547855 0.338076 0.528698 0.494738 -0.869020 -0.006197 107 106 109 255
0.130566 0.100510 0.528698 0.494738 -0.869020 -0.006197 141 139 143 255
-0.436349 0.705294 0.003183 0.470461 -0.448762 -0.759789 83 82 79 255
-0.167796 0.097095 0.528698 0.470461 -0.448762 -0.759789 137 135 138 255
-0.742555 0.384282 0.003183 0.470461 -0.448762 -0.759789 83 82 79 255
0.719788 -0.355521 0.003183 0.465012 0.885220 0.012226 83 82 79 255
0.575991 -0.287242 0.528698 0.465012 0.885220 0.012226 104 103 105 255
0.894426 -0.447216 0.000000 0.465012 0.885220 0.012226 83 82 79 255
0.894426 -0.447216 0.000000 0.619278 -0.565952 0.544237 83 82 79 255
0.339030 -0.546531 0.528698 0.619278 -0.565952 0.544237 107 106 109 255
0.525730 -0.850652 0.000000 0.619278 -0.565952 0.544237 83 82 79 255
-0.719966 -0.434121 0.003183 0.439279 0.433896 -0.786619 83 82 79 255
-0.091116 -0.118056 0.528698 0.439279 0.433896 -0.786619 141 139 143 255
-0.440845 -0.716706 0.003183 0.439279 0.433896 -0.786619 83 82 79 255
0.537134 0.839250 0.000000 0.591255 0.591254 0.548485 83 82 79 255
0.547855 0.338076 0.528698 0.591255 0.591254 0.548485 107 106 109 255
0.850648 0.525736 0.000000 0.591255 0.591254 0.548485 83 82 79 255
0.339030 -0.546531 0.528698 -0.853743 -0.520682 0.003563 107 106 109 255
0.428925 -0.697526 0.003183 -0.853743 -0.520682 0.003563 83 82 79 255
0.522807 -0.851482 0.000000 -0.853743 -0.520682 0.003563 83 82 79 255
0.442559 0.684050 0.003183 -0.430389 -0.466047 -0.773024 83 82 79 255
0.130566 0.100510 0.528698 -0.430389 -0.466047 -0.773024 141 139 143 255
0.077332 0.149671 0.528698 -0.430389 -0.466047 -0.773024 141 139 143 255
-0.719966 -0.434121 0.003183 -0.555795 0.830702 0.032038 83 82 79 255
-0.507632 -0.312324 0.528698 -0.555795 0.830702 0.032038 107 106 109 255
-0.147005 -0.071040 0.528698 -0.555795 0.830702 0.032038 141 139 143 255
-0.436349 0.705294 0.003183 0.852852 0.522135 -0.004270 83 82 79 255
-0.336745 0.546900 0.528698 0.852852 0.522135 -0.004270 107 106 109 255
-0.102971 0.165054 0.528698 0.852852 0.522135 -0.004270 141 139 143 255
-0.440845 -0.716706 0.003183 0.844592 -0.535376 0.006061 83 82 79 255
-0.336745 -0.546533 0.528698 0.844592 -0.535376 0.006061 107 106 109 255
-0.525730 -0.850654 0.000000 0.844592 -0.535376 0.006061 83 82 79 255
0.009222 0.846135 -0.000349 0.175496 -0.534471 0.826766 0 95 95 255
-0.436349 0.705294 0.003183 0.175496 -0.534471 0.826766 83 82 79 255
0.000013 0.000000 -0.545387 0.175496 -0.534471 0.826766 102 255 255 255
0.442559 0.684050 0.003183 -0.204404 -0.528519 0.823946 83 82 79 255
0.009222 0.846135 -0.000349 -0.204404 -0.528519 0.823946 0 95 95 255
0.000013 0.000000 -0.545387 -0.204404 -0.528519 0.823946 102 255 255 255
0.827215 -0.020786 -0.027034 -0.158876 0.037506 0.986586 0 95 95 255
0.894426 -0.447216 0.000000 -0.158876 0.037506 0.986586 83 82 79 255
1.000000 0.000000 0.000000 -0.158876 0.037506 0.986586 83 82 79 255
0.827215 -0.020786 -0.027034 -0.521890 -0.220569 0.824003 0 95 95 255
0.687963 0.421587 0.003183 -0.521890 -0.220569 0.824003 83 82 79 255
0.000013 0.000000 -0.545387 -0.521890 -0.220569 0.824003 102 255 255 255
0.006200 -0.857866 0.002043 -0.201682 0.525847 0.826323 0 95 95 255
0.428925 -0.697526 0.003183 -0.201682 0.525847 0.826323 83 82 79 255
0.000013 0.000000 -0.545387 -0.201682 0.525847 0.826323 102 255 255 255
-0.440845 -0.716706 0.003183 0.169786 0.530994 0.830191 83 82 79 255
0.006200 -0.857866 0.002043 0.169786 0.530994 0.830191 0 95 95 255
0.000013 0.000000 -0.545387 0.169786 0.530994 0.830191 102 255 255 255
-0.545571 -0.337707 0.528698 -0.555795 0.830702 0.032038 107 106 109 255
-0.498692 -0.384585 0.528698 -0.000000 0.000000 1.000000 106 105 107 255
-0.545571 -0.337707 0.528698 -0.000000 0.000000 1.000000 107 106 109 255
-0.873316 -0.020786 0.008168 0.523087 0.184034 0.832173 0 95 95 255
-0.719966 -0.434121 0.003183 0.523087 0.184034 0.832173 83 82 79 255
0.000013 0.000000 -0.545387 0.523087 0.184034 0.832173 102 255 255 255
-0.742555 0.384282 0.003183 0.531092 -0.161207 0.831837 83 82 79 255
-0.873316 -0.020786 0.008168 0.531092 -0.161207 0.831837 0 95 95 255
0.000013 0.000000 -0.545387 0.531092 -0.161207 0.831837 102 255 255 255
0.000000 -1.000000 0.000000 0.268034 -0.943523 -0.194737 83 82 79 255
0.162456 -0.850654 -0.499995 0.268034 -0.943523 -0.194737 83 82 79 255
0.525730 -0.850652 0.000000 0.268034 -0.943523 -0.194737 83 82 79 255
0.850648 0.525736 0.000000 0.689151 0.689150 -0.223926 83 82 79 255
-0.894426 0.447216 0.000000 -0.724042 0.661695 -0.194736 83 82 79 255
0.719788 -0.355521 0.003183 -0.476665 0.405387 -0.780034 83 82 79 255
0.428925 -0.697526 0.003183 -0.476665 0.405387 -0.780034 83 82 79 255
0.067402 -0.111434 0.528698 -0.476665 0.405387 -0.780034 141 139 143 255
-0.894426 0.447216 0.000000 -0.019089 0.004506 0.999808 83 82 79 255
-1.000000 0.000000 0.000000 -0.019089 0.004506 0.999808 83 82 79 255
-0.742555 0.384282 0.003183 -0.019089 0.004506 0.999808 83 82 79 255
-1.000000 0.000000 0.000000 -0.059180 0.031382 0.997754 83 82 79 255
-0.873316 -0.020786 0.008168 -0.059180 0.031382 0.997754 0 95 95 255
-0.742555 0.384282 0.003183 -0.059180 0.031382 0.997754 83 82 79 255
0.525730 0.850654 0.000000 -0.000656 -0.002311 0.999997 83 82 79 255
0.000000 1.000000 0.000000 -0.000656 -0.002311 0.999997 83 82 79 255
0.009222 0.846135 -0.000349 -0.000656 -0.002311 0.999997 0 95 95 255
0.009222 0.846135 -0.000349 -0.000847 0.019526 0.999809 0 95 95 255
0.442559 0.684050 0.003183 -0.000847 0.019526 0.999809 83 82 79 255
0.525730 0.850654 0.000000 -0.000847 0.019526 0.999809 83 82 79 255
0.000000 -1.000000 0.000000 -0.001961 -0.014288 0.999896 83 82 79 255
0.006200 -0.857866 0.002043 -0.001961 -0.014288 0.999896 0 95 95 255
-0.440845 -0.716706 0.003183 -0.001961 -0.014288 0.999896 83 82 79 255
0.442559 0.684050 0.003183 -0.823073 0.567910 0.005463 83 82 79 255
0.077332 0.149671 0.528698 -0.823073 0.567910 0.005463 141 139 143 255
0.346359 0.539572 0.528698 -0.823073 0.567910 0.005463 107 106 109 255
-0.436349 0.705294 0.003183 0.008485 -0.001763 0.999962 83 82 79 255
0.009222 0.846135 -0.000349 0.008485 -0.001763 0.999962 0 95 95 255
0.000000 1.000000 0.000000 0.008485 -0.001763 0.999962 83 82 79 255
-0.742555 0.384282 0.003183 -0.450987 -0.892513 0.005502 83 82 79 255
-0.167796 0.097095 0.528698 -0.450987 -0.892513 0.005502 137 135 138 255
-0.564584 0.297593 0.528698 -0.450987 -0.892513 0.005502 107 106 109 255
0.687963 0.421587 0.003183 -0.140520 -0.111434 0.983787 83 82 79 255
0.827215 -0.020786 -0.027034 -0.140520 -0.111434 0.983787 0 95 95 255
1.000000 0.000000 0.000000 -0.140520 -0.111434 0.983787 83 82 79 255
0.428925 -0.697526 0.003183 0.002801 -0.014495 0.999891 83 82 79 255
0.006200 -0.857866 0.002043 0.002801 -0.014495 0.999891 0 95 95 255
0.000000 -1.000000 0.000000 0.002801 -0.014495 0.999891 83 82 79 255
-0.850648 -0.525736 0.000000 -0.012619 -0.016738 0.999780 83 82 79 255
-0.719966 -0.434121 0.003183 -0.012619 -0.016738 0.999780 83 82 79 255
-0.873316 -0.020786 0.008168 -0.012619 -0.016738 0.999780 0 95 95 255
-0.564584 0.297593 0.528698 -0.618509 0.565249 0.545839 107 106 109 255
0.067402 -0.111434 0.528698 -0.000000 0.000000 1.000000 141 139 143 255
-0.167796 0.097095 0.528698 0.000000 -0.000000 1.000000 137 135 138 255
0.077332 0.149671 0.528698 -0.000000 -0.000000 1.000000 141 139 143 255
-0.336745 -0.546533 0.528698 0.000000 0.000000 1.000000 107 106 109 255
-0.545571 -0.337707 0.528698 -0.590293 -0.590292 0.550554 107 106 109 255
-0.850648 -0.525736 0.000000 -0.590293 -0.590292 0.550554 83 82 79 255
0.687963 0.421587 0.003183 0.539277 -0.842069 0.009961 83 82 79 255
0.850648 0.525736 0.000000 0.539277 -0.842069 0.009961 83 82 79 255
0.547855 0.338076 0.528698 0.539277 -0.842069 0.009961 107 106 109 255
-0.102971 0.165054 0.528698 0.470461 -0.448762 -0.759789 141 139 143 255
0.719788 -0.355521 0.003183 0.460313 0.887693 0.010619 83 82 79 255
0.124496 -0.053119 0.528698 0.460313 0.887693 0.010619 141 139 143 255
0.575991 -0.287242 0.528698 0.460313 0.887693 0.010619 104 103 105 255
0.575991 -0.287242 0.528698 0.619278 -0.565952 0.544237 104 103 105 255
-0.719966 -0.434121 0.003183 0.405984 0.482595 -0.776067 83 82 79 255
-0.147005 -0.071040 0.528698 0.405984 0.482595 -0.776067 141 139 143 255
-0.091116 -0.118056 0.528698 0.405984 0.482595 -0.776067 141 139 143 255
0.346359 0.539572 0.528698 0.591255 0.591254 0.548485 107 106 109 255
0.522807 -0.851482 0.000000 0.229141 -0.806592 0.544889 83 82 79 255
0.525730 -0.850652 0.000000 0.229141 -0.806592 0.544889 83 82 79 255
0.339030 -0.546531 0.528698 0.229141 -0.806592 0.544889 107 106 109 255
0.339030 -0.546531 0.528698 -0.848247 -0.529554 0.007053 107 106 109 255
0.067402 -0.111434 0.528698 -0.848247 -0.529554 0.007053 141 139 143 255
0.428925 -0.697526 0.003183 -0.848247 -0.529554 0.007053 83 82 79 255
0.442559 0.684050 0.003183 -0.469455 -0.438943 -0.766120 83 82 79 255
0.687963 0.421587 0.003183 -0.469455 -0.438943 -0.766120 83 82 79 255
0.130566 0.100510 0.528698 -0.469455 -0.438943 -0.766120 141 139 143 255
-0.436349 0.705294 0.003183 0.851871 0.523739 -0.003601 83 82 79 255
-0.525730 0.850652 0.000000 0.851871 0.523739 -0.003601 83 82 79 255
-0.336745 0.546900 0.528698 0.851871 0.523739 -0.003601 107 106 109 255
-0.440845 -0.716706 0.003183 0.867506 -0.497309 -0.010805 83 82 79 255
-0.091116 -0.118056 0.528698 0.867506 -0.497309 -0.010805 141 139 143 255
-0.336745 -0.546533 0.528698 0.867506 -0.497309 -0.010805 107 106 109 255
0.827215 -0.020786 -0.027034 0.055929 0.071948 0.995839 0 95 95 255
0.719788 -0.355521 0.003183 0.055929 0.071948 0.995839 83 82 79 255
0.894426 -0.447216 0.000000 0.055929 0.071948 0.995839 83 82 79 255
-0.719966 -0.434121 0.003183 -0.574229 0.817690 0.040543 83 82 79 255
-0.850648 -0.525736 0.000000 -0.574229 0.817690 0.040543 83 82 79 255
-0.545571 -0.337707 0.528698 -0.574229 0.817690 0.040543 107 106 109 255
3 0 1 2
3 3 4 5
3 6 7 8
3 9 10 11
3 12 13 14
3 15 16 17
3 18 19 20
3 21 22 23
3 24 25 26
3 27 28 29
3 30 31 32
3 33 34 35
3 36 37 38
3 39 40 41
3 42 43 44
3 45 46 47
3 48 49 50
3 51 52 53
3 54 55 56
3 57 58 59
3 60 61 62
3 63 64 65
3 66 67 68
3 69 70 71
3 72 73 74
3 75 76 77
3 78 79 80
3 81 82 83
3 84 85 86
3 87 88 89
3 90 91 92
3 93 94 95
3 96 97 98
3 99 100 101
3 102 103 104
3 105 106 107
3 108 109 110
3 111 112 113
3 114 115 116
3 117 118 119
3 120 121 122
3 123 124 125
3 126 127 128
3 129 130 131
3 132 133 134
3 135 136 137
3 138 139 140
3 141 142 143
3 144 145 146
3 147 148 149
3 150 151 152
3 153 154 155
3 156 157 158
3 159 160 161
3 162 163 164
3 165 166 167
3 168 169 170
3 171 172 173
3 174 175 176
3 177 178 179
3 180 181 182
3 183 184 185
3 186 187 188
3 189 190 191
3 192 193 194
3 195 196 197
3 198 199 200
3 201 202 203
3 204 205 206
3 207 208 209
3 210 211 212
3 213 214 215
3 216 217 218
3 219 220 221
3 222 223 224
3 225 226 227
3 228 229 230
3 231 232 233
3 234 235 236
3 237 238 239
3 213 240 214
3 241 185 242
3 243 244 245
3 246 247 248
3 249 250 251
3 36 252 37
3 57 253 58
3 254 255 256
3 257 258 259
3 260 261 262
3 263 264 265
3 266 267 268
3 269 270 271
3 272 273 274
3 275 276 277
3 278 279 280
3 281 282 283
3 284 285 286
3 287 288 289
3 159 290 160
3 174 291 175
3 177 292 178
3 180 293 181
3 241 294 185
3 294 183 185
3 295 296 188
3 296 186 188
3 297 298 299
3 192 300 193
3 301 302 303
3 198 304 199
3 305 306 307
3 204 308 205
3 309 310 311
3 312 313 314
3 315 316 317
3 318 319 320
3 321 322 323
3 324 325 326
3 327 328 329
