ply
format ascii 1.0
comment Created by Blender 2.91.2 - www.blender.org
element vertex 240
property float x
property float y
property float z
property float nx
property float ny
property float nz
element face 80
property list uchar uint vertex_indices
end_header
-0.012810 -0.221779 0.594905 -0.102381 -0.943523 -0.315090
-0.106041 -0.189042 0.527169 -0.102381 -0.943523 -0.315090
0.022801 -0.189042 0.485305 -0.102381 -0.943523 -0.315090
-0.171425 -0.100609 0.479665 -0.700224 -0.661699 -0.268032
-0.106041 -0.189042 0.527169 -0.700224 -0.661699 -0.268032
-0.199273 -0.117820 0.594905 -0.700224 -0.661699 -0.268032
-0.012810 -0.221779 0.594905 0.268034 -0.943523 -0.194737
0.022801 -0.189042 0.485305 0.268034 -0.943523 -0.194737
0.102431 -0.189042 0.594905 0.268034 -0.943523 -0.194737
-0.012810 -0.221779 0.594905 0.268034 -0.943523 0.194737
0.102431 -0.189042 0.594905 0.268034 -0.943523 0.194737
0.022801 -0.189042 0.704504 0.268034 -0.943523 0.194737
-0.012810 -0.221779 0.594905 -0.102381 -0.943524 0.315090
0.022801 -0.189042 0.704504 -0.102381 -0.943524 0.315090
-0.106041 -0.189042 0.662640 -0.102381 -0.943524 0.315090
-0.171425 -0.100609 0.479665 -0.904989 -0.330385 -0.268031
-0.199273 -0.117820 0.594905 -0.904989 -0.330385 -0.268031
-0.221282 -0.002578 0.527169 -0.904989 -0.330385 -0.268031
0.047775 -0.100609 0.408442 -0.024747 -0.330386 -0.943521
-0.070431 -0.117820 0.417569 -0.024747 -0.330386 -0.943521
-0.012810 -0.002578 0.375704 -0.024747 -0.330386 -0.943521
0.183249 -0.100608 0.594905 0.889697 -0.330385 -0.315095
0.138042 -0.117820 0.485305 0.889697 -0.330385 -0.315095
0.195663 -0.002578 0.527169 0.889697 -0.330385 -0.315095
0.047775 -0.100609 0.781368 0.574602 -0.330388 0.748783
0.138042 -0.117820 0.704504 0.574602 -0.330388 0.748783
0.116033 -0.002578 0.772242 0.574602 -0.330388 0.748783
-0.171425 -0.100609 0.710144 -0.534576 -0.330387 0.777865
-0.070431 -0.117820 0.772241 -0.534576 -0.330387 0.777865
-0.141653 -0.002578 0.772242 -0.534576 -0.330387 0.777865
-0.171425 -0.100609 0.479665 -0.802609 -0.125627 -0.583126
-0.221282 -0.002578 0.527169 -0.802609 -0.125627 -0.583126
-0.141653 -0.002578 0.417568 -0.802609 -0.125627 -0.583126
0.047775 -0.100609 0.408442 0.306569 -0.125629 -0.943522
-0.012810 -0.002578 0.375704 0.306569 -0.125629 -0.943522
0.116033 -0.002578 0.417568 0.306569 -0.125629 -0.943522
0.183249 -0.100608 0.594905 0.992077 -0.125628 0.000000
0.195663 -0.002578 0.527169 0.992077 -0.125628 0.000000
0.195663 -0.002578 0.662641 0.992077 -0.125628 0.000000
0.047775 -0.100609 0.781368 0.306569 -0.125629 0.943522
0.116033 -0.002578 0.772242 0.306569 -0.125629 0.943522
-0.012810 -0.002578 0.814106 0.306569 -0.125629 0.943522
-0.171425 -0.100609 0.710144 -0.802609 -0.125627 0.583126
-0.141653 -0.002578 0.772242 -0.802609 -0.125627 0.583126
-0.221282 -0.002578 0.662641 -0.802609 -0.125627 0.583126
-0.073394 0.095453 0.408442 -0.408946 0.661699 -0.628425
-0.163661 0.112664 0.485305 -0.408946 0.661699 -0.628425
-0.048420 0.183886 0.485305 -0.408946 0.661699 -0.628425
0.145806 0.095453 0.479665 0.471300 0.661699 -0.583122
0.044811 0.112664 0.417569 0.471300 0.661699 -0.583122
0.080421 0.183886 0.527169 0.471300 0.661699 -0.583122
0.145806 0.095453 0.710144 0.700224 0.661699 0.268032
0.173653 0.112664 0.594905 0.700224 0.661699 0.268032
0.080421 0.183886 0.662640 0.700224 0.661699 0.268032
-0.073394 0.095453 0.781368 -0.038530 0.661699 0.748779
0.044811 0.112664 0.772241 -0.038530 0.661699 0.748779
-0.048420 0.183886 0.704504 -0.038530 0.661699 0.748779
-0.208869 0.095452 0.594905 -0.724042 0.661695 0.194736
-0.163661 0.112664 0.704504 -0.724042 0.661695 0.194736
-0.128050 0.183886 0.594905 -0.724042 0.661695 0.194736
-0.128050 0.183886 0.594905 -0.268034 0.943523 0.194737
-0.048420 0.183886 0.704504 -0.268034 0.943523 0.194737
-0.012810 0.216623 0.594905 -0.268034 0.943523 0.194737
-0.128050 0.183886 0.594905 -0.491119 0.794657 0.356821
-0.163661 0.112664 0.704504 -0.491119 0.794657 0.356821
-0.048420 0.183886 0.704504 -0.491119 0.794657 0.356821
-0.163661 0.112664 0.704504 -0.408946 0.661699 0.628425
-0.073394 0.095453 0.781368 -0.408946 0.661699 0.628425
-0.048420 0.183886 0.704504 -0.408946 0.661699 0.628425
-0.048420 0.183886 0.704504 0.102381 0.943523 0.315090
0.080421 0.183886 0.662640 0.102381 0.943523 0.315090
-0.012810 0.216623 0.594905 0.102381 0.943523 0.315090
-0.048420 0.183886 0.704504 0.187594 0.794658 0.577345
0.044811 0.112664 0.772241 0.187594 0.794658 0.577345
0.080421 0.183886 0.662640 0.187594 0.794658 0.577345
0.044811 0.112664 0.772241 0.471300 0.661699 0.583122
0.145806 0.095453 0.710144 0.471300 0.661699 0.583122
0.080421 0.183886 0.662640 0.471300 0.661699 0.583122
0.080421 0.183886 0.662640 0.331304 0.943524 -0.000000
0.080421 0.183886 0.527169 0.331304 0.943524 -0.000000
-0.012810 0.216623 0.594905 0.331304 0.943524 -0.000000
0.080421 0.183886 0.662640 0.607061 0.794656 0.000000
0.173653 0.112664 0.594905 0.607061 0.794656 0.000000
0.080421 0.183886 0.527169 0.607061 0.794656 0.000000
0.173653 0.112664 0.594905 0.700224 0.661699 -0.268032
0.145806 0.095453 0.479665 0.700224 0.661699 -0.268032
0.080421 0.183886 0.527169 0.700224 0.661699 -0.268032
0.080421 0.183886 0.527169 0.102381 0.943523 -0.315090
-0.048420 0.183886 0.485305 0.102381 0.943523 -0.315090
-0.012810 0.216623 0.594905 0.102381 0.943523 -0.315090
0.080421 0.183886 0.527169 0.187594 0.794658 -0.577345
0.044811 0.112664 0.417569 0.187594 0.794658 -0.577345
-0.048420 0.183886 0.485305 0.187594 0.794658 -0.577345
0.044811 0.112664 0.417569 -0.038530 0.661699 -0.748779
-0.073394 0.095453 0.408442 -0.038530 0.661699 -0.748779
-0.048420 0.183886 0.485305 -0.038530 0.661699 -0.748779
-0.048420 0.183886 0.485305 -0.268034 0.943523 -0.194737
-0.128050 0.183886 0.594905 -0.268034 0.943523 -0.194737
-0.012810 0.216623 0.594905 -0.268034 0.943523 -0.194737
-0.048420 0.183886 0.485305 -0.491119 0.794657 -0.356821
-0.163661 0.112664 0.485305 -0.491119 0.794657 -0.356821
-0.128050 0.183886 0.594905 -0.491119 0.794657 -0.356821
-0.163661 0.112664 0.485305 -0.724042 0.661695 -0.194736
-0.208869 0.095452 0.594905 -0.724042 0.661695 -0.194736
-0.128050 0.183886 0.594905 -0.724042 0.661695 -0.194736
-0.221282 -0.002578 0.662641 -0.889697 0.330385 0.315095
-0.163661 0.112664 0.704504 -0.889697 0.330385 0.315095
-0.208869 0.095452 0.594905 -0.889697 0.330385 0.315095
-0.221282 -0.002578 0.662641 -0.794656 0.187595 0.577348
-0.141653 -0.002578 0.772242 -0.794656 0.187595 0.577348
-0.163661 0.112664 0.704504 -0.794656 0.187595 0.577348
-0.141653 -0.002578 0.772242 -0.574602 0.330388 0.748783
-0.073394 0.095453 0.781368 -0.574602 0.330388 0.748783
-0.163661 0.112664 0.704504 -0.574602 0.330388 0.748783
-0.012810 -0.002578 0.814106 0.024747 0.330386 0.943521
0.044811 0.112664 0.772241 0.024747 0.330386 0.943521
-0.073394 0.095453 0.781368 0.024747 0.330386 0.943521
-0.012810 -0.002578 0.814106 0.303531 0.187597 0.934171
0.116033 -0.002578 0.772242 0.303531 0.187597 0.934171
0.044811 0.112664 0.772241 0.303531 0.187597 0.934171
0.116033 -0.002578 0.772242 0.534576 0.330387 0.777865
0.145806 0.095453 0.710144 0.534576 0.330387 0.777865
0.044811 0.112664 0.772241 0.534576 0.330387 0.777865
0.195663 -0.002578 0.662641 0.904989 0.330385 0.268031
0.173653 0.112664 0.594905 0.904989 0.330385 0.268031
0.145806 0.095453 0.710144 0.904989 0.330385 0.268031
0.195663 -0.002578 0.662641 0.982246 0.187599 -0.000000
0.195663 -0.002578 0.527169 0.982246 0.187599 -0.000000
0.173653 0.112664 0.594905 0.982246 0.187599 -0.000000
0.195663 -0.002578 0.527169 0.904989 0.330385 -0.268031
0.145806 0.095453 0.479665 0.904989 0.330385 -0.268031
0.173653 0.112664 0.594905 0.904989 0.330385 -0.268031
0.116033 -0.002578 0.417568 0.534576 0.330386 -0.777865
0.044811 0.112664 0.417569 0.534576 0.330386 -0.777865
0.145806 0.095453 0.479665 0.534576 0.330386 -0.777865
0.116033 -0.002578 0.417568 0.303531 0.187597 -0.934171
-0.012810 -0.002578 0.375704 0.303531 0.187597 -0.934171
0.044811 0.112664 0.417569 0.303531 0.187597 -0.934171
-0.012810 -0.002578 0.375704 0.024747 0.330386 -0.943521
-0.073394 0.095453 0.408442 0.024747 0.330386 -0.943521
0.044811 0.112664 0.417569 0.024747 0.330386 -0.943521
-0.141653 -0.002578 0.417568 -0.574602 0.330388 -0.748783
-0.163661 0.112664 0.485305 -0.574602 0.330388 -0.748783
-0.073394 0.095453 0.408442 -0.574602 0.330388 -0.748783
-0.141653 -0.002578 0.417568 -0.794656 0.187595 -0.577348
-0.221282 -0.002578 0.527169 -0.794656 0.187595 -0.577348
-0.163661 0.112664 0.485305 -0.794656 0.187595 -0.577348
-0.221282 -0.002578 0.527169 -0.889697 0.330385 -0.315095
-0.208869 0.095452 0.594905 -0.889697 0.330385 -0.315095
-0.163661 0.112664 0.485305 -0.889697 0.330385 -0.315095
-0.141653 -0.002578 0.772242 -0.306569 0.125629 0.943522
-0.012810 -0.002578 0.814106 -0.306569 0.125629 0.943522
-0.073394 0.095453 0.781368 -0.306569 0.125629 0.943522
-0.141653 -0.002578 0.772242 -0.303531 -0.187597 0.934171
-0.070431 -0.117820 0.772241 -0.303531 -0.187597 0.934171
-0.012810 -0.002578 0.814106 -0.303531 -0.187597 0.934171
-0.070431 -0.117820 0.772241 -0.024747 -0.330386 0.943521
0.047775 -0.100609 0.781368 -0.024747 -0.330386 0.943521
-0.012810 -0.002578 0.814106 -0.024747 -0.330386 0.943521
0.116033 -0.002578 0.772242 0.802609 0.125627 0.583126
0.195663 -0.002578 0.662641 0.802609 0.125627 0.583126
0.145806 0.095453 0.710144 0.802609 0.125627 0.583126
0.116033 -0.002578 0.772242 0.794656 -0.187595 0.577348
0.138042 -0.117820 0.704504 0.794656 -0.187595 0.577348
0.195663 -0.002578 0.662641 0.794656 -0.187595 0.577348
0.138042 -0.117820 0.704504 0.889697 -0.330385 0.315095
0.183249 -0.100608 0.594905 0.889697 -0.330385 0.315095
0.195663 -0.002578 0.662641 0.889697 -0.330385 0.315095
0.195663 -0.002578 0.527169 0.802609 0.125627 -0.583126
0.116033 -0.002578 0.417568 0.802609 0.125627 -0.583126
0.145806 0.095453 0.479665 0.802609 0.125627 -0.583126
0.195663 -0.002578 0.527169 0.794656 -0.187595 -0.577348
0.138042 -0.117820 0.485305 0.794656 -0.187595 -0.577348
0.116033 -0.002578 0.417568 0.794656 -0.187595 -0.577348
0.138042 -0.117820 0.485305 0.574602 -0.330388 -0.748783
0.047775 -0.100609 0.408442 0.574602 -0.330388 -0.748783
0.116033 -0.002578 0.417568 0.574602 -0.330388 -0.748783
-0.012810 -0.002578 0.375704 -0.306569 0.125629 -0.943522
-0.141653 -0.002578 0.417568 -0.306569 0.125629 -0.943522
-0.073394 0.095453 0.408442 -0.306569 0.125629 -0.943522
-0.012810 -0.002578 0.375704 -0.303531 -0.187597 -0.934171
-0.070431 -0.117820 0.417569 -0.303531 -0.187597 -0.934171
-0.141653 -0.002578 0.417568 -0.303531 -0.187597 -0.934171
-0.070431 -0.117820 0.417569 -0.534576 -0.330387 -0.777865
-0.171425 -0.100609 0.479665 -0.534576 -0.330387 -0.777865
-0.141653 -0.002578 0.417568 -0.534576 -0.330387 -0.777865
-0.221282 -0.002578 0.527169 -0.992077 0.125628 0.000000
-0.221282 -0.002578 0.662641 -0.992077 0.125628 0.000000
-0.208869 0.095452 0.594905 -0.992077 0.125628 0.000000
-0.221282 -0.002578 0.527169 -0.982246 -0.187599 0.000000
-0.199273 -0.117820 0.594905 -0.982246 -0.187599 0.000000
-0.221282 -0.002578 0.662641 -0.982246 -0.187599 0.000000
-0.199273 -0.117820 0.594905 -0.904989 -0.330385 0.268031
-0.171425 -0.100609 0.710144 -0.904989 -0.330385 0.268031
-0.221282 -0.002578 0.662641 -0.904989 -0.330385 0.268031
-0.106041 -0.189042 0.662640 -0.471300 -0.661699 0.583122
-0.070431 -0.117820 0.772241 -0.471300 -0.661699 0.583122
-0.171425 -0.100609 0.710144 -0.471300 -0.661699 0.583122
-0.106041 -0.189042 0.662640 -0.187594 -0.794658 0.577345
0.022801 -0.189042 0.704504 -0.187594 -0.794658 0.577345
-0.070431 -0.117820 0.772241 -0.187594 -0.794658 0.577345
0.022801 -0.189042 0.704504 0.038530 -0.661699 0.748779
0.047775 -0.100609 0.781368 0.038530 -0.661699 0.748779
-0.070431 -0.117820 0.772241 0.038530 -0.661699 0.748779
0.022801 -0.189042 0.704504 0.408946 -0.661699 0.628425
0.138042 -0.117820 0.704504 0.408946 -0.661699 0.628425
0.047775 -0.100609 0.781368 0.408946 -0.661699 0.628425
0.022801 -0.189042 0.704504 0.491119 -0.794657 0.356821
0.102431 -0.189042 0.594905 0.491119 -0.794657 0.356821
0.138042 -0.117820 0.704504 0.491119 -0.794657 0.356821
0.102431 -0.189042 0.594905 0.724042 -0.661695 0.194736
0.183249 -0.100608 0.594905 0.724042 -0.661695 0.194736
0.138042 -0.117820 0.704504 0.724042 -0.661695 0.194736
0.102431 -0.189042 0.594905 0.724042 -0.661695 -0.194736
0.138042 -0.117820 0.485305 0.724042 -0.661695 -0.194736
0.183249 -0.100608 0.594905 0.724042 -0.661695 -0.194736
0.102431 -0.189042 0.594905 0.491119 -0.794657 -0.356821
0.022801 -0.189042 0.485305 0.491119 -0.794657 -0.356821
0.138042 -0.117820 0.485305 0.491119 -0.794657 -0.356821
0.022801 -0.189042 0.485305 0.408946 -0.661699 -0.628425
0.047775 -0.100609 0.408442 0.408946 -0.661699 -0.628425
0.138042 -0.117820 0.485305 0.408946 -0.661699 -0.628425
-0.199273 -0.117820 0.594905 -0.700224 -0.661699 0.268032
-0.106041 -0.189042 0.662640 -0.700224 -0.661699 0.268032
-0.171425 -0.100609 0.710144 -0.700224 -0.661699 0.268032
-0.199273 -0.117820 0.594905 -0.607061 -0.794656 -0.000000
-0.106041 -0.189042 0.527169 -0.607061 -0.794656 -0.000000
-0.106041 -0.189042 0.662640 -0.607061 -0.794656 -0.000000
-0.106041 -0.189042 0.527169 -0.331304 -0.943524 0.000000
-0.012810 -0.221779 0.594905 -0.331304 -0.943524 0.000000
-0.106041 -0.189042 0.662640 -0.331304 -0.943524 0.000000
0.022801 -0.189042 0.485305 0.038530 -0.661699 -0.748779
-0.070431 -0.117820 0.417569 0.038530 -0.661699 -0.748779
0.047775 -0.100609 0.408442 0.038530 -0.661699 -0.748779
0.022801 -0.189042 0.485305 -0.187594 -0.794658 -0.577345
-0.106041 -0.189042 0.527169 -0.187594 -0.794658 -0.577345
-0.070431 -0.117820 0.417569 -0.187594 -0.794658 -0.577345
-0.106041 -0.189042 0.527169 -0.471300 -0.661699 -0.583122
-0.171425 -0.100609 0.479665 -0.471300 -0.661699 -0.583122
-0.070431 -0.117820 0.417569 -0.471300 -0.661699 -0.583122
3 0 1 2
3 3 4 5
3 6 7 8
3 9 10 11
3 12 13 14
3 15 16 17
3 18 19 20
3 21 22 23
3 24 25 26
3 27 28 29
3 30 31 32
3 33 34 35
3 36 37 38
3 39 40 41
3 42 43 44
3 45 46 47
3 48 49 50
3 51 52 53
3 54 55 56
3 57 58 59
3 60 61 62
3 63 64 65
3 66 67 68
3 69 70 71
3 72 73 74
3 75 76 77
3 78 79 80
3 81 82 83
3 84 85 86
3 87 88 89
3 90 91 92
3 93 94 95
3 96 97 98
3 99 100 101
3 102 103 104
3 105 106 107
3 108 109 110
3 111 112 113
3 114 115 116
3 117 118 119
3 120 121 122
3 123 124 125
3 126 127 128
3 129 130 131
3 132 133 134
3 135 136 137
3 138 139 140
3 141 142 143
3 144 145 146
3 147 148 149
3 150 151 152
3 153 154 155
3 156 157 158
3 159 160 161
3 162 163 164
3 165 166 167
3 168 169 170
3 171 172 173
3 174 175 176
3 177 178 179
3 180 181 182
3 183 184 185
3 186 187 188
3 189 190 191
3 192 193 194
3 195 196 197
3 198 199 200
3 201 202 203
3 204 205 206
3 207 208 209
3 210 211 212
3 213 214 215
3 216 217 218
3 219 220 221
3 222 223 224
3 225 226 227
3 228 229 230
3 231 232 233
3 234 235 236
3 237 238 239
