ply
format ascii 1.0
comment Created by Blender 2.91.2 - www.blender.org
element vertex 96
property float x
property float y
property float z
property float nx
property float ny
property float nz
element face 44
property list uchar uint vertex_indices
end_header
-0.229759 0.229759 -0.322640 0.000000 0.000000 -1.000000
0.229759 -0.229759 -0.322640 0.000000 0.000000 -1.000000
-0.229759 -0.229759 -0.322640 0.000000 0.000000 -1.000000
-0.322640 0.229759 0.229759 -1.000000 0.000000 0.000000
-0.322640 -0.229759 -0.229759 -1.000000 0.000000 0.000000
-0.322640 -0.229759 0.229759 -1.000000 0.000000 0.000000
0.229759 0.322640 0.229759 -0.000000 1.000000 0.000000
-0.229759 0.322640 -0.229759 -0.000000 1.000000 0.000000
-0.229759 0.322640 0.229759 -0.000000 1.000000 0.000000
0.322640 0.229759 -0.229759 1.000000 -0.000000 0.000000
0.322640 -0.229759 0.229759 1.000000 -0.000000 0.000000
0.322640 -0.229759 -0.229759 1.000000 -0.000000 0.000000
0.229759 0.229759 0.322640 0.000000 -0.000000 1.000000
-0.229759 -0.229759 0.322640 0.000000 -0.000000 1.000000
0.229759 -0.229759 0.322640 0.000000 -0.000000 1.000000
0.229759 -0.322640 -0.229759 0.577350 -0.577350 -0.577350
0.229759 -0.229759 -0.322640 0.577350 -0.577350 -0.577350
0.322640 -0.229759 -0.229759 0.577350 -0.577350 -0.577350
0.229759 0.229759 -0.322640 0.577350 0.577350 -0.577350
0.229759 0.322640 -0.229759 0.577350 0.577350 -0.577350
0.322640 0.229759 -0.229759 0.577350 0.577350 -0.577350
0.229759 -0.322640 0.229759 0.577350 -0.577350 0.577350
0.322640 -0.229759 0.229759 0.577350 -0.577350 0.577350
0.229759 -0.229759 0.322640 0.577350 -0.577350 0.577350
0.229759 0.322640 0.229759 0.577350 0.577350 0.577350
0.229759 0.229759 0.322640 0.577350 0.577350 0.577350
0.322640 0.229759 0.229759 0.577350 0.577350 0.577350
-0.229759 -0.322640 -0.229759 -0.577350 -0.577350 -0.577350
-0.322640 -0.229759 -0.229759 -0.577350 -0.577350 -0.577350
-0.229759 -0.229759 -0.322640 -0.577350 -0.577350 -0.577350
-0.229759 0.322640 -0.229759 -0.577350 0.577350 -0.577350
-0.229759 0.229759 -0.322640 -0.577350 0.577350 -0.577350
-0.322640 0.229759 -0.229759 -0.577350 0.577350 -0.577350
-0.229759 -0.322640 0.229759 -0.577350 -0.577350 0.577350
-0.229759 -0.229759 0.322640 -0.577350 -0.577350 0.577350
-0.322640 -0.229759 0.229759 -0.577350 -0.577350 0.577350
-0.229759 0.322640 0.229759 -0.577350 0.577350 0.577350
-0.322640 0.229759 0.229759 -0.577350 0.577350 0.577350
-0.229759 0.229759 0.322640 -0.577350 0.577350 0.577350
0.229759 -0.322640 -0.229759 0.707107 -0.707107 0.000000
0.322640 -0.229759 0.229759 0.707107 -0.707107 0.000000
0.229759 -0.322640 0.229759 0.707107 -0.707107 0.000000
0.229759 0.229759 -0.322640 0.707107 0.000000 -0.707107
0.322640 -0.229759 -0.229759 0.707107 0.000000 -0.707107
0.229759 -0.229759 -0.322640 0.707107 0.000000 -0.707107
0.229759 0.322640 0.229759 0.707107 0.707107 0.000000
0.322640 0.229759 -0.229759 0.707107 0.707107 0.000000
0.229759 0.322640 -0.229759 0.707107 0.707107 0.000000
0.229759 -0.229759 0.322640 0.707107 0.000000 0.707107
0.322640 0.229759 0.229759 0.707107 0.000000 0.707107
0.229759 0.229759 0.322640 0.707107 0.000000 0.707107
0.229759 -0.322640 0.229759 0.000000 -0.707107 0.707107
-0.229759 -0.229759 0.322640 0.000000 -0.707107 0.707107
-0.229759 -0.322640 0.229759 0.000000 -0.707107 0.707107
-0.229759 0.322640 0.229759 0.000000 0.707107 0.707107
0.229759 0.229759 0.322640 0.000000 0.707107 0.707107
0.229759 0.322640 0.229759 0.000000 0.707107 0.707107
-0.322640 -0.229759 0.229759 -0.707107 0.000000 0.707107
-0.229759 0.229759 0.322640 -0.707107 0.000000 0.707107
-0.322640 0.229759 0.229759 -0.707107 0.000000 0.707107
-0.229759 -0.322640 0.229759 -0.707107 -0.707107 0.000000
-0.322640 -0.229759 -0.229759 -0.707107 -0.707107 0.000000
-0.229759 -0.322640 -0.229759 -0.707107 -0.707107 0.000000
-0.229759 0.322640 -0.229759 -0.707107 0.707107 0.000000
-0.322640 0.229759 0.229759 -0.707107 0.707107 0.000000
-0.229759 0.322640 0.229759 -0.707107 0.707107 0.000000
-0.229759 -0.229759 -0.322640 -0.707107 0.000000 -0.707107
-0.322640 0.229759 -0.229759 -0.707107 0.000000 -0.707107
-0.229759 0.229759 -0.322640 -0.707107 0.000000 -0.707107
-0.229759 -0.322640 -0.229759 0.000000 -0.707107 -0.707107
0.229759 -0.229759 -0.322640 0.000000 -0.707107 -0.707107
0.229759 -0.322640 -0.229759 0.000000 -0.707107 -0.707107
0.229759 0.322640 -0.229759 0.000000 0.707107 -0.707107
-0.229759 0.229759 -0.322640 0.000000 0.707107 -0.707107
-0.229759 0.322640 -0.229759 0.000000 0.707107 -0.707107
-0.229759 -0.322640 0.229759 -0.000000 -1.000000 -0.000000
0.229759 -0.322640 -0.229759 -0.000000 -1.000000 -0.000000
0.229759 -0.322640 0.229759 -0.000000 -1.000000 -0.000000
0.229759 0.229759 -0.322640 0.000000 0.000000 -1.000000
-0.322640 0.229759 -0.229759 -1.000000 0.000000 0.000000
0.229759 0.322640 -0.229759 0.000000 1.000000 0.000000
0.322640 0.229759 0.229759 1.000000 -0.000000 0.000000
-0.229759 0.229759 0.322640 0.000000 0.000000 1.000000
0.322640 -0.229759 -0.229759 0.707107 -0.707107 0.000000
0.322640 0.229759 -0.229759 0.707107 0.000000 -0.707107
0.322640 0.229759 0.229759 0.707107 0.707107 -0.000000
0.322640 -0.229759 0.229759 0.707107 0.000000 0.707107
0.229759 -0.229759 0.322640 0.000000 -0.707107 0.707107
-0.229759 0.229759 0.322640 0.000000 0.707107 0.707107
-0.229759 -0.229759 0.322640 -0.707107 0.000000 0.707107
-0.322640 -0.229759 0.229759 -0.707107 -0.707107 0.000000
-0.322640 0.229759 -0.229759 -0.707107 0.707107 0.000000
-0.322640 -0.229759 -0.229759 -0.707107 -0.000000 -0.707107
-0.229759 -0.229759 -0.322640 -0.000000 -0.707107 -0.707107
0.229759 0.229759 -0.322640 0.000000 0.707107 -0.707107
-0.229759 -0.322640 -0.229759 0.000000 -1.000000 0.000000
3 0 1 2
3 3 4 5
3 6 7 8
3 9 10 11
3 12 13 14
3 15 16 17
3 18 19 20
3 21 22 23
3 24 25 26
3 27 28 29
3 30 31 32
3 33 34 35
3 36 37 38
3 39 40 41
3 42 43 44
3 45 46 47
3 48 49 50
3 51 52 53
3 54 55 56
3 57 58 59
3 60 61 62
3 63 64 65
3 66 67 68
3 69 70 71
3 72 73 74
3 75 76 77
3 0 78 1
3 3 79 4
3 6 80 7
3 9 81 10
3 12 82 13
3 39 83 40
3 42 84 43
3 45 85 46
3 48 86 49
3 51 87 52
3 54 88 55
3 57 89 58
3 60 90 61
3 63 91 64
3 66 92 67
3 69 93 70
3 72 94 73
3 75 95 76
