ply
format ascii 1.0
comment Created by Blender 2.91.2 - www.blender.org
element vertex 310
property float x
property float y
property float z
property float nx
property float ny
property float nz
property uchar red
property uchar green
property uchar blue
property uchar alpha
element face 140
property list uchar uint vertex_indices
end_header
0.156149 0.099510 0.219272 0.707107 0.000000 0.707107 210 238 64 255
0.219272 0.156149 0.156149 0.707107 0.000000 0.707107 252 242 27 255
0.156149 0.156149 0.219272 0.707107 0.000000 0.707107 253 242 21 255
0.156149 -0.098485 -0.219272 0.707107 0.000000 -0.707107 47 220 211 255
0.219272 -0.156149 -0.156149 0.707107 0.000000 -0.707107 3 215 255 255
0.156149 -0.156149 -0.219272 0.707107 0.000000 -0.707107 0 215 255 255
0.156149 0.219272 0.156149 -0.000000 1.000000 0.000000 255 242 0 255
-0.156149 0.219272 -0.156149 -0.000000 1.000000 0.000000 255 242 0 255
-0.156149 0.219272 0.156149 -0.000000 1.000000 0.000000 255 242 0 255
-0.219272 0.099510 0.156149 -0.707107 0.000000 0.707107 209 238 55 255
-0.156149 0.156149 0.219272 -0.707107 0.000000 0.707107 255 242 0 255
-0.219272 0.156149 0.156149 -0.707107 0.000000 0.707107 255 242 11 255
-0.156149 0.099510 -0.219272 -0.707107 0.000000 -0.707107 209 238 47 255
-0.219272 0.156149 -0.156149 -0.707107 0.000000 -0.707107 255 242 6 255
-0.156149 0.156149 -0.219272 -0.707107 0.000000 -0.707107 255 242 1 255
0.156149 -0.219272 -0.156149 0.577350 -0.577350 -0.577350 0 215 255 255
0.156149 -0.156149 -0.219272 0.577350 -0.577350 -0.577350 0 215 255 255
0.219272 -0.156149 -0.156149 0.577350 -0.577350 -0.577350 3 215 255 255
0.156149 0.156149 -0.219272 0.577350 0.577350 -0.577350 254 242 15 255
0.156149 0.219272 -0.156149 0.577350 0.577350 -0.577350 255 242 0 255
0.219272 0.156149 -0.156149 0.577350 0.577350 -0.577350 251 243 31 255
0.156149 -0.219272 0.156149 0.577350 -0.577350 0.577350 0 215 255 255
0.219272 -0.156149 0.156149 0.577350 -0.577350 0.577350 0 215 255 255
0.156149 -0.156149 0.219272 0.577350 -0.577350 0.577350 14 216 255 255
0.156149 0.219272 0.156149 0.577350 0.577350 0.577350 255 242 0 255
0.156149 0.156149 0.219272 0.577350 0.577350 0.577350 253 242 21 255
0.219272 0.156149 0.156149 0.577350 0.577350 0.577350 252 242 27 255
-0.156149 -0.219272 -0.156149 -0.577350 -0.577350 -0.577350 0 215 255 255
-0.219272 -0.156149 -0.156149 -0.577350 -0.577350 -0.577350 0 215 255 255
-0.156149 -0.156149 -0.219272 -0.577350 -0.577350 -0.577350 1 215 255 255
-0.156149 0.219272 -0.156149 -0.577350 0.577350 -0.577350 255 242 0 255
-0.156149 0.156149 -0.219272 -0.577350 0.577350 -0.577350 255 242 1 255
-0.219272 0.156149 -0.156149 -0.577350 0.577350 -0.577350 255 242 6 255
-0.156149 -0.219272 0.156149 -0.577350 -0.577350 0.577350 0 215 255 255
-0.156149 -0.156149 0.219272 -0.577350 -0.577350 0.577350 0 215 255 255
-0.219272 -0.156149 0.156149 -0.577350 -0.577350 0.577350 0 215 255 255
-0.156149 0.219272 0.156149 -0.577350 0.577350 0.577350 255 242 0 255
-0.219272 0.156149 0.156149 -0.577350 0.577350 0.577350 255 242 11 255
-0.156149 0.156149 0.219272 -0.577350 0.577350 0.577350 255 242 0 255
0.156149 -0.219272 -0.156149 0.707107 -0.707107 0.000000 0 215 255 255
0.219272 -0.156149 0.156149 0.707107 -0.707107 0.000000 0 215 255 255
0.156149 -0.219272 0.156149 0.707107 -0.707107 0.000000 0 215 255 255
-0.143214 0.076600 -0.201109 0.000000 -0.990667 -0.136301 181 235 76 255
0.088869 0.066100 -0.124796 0.000000 -0.990667 -0.136301 127 229 135 255
-0.088869 0.066100 -0.124796 0.000000 -0.990667 -0.136301 128 229 128 255
0.156149 0.219272 0.156149 0.707107 0.707107 0.000000 255 242 0 255
0.219272 0.156149 -0.156149 0.707107 0.707107 0.000000 251 243 31 255
0.156149 0.219272 -0.156149 0.707107 0.707107 0.000000 255 242 0 255
0.088869 -0.067076 0.124793 0.000000 0.993292 0.115629 104 226 168 255
-0.143187 -0.075956 0.201070 0.000000 0.993292 0.115629 70 223 186 255
0.143187 -0.075956 0.201070 0.000000 0.993292 0.115629 80 224 191 255
0.156149 -0.219272 0.156149 0.000000 -0.707107 0.707107 0 215 255 255
-0.156149 -0.156149 0.219272 0.000000 -0.707107 0.707107 0 215 255 255
-0.156149 -0.219272 0.156149 0.000000 -0.707107 0.707107 0 215 255 255
-0.156149 0.219272 0.156149 0.000000 0.707107 0.707107 255 242 0 255
0.156149 0.156149 0.219272 0.000000 0.707107 0.707107 253 242 21 255
0.156149 0.219272 0.156149 0.000000 0.707107 0.707107 255 242 0 255
-0.124795 -0.067076 0.088868 -0.115630 0.993292 -0.000000 96 226 164 255
-0.201070 -0.075956 -0.143187 -0.115630 0.993292 -0.000000 70 223 187 255
-0.201070 -0.075956 0.143187 -0.115630 0.993292 -0.000000 70 223 188 255
-0.156149 -0.219272 0.156149 -0.707107 -0.707107 0.000000 0 215 255 255
-0.219272 -0.156149 -0.156149 -0.707107 -0.707107 0.000000 0 215 255 255
-0.156149 -0.219272 -0.156149 -0.707107 -0.707107 0.000000 0 215 255 255
-0.156149 0.219272 -0.156149 -0.707107 0.707107 0.000000 255 242 0 255
-0.219272 0.156149 0.156149 -0.707107 0.707107 0.000000 255 242 11 255
-0.156149 0.219272 0.156149 -0.707107 0.707107 0.000000 255 242 0 255
-0.088869 -0.067076 -0.124796 0.000000 0.993292 -0.115632 97 226 160 255
0.143187 -0.075956 -0.201071 0.000000 0.993292 -0.115632 70 223 189 255
-0.143187 -0.075956 -0.201071 0.000000 0.993292 -0.115632 71 223 186 255
-0.156149 -0.219272 -0.156149 0.000000 -0.707107 -0.707107 0 215 255 255
0.156149 -0.156149 -0.219272 0.000000 -0.707107 -0.707107 0 215 255 255
0.156149 -0.219272 -0.156149 0.000000 -0.707107 -0.707107 0 215 255 255
0.156149 0.219272 -0.156149 0.000000 0.707107 -0.707107 255 242 0 255
-0.156149 0.156149 -0.219272 0.000000 0.707107 -0.707107 255 242 1 255
-0.156149 0.219272 -0.156149 0.000000 0.707107 -0.707107 255 242 0 255
-0.156149 -0.219272 0.156149 -0.000000 -1.000000 -0.000000 0 215 255 255
0.156149 -0.219272 -0.156149 -0.000000 -1.000000 -0.000000 0 215 255 255
0.156149 -0.219272 0.156149 -0.000000 -1.000000 -0.000000 0 215 255 255
-0.219272 0.156149 0.156149 -1.000000 0.000000 0.000000 255 242 11 255
-0.219272 0.099510 -0.156149 -1.000000 0.000000 0.000000 209 238 52 255
-0.219272 0.099510 0.156149 -1.000000 0.000000 0.000000 209 238 55 255
0.156149 0.156149 0.219272 0.000000 -0.000000 1.000000 253 242 21 255
-0.156149 0.099510 0.219272 0.000000 -0.000000 1.000000 209 238 46 255
0.156149 0.099510 0.219272 0.000000 -0.000000 1.000000 210 238 64 255
0.219272 0.156149 -0.156149 1.000000 -0.000000 0.000000 251 243 31 255
0.219272 0.099510 0.156149 1.000000 -0.000000 0.000000 206 238 68 255
0.219272 0.099510 -0.156149 1.000000 -0.000000 0.000000 206 238 71 255
0.088869 0.066100 -0.124796 0.707107 0.000000 -0.707107 127 229 135 255
0.124795 -0.067076 -0.088871 0.707107 0.000000 -0.707107 96 226 171 255
0.088869 -0.067076 -0.124796 0.707107 0.000000 -0.707107 96 226 165 255
0.088869 0.066100 0.124793 0.000000 -0.000000 1.000000 134 229 138 255
-0.088869 -0.067076 0.124793 0.000000 -0.000000 1.000000 96 226 160 255
0.088869 -0.067076 0.124793 0.000000 -0.000000 1.000000 104 226 168 255
0.124795 0.066100 -0.088871 1.000000 -0.000000 0.000000 127 229 143 255
0.124795 -0.067076 0.088868 1.000000 -0.000000 0.000000 95 226 170 255
0.124795 -0.067076 -0.088871 1.000000 -0.000000 0.000000 96 226 171 255
-0.124795 0.066100 0.088868 -1.000000 0.000000 0.000000 128 229 133 255
-0.124795 -0.067076 -0.088871 -1.000000 0.000000 0.000000 96 226 162 255
-0.124795 -0.067076 0.088868 -1.000000 0.000000 0.000000 96 226 164 255
-0.088869 0.066100 -0.124796 0.000000 0.000000 -1.000000 128 229 128 255
0.088869 -0.067076 -0.124796 0.000000 0.000000 -1.000000 96 226 165 255
-0.088869 -0.067076 -0.124796 0.000000 0.000000 -1.000000 97 226 160 255
0.201109 0.076600 -0.143215 0.136299 -0.990668 0.000000 178 235 97 255
0.124795 0.066100 0.088868 0.136299 -0.990668 0.000000 126 229 141 255
0.124795 0.066100 -0.088871 0.136299 -0.990668 0.000000 127 229 143 255
0.143214 0.076600 0.201109 0.000000 -0.990668 0.136297 183 235 90 255
-0.088869 0.066100 0.124793 0.000000 -0.990668 0.136297 128 229 128 255
0.088869 0.066100 0.124793 0.000000 -0.990668 0.136297 134 229 138 255
-0.124795 0.066100 0.088868 -0.136299 -0.990668 0.000000 128 229 133 255
-0.201109 0.076600 -0.143215 -0.136299 -0.990668 0.000000 181 235 80 255
-0.124795 0.066100 -0.088871 -0.136299 -0.990668 0.000000 128 229 131 255
-0.156149 0.156149 -0.219272 0.000000 0.000000 -1.000000 255 242 1 255
0.156149 0.099510 -0.219272 0.000000 0.000000 -1.000000 208 238 58 255
-0.156149 0.099510 -0.219272 0.000000 0.000000 -1.000000 209 238 47 255
-0.201109 0.076600 0.143214 -0.079843 -0.993604 0.079843 181 235 83 255
-0.088869 0.066100 0.124793 -0.079843 -0.993604 0.079843 128 229 128 255
-0.143214 0.076600 0.201109 -0.079843 -0.993604 0.079843 181 235 75 255
0.088869 0.066100 0.124793 0.079843 -0.993605 0.079843 134 229 138 255
0.201109 0.076600 0.143214 0.079843 -0.993605 0.079843 178 235 94 255
0.143214 0.076600 0.201109 0.079843 -0.993605 0.079843 183 235 90 255
-0.143214 0.076600 -0.201109 -0.079845 -0.993604 -0.079845 181 235 76 255
-0.124795 0.066100 -0.088871 -0.079845 -0.993604 -0.079845 128 229 131 255
-0.201109 0.076600 -0.143215 -0.079845 -0.993604 -0.079845 181 235 80 255
0.143214 0.076600 -0.201109 0.079845 -0.993604 -0.079845 180 235 86 255
0.124795 0.066100 -0.088871 0.079845 -0.993604 -0.079845 127 229 143 255
0.088869 0.066100 -0.124796 0.079845 -0.993604 -0.079845 127 229 135 255
-0.143187 -0.075956 -0.201071 -0.067681 0.995409 -0.067681 71 223 186 255
-0.124795 -0.067076 -0.088871 -0.067681 0.995409 -0.067681 96 226 162 255
-0.088869 -0.067076 -0.124796 -0.067681 0.995409 -0.067681 97 226 160 255
-0.201070 -0.075956 0.143187 -0.067680 0.995409 0.067680 70 223 188 255
-0.088869 -0.067076 0.124793 -0.067680 0.995409 0.067680 96 226 160 255
-0.124795 -0.067076 0.088868 -0.067680 0.995409 0.067680 96 226 164 255
0.143187 -0.075956 -0.201071 0.067681 0.995409 -0.067681 70 223 189 255
0.124795 -0.067076 -0.088871 0.067681 0.995409 -0.067681 96 226 171 255
0.201070 -0.075956 -0.143187 0.067681 0.995409 -0.067681 71 223 194 255
0.088869 -0.067076 0.124793 0.067680 0.995409 0.067680 104 226 168 255
0.201070 -0.075956 0.143187 0.067680 0.995409 0.067680 69 223 193 255
0.124795 -0.067076 0.088868 0.067680 0.995409 0.067680 95 226 170 255
0.201070 -0.075956 -0.143187 0.115630 0.993292 -0.000000 71 223 194 255
0.124795 -0.067076 0.088868 0.115630 0.993292 -0.000000 95 226 170 255
0.201070 -0.075956 0.143187 0.115630 0.993292 -0.000000 69 223 193 255
-0.156149 -0.156149 -0.219272 -0.707107 0.000000 -0.707107 1 215 255 255
-0.219272 -0.098485 -0.156149 -0.707107 0.000000 -0.707107 47 220 209 255
-0.156149 -0.098485 -0.219272 -0.707107 0.000000 -0.707107 48 220 208 255
-0.219272 -0.156149 0.156149 -0.707107 0.000000 0.707107 0 215 255 255
-0.156149 -0.098485 0.219272 -0.707107 0.000000 0.707107 47 220 208 255
-0.219272 -0.098485 0.156149 -0.707107 0.000000 0.707107 47 220 210 255
0.156149 -0.156149 0.219272 0.707107 0.000000 0.707107 14 216 255 255
0.219272 -0.098485 0.156149 0.707107 0.000000 0.707107 47 220 213 255
0.156149 -0.098485 0.219272 0.707107 0.000000 0.707107 58 221 212 255
0.088869 -0.067076 0.124793 0.707107 0.000000 0.707107 104 226 168 255
0.124795 0.066100 0.088868 0.707107 0.000000 0.707107 126 229 141 255
0.088869 0.066100 0.124793 0.707107 0.000000 0.707107 134 229 138 255
-0.124795 -0.067076 0.088868 -0.707107 0.000000 0.707107 96 226 164 255
-0.088869 0.066100 0.124793 -0.707107 0.000000 0.707107 128 229 128 255
-0.124795 0.066100 0.088868 -0.707107 0.000000 0.707107 128 229 133 255
-0.088869 -0.067076 -0.124796 -0.707107 0.000000 -0.707107 97 226 160 255
-0.124795 0.066100 -0.088871 -0.707107 0.000000 -0.707107 128 229 131 255
-0.088869 0.066100 -0.124796 -0.707107 0.000000 -0.707107 128 229 128 255
-0.156149 -0.098485 -0.219272 0.000000 0.000000 -1.000000 48 220 208 255
0.156149 -0.156149 -0.219272 0.000000 0.000000 -1.000000 0 215 255 255
-0.156149 -0.156149 -0.219272 0.000000 0.000000 -1.000000 1 215 255 255
0.219272 -0.098485 -0.156149 1.000000 -0.000000 0.000000 49 220 214 255
0.219272 -0.156149 0.156149 1.000000 -0.000000 0.000000 0 215 255 255
0.219272 -0.156149 -0.156149 1.000000 -0.000000 0.000000 3 215 255 255
-0.219272 -0.098485 0.156149 -1.000000 0.000000 0.000000 47 220 210 255
-0.219272 -0.156149 -0.156149 -1.000000 0.000000 0.000000 0 215 255 255
-0.219272 -0.156149 0.156149 -1.000000 0.000000 0.000000 0 215 255 255
0.156149 -0.098485 0.219272 0.000000 -0.000000 1.000000 58 221 212 255
-0.156149 -0.156149 0.219272 0.000000 -0.000000 1.000000 0 215 255 255
0.156149 -0.156149 0.219272 0.000000 -0.000000 1.000000 14 216 255 255
0.143214 0.076600 0.201109 0.510140 -0.692470 0.510140 183 235 90 255
0.219272 0.099510 0.156149 0.510140 -0.692470 0.510140 206 238 68 255
0.156149 0.099510 0.219272 0.510140 -0.692470 0.510140 210 238 64 255
-0.143214 0.076600 0.201109 -0.510139 -0.692471 0.510139 181 235 75 255
-0.219272 0.099510 0.156149 -0.510139 -0.692471 0.510139 209 238 55 255
-0.201109 0.076600 0.143214 -0.510139 -0.692471 0.510139 181 235 83 255
-0.201109 0.076600 -0.143215 -0.510143 -0.692465 -0.510143 181 235 80 255
-0.156149 0.099510 -0.219272 -0.510143 -0.692465 -0.510143 209 238 47 255
-0.143214 0.076600 -0.201109 -0.510143 -0.692465 -0.510143 181 235 76 255
0.156149 0.099510 -0.219272 0.510143 -0.692465 -0.510143 208 238 58 255
0.201109 0.076600 -0.143215 0.510143 -0.692465 -0.510143 178 235 97 255
0.143214 0.076600 -0.201109 0.510143 -0.692465 -0.510143 180 235 86 255
-0.156149 0.099510 0.219272 0.000000 -0.621263 0.783602 209 238 46 255
0.143214 0.076600 0.201109 0.000000 -0.621263 0.783602 183 235 90 255
0.156149 0.099510 0.219272 0.000000 -0.621263 0.783602 210 238 64 255
0.219272 0.099510 -0.156149 0.783606 -0.621258 -0.000000 206 238 71 255
0.201109 0.076600 0.143214 0.783606 -0.621258 -0.000000 178 235 94 255
0.201109 0.076600 -0.143215 0.783606 -0.621258 -0.000000 178 235 97 255
-0.219272 0.099510 -0.156149 -0.783606 -0.621258 0.000000 209 238 52 255
-0.201109 0.076600 0.143214 -0.783606 -0.621258 0.000000 181 235 83 255
-0.219272 0.099510 0.156149 -0.783606 -0.621258 0.000000 209 238 55 255
0.156149 0.099510 -0.219272 0.000000 -0.621253 -0.783610 208 238 58 255
-0.143214 0.076600 -0.201109 0.000000 -0.621253 -0.783610 181 235 76 255
-0.156149 0.099510 -0.219272 0.000000 -0.621253 -0.783610 209 238 47 255
0.143187 -0.075956 -0.201071 0.000000 0.628429 -0.777867 70 223 189 255
-0.156149 -0.098485 -0.219272 0.000000 0.628429 -0.777867 48 220 208 255
-0.143187 -0.075956 -0.201071 0.000000 0.628429 -0.777867 71 223 186 255
-0.201070 -0.075956 0.143187 -0.777863 0.628434 0.000000 70 223 188 255
-0.219272 -0.098485 -0.156149 -0.777863 0.628434 0.000000 47 220 209 255
-0.219272 -0.098485 0.156149 -0.777863 0.628434 0.000000 47 220 210 255
0.201070 -0.075956 0.143187 0.777862 0.628435 -0.000000 69 223 193 255
0.219272 -0.098485 -0.156149 0.777862 0.628435 -0.000000 49 220 214 255
0.201070 -0.075956 -0.143187 0.777862 0.628435 -0.000000 71 223 194 255
-0.143187 -0.075956 0.201070 0.000000 0.628440 0.777858 70 223 186 255
0.156149 -0.098485 0.219272 0.000000 0.628440 0.777858 58 221 212 255
0.143187 -0.075956 0.201070 0.000000 0.628440 0.777858 80 224 191 255
0.201070 -0.075956 -0.143187 0.505510 0.699228 -0.505510 71 223 194 255
0.156149 -0.098485 -0.219272 0.505510 0.699228 -0.505510 47 220 211 255
0.143187 -0.075956 -0.201071 0.505510 0.699228 -0.505510 70 223 189 255
-0.156149 -0.098485 -0.219272 -0.505510 0.699228 -0.505510 48 220 208 255
-0.201070 -0.075956 -0.143187 -0.505510 0.699228 -0.505510 70 223 187 255
-0.143187 -0.075956 -0.201071 -0.505510 0.699228 -0.505510 71 223 186 255
-0.219272 -0.098485 0.156149 -0.505506 0.699234 0.505506 47 220 210 255
-0.143187 -0.075956 0.201070 -0.505506 0.699234 0.505506 70 223 186 255
-0.201070 -0.075956 0.143187 -0.505506 0.699234 0.505506 70 223 188 255
0.219272 -0.098485 0.156149 0.505506 0.699233 0.505506 47 220 213 255
0.143187 -0.075956 0.201070 0.505506 0.699233 0.505506 80 224 191 255
0.156149 -0.098485 0.219272 0.505506 0.699233 0.505506 58 221 212 255
0.156149 0.156149 -0.219272 0.707107 0.000000 -0.707107 254 242 15 255
0.219272 0.099510 -0.156149 0.707107 0.000000 -0.707107 206 238 71 255
0.156149 0.099510 -0.219272 0.707107 0.000000 -0.707107 208 238 58 255
0.219272 0.099510 0.156149 0.707107 0.000000 0.707107 206 238 68 255
0.219272 -0.098485 -0.156149 0.707107 0.000000 -0.707107 49 220 214 255
0.156149 0.219272 -0.156149 0.000000 1.000000 0.000000 255 242 0 255
-0.156149 0.099510 0.219272 -0.707107 0.000000 0.707107 209 238 46 255
-0.219272 0.099510 -0.156149 -0.707107 -0.000000 -0.707107 209 238 52 255
0.219272 -0.156149 -0.156149 0.707107 -0.707107 0.000000 3 215 255 255
-0.143214 0.076600 -0.201109 -0.000000 -0.990668 -0.136301 181 235 76 255
0.143214 0.076600 -0.201109 -0.000000 -0.990668 -0.136301 180 235 86 255
0.088869 0.066100 -0.124796 -0.000000 -0.990668 -0.136301 127 229 135 255
0.219272 0.156149 0.156149 0.707107 0.707107 -0.000000 252 242 27 255
0.088869 -0.067076 0.124793 -0.000000 0.993293 0.115629 104 226 168 255
-0.088869 -0.067076 0.124793 -0.000000 0.993293 0.115629 96 226 160 255
-0.143187 -0.075956 0.201070 -0.000000 0.993293 0.115629 70 223 186 255
0.156149 -0.156149 0.219272 0.000000 -0.707107 0.707107 14 216 255 255
-0.156149 0.156149 0.219272 0.000000 0.707107 0.707107 255 242 0 255
-0.124795 -0.067076 0.088868 -0.115631 0.993292 0.000000 96 226 164 255
-0.124795 -0.067076 -0.088871 -0.115631 0.993292 0.000000 96 226 162 255
-0.201070 -0.075956 -0.143187 -0.115631 0.993292 0.000000 70 223 187 255
-0.219272 -0.156149 0.156149 -0.707107 -0.707107 0.000000 0 215 255 255
-0.219272 0.156149 -0.156149 -0.707107 0.707107 0.000000 255 242 6 255
0.088869 -0.067076 -0.124796 0.000000 0.993292 -0.115632 96 226 165 255
-0.156149 -0.156149 -0.219272 -0.000000 -0.707107 -0.707107 1 215 255 255
0.156149 0.156149 -0.219272 0.000000 0.707107 -0.707107 254 242 15 255
-0.156149 -0.219272 -0.156149 0.000000 -1.000000 0.000000 0 215 255 255
-0.219272 0.156149 -0.156149 -1.000000 0.000000 0.000000 255 242 6 255
-0.156149 0.156149 0.219272 0.000000 0.000000 1.000000 255 242 0 255
0.219272 0.156149 0.156149 1.000000 -0.000000 0.000000 252 242 27 255
0.124795 0.066100 -0.088871 0.707107 0.000000 -0.707107 127 229 143 255
-0.088869 0.066100 0.124793 0.000000 0.000000 1.000000 128 229 128 255
0.124795 0.066100 0.088868 1.000000 -0.000000 0.000000 126 229 141 255
-0.124795 0.066100 -0.088871 -1.000000 0.000000 0.000000 128 229 131 255
0.088869 0.066100 -0.124796 0.000000 0.000000 -1.000000 127 229 135 255
0.201109 0.076600 0.143214 0.136299 -0.990668 -0.000000 178 235 94 255
-0.143214 0.076600 0.201109 0.000000 -0.990668 0.136297 181 235 75 255
-0.201109 0.076600 0.143214 -0.136299 -0.990668 -0.000000 181 235 83 255
0.156149 0.156149 -0.219272 0.000000 0.000000 -1.000000 254 242 15 255
-0.201109 0.076600 0.143214 -0.079843 -0.993605 0.079843 181 235 83 255
-0.124795 0.066100 0.088868 -0.079843 -0.993605 0.079843 128 229 133 255
-0.088869 0.066100 0.124793 -0.079843 -0.993605 0.079843 128 229 128 255
0.124795 0.066100 0.088868 0.079843 -0.993605 0.079843 126 229 141 255
-0.088869 0.066100 -0.124796 -0.079845 -0.993604 -0.079845 128 229 128 255
0.201109 0.076600 -0.143215 0.079845 -0.993604 -0.079845 178 235 97 255
-0.201070 -0.075956 -0.143187 -0.067681 0.995409 -0.067681 70 223 187 255
-0.143187 -0.075956 0.201070 -0.067680 0.995409 0.067680 70 223 186 255
0.088869 -0.067076 -0.124796 0.067681 0.995409 -0.067681 96 226 165 255
0.143187 -0.075956 0.201070 0.067680 0.995409 0.067680 80 224 191 255
0.201070 -0.075956 -0.143187 0.115631 0.993292 0.000000 71 223 194 255
0.124795 -0.067076 -0.088871 0.115631 0.993292 0.000000 96 226 171 255
0.124795 -0.067076 0.088868 0.115631 0.993292 0.000000 95 226 170 255
-0.219272 -0.156149 -0.156149 -0.707107 -0.000000 -0.707107 0 215 255 255
-0.156149 -0.156149 0.219272 -0.707107 0.000000 0.707107 0 215 255 255
0.219272 -0.156149 0.156149 0.707107 0.000000 0.707107 0 215 255 255
0.124795 -0.067076 0.088868 0.707107 0.000000 0.707107 95 226 170 255
-0.088869 -0.067076 0.124793 -0.707107 0.000000 0.707107 96 226 160 255
-0.124795 -0.067076 -0.088871 -0.707107 -0.000000 -0.707107 96 226 162 255
0.156149 -0.098485 -0.219272 0.000000 0.000000 -1.000000 47 220 211 255
0.219272 -0.098485 0.156149 1.000000 -0.000000 0.000000 47 220 213 255
-0.219272 -0.098485 -0.156149 -1.000000 0.000000 0.000000 47 220 209 255
-0.156149 -0.098485 0.219272 0.000000 0.000000 1.000000 47 220 208 255
0.143214 0.076600 0.201109 0.510139 -0.692471 0.510139 183 235 90 255
0.201109 0.076600 0.143214 0.510139 -0.692471 0.510139 178 235 94 255
0.219272 0.099510 0.156149 0.510139 -0.692471 0.510139 206 238 68 255
-0.143214 0.076600 0.201109 -0.510140 -0.692471 0.510140 181 235 75 255
-0.156149 0.099510 0.219272 -0.510140 -0.692471 0.510140 209 238 46 255
-0.219272 0.099510 0.156149 -0.510140 -0.692471 0.510140 209 238 55 255
-0.219272 0.099510 -0.156149 -0.510143 -0.692465 -0.510143 209 238 52 255
0.219272 0.099510 -0.156149 0.510143 -0.692465 -0.510143 206 238 71 255
-0.143214 0.076600 0.201109 0.000000 -0.621263 0.783602 181 235 75 255
0.219272 0.099510 0.156149 0.783606 -0.621258 0.000000 206 238 68 255
-0.201109 0.076600 -0.143215 -0.783606 -0.621258 -0.000000 181 235 80 255
0.143214 0.076600 -0.201109 0.000000 -0.621253 -0.783610 180 235 86 255
0.156149 -0.098485 -0.219272 0.000000 0.628429 -0.777867 47 220 211 255
-0.201070 -0.075956 0.143187 -0.777862 0.628435 -0.000000 70 223 188 255
-0.201070 -0.075956 -0.143187 -0.777862 0.628435 -0.000000 70 223 187 255
-0.219272 -0.098485 -0.156149 -0.777862 0.628435 -0.000000 47 220 209 255
0.201070 -0.075956 0.143187 0.777863 0.628434 -0.000000 69 223 193 255
0.219272 -0.098485 0.156149 0.777863 0.628434 -0.000000 47 220 213 255
0.219272 -0.098485 -0.156149 0.777863 0.628434 -0.000000 49 220 214 255
-0.156149 -0.098485 0.219272 0.000000 0.628440 0.777858 47 220 208 255
0.219272 -0.098485 -0.156149 0.505510 0.699228 -0.505510 49 220 214 255
-0.219272 -0.098485 -0.156149 -0.505510 0.699228 -0.505510 47 220 209 255
-0.219272 -0.098485 0.156149 -0.505506 0.699233 0.505506 47 220 210 255
-0.156149 -0.098485 0.219272 -0.505506 0.699233 0.505506 47 220 208 255
-0.143187 -0.075956 0.201070 -0.505506 0.699233 0.505506 70 223 186 255
0.219272 -0.098485 0.156149 0.505506 0.699234 0.505506 47 220 213 255
0.201070 -0.075956 0.143187 0.505506 0.699234 0.505506 69 223 193 255
0.143187 -0.075956 0.201070 0.505506 0.699234 0.505506 80 224 191 255
0.219272 0.156149 -0.156149 0.707107 0.000000 -0.707107 251 243 31 255
3 0 1 2
3 3 4 5
3 6 7 8
3 9 10 11
3 12 13 14
3 15 16 17
3 18 19 20
3 21 22 23
3 24 25 26
3 27 28 29
3 30 31 32
3 33 34 35
3 36 37 38
3 39 40 41
3 42 43 44
3 45 46 47
3 48 49 50
3 51 52 53
3 54 55 56
3 57 58 59
3 60 61 62
3 63 64 65
3 66 67 68
3 69 70 71
3 72 73 74
3 75 76 77
3 78 79 80
3 81 82 83
3 84 85 86
3 87 88 89
3 90 91 92
3 93 94 95
3 96 97 98
3 99 100 101
3 102 103 104
3 105 106 107
3 108 109 110
3 111 112 113
3 114 115 116
3 117 118 119
3 120 121 122
3 123 124 125
3 126 127 128
3 129 130 131
3 132 133 134
3 135 136 137
3 138 139 140
3 141 142 143
3 144 145 146
3 147 148 149
3 150 151 152
3 153 154 155
3 156 157 158
3 159 160 161
3 162 163 164
3 165 166 167
3 168 169 170
3 171 172 173
3 174 175 176
3 177 178 179
3 180 181 182
3 183 184 185
3 186 187 188
3 189 190 191
3 192 193 194
3 195 196 197
3 198 199 200
3 201 202 203
3 204 205 206
3 207 208 209
3 210 211 212
3 213 214 215
3 216 217 218
3 219 220 221
3 0 222 1
3 3 223 4
3 6 224 7
3 9 225 10
3 12 226 13
3 39 227 40
3 228 229 230
3 45 231 46
3 232 233 234
3 51 235 52
3 54 236 55
3 237 238 239
3 60 240 61
3 63 241 64
3 66 242 67
3 69 243 70
3 72 244 73
3 75 245 76
3 78 246 79
3 81 247 82
3 84 248 85
3 87 249 88
3 90 250 91
3 93 251 94
3 96 252 97
3 99 253 100
3 102 254 103
3 105 255 106
3 108 256 109
3 111 257 112
3 258 259 260
3 117 261 118
3 120 262 121
3 123 263 124
3 126 264 127
3 129 265 130
3 132 266 133
3 135 267 136
3 268 269 270
3 141 271 142
3 144 272 145
3 147 273 148
3 150 274 151
3 153 275 154
3 156 276 157
3 159 277 160
3 162 278 163
3 165 279 166
3 168 280 169
3 281 282 283
3 284 285 286
3 177 287 178
3 180 288 181
3 183 289 184
3 186 290 187
3 189 291 190
3 192 292 193
3 195 293 196
3 294 295 296
3 297 298 299
3 204 300 205
3 207 301 208
3 210 302 211
3 303 304 305
3 306 307 308
3 219 309 220
