ply
format ascii 1.0
comment Created by Blender 2.91.2 - www.blender.org
element vertex 384
property float x
property float y
property float z
property float nx
property float ny
property float nz
property uchar red
property uchar green
property uchar blue
property uchar alpha
element face 176
property list uchar uint vertex_indices
end_header
-0.821779 0.798685 -0.925529 0.000000 0.000000 -1.000000 170 0 147 255
0.821793 -0.798685 -0.925529 0.000000 0.000000 -1.000000 170 0 147 255
-0.821779 -0.798685 -0.925529 0.000000 0.000000 -1.000000 170 0 147 255
-0.951323 0.798685 -0.155073 -1.000000 0.000000 0.000000 105 0 91 255
-0.951323 -0.798685 -0.795984 -1.000000 0.000000 0.000000 170 0 147 255
-0.951323 -0.798685 -0.155073 -1.000000 0.000000 0.000000 105 0 91 255
0.821793 0.928229 -0.155073 -0.000000 1.000000 0.000000 105 0 91 255
-0.821779 0.928229 -0.795984 -0.000000 1.000000 0.000000 169 0 146 255
-0.821779 0.928229 -0.155073 -0.000000 1.000000 0.000000 105 0 91 255
0.951337 0.798685 -0.795984 1.000000 -0.000000 0.000000 170 0 147 255
0.951337 -0.798685 -0.155073 1.000000 -0.000000 0.000000 105 0 91 255
0.951337 -0.798685 -0.795984 1.000000 -0.000000 0.000000 170 0 147 255
0.821793 0.798685 -0.025529 0.000000 -0.000000 1.000000 105 0 91 255
-0.821779 -0.798685 -0.025529 0.000000 -0.000000 1.000000 105 0 91 255
0.821793 -0.798685 -0.025529 0.000000 -0.000000 1.000000 105 4 91 255
0.821793 -0.928229 -0.795984 0.577350 -0.577350 -0.577350 170 0 147 255
0.821793 -0.798685 -0.925529 0.577350 -0.577350 -0.577350 170 0 147 255
0.951337 -0.798685 -0.795984 0.577350 -0.577350 -0.577350 170 0 147 255
0.821793 0.798685 -0.925529 0.577350 0.577350 -0.577350 170 0 147 255
0.821793 0.928229 -0.795984 0.577350 0.577350 -0.577350 170 0 147 255
0.951337 0.798685 -0.795984 0.577350 0.577350 -0.577350 170 0 147 255
0.821793 -0.928229 -0.155073 0.577350 -0.577350 0.577350 105 0 91 255
0.951337 -0.798685 -0.155073 0.577350 -0.577350 0.577350 105 0 91 255
0.821793 -0.798685 -0.025529 0.577350 -0.577350 0.577350 105 4 91 255
0.821793 0.928229 -0.155073 0.577350 0.577350 0.577350 105 0 91 255
0.821793 0.798685 -0.025529 0.577350 0.577350 0.577350 105 0 91 255
0.951337 0.798685 -0.155073 0.577350 0.577350 0.577350 105 0 91 255
-0.821779 -0.928229 -0.795984 -0.577351 -0.577350 -0.577350 169 0 146 255
-0.951323 -0.798685 -0.795984 -0.577351 -0.577350 -0.577350 170 0 147 255
-0.821779 -0.798685 -0.925529 -0.577351 -0.577350 -0.577350 170 0 147 255
-0.821779 0.928229 -0.795984 -0.577350 0.577350 -0.577350 169 0 146 255
-0.821779 0.798685 -0.925529 -0.577350 0.577350 -0.577350 170 0 147 255
-0.951323 0.798685 -0.795984 -0.577350 0.577350 -0.577350 169 0 146 255
-0.821779 -0.928229 -0.155073 -0.577351 -0.577350 0.577350 105 0 91 255
-0.821779 -0.798685 -0.025529 -0.577351 -0.577350 0.577350 105 0 91 255
-0.951323 -0.798685 -0.155073 -0.577351 -0.577350 0.577350 105 0 91 255
-0.821779 0.928229 -0.155073 -0.577350 0.577350 0.577350 105 0 91 255
-0.951323 0.798685 -0.155073 -0.577350 0.577350 0.577350 105 0 91 255
-0.821779 0.798685 -0.025529 -0.577350 0.577350 0.577350 105 0 91 255
0.821793 -0.928229 -0.795984 0.707107 -0.707107 0.000000 170 0 147 255
0.951337 -0.798685 -0.155073 0.707107 -0.707107 0.000000 105 0 91 255
0.821793 -0.928229 -0.155073 0.707107 -0.707107 0.000000 105 0 91 255
0.821793 0.798685 -0.925529 0.707107 0.000000 -0.707107 170 0 147 255
0.951337 -0.798685 -0.795984 0.707107 0.000000 -0.707107 170 0 147 255
0.821793 -0.798685 -0.925529 0.707107 0.000000 -0.707107 170 0 147 255
0.821793 0.928229 -0.155073 0.707107 0.707107 0.000000 105 0 91 255
0.951337 0.798685 -0.795984 0.707107 0.707107 0.000000 170 0 147 255
0.821793 0.928229 -0.795984 0.707107 0.707107 0.000000 170 0 147 255
0.821793 -0.798685 -0.025529 0.707107 0.000000 0.707107 105 4 91 255
0.951337 0.798685 -0.155073 0.707107 0.000000 0.707107 105 0 91 255
0.821793 0.798685 -0.025529 0.707107 0.000000 0.707107 105 0 91 255
0.821793 -0.928229 -0.155073 0.000000 -0.707107 0.707107 105 0 91 255
-0.821779 -0.798685 -0.025529 0.000000 -0.707107 0.707107 105 0 91 255
-0.821779 -0.928229 -0.155073 0.000000 -0.707107 0.707107 105 0 91 255
-0.821779 0.928229 -0.155073 0.000000 0.707107 0.707107 105 0 91 255
0.821793 0.798685 -0.025529 0.000000 0.707107 0.707107 105 0 91 255
0.821793 0.928229 -0.155073 0.000000 0.707107 0.707107 105 0 91 255
-0.951323 -0.798685 -0.155073 -0.707107 0.000000 0.707106 105 0 91 255
-0.821779 0.798685 -0.025529 -0.707107 0.000000 0.707106 105 0 91 255
-0.951323 0.798685 -0.155073 -0.707107 0.000000 0.707106 105 0 91 255
-0.821779 -0.928229 -0.155073 -0.707107 -0.707106 0.000000 105 0 91 255
-0.951323 -0.798685 -0.795984 -0.707107 -0.707106 0.000000 170 0 147 255
-0.821779 -0.928229 -0.795984 -0.707107 -0.707106 0.000000 169 0 146 255
-0.821779 0.928229 -0.795984 -0.707107 0.707107 0.000000 169 0 146 255
-0.951323 0.798685 -0.155073 -0.707107 0.707107 0.000000 105 0 91 255
-0.821779 0.928229 -0.155073 -0.707107 0.707107 0.000000 105 0 91 255
-0.821779 -0.798685 -0.925529 -0.707107 0.000000 -0.707106 170 0 147 255
-0.951323 0.798685 -0.795984 -0.707107 0.000000 -0.707106 169 0 146 255
-0.821779 0.798685 -0.925529 -0.707107 0.000000 -0.707106 170 0 147 255
-0.821779 -0.928229 -0.795984 0.000000 -0.707107 -0.707107 169 0 146 255
0.821793 -0.798685 -0.925529 0.000000 -0.707107 -0.707107 170 0 147 255
0.821793 -0.928229 -0.795984 0.000000 -0.707107 -0.707107 170 0 147 255
0.821793 0.928229 -0.795984 0.000000 0.707107 -0.707107 170 0 147 255
-0.821779 0.798685 -0.925529 0.000000 0.707107 -0.707107 170 0 147 255
-0.821779 0.928229 -0.795984 0.000000 0.707107 -0.707107 169 0 146 255
-0.821779 -0.928229 -0.155073 -0.000000 -1.000000 -0.000000 105 0 91 255
0.821793 -0.928229 -0.795984 -0.000000 -1.000000 -0.000000 170 0 147 255
0.821793 -0.928229 -0.155073 -0.000000 -1.000000 -0.000000 105 0 91 255
0.821793 0.798685 -0.925529 0.000000 0.000000 -1.000000 170 0 147 255
-0.951323 0.798685 -0.795984 -1.000000 0.000000 0.000000 169 0 146 255
0.821793 0.928229 -0.795984 0.000000 1.000000 0.000000 170 0 147 255
0.951337 0.798685 -0.155073 1.000000 -0.000000 0.000000 105 0 91 255
-0.821779 0.798685 -0.025529 0.000000 0.000000 1.000000 105 0 91 255
0.951337 -0.798685 -0.795984 0.707107 -0.707107 0.000000 170 0 147 255
0.951337 0.798685 -0.795984 0.707107 0.000000 -0.707107 170 0 147 255
0.951337 0.798685 -0.155073 0.707107 0.707107 -0.000000 105 0 91 255
0.951337 -0.798685 -0.155073 0.707107 0.000000 0.707107 105 0 91 255
0.821793 -0.798685 -0.025529 0.000000 -0.707107 0.707107 105 4 91 255
-0.821779 0.798685 -0.025529 0.000000 0.707107 0.707107 105 0 91 255
-0.821779 -0.798685 -0.025529 -0.707107 0.000000 0.707106 105 0 91 255
-0.951323 -0.798685 -0.155073 -0.707107 -0.707106 0.000000 105 0 91 255
-0.951323 0.798685 -0.795984 -0.707107 0.707107 0.000000 169 0 146 255
-0.951323 -0.798685 -0.795984 -0.707107 -0.000000 -0.707106 170 0 147 255
-0.821779 -0.798685 -0.925529 -0.000000 -0.707107 -0.707107 170 0 147 255
0.821793 0.798685 -0.925529 0.000000 0.707107 -0.707107 170 0 147 255
-0.821779 -0.928229 -0.795984 0.000000 -1.000000 0.000000 169 0 146 255
-0.731591 0.704740 0.171606 0.000000 0.000000 -1.000000 112 111 114 255
0.724278 0.237249 0.171606 0.000000 0.000000 -1.000000 112 111 114 255
-0.731591 0.237249 0.171606 0.000000 0.000000 -1.000000 112 111 114 255
-0.826082 0.704740 0.733588 -1.000000 0.000000 0.000000 112 111 114 255
-0.826082 0.237249 0.266098 -1.000000 0.000000 0.000000 112 111 114 255
-0.826082 0.237249 0.733588 -1.000000 0.000000 0.000000 112 111 114 255
0.724278 0.799231 0.733588 -0.000000 1.000000 0.000000 112 111 114 255
-0.731591 0.799231 0.266098 -0.000000 1.000000 0.000000 112 111 114 255
-0.731591 0.799231 0.733588 -0.000000 1.000000 0.000000 112 111 114 255
0.818770 0.704740 0.266098 1.000000 -0.000000 0.000000 112 111 114 255
0.818770 0.237249 0.733588 1.000000 -0.000000 0.000000 112 111 114 255
0.818770 0.237249 0.266098 1.000000 -0.000000 0.000000 112 111 114 255
0.724278 0.704740 0.828080 0.000000 -0.000000 1.000000 112 111 114 255
-0.731591 0.237249 0.828080 0.000000 -0.000000 1.000000 112 111 114 255
0.724278 0.237249 0.828080 0.000000 -0.000000 1.000000 112 111 114 255
0.724278 0.142758 0.266098 0.577350 -0.577350 -0.577350 112 111 114 255
0.724278 0.237249 0.171606 0.577350 -0.577350 -0.577350 112 111 114 255
0.818770 0.237249 0.266098 0.577350 -0.577350 -0.577350 112 111 114 255
0.724278 0.704740 0.171606 0.577350 0.577350 -0.577350 112 111 114 255
0.724278 0.799231 0.266098 0.577350 0.577350 -0.577350 112 111 114 255
0.818770 0.704740 0.266098 0.577350 0.577350 -0.577350 112 111 114 255
0.724278 0.142758 0.733588 0.577350 -0.577350 0.577350 112 111 114 255
0.818770 0.237249 0.733588 0.577350 -0.577350 0.577350 112 111 114 255
0.724278 0.237249 0.828080 0.577350 -0.577350 0.577350 112 111 114 255
0.724278 0.799231 0.733588 0.577350 0.577350 0.577350 112 111 114 255
0.724278 0.704740 0.828080 0.577350 0.577350 0.577350 112 111 114 255
0.818770 0.704740 0.733588 0.577350 0.577350 0.577350 112 111 114 255
-0.731591 0.142758 0.266098 -0.577350 -0.577350 -0.577350 112 111 114 255
-0.826082 0.237249 0.266098 -0.577350 -0.577350 -0.577350 112 111 114 255
-0.731591 0.237249 0.171606 -0.577350 -0.577350 -0.577350 112 111 114 255
-0.731591 0.799231 0.266098 -0.577350 0.577350 -0.577350 112 111 114 255
-0.731591 0.704740 0.171606 -0.577350 0.577350 -0.577350 112 111 114 255
-0.826082 0.704740 0.266098 -0.577350 0.577350 -0.577350 112 111 114 255
-0.731591 0.142758 0.733588 -0.577350 -0.577350 0.577350 112 111 114 255
-0.731591 0.237249 0.828080 -0.577350 -0.577350 0.577350 112 111 114 255
-0.826082 0.237249 0.733588 -0.577350 -0.577350 0.577350 112 111 114 255
-0.731591 0.799231 0.733588 -0.577350 0.577350 0.577350 112 111 114 255
-0.826082 0.704740 0.733588 -0.577350 0.577350 0.577350 112 111 114 255
-0.731591 0.704740 0.828080 -0.577350 0.577350 0.577350 112 111 114 255
0.724278 0.142758 0.266098 0.707107 -0.707107 0.000000 112 111 114 255
0.818770 0.237249 0.733588 0.707107 -0.707107 0.000000 112 111 114 255
0.724278 0.142758 0.733588 0.707107 -0.707107 0.000000 112 111 114 255
0.724278 0.704740 0.171606 0.707107 0.000000 -0.707107 112 111 114 255
0.818770 0.237249 0.266098 0.707107 0.000000 -0.707107 112 111 114 255
0.724278 0.237249 0.171606 0.707107 0.000000 -0.707107 112 111 114 255
0.724278 0.799231 0.733588 0.707107 0.707107 0.000000 112 111 114 255
0.818770 0.704740 0.266098 0.707107 0.707107 0.000000 112 111 114 255
0.724278 0.799231 0.266098 0.707107 0.707107 0.000000 112 111 114 255
0.724278 0.237249 0.828080 0.707107 0.000000 0.707107 112 111 114 255
0.818770 0.704740 0.733588 0.707107 0.000000 0.707107 112 111 114 255
0.724278 0.704740 0.828080 0.707107 0.000000 0.707107 112 111 114 255
0.724278 0.142758 0.733588 0.000000 -0.707107 0.707107 112 111 114 255
-0.731591 0.237249 0.828080 0.000000 -0.707107 0.707107 112 111 114 255
-0.731591 0.142758 0.733588 0.000000 -0.707107 0.707107 112 111 114 255
-0.731591 0.799231 0.733588 0.000000 0.707107 0.707107 112 111 114 255
0.724278 0.704740 0.828080 0.000000 0.707107 0.707107 112 111 114 255
0.724278 0.799231 0.733588 0.000000 0.707107 0.707107 112 111 114 255
-0.826082 0.237249 0.733588 -0.707107 0.000000 0.707107 112 111 114 255
-0.731591 0.704740 0.828080 -0.707107 0.000000 0.707107 112 111 114 255
-0.826082 0.704740 0.733588 -0.707107 0.000000 0.707107 112 111 114 255
-0.731591 0.142758 0.733588 -0.707107 -0.707107 0.000000 112 111 114 255
-0.826082 0.237249 0.266098 -0.707107 -0.707107 0.000000 112 111 114 255
-0.731591 0.142758 0.266098 -0.707107 -0.707107 0.000000 112 111 114 255
-0.731591 0.799231 0.266098 -0.707107 0.707107 0.000000 112 111 114 255
-0.826082 0.704740 0.733588 -0.707107 0.707107 0.000000 112 111 114 255
-0.731591 0.799231 0.733588 -0.707107 0.707107 0.000000 112 111 114 255
-0.731591 0.237249 0.171606 -0.707107 0.000000 -0.707107 112 111 114 255
-0.826082 0.704740 0.266098 -0.707107 0.000000 -0.707107 112 111 114 255
-0.731591 0.704740 0.171606 -0.707107 0.000000 -0.707107 112 111 114 255
-0.731591 0.142758 0.266098 0.000000 -0.707107 -0.707107 112 111 114 255
0.724278 0.237249 0.171606 0.000000 -0.707107 -0.707107 112 111 114 255
0.724278 0.142758 0.266098 0.000000 -0.707107 -0.707107 112 111 114 255
0.724278 0.799231 0.266098 0.000000 0.707107 -0.707107 112 111 114 255
-0.731591 0.704740 0.171606 0.000000 0.707107 -0.707107 112 111 114 255
-0.731591 0.799231 0.266098 0.000000 0.707107 -0.707107 112 111 114 255
-0.731591 0.142758 0.733588 -0.000000 -1.000000 -0.000000 112 111 114 255
0.724278 0.142758 0.266098 -0.000000 -1.000000 -0.000000 112 111 114 255
0.724278 0.142758 0.733588 -0.000000 -1.000000 -0.000000 112 111 114 255
0.724278 0.704740 0.171606 0.000000 0.000000 -1.000000 112 111 114 255
-0.826082 0.704740 0.266098 -1.000000 0.000000 0.000000 112 111 114 255
0.724278 0.799231 0.266098 0.000000 1.000000 0.000000 112 111 114 255
0.818770 0.704740 0.733588 1.000000 -0.000000 0.000000 112 111 114 255
-0.731591 0.704740 0.828080 0.000000 0.000000 1.000000 112 111 114 255
0.818770 0.237249 0.266098 0.707107 -0.707107 0.000000 112 111 114 255
0.818770 0.704740 0.266098 0.707107 0.000000 -0.707107 112 111 114 255
0.818770 0.704740 0.733588 0.707107 0.707107 -0.000000 112 111 114 255
0.818770 0.237249 0.733588 0.707107 0.000000 0.707107 112 111 114 255
0.724278 0.237249 0.828080 0.000000 -0.707107 0.707107 112 111 114 255
-0.731591 0.704740 0.828080 0.000000 0.707107 0.707107 112 111 114 255
-0.731591 0.237249 0.828080 -0.707107 0.000000 0.707107 112 111 114 255
-0.826082 0.237249 0.733588 -0.707107 -0.707107 0.000000 112 111 114 255
-0.826082 0.704740 0.266098 -0.707107 0.707107 0.000000 112 111 114 255
-0.826082 0.237249 0.266098 -0.707107 -0.000000 -0.707107 112 111 114 255
-0.731591 0.237249 0.171606 -0.000000 -0.707107 -0.707107 112 111 114 255
0.724278 0.704740 0.171606 0.000000 0.707107 -0.707107 112 111 114 255
-0.731591 0.142758 0.266098 0.000000 -1.000000 0.000000 112 111 114 255
0.262274 -0.238779 0.171606 0.000000 0.000000 -1.000000 112 111 114 255
0.729764 -0.706269 0.171606 0.000000 0.000000 -1.000000 112 111 114 255
0.262274 -0.706269 0.171606 0.000000 0.000000 -1.000000 112 111 114 255
0.167783 -0.238779 0.733588 -1.000000 0.000000 0.000000 112 111 114 255
0.167783 -0.706269 0.266098 -1.000000 0.000000 0.000000 112 111 114 255
0.167783 -0.706269 0.733588 -1.000000 0.000000 0.000000 112 111 114 255
0.729764 -0.144287 0.733588 -0.000000 1.000000 0.000000 112 111 114 255
0.262274 -0.144287 0.266098 -0.000000 1.000000 0.000000 112 111 114 255
0.262274 -0.144287 0.733588 -0.000000 1.000000 0.000000 112 111 114 255
0.824256 -0.238779 0.266098 1.000000 -0.000000 0.000000 112 111 114 255
0.824256 -0.706269 0.733588 1.000000 -0.000000 0.000000 112 111 114 255
0.824256 -0.706269 0.266098 1.000000 -0.000000 0.000000 112 111 114 255
0.729764 -0.238779 0.828080 0.000000 -0.000000 1.000000 112 111 114 255
0.262274 -0.706269 0.828080 0.000000 -0.000000 1.000000 112 111 114 255
0.729764 -0.706269 0.828080 0.000000 -0.000000 1.000000 112 111 114 255
0.729764 -0.800761 0.266098 0.577350 -0.577350 -0.577350 112 111 114 255
0.729764 -0.706269 0.171606 0.577350 -0.577350 -0.577350 112 111 114 255
0.824256 -0.706269 0.266098 0.577350 -0.577350 -0.577350 112 111 114 255
0.729764 -0.238779 0.171606 0.577350 0.577350 -0.577350 112 111 114 255
0.729764 -0.144287 0.266098 0.577350 0.577350 -0.577350 112 111 114 255
0.824256 -0.238779 0.266098 0.577350 0.577350 -0.577350 112 111 114 255
0.729764 -0.800761 0.733588 0.577350 -0.577350 0.577350 112 111 114 255
0.824256 -0.706269 0.733588 0.577350 -0.577350 0.577350 112 111 114 255
0.729764 -0.706269 0.828080 0.577350 -0.577350 0.577350 112 111 114 255
0.729764 -0.144287 0.733588 0.577350 0.577350 0.577350 112 111 114 255
0.729764 -0.238779 0.828080 0.577350 0.577350 0.577350 112 111 114 255
0.824256 -0.238779 0.733588 0.577350 0.577350 0.577350 112 111 114 255
0.262274 -0.800761 0.266098 -0.577350 -0.577350 -0.577350 112 111 114 255
0.167783 -0.706269 0.266098 -0.577350 -0.577350 -0.577350 112 111 114 255
0.262274 -0.706269 0.171606 -0.577350 -0.577350 -0.577350 112 111 114 255
0.262274 -0.144287 0.266098 -0.577350 0.577350 -0.577350 112 111 114 255
0.262274 -0.238779 0.171606 -0.577350 0.577350 -0.577350 112 111 114 255
0.167783 -0.238779 0.266098 -0.577350 0.577350 -0.577350 112 111 114 255
0.262274 -0.800761 0.733588 -0.577350 -0.577350 0.577350 112 111 114 255
0.262274 -0.706269 0.828080 -0.577350 -0.577350 0.577350 112 111 114 255
0.167783 -0.706269 0.733588 -0.577350 -0.577350 0.577350 112 111 114 255
0.262274 -0.144287 0.733588 -0.577350 0.577350 0.577350 112 111 114 255
0.167783 -0.238779 0.733588 -0.577350 0.577350 0.577350 112 111 114 255
0.262274 -0.238779 0.828080 -0.577350 0.577350 0.577350 112 111 114 255
0.729764 -0.800761 0.266098 0.707107 -0.707107 0.000000 112 111 114 255
0.824256 -0.706269 0.733588 0.707107 -0.707107 0.000000 112 111 114 255
0.729764 -0.800761 0.733588 0.707107 -0.707107 0.000000 112 111 114 255
0.729764 -0.238779 0.171606 0.707107 0.000000 -0.707107 112 111 114 255
0.824256 -0.706269 0.266098 0.707107 0.000000 -0.707107 112 111 114 255
0.729764 -0.706269 0.171606 0.707107 0.000000 -0.707107 112 111 114 255
0.729764 -0.144287 0.733588 0.707107 0.707107 0.000000 112 111 114 255
0.824256 -0.238779 0.266098 0.707107 0.707107 0.000000 112 111 114 255
0.729764 -0.144287 0.266098 0.707107 0.707107 0.000000 112 111 114 255
0.729764 -0.706269 0.828080 0.707107 0.000000 0.707107 112 111 114 255
0.824256 -0.238779 0.733588 0.707107 0.000000 0.707107 112 111 114 255
0.729764 -0.238779 0.828080 0.707107 0.000000 0.707107 112 111 114 255
0.729764 -0.800761 0.733588 0.000000 -0.707107 0.707107 112 111 114 255
0.262274 -0.706269 0.828080 0.000000 -0.707107 0.707107 112 111 114 255
0.262274 -0.800761 0.733588 0.000000 -0.707107 0.707107 112 111 114 255
0.262274 -0.144287 0.733588 0.000000 0.707107 0.707107 112 111 114 255
0.729764 -0.238779 0.828080 0.000000 0.707107 0.707107 112 111 114 255
0.729764 -0.144287 0.733588 0.000000 0.707107 0.707107 112 111 114 255
0.167783 -0.706269 0.733588 -0.707107 0.000000 0.707107 112 111 114 255
0.262274 -0.238779 0.828080 -0.707107 0.000000 0.707107 112 111 114 255
0.167783 -0.238779 0.733588 -0.707107 0.000000 0.707107 112 111 114 255
0.262274 -0.800761 0.733588 -0.707107 -0.707107 0.000000 112 111 114 255
0.167783 -0.706269 0.266098 -0.707107 -0.707107 0.000000 112 111 114 255
0.262274 -0.800761 0.266098 -0.707107 -0.707107 0.000000 112 111 114 255
0.262274 -0.144287 0.266098 -0.707107 0.707107 0.000000 112 111 114 255
0.167783 -0.238779 0.733588 -0.707107 0.707107 0.000000 112 111 114 255
0.262274 -0.144287 0.733588 -0.707107 0.707107 0.000000 112 111 114 255
0.262274 -0.706269 0.171606 -0.707107 0.000000 -0.707107 112 111 114 255
0.167783 -0.238779 0.266098 -0.707107 0.000000 -0.707107 112 111 114 255
0.262274 -0.238779 0.171606 -0.707107 0.000000 -0.707107 112 111 114 255
0.262274 -0.800761 0.266098 0.000000 -0.707107 -0.707107 112 111 114 255
0.729764 -0.706269 0.171606 0.000000 -0.707107 -0.707107 112 111 114 255
0.729764 -0.800761 0.266098 0.000000 -0.707107 -0.707107 112 111 114 255
0.729764 -0.144287 0.266098 0.000000 0.707107 -0.707107 112 111 114 255
0.262274 -0.238779 0.171606 0.000000 0.707107 -0.707107 112 111 114 255
0.262274 -0.144287 0.266098 0.000000 0.707107 -0.707107 112 111 114 255
0.262274 -0.800761 0.733588 -0.000000 -1.000000 -0.000000 112 111 114 255
0.729764 -0.800761 0.266098 -0.000000 -1.000000 -0.000000 112 111 114 255
0.729764 -0.800761 0.733588 -0.000000 -1.000000 -0.000000 112 111 114 255
0.729764 -0.238779 0.171606 0.000000 0.000000 -1.000000 112 111 114 255
0.167783 -0.238779 0.266098 -1.000000 0.000000 0.000000 112 111 114 255
0.729764 -0.144287 0.266098 0.000000 1.000000 0.000000 112 111 114 255
0.824256 -0.238779 0.733588 1.000000 -0.000000 0.000000 112 111 114 255
0.262274 -0.238779 0.828080 0.000000 0.000000 1.000000 112 111 114 255
0.824256 -0.706269 0.266098 0.707107 -0.707107 0.000000 112 111 114 255
0.824256 -0.238779 0.266098 0.707107 0.000000 -0.707107 112 111 114 255
0.824256 -0.238779 0.733588 0.707107 0.707107 -0.000000 112 111 114 255
0.824256 -0.706269 0.733588 0.707107 0.000000 0.707107 112 111 114 255
0.729764 -0.706269 0.828080 0.000000 -0.707107 0.707107 112 111 114 255
0.262274 -0.238779 0.828080 0.000000 0.707107 0.707107 112 111 114 255
0.262274 -0.706269 0.828080 -0.707107 0.000000 0.707107 112 111 114 255
0.167783 -0.706269 0.733588 -0.707107 -0.707107 0.000000 112 111 114 255
0.167783 -0.238779 0.266098 -0.707107 0.707107 0.000000 112 111 114 255
0.167783 -0.706269 0.266098 -0.707107 -0.000000 -0.707107 112 111 114 255
0.262274 -0.706269 0.171606 -0.000000 -0.707107 -0.707107 112 111 114 255
0.729764 -0.238779 0.171606 0.000000 0.707107 -0.707107 112 111 114 255
0.262274 -0.800761 0.266098 0.000000 -1.000000 0.000000 112 111 114 255
-0.731591 -0.238779 0.171606 0.000000 0.000000 -1.000000 112 111 114 255
-0.264101 -0.706269 0.171606 0.000000 0.000000 -1.000000 112 111 114 255
-0.731591 -0.706269 0.171606 0.000000 0.000000 -1.000000 112 111 114 255
-0.826082 -0.238779 0.733588 -1.000000 0.000000 0.000000 112 111 114 255
-0.826082 -0.706269 0.266098 -1.000000 0.000000 0.000000 112 111 114 255
-0.826082 -0.706269 0.733588 -1.000000 0.000000 0.000000 112 111 114 255
-0.264101 -0.144287 0.733588 -0.000000 1.000000 0.000000 112 111 114 255
-0.731591 -0.144287 0.266098 -0.000000 1.000000 0.000000 112 111 114 255
-0.731591 -0.144287 0.733588 -0.000000 1.000000 0.000000 112 111 114 255
-0.169609 -0.238779 0.266098 1.000000 -0.000000 0.000000 112 111 114 255
-0.169609 -0.706269 0.733588 1.000000 -0.000000 0.000000 112 111 114 255
-0.169609 -0.706269 0.266098 1.000000 -0.000000 0.000000 112 111 114 255
-0.264101 -0.238779 0.828080 0.000000 -0.000000 1.000000 112 111 114 255
-0.731591 -0.706269 0.828080 0.000000 -0.000000 1.000000 112 111 114 255
-0.264101 -0.706269 0.828080 0.000000 -0.000000 1.000000 112 111 114 255
-0.264101 -0.800761 0.266098 0.577350 -0.577350 -0.577350 112 111 114 255
-0.264101 -0.706269 0.171606 0.577350 -0.577350 -0.577350 112 111 114 255
-0.169609 -0.706269 0.266098 0.577350 -0.577350 -0.577350 112 111 114 255
-0.264101 -0.238779 0.171606 0.577350 0.577350 -0.577350 112 111 114 255
-0.264101 -0.144287 0.266098 0.577350 0.577350 -0.577350 112 111 114 255
-0.169609 -0.238779 0.266098 0.577350 0.577350 -0.577350 112 111 114 255
-0.264101 -0.800761 0.733588 0.577350 -0.577350 0.577350 112 111 114 255
-0.169609 -0.706269 0.733588 0.577350 -0.577350 0.577350 112 111 114 255
-0.264101 -0.706269 0.828080 0.577350 -0.577350 0.577350 112 111 114 255
-0.264101 -0.144287 0.733588 0.577350 0.577350 0.577350 112 111 114 255
-0.264101 -0.238779 0.828080 0.577350 0.577350 0.577350 112 111 114 255
-0.169609 -0.238779 0.733588 0.577350 0.577350 0.577350 112 111 114 255
-0.731591 -0.800761 0.266098 -0.577350 -0.577350 -0.577350 112 111 114 255
-0.826082 -0.706269 0.266098 -0.577350 -0.577350 -0.577350 112 111 114 255
-0.731591 -0.706269 0.171606 -0.577350 -0.577350 -0.577350 112 111 114 255
-0.731591 -0.144287 0.266098 -0.577350 0.577350 -0.577350 112 111 114 255
-0.731591 -0.238779 0.171606 -0.577350 0.577350 -0.577350 112 111 114 255
-0.826082 -0.238779 0.266098 -0.577350 0.577350 -0.577350 112 111 114 255
-0.731591 -0.800761 0.733588 -0.577350 -0.577350 0.577350 112 111 114 255
-0.731591 -0.706269 0.828080 -0.577350 -0.577350 0.577350 112 111 114 255
-0.826082 -0.706269 0.733588 -0.577350 -0.577350 0.577350 112 111 114 255
-0.731591 -0.144287 0.733588 -0.577350 0.577350 0.577350 112 111 114 255
-0.826082 -0.238779 0.733588 -0.577350 0.577350 0.577350 112 111 114 255
-0.731591 -0.238779 0.828080 -0.577350 0.577350 0.577350 112 111 114 255
-0.264101 -0.800761 0.266098 0.707107 -0.707107 0.000000 112 111 114 255
-0.169609 -0.706269 0.733588 0.707107 -0.707107 0.000000 112 111 114 255
-0.264101 -0.800761 0.733588 0.707107 -0.707107 0.000000 112 111 114 255
-0.264101 -0.238779 0.171606 0.707107 0.000000 -0.707107 112 111 114 255
-0.169609 -0.706269 0.266098 0.707107 0.000000 -0.707107 112 111 114 255
-0.264101 -0.706269 0.171606 0.707107 0.000000 -0.707107 112 111 114 255
-0.264101 -0.144287 0.733588 0.707107 0.707107 0.000000 112 111 114 255
-0.169609 -0.238779 0.266098 0.707107 0.707107 0.000000 112 111 114 255
-0.264101 -0.144287 0.266098 0.707107 0.707107 0.000000 112 111 114 255
-0.264101 -0.706269 0.828080 0.707107 0.000000 0.707107 112 111 114 255
-0.169609 -0.238779 0.733588 0.707107 0.000000 0.707107 112 111 114 255
-0.264101 -0.238779 0.828080 0.707107 0.000000 0.707107 112 111 114 255
-0.264101 -0.800761 0.733588 0.000000 -0.707107 0.707107 112 111 114 255
-0.731591 -0.706269 0.828080 0.000000 -0.707107 0.707107 112 111 114 255
-0.731591 -0.800761 0.733588 0.000000 -0.707107 0.707107 112 111 114 255
-0.731591 -0.144287 0.733588 0.000000 0.707107 0.707107 112 111 114 255
-0.264101 -0.238779 0.828080 0.000000 0.707107 0.707107 112 111 114 255
-0.264101 -0.144287 0.733588 0.000000 0.707107 0.707107 112 111 114 255
-0.826082 -0.706269 0.733588 -0.707107 0.000000 0.707107 112 111 114 255
-0.731591 -0.238779 0.828080 -0.707107 0.000000 0.707107 112 111 114 255
-0.826082 -0.238779 0.733588 -0.707107 0.000000 0.707107 112 111 114 255
-0.731591 -0.800761 0.733588 -0.707107 -0.707107 0.000000 112 111 114 255
-0.826082 -0.706269 0.266098 -0.707107 -0.707107 0.000000 112 111 114 255
-0.731591 -0.800761 0.266098 -0.707107 -0.707107 0.000000 112 111 114 255
-0.731591 -0.144287 0.266098 -0.707107 0.707107 0.000000 112 111 114 255
-0.826082 -0.238779 0.733588 -0.707107 0.707107 0.000000 112 111 114 255
-0.731591 -0.144287 0.733588 -0.707107 0.707107 0.000000 112 111 114 255
-0.731591 -0.706269 0.171606 -0.707107 0.000000 -0.707107 112 111 114 255
-0.826082 -0.238779 0.266098 -0.707107 0.000000 -0.707107 112 111 114 255
-0.731591 -0.238779 0.171606 -0.707107 0.000000 -0.707107 112 111 114 255
-0.731591 -0.800761 0.266098 0.000000 -0.707107 -0.707107 112 111 114 255
-0.264101 -0.706269 0.171606 0.000000 -0.707107 -0.707107 112 111 114 255
-0.264101 -0.800761 0.266098 0.000000 -0.707107 -0.707107 112 111 114 255
-0.264101 -0.144287 0.266098 0.000000 0.707107 -0.707107 112 111 114 255
-0.731591 -0.238779 0.171606 0.000000 0.707107 -0.707107 112 111 114 255
-0.731591 -0.144287 0.266098 0.000000 0.707107 -0.707107 112 111 114 255
-0.731591 -0.800761 0.733588 -0.000000 -1.000000 -0.000000 112 111 114 255
-0.264101 -0.800761 0.266098 -0.000000 -1.000000 -0.000000 112 111 114 255
-0.264101 -0.800761 0.733588 -0.000000 -1.000000 -0.000000 112 111 114 255
-0.264101 -0.238779 0.171606 0.000000 0.000000 -1.000000 112 111 114 255
-0.826082 -0.238779 0.266098 -1.000000 0.000000 0.000000 112 111 114 255
-0.264101 -0.144287 0.266098 0.000000 1.000000 0.000000 112 111 114 255
-0.169609 -0.238779 0.733588 1.000000 -0.000000 0.000000 112 111 114 255
-0.731591 -0.238779 0.828080 0.000000 0.000000 1.000000 112 111 114 255
-0.169609 -0.706269 0.266098 0.707107 -0.707107 0.000000 112 111 114 255
-0.169609 -0.238779 0.266098 0.707107 0.000000 -0.707107 112 111 114 255
-0.169609 -0.238779 0.733588 0.707107 0.707107 -0.000000 112 111 114 255
-0.169609 -0.706269 0.733588 0.707107 0.000000 0.707107 112 111 114 255
-0.264101 -0.706269 0.828080 0.000000 -0.707107 0.707107 112 111 114 255
-0.731591 -0.238779 0.828080 0.000000 0.707107 0.707107 112 111 114 255
-0.731591 -0.706269 0.828080 -0.707107 0.000000 0.707107 112 111 114 255
-0.826082 -0.706269 0.733588 -0.707107 -0.707107 0.000000 112 111 114 255
-0.826082 -0.238779 0.266098 -0.707107 0.707107 0.000000 112 111 114 255
-0.826082 -0.706269 0.266098 -0.707107 -0.000000 -0.707107 112 111 114 255
-0.731591 -0.706269 0.171606 -0.000000 -0.707107 -0.707107 112 111 114 255
-0.264101 -0.238779 0.171606 0.000000 0.707107 -0.707107 112 111 114 255
-0.731591 -0.800761 0.266098 0.000000 -1.000000 0.000000 112 111 114 255
3 0 1 2
3 3 4 5
3 6 7 8
3 9 10 11
3 12 13 14
3 15 16 17
3 18 19 20
3 21 22 23
3 24 25 26
3 27 28 29
3 30 31 32
3 33 34 35
3 36 37 38
3 39 40 41
3 42 43 44
3 45 46 47
3 48 49 50
3 51 52 53
3 54 55 56
3 57 58 59
3 60 61 62
3 63 64 65
3 66 67 68
3 69 70 71
3 72 73 74
3 75 76 77
3 0 78 1
3 3 79 4
3 6 80 7
3 9 81 10
3 12 82 13
3 39 83 40
3 42 84 43
3 45 85 46
3 48 86 49
3 51 87 52
3 54 88 55
3 57 89 58
3 60 90 61
3 63 91 64
3 66 92 67
3 69 93 70
3 72 94 73
3 75 95 76
3 96 97 98
3 99 100 101
3 102 103 104
3 105 106 107
3 108 109 110
3 111 112 113
3 114 115 116
3 117 118 119
3 120 121 122
3 123 124 125
3 126 127 128
3 129 130 131
3 132 133 134
3 135 136 137
3 138 139 140
3 141 142 143
3 144 145 146
3 147 148 149
3 150 151 152
3 153 154 155
3 156 157 158
3 159 160 161
3 162 163 164
3 165 166 167
3 168 169 170
3 171 172 173
3 96 174 97
3 99 175 100
3 102 176 103
3 105 177 106
3 108 178 109
3 135 179 136
3 138 180 139
3 141 181 142
3 144 182 145
3 147 183 148
3 150 184 151
3 153 185 154
3 156 186 157
3 159 187 160
3 162 188 163
3 165 189 166
3 168 190 169
3 171 191 172
3 192 193 194
3 195 196 197
3 198 199 200
3 201 202 203
3 204 205 206
3 207 208 209
3 210 211 212
3 213 214 215
3 216 217 218
3 219 220 221
3 222 223 224
3 225 226 227
3 228 229 230
3 231 232 233
3 234 235 236
3 237 238 239
3 240 241 242
3 243 244 245
3 246 247 248
3 249 250 251
3 252 253 254
3 255 256 257
3 258 259 260
3 261 262 263
3 264 265 266
3 267 268 269
3 192 270 193
3 195 271 196
3 198 272 199
3 201 273 202
3 204 274 205
3 231 275 232
3 234 276 235
3 237 277 238
3 240 278 241
3 243 279 244
3 246 280 247
3 249 281 250
3 252 282 253
3 255 283 256
3 258 284 259
3 261 285 262
3 264 286 265
3 267 287 268
3 288 289 290
3 291 292 293
3 294 295 296
3 297 298 299
3 300 301 302
3 303 304 305
3 306 307 308
3 309 310 311
3 312 313 314
3 315 316 317
3 318 319 320
3 321 322 323
3 324 325 326
3 327 328 329
3 330 331 332
3 333 334 335
3 336 337 338
3 339 340 341
3 342 343 344
3 345 346 347
3 348 349 350
3 351 352 353
3 354 355 356
3 357 358 359
3 360 361 362
3 363 364 365
3 288 366 289
3 291 367 292
3 294 368 295
3 297 369 298
3 300 370 301
3 327 371 328
3 330 372 331
3 333 373 334
3 336 374 337
3 339 375 340
3 342 376 343
3 345 377 346
3 348 378 349
3 351 379 352
3 354 380 355
3 357 381 358
3 360 382 361
3 363 383 364
