ply
format ascii 1.0
comment Created by Blender 2.91.2 - www.blender.org
element vertex 240
property float x
property float y
property float z
property float nx
property float ny
property float nz
property uchar red
property uchar green
property uchar blue
property uchar alpha
element face 80
property list uchar uint vertex_indices
end_header
0.000000 -0.750000 0.000000 0.002942 -0.986377 0.164476 101 105 105 255
-0.399811 -0.799629 -0.290476 0.002942 -0.986377 0.164476 101 105 105 255
0.158696 -0.830971 -0.488426 0.002942 -0.986377 0.164476 101 105 105 255
-0.578186 -0.357348 -0.420073 -0.897307 -0.409888 -0.163804 101 105 105 255
-0.399811 -0.799629 -0.290476 -0.897307 -0.409888 -0.163804 101 105 105 255
-0.637987 -0.394308 0.000000 -0.897307 -0.409888 -0.163804 101 105 105 255
0.000000 -0.750000 0.000000 0.265207 -0.933602 0.240941 101 105 105 255
0.158696 -0.830971 -0.488426 0.265207 -0.933602 0.240941 101 105 105 255
0.394302 -0.637991 0.000000 0.265207 -0.933602 0.240941 101 105 105 255
0.000000 -0.750000 0.000000 0.268027 -0.943526 0.194730 101 105 105 255
0.394302 -0.637991 0.000000 0.268027 -0.943526 0.194730 101 105 105 255
0.121843 -0.637994 0.374999 0.268027 -0.943526 0.194730 102 106 106 255
0.000000 -0.750000 0.000000 0.182290 -0.956789 0.226549 101 105 105 255
0.121843 -0.637994 0.374999 0.182290 -0.956789 0.226549 102 106 106 255
-0.378497 -0.757000 0.274991 0.182290 -0.956789 0.226549 101 105 105 255
-0.578186 -0.357348 -0.420073 -0.948277 -0.274661 -0.159162 101 105 105 255
-0.637987 -0.394308 0.000000 -0.948277 -0.274661 -0.159162 101 105 105 255
-0.713296 0.000000 -0.231763 -0.948277 -0.274661 -0.159162 101 105 105 255
0.302959 -0.490216 -0.932431 -0.006343 -0.082841 -0.996543 101 105 105 255
-0.298824 -0.597648 -0.919669 -0.006343 -0.082841 -0.996543 101 105 105 255
0.000000 0.000000 -0.971253 -0.006343 -0.082841 -0.996543 101 105 105 255
0.727953 -0.363982 0.000000 0.997138 -0.007730 -0.075203 101 105 105 255
0.688944 -0.526313 -0.500546 0.997138 -0.007730 -0.075203 101 105 105 255
0.713296 0.000000 -0.231763 0.997138 -0.007730 -0.075203 101 105 105 255
0.256722 -0.415397 0.790120 0.471346 -0.227312 0.852152 101 105 105 255
0.703043 -0.537083 0.510789 0.471346 -0.227312 0.852152 101 105 105 255
0.540516 0.000000 0.743953 0.471346 -0.227312 0.852152 101 105 105 255
-0.648136 -0.400577 0.470893 -0.258044 -0.408877 0.875347 101 105 105 255
-0.197155 -0.394310 0.606766 -0.258044 -0.408877 0.875347 101 105 105 255
-0.508071 0.000000 0.699293 -0.258044 -0.408877 0.875347 101 105 105 255
-0.578186 -0.357348 -0.420073 -0.809016 0.003856 -0.587775 101 105 105 255
-0.713296 0.000000 -0.231763 -0.809016 0.003856 -0.587775 101 105 105 255
-0.440847 0.000000 -0.606763 -0.809016 0.003856 -0.587775 101 105 105 255
0.302959 -0.490216 -0.932431 0.604609 0.315743 -0.731269 101 105 105 255
0.000000 0.000000 -0.971253 0.604609 0.315743 -0.731269 101 105 105 255
0.440847 0.000000 -0.606763 0.604609 0.315743 -0.731269 101 105 105 255
0.727953 -0.363982 0.000000 0.999190 0.040238 0.000000 101 105 105 255
0.713296 0.000000 -0.231763 0.999190 0.040238 0.000000 101 105 105 255
0.713296 0.000000 0.231763 0.999190 0.040238 0.000000 101 105 105 255
0.256722 -0.415397 0.790120 0.011127 0.102939 0.994625 101 105 105 255
0.540516 0.000000 0.743953 0.011127 0.102939 0.994625 101 105 105 255
0.000000 0.000000 0.750000 0.011127 0.102939 0.994625 101 105 105 255
-0.648136 -0.400577 0.470893 -0.697991 -0.154619 0.699215 101 105 105 255
-0.508071 0.000000 0.699293 -0.697991 -0.154619 0.699215 101 105 105 255
-0.911810 0.000000 0.296261 -0.697991 -0.154619 0.699215 101 105 105 255
-0.260966 0.422264 -0.803181 -0.519822 0.600793 -0.607317 101 105 105 255
-0.617687 0.471877 -0.448773 -0.519822 0.600793 -0.607317 101 105 105 255
-0.158474 0.829807 -0.487742 -0.519822 0.600793 -0.607317 101 105 105 255
0.542709 0.335423 -0.394297 0.759737 0.635545 -0.137413 101 105 105 255
0.276996 0.553992 -0.852490 0.759737 0.635545 -0.137413 101 105 105 255
0.318996 0.637994 -0.231761 0.759737 0.635545 -0.137413 101 105 105 255
0.782107 0.483373 0.568227 0.465757 0.848530 -0.251130 101 105 105 255
0.637987 0.394308 0.000000 0.465757 0.848530 -0.251130 101 105 105 255
0.318996 0.637994 0.231761 0.465757 0.848530 -0.251130 101 105 105 255
-0.237819 0.384809 0.731939 0.175985 0.724409 0.666529 101 105 105 255
0.197155 0.394310 0.606766 0.175985 0.724409 0.666529 101 105 105 255
-0.127857 0.669485 0.393509 0.175985 0.724409 0.666529 101 105 105 255
-0.670825 0.335419 0.000000 -0.736692 0.673268 -0.063201 101 105 105 255
-0.597470 0.456432 0.434084 -0.736692 0.673268 -0.063201 101 105 105 255
-0.394302 0.637991 0.000000 -0.736692 0.673268 -0.063201 101 105 105 255
-0.394302 0.637991 0.000000 -0.271677 0.956376 0.107410 101 105 105 255
-0.127857 0.669485 0.393509 -0.271677 0.956376 0.107410 101 105 105 255
0.000000 0.750000 0.000000 -0.271677 0.956376 0.107410 101 105 105 255
-0.394302 0.637991 0.000000 -0.391491 0.899699 0.193073 101 105 105 255
-0.597470 0.456432 0.434084 -0.391491 0.899699 0.193073 101 105 105 255
-0.127857 0.669485 0.393509 -0.391491 0.899699 0.193073 101 105 105 255
-0.597470 0.456432 0.434084 -0.303963 0.775409 0.553486 101 105 105 255
-0.237819 0.384809 0.731939 -0.303963 0.775409 0.553486 101 105 105 255
-0.127857 0.669485 0.393509 -0.303963 0.775409 0.553486 101 105 105 255
-0.127857 0.669485 0.393509 0.156654 0.956377 0.246582 101 105 105 255
0.318996 0.637994 0.231761 0.156654 0.956377 0.246582 101 105 105 255
0.000000 0.750000 0.000000 0.156654 0.956377 0.246582 101 105 105 255
-0.127857 0.669485 0.393509 0.265604 0.766688 0.584503 101 105 105 255
0.197155 0.394310 0.606766 0.265604 0.766688 0.584503 101 105 105 255
0.318996 0.637994 0.231761 0.265604 0.766688 0.584503 101 105 105 255
0.197155 0.394310 0.606766 -0.094899 0.848535 0.520559 101 105 105 255
0.782107 0.483373 0.568227 -0.094899 0.848535 0.520559 101 105 105 255
0.318996 0.637994 0.231761 -0.094899 0.848535 0.520559 101 105 105 255
0.318996 0.637994 0.231761 0.331293 0.943528 -0.000000 101 105 105 255
0.318996 0.637994 -0.231761 0.331293 0.943528 -0.000000 101 105 105 255
0.000000 0.750000 0.000000 0.331293 0.943528 -0.000000 101 105 105 255
0.318996 0.637994 0.231761 0.607059 0.794657 0.000000 101 105 105 255
0.637987 0.394308 0.000000 0.607059 0.794657 0.000000 101 105 105 255
0.318996 0.637994 -0.231761 0.607059 0.794657 0.000000 101 105 105 255
0.637987 0.394308 0.000000 0.700223 0.661703 -0.268023 101 105 105 255
0.542709 0.335423 -0.394297 0.700223 0.661703 -0.268023 101 105 105 255
0.318996 0.637994 -0.231761 0.700223 0.661703 -0.268023 101 105 105 255
0.318996 0.637994 -0.231761 0.355165 0.934054 0.037437 101 105 105 255
-0.158474 0.829807 -0.487742 0.355165 0.934054 0.037437 101 105 105 255
0.000000 0.750000 0.000000 0.355165 0.934054 0.037437 101 105 105 255
0.318996 0.637994 -0.231761 0.436589 0.887137 -0.149595 101 105 105 255
0.276996 0.553992 -0.852490 0.436589 0.887137 -0.149595 101 105 105 255
-0.158474 0.829807 -0.487742 0.436589 0.887137 -0.149595 101 105 105 255
0.276996 0.553992 -0.852490 -0.222644 0.631115 -0.743050 101 105 105 255
-0.260966 0.422264 -0.803181 -0.222644 0.631115 -0.743050 101 105 105 255
-0.158474 0.829807 -0.487742 -0.222644 0.631115 -0.743050 101 105 105 255
-0.158474 0.829807 -0.487742 -0.265335 0.934053 0.239046 101 105 105 255
-0.394302 0.637991 0.000000 -0.265335 0.934053 0.239046 101 105 105 255
0.000000 0.750000 0.000000 -0.265335 0.934053 0.239046 101 105 105 255
-0.158474 0.829807 -0.487742 -0.613990 0.789198 0.013501 101 105 105 255
-0.617687 0.471877 -0.448773 -0.613990 0.789198 0.013501 101 105 105 255
-0.394302 0.637991 0.000000 -0.613990 0.789198 0.013501 101 105 105 255
-0.617687 0.471877 -0.448773 -0.733105 0.669990 0.116918 101 105 105 255
-0.670825 0.335419 0.000000 -0.733105 0.669990 0.116918 101 105 105 255
-0.394302 0.637991 0.000000 -0.733105 0.669990 0.116918 101 105 105 255
-0.911810 0.000000 0.296261 -0.820491 0.571288 -0.020610 101 105 105 255
-0.597470 0.456432 0.434084 -0.820491 0.571288 -0.020610 101 105 105 255
-0.670825 0.335419 0.000000 -0.820491 0.571288 -0.020610 101 105 105 255
-0.911810 0.000000 0.296261 -0.681572 0.263225 0.682768 101 105 105 255
-0.508071 0.000000 0.699293 -0.681572 0.263225 0.682768 101 105 105 255
-0.597470 0.456432 0.434084 -0.681572 0.263225 0.682768 101 105 105 255
-0.508071 0.000000 0.699293 -0.562103 0.330446 0.758185 101 105 105 255
-0.237819 0.384809 0.731939 -0.562103 0.330446 0.758185 101 105 105 255
-0.597470 0.456432 0.434084 -0.562103 0.330446 0.758185 101 105 105 255
0.000000 0.000000 0.750000 0.266245 0.208713 0.941038 101 105 105 255
0.197155 0.394310 0.606766 0.266245 0.208713 0.941038 101 105 105 255
-0.237819 0.384809 0.731939 0.266245 0.208713 0.941038 101 105 105 255
0.000000 0.000000 0.750000 0.010533 0.336750 0.941535 101 105 105 255
0.540516 0.000000 0.743953 0.010533 0.336750 0.941535 101 105 105 255
0.197155 0.394310 0.606766 0.010533 0.336750 0.941535 101 105 105 255
0.540516 0.000000 0.743953 0.010732 0.336903 0.941478 101 105 105 255
0.782107 0.483373 0.568227 0.010732 0.336903 0.941478 101 105 105 255
0.197155 0.394310 0.606766 0.010732 0.336903 0.941478 101 105 105 255
0.713296 0.000000 0.231763 0.967239 0.037120 -0.251139 101 105 105 255
0.637987 0.394308 0.000000 0.967239 0.037120 -0.251139 101 105 105 255
0.782107 0.483373 0.568227 0.967239 0.037120 -0.251139 101 105 105 255
0.713296 0.000000 0.231763 0.982246 0.187598 -0.000000 101 105 105 255
0.713296 0.000000 -0.231763 0.982246 0.187598 -0.000000 101 105 105 255
0.637987 0.394308 0.000000 0.982246 0.187598 -0.000000 101 105 105 255
0.713296 0.000000 -0.231763 0.904993 0.330380 -0.268023 101 105 105 255
0.542709 0.335423 -0.394297 0.904993 0.330380 -0.268023 101 105 105 255
0.637987 0.394308 0.000000 0.904993 0.330380 -0.268023 101 105 105 255
0.440847 0.000000 -0.606763 0.872974 0.042672 -0.485896 101 105 105 255
0.276996 0.553992 -0.852490 0.872974 0.042672 -0.485896 101 105 105 255
0.542709 0.335423 -0.394297 0.872974 0.042672 -0.485896 101 105 105 255
0.440847 0.000000 -0.606763 0.629840 -0.151611 -0.761785 101 105 105 255
0.000000 0.000000 -0.971253 0.629840 -0.151611 -0.761785 101 105 105 255
0.276996 0.553992 -0.852490 0.629840 -0.151611 -0.761785 101 105 105 255
0.000000 0.000000 -0.971253 -0.155568 0.280814 -0.947070 101 105 105 255
-0.260966 0.422264 -0.803181 -0.155568 0.280814 -0.947070 101 105 105 255
0.276996 0.553992 -0.852490 -0.155568 0.280814 -0.947070 101 105 105 255
-0.440847 0.000000 -0.606763 -0.706484 -0.027990 -0.707175 101 105 105 255
-0.617687 0.471877 -0.448773 -0.706484 -0.027990 -0.707175 101 105 105 255
-0.260966 0.422264 -0.803181 -0.706484 -0.027990 -0.707175 101 105 105 255
-0.440847 0.000000 -0.606763 -0.804481 -0.105796 -0.584480 101 105 105 255
-0.713296 0.000000 -0.231763 -0.804481 -0.105796 -0.584480 101 105 105 255
-0.617687 0.471877 -0.448773 -0.804481 -0.105796 -0.584480 101 105 105 255
-0.713296 0.000000 -0.231763 -0.983408 0.169389 -0.064937 101 105 105 255
-0.670825 0.335419 0.000000 -0.983408 0.169389 -0.064937 101 105 105 255
-0.617687 0.471877 -0.448773 -0.983408 0.169389 -0.064937 101 105 105 255
-0.508071 0.000000 0.699293 -0.099298 -0.014669 0.994950 101 105 105 255
0.000000 0.000000 0.750000 -0.099298 -0.014669 0.994950 101 105 105 255
-0.237819 0.384809 0.731939 -0.099298 -0.014669 0.994950 101 105 105 255
-0.508071 0.000000 0.699293 -0.094807 -0.297669 0.949950 101 105 105 255
-0.197155 -0.394310 0.606766 -0.094807 -0.297669 0.949950 101 105 105 255
0.000000 0.000000 0.750000 -0.094807 -0.297669 0.949950 101 105 105 255
-0.197155 -0.394310 0.606766 -0.376402 -0.144234 0.915160 101 105 105 255
0.256722 -0.415397 0.790120 -0.376402 -0.144234 0.915160 101 105 105 255
0.000000 0.000000 0.750000 -0.376402 -0.144234 0.915160 101 105 105 255
0.540516 0.000000 0.743953 0.892271 -0.336534 0.300993 101 105 105 255
0.713296 0.000000 0.231763 0.892271 -0.336534 0.300993 101 105 105 255
0.782107 0.483373 0.568227 0.892271 -0.336534 0.300993 101 105 105 255
0.540516 0.000000 0.743953 0.937334 0.146376 0.316195 101 105 105 255
0.703043 -0.537083 0.510789 0.937334 0.146376 0.316195 101 105 105 255
0.713296 0.000000 0.231763 0.937334 0.146376 0.316195 101 105 105 255
0.703043 -0.537083 0.510789 0.998656 0.007571 0.051269 101 105 105 255
0.727953 -0.363982 0.000000 0.998656 0.007571 0.051269 101 105 105 255
0.713296 0.000000 0.231763 0.998656 0.007571 0.051269 101 105 105 255
0.713296 0.000000 -0.231763 0.802612 0.125625 -0.583122 101 105 105 255
0.440847 0.000000 -0.606763 0.802612 0.125625 -0.583122 101 105 105 255
0.542709 0.335423 -0.394297 0.802612 0.125625 -0.583122 101 105 105 255
0.713296 0.000000 -0.231763 0.782464 0.254116 -0.568484 101 105 105 255
0.688944 -0.526313 -0.500546 0.782464 0.254116 -0.568484 101 105 105 255
0.440847 0.000000 -0.606763 0.782464 0.254116 -0.568484 101 105 105 255
0.688944 -0.526313 -0.500546 0.736659 0.218063 -0.640143 101 105 105 255
0.302959 -0.490216 -0.932431 0.736659 0.218063 -0.640143 101 105 105 255
0.440847 0.000000 -0.606763 0.736659 0.218063 -0.640143 101 105 105 255
0.000000 0.000000 -0.971253 -0.634805 -0.086720 -0.767790 101 105 105 255
-0.440847 0.000000 -0.606763 -0.634805 -0.086720 -0.767790 101 105 105 255
-0.260966 0.422264 -0.803181 -0.634805 -0.086720 -0.767790 101 105 105 255
0.000000 0.000000 -0.971253 -0.617876 0.244437 -0.747315 101 105 105 255
-0.298824 -0.597648 -0.919669 -0.617876 0.244437 -0.747315 101 105 105 255
-0.440847 0.000000 -0.606763 -0.617876 0.244437 -0.747315 101 105 105 255
-0.298824 -0.597648 -0.919669 -0.857809 0.063206 -0.510067 101 105 105 255
-0.578186 -0.357348 -0.420073 -0.857809 0.063206 -0.510067 101 105 105 255
-0.440847 0.000000 -0.606763 -0.857809 0.063206 -0.510067 101 105 105 255
-0.713296 0.000000 -0.231763 -0.880231 0.340116 -0.330929 101 105 105 255
-0.911810 0.000000 0.296261 -0.880231 0.340116 -0.330929 101 105 105 255
-0.670825 0.335419 0.000000 -0.880231 0.340116 -0.330929 101 105 105 255
-0.713296 0.000000 -0.231763 -0.873351 -0.359791 -0.328343 101 105 105 255
-0.637987 -0.394308 0.000000 -0.873351 -0.359791 -0.328343 101 105 105 255
-0.911810 0.000000 0.296261 -0.873351 -0.359791 -0.328343 101 105 105 255
-0.637987 -0.394308 0.000000 -0.829917 -0.557313 -0.025306 101 105 105 255
-0.648136 -0.400577 0.470893 -0.829917 -0.557313 -0.025306 101 105 105 255
-0.911810 0.000000 0.296261 -0.829917 -0.557313 -0.025306 101 105 105 255
-0.378497 -0.757000 0.274991 -0.224426 -0.594273 0.772317 101 105 105 255
-0.197155 -0.394310 0.606766 -0.224426 -0.594273 0.772317 101 105 105 255
-0.648136 -0.400577 0.470893 -0.224426 -0.594273 0.772317 101 105 105 255
-0.378497 -0.757000 0.274991 0.014744 -0.678890 0.734092 101 105 105 255
0.121843 -0.637994 0.374999 0.014744 -0.678890 0.734092 102 106 106 255
-0.197155 -0.394310 0.606766 0.014744 -0.678890 0.734092 101 105 105 255
0.121843 -0.637994 0.374999 -0.247718 -0.818014 0.519124 102 106 106 255
0.256722 -0.415397 0.790120 -0.247718 -0.818014 0.519124 101 105 105 255
-0.197155 -0.394310 0.606766 -0.247718 -0.818014 0.519124 101 105 105 255
0.121843 -0.637994 0.374999 0.046379 -0.886543 0.460315 102 106 106 255
0.703043 -0.537083 0.510789 0.046379 -0.886543 0.460315 101 105 105 255
0.256722 -0.415397 0.790120 0.046379 -0.886543 0.460315 101 105 105 255
0.121843 -0.637994 0.374999 0.145993 -0.983583 0.106066 102 106 106 255
0.394302 -0.637991 0.000000 0.145993 -0.983583 0.106066 101 105 105 255
0.703043 -0.537083 0.510789 0.145993 -0.983583 0.106066 101 105 105 255
0.394302 -0.637991 0.000000 0.618378 -0.752978 -0.225019 101 105 105 255
0.727953 -0.363982 0.000000 0.618378 -0.752978 -0.225019 101 105 105 255
0.703043 -0.537083 0.510789 0.618378 -0.752978 -0.225019 101 105 105 255
0.394302 -0.637991 0.000000 0.622190 -0.757619 0.197213 101 105 105 255
0.688944 -0.526313 -0.500546 0.622190 -0.757619 0.197213 101 105 105 255
0.727953 -0.363982 0.000000 0.622190 -0.757619 0.197213 101 105 105 255
0.394302 -0.637991 0.000000 0.497385 -0.861686 0.100529 101 105 105 255
0.158696 -0.830971 -0.488426 0.497385 -0.861686 0.100529 101 105 105 255
0.688944 -0.526313 -0.500546 0.497385 -0.861686 0.100529 101 105 105 255
0.158696 -0.830971 -0.488426 0.435917 -0.776784 -0.454514 101 105 105 255
0.302959 -0.490216 -0.932431 0.435917 -0.776784 -0.454514 101 105 105 255
0.688944 -0.526313 -0.500546 0.435917 -0.776784 -0.454514 101 105 105 255
-0.637987 -0.394308 0.000000 -0.803871 -0.594268 -0.025237 101 105 105 255
-0.378497 -0.757000 0.274991 -0.803871 -0.594268 -0.025237 101 105 105 255
-0.648136 -0.400577 0.470893 -0.803871 -0.594268 -0.025237 101 105 105 255
-0.637987 -0.394308 0.000000 -0.836337 -0.543402 0.072489 101 105 105 255
-0.399811 -0.799629 -0.290476 -0.836337 -0.543402 0.072489 101 105 105 255
-0.378497 -0.757000 0.274991 -0.836337 -0.543402 0.072489 101 105 105 255
-0.399811 -0.799629 -0.290476 0.070946 -0.994855 0.072325 101 105 105 255
0.000000 -0.750000 0.000000 0.070946 -0.994855 0.072325 101 105 105 255
-0.378497 -0.757000 0.274991 0.070946 -0.994855 0.072325 101 105 105 255
0.158696 -0.830971 -0.488426 0.131778 -0.806603 -0.576217 101 105 105 255
-0.298824 -0.597648 -0.919669 0.131778 -0.806603 -0.576217 101 105 105 255
0.302959 -0.490216 -0.932431 0.131778 -0.806603 -0.576217 101 105 105 255
0.158696 -0.830971 -0.488426 -0.167625 -0.930524 -0.325618 101 105 105 255
-0.399811 -0.799629 -0.290476 -0.167625 -0.930524 -0.325618 101 105 105 255
-0.298824 -0.597648 -0.919669 -0.167625 -0.930524 -0.325618 101 105 105 255
-0.399811 -0.799629 -0.290476 -0.860805 -0.427903 -0.275525 101 105 105 255
-0.578186 -0.357348 -0.420073 -0.860805 -0.427903 -0.275525 101 105 105 255
-0.298824 -0.597648 -0.919669 -0.860805 -0.427903 -0.275525 101 105 105 255
3 0 1 2
3 3 4 5
3 6 7 8
3 9 10 11
3 12 13 14
3 15 16 17
3 18 19 20
3 21 22 23
3 24 25 26
3 27 28 29
3 30 31 32
3 33 34 35
3 36 37 38
3 39 40 41
3 42 43 44
3 45 46 47
3 48 49 50
3 51 52 53
3 54 55 56
3 57 58 59
3 60 61 62
3 63 64 65
3 66 67 68
3 69 70 71
3 72 73 74
3 75 76 77
3 78 79 80
3 81 82 83
3 84 85 86
3 87 88 89
3 90 91 92
3 93 94 95
3 96 97 98
3 99 100 101
3 102 103 104
3 105 106 107
3 108 109 110
3 111 112 113
3 114 115 116
3 117 118 119
3 120 121 122
3 123 124 125
3 126 127 128
3 129 130 131
3 132 133 134
3 135 136 137
3 138 139 140
3 141 142 143
3 144 145 146
3 147 148 149
3 150 151 152
3 153 154 155
3 156 157 158
3 159 160 161
3 162 163 164
3 165 166 167
3 168 169 170
3 171 172 173
3 174 175 176
3 177 178 179
3 180 181 182
3 183 184 185
3 186 187 188
3 189 190 191
3 192 193 194
3 195 196 197
3 198 199 200
3 201 202 203
3 204 205 206
3 207 208 209
3 210 211 212
3 213 214 215
3 216 217 218
3 219 220 221
3 222 223 224
3 225 226 227
3 228 229 230
3 231 232 233
3 234 235 236
3 237 238 239
