ply
format ascii 1.0
comment Created by Blender 2.91.2 - www.blender.org
element vertex 240
property float x
property float y
property float z
property float nx
property float ny
property float nz
property uchar red
property uchar green
property uchar blue
property uchar alpha
element face 80
property list uchar uint vertex_indices
end_header
0.000000 -0.825412 0.000000 0.006611 -0.974035 -0.226299 101 105 105 255
-0.381777 -0.763561 -0.277374 0.006611 -0.974035 -0.226299 101 105 105 255
0.138537 -0.725411 -0.426380 0.006611 -0.974035 -0.226299 101 105 105 255
-0.880871 -0.544410 -0.639982 -0.474469 -0.871124 0.126576 101 105 105 255
-0.381777 -0.763561 -0.277374 -0.474469 -0.871124 0.126576 101 105 105 255
-0.800888 -0.494984 0.000000 -0.474469 -0.871124 0.126576 101 105 105 255
0.000000 -0.825412 0.000000 -0.106558 -0.959785 -0.259727 101 105 105 255
0.138537 -0.725411 -0.426380 -0.106558 -0.959785 -0.259727 101 105 105 255
0.547712 -0.886221 0.000000 -0.106558 -0.959785 -0.259727 101 105 105 255
0.000000 -0.825412 0.000000 -0.109992 -0.990714 -0.079920 101 105 105 255
0.547712 -0.886221 0.000000 -0.109992 -0.990714 -0.079920 101 105 105 255
0.169248 -0.886224 0.520902 -0.109992 -0.990714 -0.079920 101 105 105 255
0.000000 -0.825412 0.000000 -0.332607 -0.943063 -0.002027 101 105 105 255
0.169248 -0.886224 0.520902 -0.332607 -0.943063 -0.002027 101 105 105 255
-0.351070 -0.702143 0.255064 -0.332607 -0.943063 -0.002027 101 105 105 255
-0.880871 -0.544410 -0.639982 -0.974655 0.196670 0.106621 101 105 105 255
-0.800888 -0.494984 0.000000 -0.974655 0.196670 0.106621 101 105 105 255
-0.726843 0.000000 -0.236164 -0.974655 0.196670 0.106621 101 105 105 255
0.268073 -0.433765 -0.825057 0.359931 -0.311317 -0.879506 101 105 105 255
-0.322333 -0.644667 -0.992024 0.359931 -0.311317 -0.879506 101 105 105 255
0.000000 0.000000 -1.088304 0.359931 -0.311317 -0.879506 101 105 105 255
0.959310 -0.479656 0.000000 0.710956 -0.345701 -0.612399 101 105 105 255
0.597081 -0.456135 -0.433802 0.710956 -0.345701 -0.612399 101 105 105 255
0.931766 0.000000 -0.302745 0.710956 -0.345701 -0.612399 101 105 105 255
0.319636 -0.517201 0.983759 0.728999 0.163676 0.664659 101 105 105 255
0.738111 -0.563873 0.536268 0.728999 0.163676 0.664659 101 105 105 255
0.488027 0.000000 0.671704 0.728999 0.163676 0.664659 101 105 105 255
-0.681280 -0.421061 0.494973 -0.536913 -0.573515 0.618713 101 105 105 255
-0.254596 -0.509192 0.783551 -0.536913 -0.573515 0.618713 101 105 105 255
-0.657917 0.000000 0.905548 -0.536913 -0.573515 0.618713 101 105 105 255
-0.880871 -0.544410 -0.639982 -0.742099 0.521923 -0.420576 101 105 105 255
-0.726843 0.000000 -0.236164 -0.742099 0.521923 -0.420576 101 105 105 255
-0.483521 0.000000 -0.665502 -0.742099 0.521923 -0.420576 101 105 105 255
0.268073 -0.433765 -0.825057 0.177139 -0.428292 -0.886108 101 105 105 255
0.000000 0.000000 -1.088304 0.177139 -0.428292 -0.886108 101 105 105 255
0.690418 0.000000 -0.950284 0.177139 -0.428292 -0.886108 101 105 105 255
0.959310 -0.479656 0.000000 0.956680 -0.114118 -0.267845 101 105 105 255
0.931766 0.000000 -0.302745 0.956680 -0.114118 -0.267845 101 105 105 255
1.118250 0.000000 0.363334 0.956680 -0.114118 -0.267845 101 105 105 255
0.319636 -0.517201 0.983759 0.732601 0.160567 0.661449 101 105 105 255
0.488027 0.000000 0.671704 0.732601 0.160567 0.661449 101 105 105 255
0.000000 0.000000 1.212227 0.732601 0.160567 0.661449 101 105 105 255
-0.681280 -0.421061 0.494973 -0.891845 -0.289460 0.347601 101 105 105 255
-0.657917 0.000000 0.905548 -0.891845 -0.289460 0.347601 101 105 105 255
-0.897235 0.000000 0.291525 -0.891845 -0.289460 0.347601 101 105 105 255
-0.300793 0.486711 -0.925764 -0.821341 0.507256 -0.260943 101 105 105 255
-0.525952 0.401797 -0.382123 -0.821341 0.507256 -0.260943 101 105 105 255
-0.171826 0.899720 -0.528835 -0.821341 0.507256 -0.260943 101 105 105 255
0.708929 0.438148 -0.515061 0.097353 0.859376 -0.501991 101 105 105 255
0.209491 0.418982 -0.644731 0.097353 0.859376 -0.501991 101 105 105 255
0.322863 0.645727 -0.234571 0.097353 0.859376 -0.501991 101 105 105 255
0.850814 0.525834 0.618145 0.327981 0.919520 0.216589 101 105 105 255
1.000189 0.618155 0.000000 0.327981 0.919520 0.216589 101 105 105 255
0.385670 0.771346 0.280202 0.327981 0.919520 0.216589 101 105 105 255
-0.335043 0.542132 1.031179 0.403919 0.497204 0.767879 101 105 105 255
0.246185 0.492370 0.757664 0.403919 0.497204 0.767879 101 105 105 255
-0.202950 1.062697 0.624628 0.403919 0.497204 0.767879 101 105 105 255
-0.843809 0.421908 0.000000 -0.905500 0.264297 0.331990 101 105 105 255
-0.649244 0.495984 0.471701 -0.905500 0.264297 0.331990 101 105 105 255
-0.656776 1.062695 0.000000 -0.905500 0.264297 0.331990 101 105 105 255
-0.656776 1.062695 0.000000 -0.268039 0.943521 0.194740 101 105 105 255
-0.202950 1.062697 0.624628 -0.268039 0.943521 0.194740 101 105 105 255
0.000000 1.249274 0.000000 -0.268039 0.943521 0.194740 101 105 105 255
-0.656776 1.062695 0.000000 -0.729773 0.431627 0.530217 101 105 105 255
-0.649244 0.495984 0.471701 -0.729773 0.431627 0.530217 101 105 105 255
-0.202950 1.062697 0.624628 -0.729773 0.431627 0.530217 101 105 105 255
-0.649244 0.495984 0.471701 -0.771267 0.501666 0.391763 101 105 105 255
-0.335043 0.542132 1.031179 -0.771267 0.501666 0.391763 101 105 105 255
-0.202950 1.062697 0.624628 -0.771267 0.501666 0.391763 101 105 105 255
-0.202950 1.062697 0.624628 0.583913 0.706077 0.400626 101 105 105 255
0.385670 0.771346 0.280202 0.583913 0.706077 0.400626 101 105 105 255
0.000000 1.249274 0.000000 0.583913 0.706077 0.400626 101 105 105 255
-0.202950 1.062697 0.624628 0.604119 0.598482 0.526174 101 105 105 255
0.246185 0.492370 0.757664 0.604119 0.598482 0.526174 101 105 105 255
0.385670 0.771346 0.280202 0.604119 0.598482 0.526174 101 105 105 255
0.246185 0.492370 0.757664 0.072590 0.851759 0.518881 101 105 105 255
0.850814 0.525834 0.618145 0.072590 0.851759 0.518881 101 105 105 255
0.385670 0.771346 0.280202 0.072590 0.851759 0.518881 101 105 105 255
0.385670 0.771346 0.280202 0.818741 0.526763 -0.228439 101 105 105 255
0.322863 0.645727 -0.234571 0.818741 0.526763 -0.228439 101 105 105 255
0.000000 1.249274 0.000000 0.818741 0.526763 -0.228439 101 105 105 255
0.385670 0.771346 0.280202 0.125535 0.960171 -0.249625 101 105 105 255
1.000189 0.618155 0.000000 0.125535 0.960171 -0.249625 101 105 105 255
0.322863 0.645727 -0.234571 0.125535 0.960171 -0.249625 101 105 105 255
1.000189 0.618155 0.000000 0.179535 0.892634 -0.413488 101 105 105 255
0.708929 0.438148 -0.515061 0.179535 0.892634 -0.413488 101 105 105 255
0.322863 0.645727 -0.234571 0.179535 0.892634 -0.413488 101 105 105 255
0.322863 0.645727 -0.234571 0.617160 0.549155 -0.563509 101 105 105 255
-0.171826 0.899720 -0.528835 0.617160 0.549155 -0.563509 101 105 105 255
0.000000 1.249274 0.000000 0.617160 0.549155 -0.563509 101 105 105 255
0.322863 0.645727 -0.234571 0.612623 0.607746 -0.505309 101 105 105 255
0.209491 0.418982 -0.644731 0.612623 0.607746 -0.505309 101 105 105 255
-0.171826 0.899720 -0.528835 0.612623 0.607746 -0.505309 101 105 105 255
0.209491 0.418982 -0.644731 0.460739 0.535995 -0.707410 101 105 105 255
-0.300793 0.486711 -0.925764 0.460739 0.535995 -0.707410 101 105 105 255
-0.171826 0.899720 -0.528835 0.460739 0.535995 -0.707410 101 105 105 255
-0.171826 0.899720 -0.528835 -0.239743 0.843918 -0.479923 101 105 105 255
-0.656776 1.062695 0.000000 -0.239743 0.843918 -0.479923 101 105 105 255
0.000000 1.249274 0.000000 -0.239743 0.843918 -0.479923 101 105 105 255
-0.171826 0.899720 -0.528835 -0.666902 0.269627 -0.694653 101 105 105 255
-0.525952 0.401797 -0.382123 -0.666902 0.269627 -0.694653 101 105 105 255
-0.656776 1.062695 0.000000 -0.666902 0.269627 -0.694653 101 105 105 255
-0.525952 0.401797 -0.382123 -0.744755 0.217379 -0.630941 101 105 105 255
-0.843809 0.421908 0.000000 -0.744755 0.217379 -0.630941 101 105 105 255
-0.656776 1.062695 0.000000 -0.744755 0.217379 -0.630941 101 105 105 255
-0.897235 0.000000 0.291525 -0.889698 0.330383 0.315094 101 105 105 255
-0.649244 0.495984 0.471701 -0.889698 0.330383 0.315094 101 105 105 255
-0.843809 0.421908 0.000000 -0.889698 0.330383 0.315094 101 105 105 255
-0.897235 0.000000 0.291525 -0.883757 0.316748 0.344448 101 105 105 255
-0.657917 0.000000 0.905548 -0.883757 0.316748 0.344448 101 105 105 255
-0.649244 0.495984 0.471701 -0.883757 0.316748 0.344448 101 105 105 255
-0.657917 0.000000 0.905548 -0.817012 0.387665 0.426857 101 105 105 255
-0.335043 0.542132 1.031179 -0.817012 0.387665 0.426857 101 105 105 255
-0.649244 0.495984 0.471701 -0.817012 0.387665 0.426857 101 105 105 255
0.000000 0.000000 1.212227 0.402703 0.504035 0.764054 101 105 105 255
0.246185 0.492370 0.757664 0.402703 0.504035 0.764054 101 105 105 255
-0.335043 0.542132 1.031179 0.402703 0.504035 0.764054 101 105 105 255
0.000000 0.000000 1.212227 0.720479 0.240317 0.650505 101 105 105 255
0.488027 0.000000 0.671704 0.720479 0.240317 0.650505 101 105 105 255
0.246185 0.492370 0.757664 0.720479 0.240317 0.650505 101 105 105 255
0.488027 0.000000 0.671704 0.227510 -0.057956 0.972050 101 105 105 255
0.850814 0.525834 0.618145 0.227510 -0.057956 0.972050 101 105 105 255
0.246185 0.492370 0.757664 0.227510 -0.057956 0.972050 101 105 105 255
1.118250 0.000000 0.363334 0.904987 0.330387 0.268035 101 105 105 255
1.000189 0.618155 0.000000 0.904987 0.330387 0.268035 101 105 105 255
0.850814 0.525834 0.618145 0.904987 0.330387 0.268035 101 105 105 255
1.118250 0.000000 0.363334 0.962659 0.025442 -0.269519 101 105 105 255
0.931766 0.000000 -0.302745 0.962659 0.025442 -0.269519 101 105 105 255
1.000189 0.618155 0.000000 0.962659 0.025442 -0.269519 101 105 105 255
0.931766 0.000000 -0.302745 0.832116 0.166918 -0.528886 101 105 105 255
0.708929 0.438148 -0.515061 0.832116 0.166918 -0.528886 101 105 105 255
1.000189 0.618155 0.000000 0.832116 0.166918 -0.528886 101 105 105 255
0.690418 0.000000 -0.950284 0.156209 0.692753 -0.704053 101 105 105 255
0.209491 0.418982 -0.644731 0.156209 0.692753 -0.704053 101 105 105 255
0.708929 0.438148 -0.515061 0.156209 0.692753 -0.704053 101 105 105 255
0.690418 0.000000 -0.950284 0.142822 0.684963 -0.714442 101 105 105 255
0.000000 0.000000 -1.088304 0.142822 0.684963 -0.714442 101 105 105 255
0.209491 0.418982 -0.644731 0.142822 0.684963 -0.714442 101 105 105 255
0.000000 0.000000 -1.088304 0.463049 0.524721 -0.714321 101 105 105 255
-0.300793 0.486711 -0.925764 0.463049 0.524721 -0.714321 101 105 105 255
0.209491 0.418982 -0.644731 0.463049 0.524721 -0.714321 101 105 105 255
-0.483521 0.000000 -0.665502 -0.921078 0.154737 -0.357312 101 105 105 255
-0.525952 0.401797 -0.382123 -0.921078 0.154737 -0.357312 101 105 105 255
-0.300793 0.486711 -0.925764 -0.921078 0.154737 -0.357312 101 105 105 255
-0.483521 0.000000 -0.665502 -0.842842 0.247886 -0.477671 101 105 105 255
-0.726843 0.000000 -0.236164 -0.842842 0.247886 -0.477671 101 105 105 255
-0.525952 0.401797 -0.382123 -0.842842 0.247886 -0.477671 101 105 105 255
-0.726843 0.000000 -0.236164 -0.756643 0.146866 -0.637120 101 105 105 255
-0.843809 0.421908 0.000000 -0.756643 0.146866 -0.637120 101 105 105 255
-0.525952 0.401797 -0.382123 -0.756643 0.146866 -0.637120 101 105 105 255
-0.657917 0.000000 0.905548 -0.422126 0.041548 0.905584 101 105 105 255
0.000000 0.000000 1.212227 -0.422126 0.041548 0.905584 101 105 105 255
-0.335043 0.542132 1.031179 -0.422126 0.041548 0.905584 101 105 105 255
-0.657917 0.000000 0.905548 -0.369911 -0.483130 0.793568 101 105 105 255
-0.254596 -0.509192 0.783551 -0.369911 -0.483130 0.793568 101 105 105 255
0.000000 0.000000 1.212227 -0.369911 -0.483130 0.793568 101 105 105 255
-0.254596 -0.509192 0.783551 -0.285857 -0.529483 0.798707 101 105 105 255
0.319636 -0.517201 0.983759 -0.285857 -0.529483 0.798707 101 105 105 255
0.000000 0.000000 1.212227 -0.285857 -0.529483 0.798707 101 105 105 255
0.488027 0.000000 0.671704 0.429977 -0.207146 0.878755 101 105 105 255
1.118250 0.000000 0.363334 0.429977 -0.207146 0.878755 101 105 105 255
0.850814 0.525834 0.618145 0.429977 -0.207146 0.878755 101 105 105 255
0.488027 0.000000 0.671704 0.439414 -0.020814 0.898043 101 105 105 255
0.738111 -0.563873 0.536268 0.439414 -0.020814 0.898043 101 105 105 255
1.118250 0.000000 0.363334 0.439414 -0.020814 0.898043 101 105 105 255
0.738111 -0.563873 0.536268 0.834840 -0.480338 0.268919 101 105 105 255
0.959310 -0.479656 0.000000 0.834840 -0.480338 0.268919 101 105 105 255
1.118250 0.000000 0.363334 0.834840 -0.480338 0.268919 101 105 105 255
0.931766 0.000000 -0.302745 0.895687 0.293766 -0.333836 101 105 105 255
0.690418 0.000000 -0.950284 0.895687 0.293766 -0.333836 101 105 105 255
0.708929 0.438148 -0.515061 0.895687 0.293766 -0.333836 101 105 105 255
0.931766 0.000000 -0.302745 0.808028 -0.506351 -0.301164 101 105 105 255
0.597081 -0.456135 -0.433802 0.808028 -0.506351 -0.301164 101 105 105 255
0.690418 0.000000 -0.950284 0.808028 -0.506351 -0.301164 101 105 105 255
0.597081 -0.456135 -0.433802 0.545475 -0.674673 -0.497267 101 105 105 255
0.268073 -0.433765 -0.825057 0.545475 -0.674673 -0.497267 101 105 105 255
0.690418 0.000000 -0.950284 0.545475 -0.674673 -0.497267 101 105 105 255
0.000000 0.000000 -1.088304 -0.650450 -0.153569 -0.743863 101 105 105 255
-0.483521 0.000000 -0.665502 -0.650450 -0.153569 -0.743863 101 105 105 255
-0.300793 0.486711 -0.925764 -0.650450 -0.153569 -0.743863 101 105 105 255
0.000000 0.000000 -1.088304 -0.643326 0.211786 -0.735716 101 105 105 255
-0.322333 -0.644667 -0.992024 -0.643326 0.211786 -0.735716 101 105 105 255
-0.483521 0.000000 -0.665502 -0.643326 0.211786 -0.735716 101 105 105 255
-0.322333 -0.644667 -0.992024 -0.468596 0.303118 -0.829782 101 105 105 255
-0.880871 -0.544410 -0.639982 -0.468596 0.303118 -0.829782 101 105 105 255
-0.483521 0.000000 -0.665502 -0.468596 0.303118 -0.829782 101 105 105 255
-0.726843 0.000000 -0.236164 -0.947634 -0.091432 -0.305992 101 105 105 255
-0.897235 0.000000 0.291525 -0.947634 -0.091432 -0.305992 101 105 105 255
-0.843809 0.421908 0.000000 -0.947634 -0.091432 -0.305992 101 105 105 255
-0.726843 0.000000 -0.236164 -0.951611 -0.004254 -0.307276 101 105 105 255
-0.800888 -0.494984 0.000000 -0.951611 -0.004254 -0.307276 101 105 105 255
-0.897235 0.000000 0.291525 -0.951611 -0.004254 -0.307276 101 105 105 255
-0.800888 -0.494984 0.000000 -0.903652 -0.333867 0.268227 101 105 105 255
-0.681280 -0.421061 0.494973 -0.903652 -0.333867 0.268227 101 105 105 255
-0.897235 0.000000 0.291525 -0.903652 -0.333867 0.268227 101 105 105 255
-0.351070 -0.702143 0.255064 -0.425427 -0.822321 0.377889 101 105 105 255
-0.254596 -0.509192 0.783551 -0.425427 -0.822321 0.377889 101 105 105 255
-0.681280 -0.421061 0.494973 -0.425427 -0.822321 0.377889 101 105 105 255
-0.351070 -0.702143 0.255064 -0.474122 -0.795644 0.377039 101 105 105 255
0.169248 -0.886224 0.520902 -0.474122 -0.795644 0.377039 101 105 105 255
-0.254596 -0.509192 0.783551 -0.474122 -0.795644 0.377039 101 105 105 255
0.169248 -0.886224 0.520902 -0.237217 -0.720559 0.651555 101 105 105 255
0.319636 -0.517201 0.983759 -0.237217 -0.720559 0.651555 101 105 105 255
-0.254596 -0.509192 0.783551 -0.237217 -0.720559 0.651555 101 105 105 255
0.169248 -0.886224 0.520902 0.423653 -0.770350 0.476528 101 105 105 255
0.738111 -0.563873 0.536268 0.423653 -0.770350 0.476528 101 105 105 255
0.319636 -0.517201 0.983759 0.423653 -0.770350 0.476528 101 105 105 255
0.169248 -0.886224 0.520902 0.458080 -0.824255 0.332816 101 105 105 255
0.547712 -0.886221 0.000000 0.458080 -0.824255 0.332816 101 105 105 255
0.738111 -0.563873 0.536268 0.458080 -0.824255 0.332816 101 105 105 255
0.547712 -0.886221 0.000000 0.691852 -0.700417 0.175378 101 105 105 255
0.959310 -0.479656 0.000000 0.691852 -0.700417 0.175378 101 105 105 255
0.738111 -0.563873 0.536268 0.691852 -0.700417 0.175378 101 105 105 255
0.547712 -0.886221 0.000000 0.595826 -0.603202 -0.530226 101 105 105 255
0.597081 -0.456135 -0.433802 0.595826 -0.603202 -0.530226 101 105 105 255
0.959310 -0.479656 0.000000 0.595826 -0.603202 -0.530226 101 105 105 255
0.547712 -0.886221 0.000000 0.387085 -0.676431 -0.626583 101 105 105 255
0.138537 -0.725411 -0.426380 0.387085 -0.676431 -0.626583 101 105 105 255
0.597081 -0.456135 -0.433802 0.387085 -0.676431 -0.626583 101 105 105 255
0.138537 -0.725411 -0.426380 0.453058 -0.783241 -0.425761 101 105 105 255
0.268073 -0.433765 -0.825057 0.453058 -0.783241 -0.425761 101 105 105 255
0.597081 -0.456135 -0.433802 0.453058 -0.783241 -0.425761 101 105 105 255
-0.800888 -0.494984 0.000000 -0.517520 -0.819128 0.247392 101 105 105 255
-0.351070 -0.702143 0.255064 -0.517520 -0.819128 0.247392 101 105 105 255
-0.681280 -0.421061 0.494973 -0.517520 -0.819128 0.247392 101 105 105 255
-0.800888 -0.494984 0.000000 -0.473765 -0.871324 0.127833 101 105 105 255
-0.381777 -0.763561 -0.277374 -0.473765 -0.871324 0.127833 101 105 105 255
-0.351070 -0.702143 0.255064 -0.473765 -0.871324 0.127833 101 105 105 255
-0.381777 -0.763561 -0.277374 -0.246567 -0.961020 0.125077 101 105 105 255
0.000000 -0.825412 0.000000 -0.246567 -0.961020 0.125077 101 105 105 255
-0.351070 -0.702143 0.255064 -0.246567 -0.961020 0.125077 101 105 105 255
0.138537 -0.725411 -0.426380 0.410401 -0.794395 -0.447780 101 105 105 255
-0.322333 -0.644667 -0.992024 0.410401 -0.794395 -0.447780 101 105 105 255
0.268073 -0.433765 -0.825057 0.410401 -0.794395 -0.447780 101 105 105 255
0.138537 -0.725411 -0.426380 0.025948 -0.986457 -0.161955 101 105 105 255
-0.381777 -0.763561 -0.277374 0.025948 -0.986457 -0.161955 101 105 105 255
-0.322333 -0.644667 -0.992024 0.025948 -0.986457 -0.161955 101 105 105 255
-0.381777 -0.763561 -0.277374 -0.282720 -0.942114 -0.180252 101 105 105 255
-0.880871 -0.544410 -0.639982 -0.282720 -0.942114 -0.180252 101 105 105 255
-0.322333 -0.644667 -0.992024 -0.282720 -0.942114 -0.180252 101 105 105 255
3 0 1 2
3 3 4 5
3 6 7 8
3 9 10 11
3 12 13 14
3 15 16 17
3 18 19 20
3 21 22 23
3 24 25 26
3 27 28 29
3 30 31 32
3 33 34 35
3 36 37 38
3 39 40 41
3 42 43 44
3 45 46 47
3 48 49 50
3 51 52 53
3 54 55 56
3 57 58 59
3 60 61 62
3 63 64 65
3 66 67 68
3 69 70 71
3 72 73 74
3 75 76 77
3 78 79 80
3 81 82 83
3 84 85 86
3 87 88 89
3 90 91 92
3 93 94 95
3 96 97 98
3 99 100 101
3 102 103 104
3 105 106 107
3 108 109 110
3 111 112 113
3 114 115 116
3 117 118 119
3 120 121 122
3 123 124 125
3 126 127 128
3 129 130 131
3 132 133 134
3 135 136 137
3 138 139 140
3 141 142 143
3 144 145 146
3 147 148 149
3 150 151 152
3 153 154 155
3 156 157 158
3 159 160 161
3 162 163 164
3 165 166 167
3 168 169 170
3 171 172 173
3 174 175 176
3 177 178 179
3 180 181 182
3 183 184 185
3 186 187 188
3 189 190 191
3 192 193 194
3 195 196 197
3 198 199 200
3 201 202 203
3 204 205 206
3 207 208 209
3 210 211 212
3 213 214 215
3 216 217 218
3 219 220 221
3 222 223 224
3 225 226 227
3 228 229 230
3 231 232 233
3 234 235 236
3 237 238 239
