ply
format ascii 1.0
comment Created by Blender 2.91.2 - www.blender.org
element vertex 240
property float x
property float y
property float z
property float nx
property float ny
property float nz
property uchar red
property uchar green
property uchar blue
property uchar alpha
element face 80
property list uchar uint vertex_indices
end_header
0.000000 -0.750000 0.000000 -0.102376 -0.943527 -0.315080 101 105 105 255
-0.318996 -0.637994 -0.231761 -0.102376 -0.943527 -0.315080 101 105 105 255
0.121843 -0.637994 -0.374999 -0.102376 -0.943527 -0.315080 101 105 105 255
-0.542709 -0.335423 -0.394297 -0.700223 -0.661703 -0.268023 101 105 105 255
-0.318996 -0.637994 -0.231761 -0.700223 -0.661703 -0.268023 101 105 105 255
-0.637987 -0.394308 0.000000 -0.700223 -0.661703 -0.268023 101 105 105 255
0.000000 -0.750000 0.000000 0.201358 -0.954564 -0.219688 101 105 105 255
0.121843 -0.637994 -0.374999 0.201358 -0.954564 -0.219688 101 105 105 255
0.410066 -0.663500 0.000000 0.201358 -0.954564 -0.219688 101 105 105 255
0.000000 -0.750000 0.000000 0.205555 -0.974458 0.090440 101 105 105 255
0.410066 -0.663500 0.000000 0.205555 -0.974458 0.090440 101 105 105 255
0.130826 -0.685033 0.402648 0.205555 -0.974458 0.090440 101 105 105 255
0.000000 -0.750000 0.000000 -0.081062 -0.979506 0.184381 101 105 105 255
0.130826 -0.685033 0.402648 -0.081062 -0.979506 0.184381 101 105 105 255
-0.337910 -0.675822 0.245503 -0.081062 -0.979506 0.184381 101 105 105 255
-0.542709 -0.335423 -0.394297 -0.616107 -0.743542 -0.259919 101 105 105 255
-0.637987 -0.394308 0.000000 -0.616107 -0.743542 -0.259919 101 105 105 255
-0.979580 0.000000 -0.318280 -0.616107 -0.743542 -0.259919 101 105 105 255
0.207294 -0.335415 -0.637989 0.043583 -0.563278 -0.825117 101 105 105 255
-0.199975 -0.399950 -0.615445 0.043583 -0.563278 -0.825117 101 105 105 255
0.000000 0.000000 -0.877914 0.043583 -0.563278 -0.825117 101 105 105 255
0.867951 -0.433978 0.000000 0.719017 -0.110224 -0.686197 101 105 105 255
0.516149 -0.394308 -0.375001 0.719017 -0.110224 -0.686197 101 105 105 255
0.713296 0.000000 -0.231763 0.719017 -0.110224 -0.686197 101 105 105 255
0.207294 -0.335415 0.637989 0.574593 -0.330385 0.748792 101 105 105 255
0.516149 -0.394308 0.375001 0.574593 -0.330385 0.748792 101 105 105 255
0.440847 0.000000 0.606763 0.574593 -0.330385 0.748792 101 105 105 255
-0.542709 -0.335423 0.394297 -0.482154 -0.628987 0.609838 101 105 105 255
-0.197155 -0.394310 0.606766 -0.482154 -0.628987 0.609838 101 105 105 255
-0.539609 0.000000 0.742704 -0.482154 -0.628987 0.609838 101 105 105 255
-0.542709 -0.335423 -0.394297 -0.445505 -0.398563 -0.801669 101 105 105 255
-0.979580 0.000000 -0.318280 -0.445505 -0.398563 -0.801669 101 105 105 255
-0.446489 0.000000 -0.614530 -0.445505 -0.398563 -0.801669 101 105 105 255
0.207294 -0.335415 -0.637989 0.503773 -0.274531 -0.819051 101 105 105 255
0.000000 0.000000 -0.877914 0.503773 -0.274531 -0.819051 101 105 105 255
0.440847 0.000000 -0.606763 0.503773 -0.274531 -0.819051 101 105 105 255
0.867951 -0.433978 0.000000 0.941973 0.335688 0.000000 101 105 105 255
0.713296 0.000000 -0.231763 0.941973 0.335688 0.000000 101 105 105 255
0.713296 0.000000 0.231763 0.941973 0.335688 0.000000 101 105 105 255
0.207294 -0.335415 0.637989 0.455260 -0.237106 0.858207 101 105 105 255
0.440847 0.000000 0.606763 0.455260 -0.237106 0.858207 101 105 105 255
0.000000 0.000000 0.840623 0.455260 -0.237106 0.858207 101 105 105 255
-0.542709 -0.335423 0.394297 -0.900284 -0.309564 0.306039 101 105 105 255
-0.539609 0.000000 0.742704 -0.900284 -0.309564 0.306039 101 105 105 255
-0.713296 0.000000 0.231763 -0.900284 -0.309564 0.306039 101 105 105 255
-0.207294 0.335415 -0.637989 -0.408934 0.661698 -0.628434 101 105 105 255
-0.516149 0.394308 -0.375001 -0.408934 0.661698 -0.628434 101 105 105 255
-0.121843 0.637994 -0.374999 -0.408934 0.661698 -0.628434 101 105 105 255
0.542709 0.335423 -0.394297 0.471299 0.661705 -0.583115 101 105 105 255
0.197155 0.394310 -0.606766 0.471299 0.661705 -0.583115 101 105 105 255
0.318996 0.637994 -0.231761 0.471299 0.661705 -0.583115 101 105 105 255
0.634089 0.391896 0.460687 0.435662 0.845362 0.309129 101 105 105 255
0.782725 0.483758 0.000000 0.435662 0.845362 0.309129 101 105 105 255
0.318996 0.637994 0.231761 0.435662 0.845362 0.309129 101 105 105 255
-0.268866 0.435049 0.827499 0.422128 0.386970 0.819794 101 105 105 255
0.197155 0.394310 0.606766 0.422128 0.386970 0.819794 101 105 105 255
-0.177657 0.930252 0.546781 0.422128 0.386970 0.819794 101 105 105 255
-0.978489 0.489246 0.000000 -0.469342 0.523414 0.711165 101 105 105 255
-0.516149 0.394308 0.375001 -0.469342 0.523414 0.711165 101 105 105 255
-0.543457 0.879336 0.000000 -0.469342 0.523414 0.711165 101 105 105 255
-0.543457 0.879336 0.000000 0.224846 0.944780 -0.238401 101 105 105 255
-0.177657 0.930252 0.546781 0.224846 0.944780 -0.238401 101 105 105 255
0.000000 0.750000 0.000000 0.224846 0.944780 -0.238401 101 105 105 255
-0.543457 0.879336 0.000000 -0.795434 0.342025 0.500303 101 105 105 255
-0.516149 0.394308 0.375001 -0.795434 0.342025 0.500303 101 105 105 255
-0.177657 0.930252 0.546781 -0.795434 0.342025 0.500303 101 105 105 255
-0.516149 0.394308 0.375001 -0.823367 0.386971 0.415116 101 105 105 255
-0.268866 0.435049 0.827499 -0.823367 0.386971 0.415116 101 105 105 255
-0.177657 0.930252 0.546781 -0.823367 0.386971 0.415116 101 105 105 255
-0.177657 0.930252 0.546781 0.425901 0.891316 -0.155451 101 105 105 255
0.318996 0.637994 0.231761 0.425901 0.891316 -0.155451 101 105 105 255
0.000000 0.750000 0.000000 0.425901 0.891316 -0.155451 101 105 105 255
-0.177657 0.930252 0.546781 0.654290 0.519127 0.549920 101 105 105 255
0.197155 0.394310 0.606766 0.654290 0.519127 0.549920 101 105 105 255
0.318996 0.637994 0.231761 0.654290 0.519127 0.549920 101 105 105 255
0.197155 0.394310 0.606766 0.197775 0.791349 0.578490 101 105 105 255
0.634089 0.391896 0.460687 0.197775 0.791349 0.578490 101 105 105 255
0.318996 0.637994 0.231761 0.197775 0.791349 0.578490 101 105 105 255
0.318996 0.637994 0.231761 0.331293 0.943528 -0.000000 101 105 105 255
0.318996 0.637994 -0.231761 0.331293 0.943528 -0.000000 101 105 105 255
0.000000 0.750000 0.000000 0.331293 0.943528 -0.000000 101 105 105 255
0.318996 0.637994 0.231761 0.315600 0.948892 0.000000 101 105 105 255
0.782725 0.483758 0.000000 0.315600 0.948892 0.000000 101 105 105 255
0.318996 0.637994 -0.231761 0.315600 0.948892 0.000000 101 105 105 255
0.782725 0.483758 0.000000 0.498661 0.666434 -0.554258 101 105 105 255
0.542709 0.335423 -0.394297 0.498661 0.666434 -0.554258 101 105 105 255
0.318996 0.637994 -0.231761 0.498661 0.666434 -0.554258 101 105 105 255
0.318996 0.637994 -0.231761 0.102376 0.943527 -0.315080 101 105 105 255
-0.121843 0.637994 -0.374999 0.102376 0.943527 -0.315080 101 105 105 255
0.000000 0.750000 0.000000 0.102376 0.943527 -0.315080 101 105 105 255
0.318996 0.637994 -0.231761 0.187589 0.794666 -0.577336 101 105 105 255
0.197155 0.394310 -0.606766 0.187589 0.794666 -0.577336 101 105 105 255
-0.121843 0.637994 -0.374999 0.187589 0.794666 -0.577336 101 105 105 255
0.197155 0.394310 -0.606766 -0.038549 0.661697 -0.748780 101 105 105 255
-0.207294 0.335415 -0.637989 -0.038549 0.661697 -0.748780 101 105 105 255
-0.121843 0.637994 -0.374999 -0.038549 0.661697 -0.748780 101 105 105 255
-0.121843 0.637994 -0.374999 0.217432 0.913624 -0.343532 101 105 105 255
-0.543457 0.879336 0.000000 0.217432 0.913624 -0.343532 101 105 105 255
0.000000 0.750000 0.000000 0.217432 0.913624 -0.343532 101 105 105 255
-0.121843 0.637994 -0.374999 -0.346927 0.561366 -0.751338 101 105 105 255
-0.516149 0.394308 -0.375001 -0.346927 0.561366 -0.751338 101 105 105 255
-0.543457 0.879336 0.000000 -0.346927 0.561366 -0.751338 101 105 105 255
-0.516149 0.394308 -0.375001 -0.469342 0.523414 -0.711165 101 105 105 255
-0.978489 0.489246 0.000000 -0.469342 0.523414 -0.711165 101 105 105 255
-0.543457 0.879336 0.000000 -0.469342 0.523414 -0.711165 101 105 105 255
-0.713296 0.000000 0.231763 -0.625946 0.029872 0.779294 101 105 105 255
-0.516149 0.394308 0.375001 -0.625946 0.029872 0.779294 101 105 105 255
-0.978489 0.489246 0.000000 -0.625946 0.029872 0.779294 101 105 105 255
-0.713296 0.000000 0.231763 -0.891825 0.335768 0.303163 101 105 105 255
-0.539609 0.000000 0.742704 -0.891825 0.335768 0.303163 101 105 105 255
-0.516149 0.394308 0.375001 -0.891825 0.335768 0.303163 101 105 105 255
-0.539609 0.000000 0.742704 -0.809812 0.425172 0.404269 101 105 105 255
-0.268866 0.435049 0.827499 -0.809812 0.425172 0.404269 101 105 105 255
-0.516149 0.394308 0.375001 -0.809812 0.425172 0.404269 101 105 105 255
0.000000 0.000000 0.840623 0.430161 0.291619 0.854353 101 105 105 255
0.197155 0.394310 0.606766 0.430161 0.291619 0.854353 101 105 105 255
-0.268866 0.435049 0.827499 0.430161 0.291619 0.854353 101 105 105 255
0.000000 0.000000 0.840623 0.450126 0.278182 0.848529 101 105 105 255
0.440847 0.000000 0.606763 0.450126 0.278182 0.848529 101 105 105 255
0.197155 0.394310 0.606766 0.450126 0.278182 0.848529 101 105 105 255
0.440847 0.000000 0.606763 0.312080 0.192866 0.930274 101 105 105 255
0.634089 0.391896 0.460687 0.312080 0.192866 0.930274 101 105 105 255
0.197155 0.394310 0.606766 0.312080 0.192866 0.930274 101 105 105 255
0.713296 0.000000 0.231763 0.950948 0.011621 0.309131 101 105 105 255
0.782725 0.483758 0.000000 0.950948 0.011621 0.309131 101 105 105 255
0.634089 0.391896 0.460687 0.950948 0.011621 0.309131 101 105 105 255
0.713296 0.000000 0.231763 0.989857 -0.142065 0.000000 101 105 105 255
0.713296 0.000000 -0.231763 0.989857 -0.142065 0.000000 101 105 105 255
0.782725 0.483758 0.000000 0.989857 -0.142065 0.000000 101 105 105 255
0.713296 0.000000 -0.231763 0.819081 0.147985 -0.554262 101 105 105 255
0.542709 0.335423 -0.394297 0.819081 0.147985 -0.554262 101 105 105 255
0.782725 0.483758 0.000000 0.819081 0.147985 -0.554262 101 105 105 255
0.440847 0.000000 -0.606763 0.534581 0.330377 -0.777865 101 105 105 255
0.197155 0.394310 -0.606766 0.534581 0.330377 -0.777865 101 105 105 255
0.542709 0.335423 -0.394297 0.534581 0.330377 -0.777865 101 105 105 255
0.440847 0.000000 -0.606763 0.498428 0.308034 -0.810361 101 105 105 255
0.000000 0.000000 -0.877914 0.498428 0.308034 -0.810361 101 105 105 255
0.197155 0.394310 -0.606766 0.498428 0.308034 -0.810361 101 105 105 255
0.000000 0.000000 -0.877914 -0.020260 0.573357 -0.819055 101 105 105 255
-0.207294 0.335415 -0.637989 -0.020260 0.573357 -0.819055 101 105 105 255
0.197155 0.394310 -0.606766 -0.020260 0.573357 -0.819055 101 105 105 255
-0.446489 0.000000 -0.614530 -0.566926 0.352211 -0.744676 101 105 105 255
-0.516149 0.394308 -0.375001 -0.566926 0.352211 -0.744676 101 105 105 255
-0.207294 0.335415 -0.637989 -0.566926 0.352211 -0.744676 101 105 105 255
-0.446489 0.000000 -0.614530 -0.443768 0.406691 -0.798544 101 105 105 255
-0.979580 0.000000 -0.318280 -0.443768 0.406691 -0.798544 101 105 105 255
-0.516149 0.394308 -0.375001 -0.443768 0.406691 -0.798544 101 105 105 255
-0.979580 0.000000 -0.318280 -0.493401 0.475087 -0.728593 101 105 105 255
-0.978489 0.489246 0.000000 -0.493401 0.475087 -0.728593 101 105 105 255
-0.516149 0.394308 -0.375001 -0.493401 0.475087 -0.728593 101 105 105 255
-0.539609 0.000000 0.742704 -0.177969 -0.080402 0.980746 101 105 105 255
0.000000 0.000000 0.840623 -0.177969 -0.080402 0.980746 101 105 105 255
-0.268866 0.435049 0.827499 -0.177969 -0.080402 0.980746 101 105 105 255
-0.539609 0.000000 0.742704 -0.160062 -0.443104 0.882065 101 105 105 255
-0.197155 -0.394310 0.606766 -0.160062 -0.443104 0.882065 101 105 105 255
0.000000 0.000000 0.840623 -0.160062 -0.443104 0.882065 101 105 105 255
-0.197155 -0.394310 0.606766 0.008481 -0.513228 0.858211 101 105 105 255
0.207294 -0.335415 0.637989 0.008481 -0.513228 0.858211 101 105 105 255
0.000000 0.000000 0.840623 0.008481 -0.513228 0.858211 101 105 105 255
0.440847 0.000000 0.606763 0.796248 -0.176996 0.578499 101 105 105 255
0.713296 0.000000 0.231763 0.796248 -0.176996 0.578499 101 105 105 255
0.634089 0.391896 0.460687 0.796248 -0.176996 0.578499 101 105 105 255
0.440847 0.000000 0.606763 0.794660 -0.187587 0.577345 101 105 105 255
0.516149 -0.394308 0.375001 0.794660 -0.187587 0.577345 101 105 105 255
0.713296 0.000000 0.231763 0.794660 -0.187587 0.577345 101 105 105 255
0.516149 -0.394308 0.375001 0.719017 -0.110224 0.686197 101 105 105 255
0.867951 -0.433978 0.000000 0.719017 -0.110224 0.686197 101 105 105 255
0.713296 0.000000 0.231763 0.719017 -0.110224 0.686197 101 105 105 255
0.713296 0.000000 -0.231763 0.802612 0.125625 -0.583122 101 105 105 255
0.440847 0.000000 -0.606763 0.802612 0.125625 -0.583122 101 105 105 255
0.542709 0.335423 -0.394297 0.802612 0.125625 -0.583122 101 105 105 255
0.713296 0.000000 -0.231763 0.794660 -0.187587 -0.577345 101 105 105 255
0.516149 -0.394308 -0.375001 0.794660 -0.187587 -0.577345 101 105 105 255
0.440847 0.000000 -0.606763 0.794660 -0.187587 -0.577345 101 105 105 255
0.516149 -0.394308 -0.375001 0.574593 -0.330385 -0.748792 101 105 105 255
0.207294 -0.335415 -0.637989 0.574593 -0.330385 -0.748792 101 105 105 255
0.440847 0.000000 -0.606763 0.574593 -0.330385 -0.748792 101 105 105 255
0.000000 0.000000 -0.877914 -0.486377 0.289185 -0.824506 101 105 105 255
-0.446489 0.000000 -0.614530 -0.486377 0.289185 -0.824506 101 105 105 255
-0.207294 0.335415 -0.637989 -0.486377 0.289185 -0.824506 101 105 105 255
0.000000 0.000000 -0.877914 -0.485137 -0.297139 -0.822405 101 105 105 255
-0.199975 -0.399950 -0.615445 -0.485137 -0.297139 -0.822405 101 105 105 255
-0.446489 0.000000 -0.614530 -0.485137 -0.297139 -0.822405 101 105 105 255
-0.199975 -0.399950 -0.615445 -0.554247 -0.339878 -0.759798 101 105 105 255
-0.542709 -0.335423 -0.394297 -0.554247 -0.339878 -0.759798 101 105 105 255
-0.446489 0.000000 -0.614530 -0.554247 -0.339878 -0.759798 101 105 105 255
-0.979580 0.000000 -0.318280 -0.866407 -0.270937 0.419442 101 105 105 255
-0.713296 0.000000 0.231763 -0.866407 -0.270937 0.419442 101 105 105 255
-0.978489 0.489246 0.000000 -0.866407 -0.270937 0.419442 101 105 105 255
-0.979580 0.000000 -0.318280 -0.827463 -0.393490 0.400588 101 105 105 255
-0.637987 -0.394308 0.000000 -0.827463 -0.393490 0.400588 101 105 105 255
-0.713296 0.000000 0.231763 -0.827463 -0.393490 0.400588 101 105 105 255
-0.637987 -0.394308 0.000000 -0.904993 -0.330380 0.268023 101 105 105 255
-0.542709 -0.335423 0.394297 -0.904993 -0.330380 0.268023 101 105 105 255
-0.713296 0.000000 0.231763 -0.904993 -0.330380 0.268023 101 105 105 255
-0.337910 -0.675822 0.245503 -0.495952 -0.580625 0.645683 101 105 105 255
-0.197155 -0.394310 0.606766 -0.495952 -0.580625 0.645683 101 105 105 255
-0.542709 -0.335423 0.394297 -0.495952 -0.580625 0.645683 101 105 105 255
-0.337910 -0.675822 0.245503 -0.232954 -0.721002 0.652601 101 105 105 255
0.130826 -0.685033 0.402648 -0.232954 -0.721002 0.652601 101 105 105 255
-0.197155 -0.394310 0.606766 -0.232954 -0.721002 0.652601 101 105 105 255
0.130826 -0.685033 0.402648 0.017799 -0.560999 0.827625 101 105 105 255
0.207294 -0.335415 0.637989 0.017799 -0.560999 0.827625 101 105 105 255
-0.197155 -0.394310 0.606766 0.017799 -0.560999 0.827625 101 105 105 255
0.130826 -0.685033 0.402648 0.472065 -0.561000 0.680025 101 105 105 255
0.516149 -0.394308 0.375001 0.472065 -0.561000 0.680025 101 105 105 255
0.207294 -0.335415 0.637989 0.472065 -0.561000 0.680025 101 105 105 255
0.130826 -0.685033 0.402648 0.577921 -0.731575 0.361670 101 105 105 255
0.410066 -0.663500 0.000000 0.577921 -0.731575 0.361670 101 105 105 255
0.516149 -0.394308 0.375001 0.577921 -0.731575 0.361670 101 105 105 255
0.410066 -0.663500 0.000000 0.398395 -0.794781 0.457827 101 105 105 255
0.867951 -0.433978 0.000000 0.398395 -0.794781 0.457827 101 105 105 255
0.516149 -0.394308 0.375001 0.398395 -0.794781 0.457827 101 105 105 255
0.410066 -0.663500 0.000000 0.398395 -0.794781 -0.457827 101 105 105 255
0.516149 -0.394308 -0.375001 0.398395 -0.794781 -0.457827 101 105 105 255
0.867951 -0.433978 0.000000 0.398395 -0.794781 -0.457827 101 105 105 255
0.410066 -0.663500 0.000000 0.477259 -0.772252 -0.419345 101 105 105 255
0.121843 -0.637994 -0.374999 0.477259 -0.772252 -0.419345 101 105 105 255
0.516149 -0.394308 -0.375001 0.477259 -0.772252 -0.419345 101 105 105 255
0.121843 -0.637994 -0.374999 0.408934 -0.661698 -0.628434 101 105 105 255
0.207294 -0.335415 -0.637989 0.408934 -0.661698 -0.628434 101 105 105 255
0.516149 -0.394308 -0.375001 0.408934 -0.661698 -0.628434 101 105 105 255
-0.637987 -0.394308 0.000000 -0.767346 -0.580623 0.272134 101 105 105 255
-0.337910 -0.675822 0.245503 -0.767346 -0.580623 0.272134 101 105 105 255
-0.542709 -0.335423 0.394297 -0.767346 -0.580623 0.272134 101 105 105 255
-0.637987 -0.394308 0.000000 -0.643434 -0.760679 -0.085791 101 105 105 255
-0.318996 -0.637994 -0.231761 -0.643434 -0.760679 -0.085791 101 105 105 255
-0.337910 -0.675822 0.245503 -0.643434 -0.760679 -0.085791 101 105 105 255
-0.318996 -0.637994 -0.231761 -0.273336 -0.957997 -0.086764 101 105 105 255
0.000000 -0.750000 0.000000 -0.273336 -0.957997 -0.086764 101 105 105 255
-0.337910 -0.675822 0.245503 -0.273336 -0.957997 -0.086764 101 105 105 255
0.121843 -0.637994 -0.374999 0.064169 -0.664915 -0.744158 101 105 105 255
-0.199975 -0.399950 -0.615445 0.064169 -0.664915 -0.744158 101 105 105 255
0.207294 -0.335415 -0.637989 0.064169 -0.664915 -0.744158 101 105 105 255
0.121843 -0.637994 -0.374999 -0.181460 -0.809431 -0.558474 101 105 105 255
-0.318996 -0.637994 -0.231761 -0.181460 -0.809431 -0.558474 101 105 105 255
-0.199975 -0.399950 -0.615445 -0.181460 -0.809431 -0.558474 101 105 105 255
-0.318996 -0.637994 -0.231761 -0.489310 -0.664923 -0.564316 101 105 105 255
-0.542709 -0.335423 -0.394297 -0.489310 -0.664923 -0.564316 101 105 105 255
-0.199975 -0.399950 -0.615445 -0.489310 -0.664923 -0.564316 101 105 105 255
3 0 1 2
3 3 4 5
3 6 7 8
3 9 10 11
3 12 13 14
3 15 16 17
3 18 19 20
3 21 22 23
3 24 25 26
3 27 28 29
3 30 31 32
3 33 34 35
3 36 37 38
3 39 40 41
3 42 43 44
3 45 46 47
3 48 49 50
3 51 52 53
3 54 55 56
3 57 58 59
3 60 61 62
3 63 64 65
3 66 67 68
3 69 70 71
3 72 73 74
3 75 76 77
3 78 79 80
3 81 82 83
3 84 85 86
3 87 88 89
3 90 91 92
3 93 94 95
3 96 97 98
3 99 100 101
3 102 103 104
3 105 106 107
3 108 109 110
3 111 112 113
3 114 115 116
3 117 118 119
3 120 121 122
3 123 124 125
3 126 127 128
3 129 130 131
3 132 133 134
3 135 136 137
3 138 139 140
3 141 142 143
3 144 145 146
3 147 148 149
3 150 151 152
3 153 154 155
3 156 157 158
3 159 160 161
3 162 163 164
3 165 166 167
3 168 169 170
3 171 172 173
3 174 175 176
3 177 178 179
3 180 181 182
3 183 184 185
3 186 187 188
3 189 190 191
3 192 193 194
3 195 196 197
3 198 199 200
3 201 202 203
3 204 205 206
3 207 208 209
3 210 211 212
3 213 214 215
3 216 217 218
3 219 220 221
3 222 223 224
3 225 226 227
3 228 229 230
3 231 232 233
3 234 235 236
3 237 238 239
