ply
format ascii 1.0
comment Created by Blender 2.91.2 - www.blender.org
element vertex 240
property float x
property float y
property float z
property float nx
property float ny
property float nz
property uchar red
property uchar green
property uchar blue
property uchar alpha
element face 80
property list uchar uint vertex_indices
end_header
0.000000 -1.147448 0.000000 -0.084828 -0.874156 -0.478180 118 121 121 255
-0.459992 -0.919996 -0.334200 -0.084828 -0.874156 -0.478180 101 105 105 255
0.168179 -0.880625 -0.517611 -0.084828 -0.874156 -0.478180 101 105 105 255
-0.686664 -0.424388 -0.498885 -0.593904 -0.484942 -0.641957 101 105 105 255
-0.459992 -0.919996 -0.334200 -0.593904 -0.484942 -0.641957 101 105 105 255
-1.045055 -0.645883 0.000000 -0.593904 -0.484942 -0.641957 101 105 105 255
0.000000 -1.147448 0.000000 0.563698 -0.794366 -0.226334 118 121 121 255
0.168179 -0.880625 -0.517611 0.563698 -0.794366 -0.226334 101 105 105 255
0.492962 -0.797632 0.000000 0.563698 -0.794366 -0.226334 101 105 105 255
0.000000 -1.147448 0.000000 0.548935 -0.773562 0.316657 118 121 121 255
0.492962 -0.797632 0.000000 0.548935 -0.773562 0.316657 101 105 105 255
0.159241 -0.833824 0.490102 0.548935 -0.773562 0.316657 101 105 105 255
0.000000 -1.147448 0.000000 -0.166057 -0.805231 0.569234 118 121 121 255
0.159241 -0.833824 0.490102 -0.166057 -0.805231 0.569234 101 105 105 255
-0.421880 -0.843768 0.306510 -0.166057 -0.805231 0.569234 112 116 116 255
-0.686664 -0.424388 -0.498885 -0.801273 -0.046923 -0.596456 101 105 105 255
-1.045055 -0.645883 0.000000 -0.801273 -0.046923 -0.596456 101 105 105 255
-0.871979 0.000000 -0.283320 -0.801273 -0.046923 -0.596456 101 105 105 255
0.263316 -0.426068 -0.810416 0.392519 -0.409048 -0.823777 101 105 105 255
-0.319245 -0.638491 -0.982520 0.392519 -0.409048 -0.823777 101 105 105 255
0.000000 0.000000 -1.147448 0.392519 -0.409048 -0.823777 101 105 105 255
0.833272 -0.416640 0.000000 0.705952 -0.684325 -0.182565 101 105 105 255
0.641533 -0.490093 -0.466098 0.705952 -0.684325 -0.182565 101 105 105 255
1.141255 0.000000 -0.370808 0.705952 -0.684325 -0.182565 101 105 105 255
0.316283 -0.511776 0.973439 0.718024 -0.497942 0.486308 101 105 105 255
0.658053 -0.502714 0.478101 0.718024 -0.497942 0.486308 101 105 105 255
0.688585 0.000000 0.947761 0.718024 -0.497942 0.486308 101 105 105 255
-0.687509 -0.424910 0.499499 -0.619715 -0.583299 0.525086 101 105 105 255
-0.275161 -0.550322 0.846843 -0.619715 -0.583299 0.525086 115 118 118 255
-0.697380 0.000000 0.959867 -0.619715 -0.583299 0.525086 101 105 105 255
-0.686664 -0.424388 -0.498885 -0.833841 -0.087247 -0.545066 101 105 105 255
-0.871979 0.000000 -0.283320 -0.833841 -0.087247 -0.545066 101 105 105 255
-0.556495 0.000000 -0.765947 -0.833841 -0.087247 -0.545066 101 105 105 255
0.263316 -0.426068 -0.810416 0.525671 -0.303701 -0.794629 101 105 105 255
0.000000 0.000000 -1.147448 0.525671 -0.303701 -0.794629 101 105 105 255
0.563052 0.000000 -0.774972 0.525671 -0.303701 -0.794629 101 105 105 255
0.833272 -0.416640 0.000000 0.874219 -0.325969 0.359841 101 105 105 255
1.141255 0.000000 -0.370808 0.874219 -0.325969 0.359841 101 105 105 255
0.872003 0.000000 0.283327 0.874219 -0.325969 0.359841 101 105 105 255
0.316283 -0.511776 0.973439 0.017831 0.037160 0.999150 101 105 105 255
0.688585 0.000000 0.947761 0.017831 0.037160 0.999150 101 105 105 255
0.000000 0.000000 0.960050 0.017831 0.037160 0.999150 101 105 105 255
-0.687509 -0.424910 0.499499 -0.660765 -0.558573 0.501384 101 105 105 255
-0.697380 0.000000 0.959867 -0.660765 -0.558573 0.501384 101 105 105 255
-1.143740 0.000000 0.371616 -0.660765 -0.558573 0.501384 101 105 105 255
-0.276924 0.448087 -0.852298 -0.561727 0.403583 -0.722208 101 105 105 255
-0.682509 0.521397 -0.495870 -0.561727 0.403583 -0.722208 101 105 105 255
-0.194361 1.017721 -0.598192 -0.561727 0.403583 -0.722208 101 105 105 255
0.672407 0.415578 -0.488527 0.512822 0.665716 -0.542066 101 105 105 255
0.252324 0.504648 -0.776559 0.512822 0.665716 -0.542066 101 105 105 255
0.396005 0.792016 -0.287711 0.512822 0.665716 -0.542066 101 105 105 255
0.574692 0.355188 0.417534 0.684971 0.438009 0.582206 101 105 105 255
0.829058 0.512393 0.000000 0.684971 0.438009 0.582206 101 105 105 255
0.399354 0.798715 0.290144 0.684971 0.438009 0.582206 101 105 105 255
-0.242342 0.392127 0.745859 -0.329804 0.346685 0.878088 101 105 105 255
0.284019 0.568038 0.874105 -0.329804 0.346685 0.878088 101 105 105 255
-0.179633 0.940603 0.552864 -0.329804 0.346685 0.878088 101 105 105 255
-0.869867 0.434936 0.000000 -0.698582 0.451500 0.555095 101 105 105 255
-0.555742 0.424555 0.403767 -0.698582 0.451500 0.555095 101 105 105 255
-0.562614 0.910333 0.000000 -0.698582 0.451500 0.555095 101 105 105 255
-0.562614 0.910333 0.000000 -0.088023 0.996098 0.006438 101 105 105 255
-0.179633 0.940603 0.552864 -0.088023 0.996098 0.006438 101 105 105 255
0.000000 0.960050 0.000000 -0.088023 0.996098 0.006438 101 105 105 255
-0.562614 0.910333 0.000000 -0.760606 0.408584 0.504517 101 105 105 255
-0.555742 0.424555 0.403767 -0.760606 0.408584 0.504517 101 105 105 255
-0.179633 0.940603 0.552864 -0.760606 0.408584 0.504517 101 105 105 255
-0.555742 0.424555 0.403767 -0.686208 0.310004 0.658040 101 105 105 255
-0.242342 0.392127 0.745859 -0.686208 0.310004 0.658040 101 105 105 255
-0.179633 0.940603 0.552864 -0.686208 0.310004 0.658040 101 105 105 255
-0.179633 0.940603 0.552864 0.290352 0.948361 0.127698 101 105 105 255
0.399354 0.798715 0.290144 0.290352 0.948361 0.127698 101 105 105 255
0.000000 0.960050 0.000000 0.290352 0.948361 0.127698 101 105 105 255
-0.179633 0.940603 0.552864 0.386461 0.829178 0.403871 101 105 105 255
0.284019 0.568038 0.874105 0.386461 0.829178 0.403871 101 105 105 255
0.399354 0.798715 0.290144 0.386461 0.829178 0.403871 101 105 105 255
0.284019 0.568038 0.874105 0.839433 0.428033 0.334874 101 105 105 255
0.574692 0.355188 0.417534 0.839433 0.428033 0.334874 101 105 105 255
0.399354 0.798715 0.290144 0.839433 0.428033 0.334874 101 105 105 255
0.399354 0.798715 0.290144 0.382607 0.923821 -0.012926 101 105 105 255
0.396005 0.792016 -0.287711 0.382607 0.923821 -0.012926 101 105 105 255
0.000000 0.960050 0.000000 0.382607 0.923821 -0.012926 101 105 105 255
0.399354 0.798715 0.290144 0.548423 0.836102 -0.012870 101 105 105 255
0.829058 0.512393 0.000000 0.548423 0.836102 -0.012870 101 105 105 255
0.396005 0.792016 -0.287711 0.548423 0.836102 -0.012870 101 105 105 255
0.829058 0.512393 0.000000 0.659872 0.668017 -0.343981 101 105 105 255
0.672407 0.415578 -0.488527 0.659872 0.668017 -0.343981 101 105 105 255
0.396005 0.792016 -0.287711 0.659872 0.668017 -0.343981 101 105 105 255
0.396005 0.792016 -0.287711 0.371173 0.928042 -0.031128 101 105 105 255
-0.194361 1.017721 -0.598192 0.371173 0.928042 -0.031128 101 105 105 255
0.000000 0.960050 0.000000 0.371173 0.928042 -0.031128 101 105 105 255
0.396005 0.792016 -0.287711 0.532977 0.651644 -0.539718 101 105 105 255
0.252324 0.504648 -0.776559 0.532977 0.651644 -0.539718 101 105 105 255
-0.194361 1.017721 -0.598192 0.532977 0.651644 -0.539718 101 105 105 255
0.252324 0.504648 -0.776559 0.088635 0.395043 -0.914377 101 105 105 255
-0.276924 0.448087 -0.852298 0.088635 0.395043 -0.914377 101 105 105 255
-0.194361 1.017721 -0.598192 0.088635 0.395043 -0.914377 101 105 105 255
-0.194361 1.017721 -0.598192 -0.087349 0.988470 0.123678 101 105 105 255
-0.562614 0.910333 0.000000 -0.087349 0.988470 0.123678 101 105 105 255
0.000000 0.960050 0.000000 -0.087349 0.988470 0.123678 101 105 105 255
-0.194361 1.017721 -0.598192 -0.707260 0.629132 -0.322453 101 105 105 255
-0.682509 0.521397 -0.495870 -0.707260 0.629132 -0.322453 101 105 105 255
-0.562614 0.910333 0.000000 -0.707260 0.629132 -0.322453 101 105 105 255
-0.682509 0.521397 -0.495870 -0.819777 0.529830 -0.217360 101 105 105 255
-0.869867 0.434936 0.000000 -0.819777 0.529830 -0.217360 101 105 105 255
-0.562614 0.910333 0.000000 -0.819777 0.529830 -0.217360 101 105 105 255
-1.143740 0.000000 0.371616 -0.541453 0.716604 0.439667 101 105 105 255
-0.555742 0.424555 0.403767 -0.541453 0.716604 0.439667 101 105 105 255
-0.869867 0.434936 0.000000 -0.541453 0.716604 0.439667 101 105 105 255
-1.143740 0.000000 0.371616 -0.547335 0.726594 0.415314 101 105 105 255
-0.697380 0.000000 0.959867 -0.547335 0.726594 0.415314 101 105 105 255
-0.555742 0.424555 0.403767 -0.547335 0.726594 0.415314 101 105 105 255
-0.697380 0.000000 0.959867 -0.436978 0.765151 0.472858 101 105 105 255
-0.242342 0.392127 0.745859 -0.436978 0.765151 0.472858 101 105 105 255
-0.555742 0.424555 0.403767 -0.436978 0.765151 0.472858 101 105 105 255
0.000000 0.000000 0.960050 -0.318204 0.295399 0.900825 101 105 105 255
0.284019 0.568038 0.874105 -0.318204 0.295399 0.900825 101 105 105 255
-0.242342 0.392127 0.745859 -0.318204 0.295399 0.900825 101 105 105 255
0.000000 0.000000 0.960050 0.017665 0.140935 0.989861 101 105 105 255
0.688585 0.000000 0.947761 0.017665 0.140935 0.989861 101 105 105 255
0.284019 0.568038 0.874105 0.017665 0.140935 0.989861 101 105 105 255
0.688585 0.000000 0.947761 0.779869 0.584483 0.224017 101 105 105 255
0.574692 0.355188 0.417534 0.779869 0.584483 0.224017 101 105 105 255
0.284019 0.568038 0.874105 0.779869 0.584483 0.224017 101 105 105 255
0.872003 0.000000 0.283327 0.718488 0.381721 0.581432 101 105 105 255
0.829058 0.512393 0.000000 0.718488 0.381721 0.581432 101 105 105 255
0.574692 0.355188 0.417534 0.718488 0.381721 0.581432 101 105 105 255
0.872003 0.000000 0.283327 0.888615 0.276727 0.365767 101 105 105 255
1.141255 0.000000 -0.370808 0.888615 0.276727 0.365767 101 105 105 255
0.829058 0.512393 0.000000 0.888615 0.276727 0.365767 101 105 105 255
1.141255 0.000000 -0.370808 0.669606 0.657695 -0.345057 101 105 105 255
0.672407 0.415578 -0.488527 0.669606 0.657695 -0.345057 101 105 105 255
0.829058 0.512393 0.000000 0.669606 0.657695 -0.345057 101 105 105 255
0.563052 0.000000 -0.774972 0.578768 0.354056 -0.734624 101 105 105 255
0.252324 0.504648 -0.776559 0.578768 0.354056 -0.734624 101 105 105 255
0.672407 0.415578 -0.488527 0.578768 0.354056 -0.734624 101 105 105 255
0.563052 0.000000 -0.774972 0.522825 0.319434 -0.790327 101 105 105 255
0.000000 0.000000 -1.147448 0.522825 0.319434 -0.790327 101 105 105 255
0.252324 0.504648 -0.776559 0.522825 0.319434 -0.790327 101 105 105 255
0.000000 0.000000 -1.147448 0.055768 0.573032 -0.817634 101 105 105 255
-0.276924 0.448087 -0.852298 0.055768 0.573032 -0.817634 101 105 105 255
0.252324 0.504648 -0.776559 0.055768 0.573032 -0.817634 101 105 105 255
-0.556495 0.000000 -0.765947 -0.616049 0.239770 -0.750329 101 105 105 255
-0.682509 0.521397 -0.495870 -0.616049 0.239770 -0.750329 101 105 105 255
-0.276924 0.448087 -0.852298 -0.616049 0.239770 -0.750329 101 105 105 255
-0.556495 0.000000 -0.765947 -0.834292 0.080853 -0.545361 101 105 105 255
-0.871979 0.000000 -0.283320 -0.834292 0.080853 -0.545361 101 105 105 255
-0.682509 0.521397 -0.495870 -0.834292 0.080853 -0.545361 101 105 105 255
-0.871979 0.000000 -0.283320 -0.926321 0.208776 -0.313596 101 105 105 255
-0.869867 0.434936 0.000000 -0.926321 0.208776 -0.313596 101 105 105 255
-0.682509 0.521397 -0.495870 -0.926321 0.208776 -0.313596 101 105 105 255
-0.697380 0.000000 0.959867 -0.000230 0.479265 0.877670 101 105 105 255
0.000000 0.000000 0.960050 -0.000230 0.479265 0.877670 101 105 105 255
-0.242342 0.392127 0.745859 -0.000230 0.479265 0.877670 101 105 105 255
-0.697380 0.000000 0.959867 -0.000256 -0.201367 0.979516 101 105 105 255
-0.275161 -0.550322 0.846843 -0.000256 -0.201367 0.979516 115 118 118 255
0.000000 0.000000 0.960050 -0.000256 -0.201367 0.979516 101 105 105 255
-0.275161 -0.550322 0.846843 -0.202069 -0.099391 0.974315 115 118 118 255
0.316283 -0.511776 0.973439 -0.202069 -0.099391 0.974315 101 105 105 255
0.000000 0.000000 0.960050 -0.202069 -0.099391 0.974315 101 105 105 255
0.688585 0.000000 0.947761 0.787347 0.576927 0.217349 101 105 105 255
0.872003 0.000000 0.283327 0.787347 0.576927 0.217349 101 105 105 255
0.574692 0.355188 0.417534 0.787347 0.576927 0.217349 101 105 105 255
0.688585 0.000000 0.947761 0.921460 -0.293610 0.254371 101 105 105 255
0.658053 -0.502714 0.478101 0.921460 -0.293610 0.254371 101 105 105 255
0.872003 0.000000 0.283327 0.921460 -0.293610 0.254371 101 105 105 255
0.658053 -0.502714 0.478101 0.916684 -0.279461 0.285644 101 105 105 255
0.833272 -0.416640 0.000000 0.916684 -0.279461 0.285644 101 105 105 255
0.872003 0.000000 0.283327 0.916684 -0.279461 0.285644 101 105 105 255
1.141255 0.000000 -0.370808 0.529308 0.382657 -0.757236 101 105 105 255
0.563052 0.000000 -0.774972 0.529308 0.382657 -0.757236 101 105 105 255
0.672407 0.415578 -0.488527 0.529308 0.382657 -0.757236 101 105 105 255
1.141255 0.000000 -0.370808 0.527305 -0.390991 -0.754371 101 105 105 255
0.641533 -0.490093 -0.466098 0.527305 -0.390991 -0.754371 101 105 105 255
0.563052 0.000000 -0.774972 0.527305 -0.390991 -0.754371 101 105 105 255
0.641533 -0.490093 -0.466098 0.594569 -0.358399 -0.719749 101 105 105 255
0.263316 -0.426068 -0.810416 0.594569 -0.358399 -0.719749 101 105 105 255
0.563052 0.000000 -0.774972 0.594569 -0.358399 -0.719749 101 105 105 255
0.000000 0.000000 -1.147448 -0.555100 0.190296 -0.809723 101 105 105 255
-0.556495 0.000000 -0.765947 -0.555100 0.190296 -0.809723 101 105 105 255
-0.276924 0.448087 -0.852298 -0.555100 0.190296 -0.809723 101 105 105 255
0.000000 0.000000 -1.147448 -0.564065 0.069496 -0.822801 101 105 105 255
-0.319245 -0.638491 -0.982520 -0.564065 0.069496 -0.822801 101 105 105 255
-0.556495 0.000000 -0.765947 -0.564065 0.069496 -0.822801 101 105 105 255
-0.319245 -0.638491 -0.982520 -0.814198 -0.109115 -0.570242 101 105 105 255
-0.686664 -0.424388 -0.498885 -0.814198 -0.109115 -0.570242 101 105 105 255
-0.556495 0.000000 -0.765947 -0.814198 -0.109115 -0.570242 101 105 105 255
-0.871979 0.000000 -0.283320 -0.895184 0.246312 -0.371451 101 105 105 255
-1.143740 0.000000 0.371616 -0.895184 0.246312 -0.371451 101 105 105 255
-0.869867 0.434936 0.000000 -0.895184 0.246312 -0.371451 101 105 105 255
-0.871979 0.000000 -0.283320 -0.920744 0.079139 -0.382057 101 105 105 255
-1.045055 -0.645883 0.000000 -0.920744 0.079139 -0.382057 101 105 105 255
-1.143740 0.000000 0.371616 -0.920744 0.079139 -0.382057 101 105 105 255
-1.045055 -0.645883 0.000000 -0.611068 -0.462842 0.642163 101 105 105 255
-0.687509 -0.424910 0.499499 -0.611068 -0.462842 0.642163 101 105 105 255
-1.143740 0.000000 0.371616 -0.611068 -0.462842 0.642163 101 105 105 255
-0.421880 -0.843768 0.306510 -0.608536 -0.616254 0.499915 112 116 116 255
-0.275161 -0.550322 0.846843 -0.608536 -0.616254 0.499915 115 118 118 255
-0.687509 -0.424910 0.499499 -0.608536 -0.616254 0.499915 101 105 105 255
-0.421880 -0.843768 0.306510 -0.144064 -0.852672 0.502191 112 116 116 255
0.159241 -0.833824 0.490102 -0.144064 -0.852672 0.502191 101 105 105 255
-0.275161 -0.550322 0.846843 -0.144064 -0.852672 0.502191 115 118 118 255
0.159241 -0.833824 0.490102 -0.068241 -0.819877 0.568458 101 105 105 255
0.316283 -0.511776 0.973439 -0.068241 -0.819877 0.568458 101 105 105 255
-0.275161 -0.550322 0.846843 -0.068241 -0.819877 0.568458 115 118 118 255
0.159241 -0.833824 0.490102 0.524355 -0.777333 0.347570 101 105 105 255
0.658053 -0.502714 0.478101 0.524355 -0.777333 0.347570 101 105 105 255
0.316283 -0.511776 0.973439 0.524355 -0.777333 0.347570 101 105 105 255
0.159241 -0.833824 0.490102 0.531959 -0.790374 0.303856 101 105 105 255
0.492962 -0.797632 0.000000 0.531959 -0.790374 0.303856 101 105 105 255
0.658053 -0.502714 0.478101 0.531959 -0.790374 0.303856 101 105 105 255
0.492962 -0.797632 0.000000 0.737180 -0.658465 0.151624 101 105 105 255
0.833272 -0.416640 0.000000 0.737180 -0.658465 0.151624 101 105 105 255
0.658053 -0.502714 0.478101 0.737180 -0.658465 0.151624 101 105 105 255
0.492962 -0.797632 0.000000 0.731063 -0.653001 -0.197831 101 105 105 255
0.641533 -0.490093 -0.466098 0.731063 -0.653001 -0.197831 101 105 105 255
0.833272 -0.416640 0.000000 0.731063 -0.653001 -0.197831 101 105 105 255
0.492962 -0.797632 0.000000 0.629088 -0.725785 -0.278360 101 105 105 255
0.168179 -0.880625 -0.517611 0.629088 -0.725785 -0.278360 101 105 105 255
0.641533 -0.490093 -0.466098 0.629088 -0.725785 -0.278360 101 105 105 255
0.168179 -0.880625 -0.517611 0.516079 -0.537566 -0.666847 101 105 105 255
0.263316 -0.426068 -0.810416 0.516079 -0.537566 -0.666847 101 105 105 255
0.641533 -0.490093 -0.466098 0.516079 -0.537566 -0.666847 101 105 105 255
-1.045055 -0.645883 0.000000 -0.498007 -0.602975 0.623226 101 105 105 255
-0.421880 -0.843768 0.306510 -0.498007 -0.602975 0.623226 112 116 116 255
-0.687509 -0.424910 0.499499 -0.498007 -0.602975 0.623226 101 105 105 255
-1.045055 -0.645883 0.000000 -0.358110 -0.924404 0.131282 101 105 105 255
-0.459992 -0.919996 -0.334200 -0.358110 -0.924404 0.131282 101 105 105 255
-0.421880 -0.843768 0.306510 -0.358110 -0.924404 0.131282 112 116 116 255
-0.459992 -0.919996 -0.334200 -0.514479 -0.847373 0.131419 101 105 105 255
0.000000 -1.147448 0.000000 -0.514479 -0.847373 0.131419 118 121 121 255
-0.421880 -0.843768 0.306510 -0.514479 -0.847373 0.131419 112 116 116 255
0.168179 -0.880625 -0.517611 0.415009 -0.552491 -0.722856 101 105 105 255
-0.319245 -0.638491 -0.982520 0.415009 -0.552491 -0.722856 101 105 105 255
0.263316 -0.426068 -0.810416 0.415009 -0.552491 -0.722856 101 105 105 255
0.168179 -0.880625 -0.517611 -0.062313 -0.910468 -0.408859 101 105 105 255
-0.459992 -0.919996 -0.334200 -0.062313 -0.910468 -0.408859 101 105 105 255
-0.319245 -0.638491 -0.982520 -0.062313 -0.910468 -0.408859 101 105 105 255
-0.459992 -0.919996 -0.334200 -0.785951 -0.486328 -0.381793 101 105 105 255
-0.686664 -0.424388 -0.498885 -0.785951 -0.486328 -0.381793 101 105 105 255
-0.319245 -0.638491 -0.982520 -0.785951 -0.486328 -0.381793 101 105 105 255
3 0 1 2
3 3 4 5
3 6 7 8
3 9 10 11
3 12 13 14
3 15 16 17
3 18 19 20
3 21 22 23
3 24 25 26
3 27 28 29
3 30 31 32
3 33 34 35
3 36 37 38
3 39 40 41
3 42 43 44
3 45 46 47
3 48 49 50
3 51 52 53
3 54 55 56
3 57 58 59
3 60 61 62
3 63 64 65
3 66 67 68
3 69 70 71
3 72 73 74
3 75 76 77
3 78 79 80
3 81 82 83
3 84 85 86
3 87 88 89
3 90 91 92
3 93 94 95
3 96 97 98
3 99 100 101
3 102 103 104
3 105 106 107
3 108 109 110
3 111 112 113
3 114 115 116
3 117 118 119
3 120 121 122
3 123 124 125
3 126 127 128
3 129 130 131
3 132 133 134
3 135 136 137
3 138 139 140
3 141 142 143
3 144 145 146
3 147 148 149
3 150 151 152
3 153 154 155
3 156 157 158
3 159 160 161
3 162 163 164
3 165 166 167
3 168 169 170
3 171 172 173
3 174 175 176
3 177 178 179
3 180 181 182
3 183 184 185
3 186 187 188
3 189 190 191
3 192 193 194
3 195 196 197
3 198 199 200
3 201 202 203
3 204 205 206
3 207 208 209
3 210 211 212
3 213 214 215
3 216 217 218
3 219 220 221
3 222 223 224
3 225 226 227
3 228 229 230
3 231 232 233
3 234 235 236
3 237 238 239
