ply
format ascii 1.0
comment Created by Blender 2.91.2 - www.blender.org
element vertex 240
property float x
property float y
property float z
property float nx
property float ny
property float nz
property uchar red
property uchar green
property uchar blue
property uchar alpha
element face 80
property list uchar uint vertex_indices
end_header
0.000000 -1.019317 0.000000 -0.137331 -0.927960 -0.346454 101 105 105 255
-0.421333 -0.842675 -0.306113 -0.137331 -0.927960 -0.346454 101 105 105 255
0.163422 -0.855717 -0.502971 -0.137331 -0.927960 -0.346454 101 105 105 255
-0.730287 -0.451348 -0.530578 -0.674827 -0.687151 -0.269132 101 105 105 255
-0.421333 -0.842675 -0.306113 -0.674827 -0.687151 -0.269132 101 105 105 255
-0.860158 -0.531614 0.000000 -0.674827 -0.687151 -0.269132 101 105 105 255
0.000000 -1.019317 0.000000 0.245420 -0.942507 -0.226825 101 105 105 255
0.163422 -0.855717 -0.502971 0.245420 -0.942507 -0.226825 101 105 105 255
0.542642 -0.878018 0.000000 0.245420 -0.942507 -0.226825 101 105 105 255
0.000000 -1.019317 0.000000 0.250588 -0.962354 0.105267 101 105 105 255
0.542642 -0.878018 0.000000 0.250588 -0.962354 0.105267 101 105 105 255
0.174741 -0.914987 0.537808 0.250588 -0.962354 0.105267 101 105 105 255
0.000000 -1.019317 0.000000 -0.278576 -0.921872 0.269347 101 105 105 255
0.174741 -0.914987 0.537808 -0.278576 -0.921872 0.269347 101 105 105 255
-0.405379 -0.810766 0.294522 -0.278576 -0.921872 0.269347 101 105 105 255
-0.730287 -0.451348 -0.530578 -0.889148 -0.367136 -0.273180 101 105 105 255
-0.860158 -0.531614 0.000000 -0.889148 -0.367136 -0.273180 101 105 105 255
-0.981670 0.000000 -0.318959 -0.889148 -0.367136 -0.273180 101 105 105 255
0.298608 -0.483175 -0.919039 -0.251499 -0.284014 -0.925248 101 105 105 255
-0.248826 -0.497652 -0.765792 -0.251499 -0.284014 -0.925248 101 105 105 255
0.000000 0.000000 -0.986187 -0.251499 -0.284014 -0.925248 101 105 105 255
0.841869 -0.420938 0.000000 0.804652 -0.584548 -0.104110 101 105 105 255
0.695985 -0.531692 -0.505661 0.804652 -0.584548 -0.104110 101 105 105 255
1.101363 0.000000 -0.357848 0.804652 -0.584548 -0.104110 101 105 105 255
0.277291 -0.448682 0.853430 0.657415 -0.450957 0.603691 101 105 105 255
0.624661 -0.477205 0.453840 0.657415 -0.450957 0.603691 101 105 105 255
0.604599 0.000000 0.832159 0.657415 -0.450957 0.603691 101 105 105 255
-0.688456 -0.425496 0.500187 -0.498422 -0.461112 0.734133 101 105 105 255
-0.246342 -0.492684 0.758148 -0.498422 -0.461112 0.734133 101 105 105 255
-0.600812 0.000000 0.826946 -0.498422 -0.461112 0.734133 101 105 105 255
-0.730287 -0.451348 -0.530578 -0.740089 -0.100421 -0.664969 101 105 105 255
-0.981670 0.000000 -0.318959 -0.740089 -0.100421 -0.664969 101 105 105 255
-0.567026 0.000000 -0.780443 -0.740089 -0.100421 -0.664969 101 105 105 255
0.298608 -0.483175 -0.919039 0.161447 -0.037275 -0.986177 101 105 105 255
0.000000 0.000000 -0.986187 0.161447 -0.037275 -0.986177 101 105 105 255
0.640341 0.000000 -0.881356 0.161447 -0.037275 -0.986177 101 105 105 255
0.841869 -0.420938 0.000000 0.904967 -0.336269 0.260686 101 105 105 255
1.101363 0.000000 -0.357848 0.904967 -0.336269 0.260686 101 105 105 255
0.912843 0.000000 0.296597 0.904967 -0.336269 0.260686 101 105 105 255
0.277291 -0.448682 0.853430 0.193058 -0.094535 0.976623 101 105 105 255
0.604599 0.000000 0.832159 0.193058 -0.094535 0.976623 101 105 105 255
0.000000 0.000000 0.951676 0.193058 -0.094535 0.976623 101 105 105 255
-0.688456 -0.425496 0.500187 -0.715915 -0.326477 0.617153 101 105 105 255
-0.600812 0.000000 0.826946 -0.715915 -0.326477 0.617153 101 105 105 255
-1.026239 0.000000 0.333439 -0.715915 -0.326477 0.617153 101 105 105 255
-0.292550 0.473373 -0.900394 -0.460572 0.667726 -0.584821 101 105 105 255
-0.700354 0.535029 -0.508835 -0.460572 0.667726 -0.584821 101 105 105 255
-0.169779 0.889001 -0.522534 -0.460572 0.667726 -0.584821 101 105 105 255
0.650144 0.401819 -0.472352 0.677797 0.338159 -0.652870 101 105 105 255
0.263105 0.526210 -0.809739 0.677797 0.338159 -0.652870 101 105 105 255
0.483976 0.967965 -0.351625 0.677797 0.338159 -0.652870 101 105 105 255
0.744357 0.460043 0.540801 0.743408 0.668337 0.025889 101 105 105 255
0.756462 0.467527 0.000000 0.743408 0.668337 0.025889 101 105 105 255
0.416801 0.833610 0.302820 0.743408 0.668337 0.025889 101 105 105 255
-0.279522 0.452292 0.860296 -0.041961 0.764879 0.642806 101 105 105 255
0.262738 0.525477 0.808610 -0.041961 0.764879 0.642806 101 105 105 255
-0.151140 0.791402 0.465168 -0.041961 0.764879 0.642806 101 105 105 255
-0.911162 0.455583 0.000000 -0.532694 0.843861 0.064307 101 105 105 255
-0.710593 0.542851 0.516274 -0.532694 0.843861 0.064307 101 105 105 255
-0.458261 0.741481 0.000000 -0.532694 0.843861 0.064307 101 105 105 255
-0.458261 0.741481 0.000000 -0.466634 0.857658 0.216047 101 105 105 255
-0.151140 0.791402 0.465168 -0.466634 0.857658 0.216047 101 105 105 255
0.000000 0.990811 0.000000 -0.466634 0.857658 0.216047 101 105 105 255
-0.458261 0.741481 0.000000 -0.388647 0.907528 0.159206 101 105 105 255
-0.710593 0.542851 0.516274 -0.388647 0.907528 0.159206 101 105 105 255
-0.151140 0.791402 0.465168 -0.388647 0.907528 0.159206 101 105 105 255
-0.710593 0.542851 0.516274 -0.290614 0.770725 0.567033 101 105 105 255
-0.279522 0.452292 0.860296 -0.290614 0.770725 0.567033 101 105 105 255
-0.151140 0.791402 0.465168 -0.290614 0.770725 0.567033 101 105 105 255
-0.151140 0.791402 0.465168 0.048493 0.912224 0.406811 101 105 105 255
0.416801 0.833610 0.302820 0.048493 0.912224 0.406811 101 105 105 255
0.000000 0.990811 0.000000 0.048493 0.912224 0.406811 101 105 105 255
-0.151140 0.791402 0.465168 0.091608 0.837771 0.538283 101 105 105 255
0.262738 0.525477 0.808610 0.091608 0.837771 0.538283 101 105 105 255
0.416801 0.833610 0.302820 0.091608 0.837771 0.538283 101 105 105 255
0.262738 0.525477 0.808610 0.410244 0.717959 0.562348 101 105 105 255
0.744357 0.460043 0.540801 0.410244 0.717959 0.562348 101 105 105 255
0.416801 0.833610 0.302820 0.410244 0.717959 0.562348 101 105 105 255
0.416801 0.833610 0.302820 0.202624 0.954946 0.216845 101 105 105 255
0.483976 0.967965 -0.351625 0.202624 0.954946 0.216845 101 105 105 255
0.000000 0.990811 0.000000 0.202624 0.954946 0.216845 101 105 105 255
0.416801 0.833610 0.302820 0.795058 0.572883 0.199219 101 105 105 255
0.756462 0.467527 0.000000 0.795058 0.572883 0.199219 101 105 105 255
0.483976 0.967965 -0.351625 0.795058 0.572883 0.199219 101 105 105 255
0.756462 0.467527 0.000000 0.913266 0.321419 -0.250271 101 105 105 255
0.650144 0.401819 -0.472352 0.913266 0.321419 -0.250271 101 105 105 255
0.483976 0.967965 -0.351625 0.913266 0.321419 -0.250271 101 105 105 255
0.483976 0.967965 -0.351625 -0.075041 0.983070 -0.167159 101 105 105 255
-0.169779 0.889001 -0.522534 -0.075041 0.983070 -0.167159 101 105 105 255
0.000000 0.990811 0.000000 -0.075041 0.983070 -0.167159 101 105 105 255
0.483976 0.967965 -0.351625 0.103742 0.690497 -0.715857 101 105 105 255
0.263105 0.526210 -0.809739 0.103742 0.690497 -0.715857 101 105 105 255
-0.169779 0.889001 -0.522534 0.103742 0.690497 -0.715857 101 105 105 255
0.263105 0.526210 -0.809739 0.058970 0.661925 -0.747247 101 105 105 255
-0.292550 0.473373 -0.900394 0.058970 0.661925 -0.747247 101 105 105 255
-0.169779 0.889001 -0.522534 0.058970 0.661925 -0.747247 101 105 105 255
-0.169779 0.889001 -0.522534 -0.477861 0.878292 -0.015863 101 105 105 255
-0.458261 0.741481 0.000000 -0.477861 0.878292 -0.015863 101 105 105 255
0.000000 0.990811 0.000000 -0.477861 0.878292 -0.015863 101 105 105 255
-0.169779 0.889001 -0.522534 -0.554816 0.828825 -0.072314 101 105 105 255
-0.700354 0.535029 -0.508835 -0.554816 0.828825 -0.072314 101 105 105 255
-0.458261 0.741481 0.000000 -0.554816 0.828825 -0.072314 101 105 105 255
-0.700354 0.535029 -0.508835 -0.531692 0.842273 -0.088772 101 105 105 255
-0.911162 0.455583 0.000000 -0.531692 0.842273 -0.088772 101 105 105 255
-0.458261 0.741481 0.000000 -0.531692 0.842273 -0.088772 101 105 105 255
-1.026239 0.000000 0.333439 -0.869400 0.415412 0.267538 101 105 105 255
-0.710593 0.542851 0.516274 -0.869400 0.415412 0.267538 101 105 105 255
-0.911162 0.455583 0.000000 -0.869400 0.415412 0.267538 101 105 105 255
-1.026239 0.000000 0.333439 -0.739651 0.215325 0.637614 101 105 105 255
-0.600812 0.000000 0.826946 -0.739651 0.215325 0.637614 101 105 105 255
-0.710593 0.542851 0.516274 -0.739651 0.215325 0.637614 101 105 105 255
-0.600812 0.000000 0.826946 -0.545306 0.330565 0.770304 101 105 105 255
-0.279522 0.452292 0.860296 -0.545306 0.330565 0.770304 101 105 105 255
-0.710593 0.542851 0.516274 -0.545306 0.330565 0.770304 101 105 105 255
0.000000 0.000000 0.951676 0.060949 0.233722 0.970391 101 105 105 255
0.262738 0.525477 0.808610 0.060949 0.233722 0.970391 101 105 105 255
-0.279522 0.452292 0.860296 0.060949 0.233722 0.970391 101 105 105 255
0.000000 0.000000 0.951676 0.191179 0.167717 0.967120 101 105 105 255
0.604599 0.000000 0.832159 0.191179 0.167717 0.967120 101 105 105 255
0.262738 0.525477 0.808610 0.191179 0.167717 0.967120 101 105 105 255
0.604599 0.000000 0.832159 0.490713 0.354906 0.795765 101 105 105 255
0.744357 0.460043 0.540801 0.490713 0.354906 0.795765 101 105 105 255
0.262738 0.525477 0.808610 0.490713 0.354906 0.795765 101 105 105 255
0.912843 0.000000 0.296597 0.943024 0.331731 0.025699 101 105 105 255
0.756462 0.467527 0.000000 0.943024 0.331731 0.025699 101 105 105 255
0.744357 0.460043 0.540801 0.943024 0.331731 0.025699 101 105 105 255
0.912843 0.000000 0.296597 0.860502 0.445077 0.247877 101 105 105 255
1.101363 0.000000 -0.357848 0.860502 0.445077 0.247877 101 105 105 255
0.756462 0.467527 0.000000 0.860502 0.445077 0.247877 101 105 105 255
1.101363 0.000000 -0.357848 0.678577 0.691083 -0.248871 101 105 105 255
0.650144 0.401819 -0.472352 0.678577 0.691083 -0.248871 101 105 105 255
0.756462 0.467527 0.000000 0.678577 0.691083 -0.248871 101 105 105 255
0.640341 0.000000 -0.881356 0.645793 0.536853 -0.542900 101 105 105 255
0.263105 0.526210 -0.809739 0.645793 0.536853 -0.542900 101 105 105 255
0.650144 0.401819 -0.472352 0.645793 0.536853 -0.542900 101 105 105 255
0.640341 0.000000 -0.881356 0.156731 0.242657 -0.957368 101 105 105 255
0.000000 0.000000 -0.986187 0.156731 0.242657 -0.957368 101 105 105 255
0.263105 0.526210 -0.809739 0.156731 0.242657 -0.957368 101 105 105 255
0.000000 0.000000 -0.986187 0.132006 0.255178 -0.957841 101 105 105 255
-0.292550 0.473373 -0.900394 0.132006 0.255178 -0.957841 101 105 105 255
0.263105 0.526210 -0.809739 0.132006 0.255178 -0.957841 101 105 105 255
-0.567026 0.000000 -0.780443 -0.662423 0.201244 -0.721593 101 105 105 255
-0.700354 0.535029 -0.508835 -0.662423 0.201244 -0.721593 101 105 105 255
-0.292550 0.473373 -0.900394 -0.662423 0.201244 -0.721593 101 105 105 255
-0.567026 0.000000 -0.780443 -0.735191 0.152131 -0.660568 101 105 105 255
-0.981670 0.000000 -0.318959 -0.735191 0.152131 -0.660568 101 105 105 255
-0.700354 0.535029 -0.508835 -0.735191 0.152131 -0.660568 101 105 105 255
-0.981670 0.000000 -0.318959 -0.882343 0.353806 -0.310311 101 105 105 255
-0.911162 0.455583 0.000000 -0.882343 0.353806 -0.310311 101 105 105 255
-0.700354 0.535029 -0.508835 -0.882343 0.353806 -0.310311 101 105 105 255
-0.600812 0.000000 0.826946 -0.202739 0.072009 0.976582 101 105 105 255
0.000000 0.000000 0.951676 -0.202739 0.072009 0.976582 101 105 105 255
-0.279522 0.452292 0.860296 -0.202739 0.072009 0.976582 101 105 105 255
-0.600812 0.000000 0.826946 -0.195587 -0.272278 0.942131 101 105 105 255
-0.246342 -0.492684 0.758148 -0.195587 -0.272278 0.942131 101 105 105 255
0.000000 0.000000 0.951676 -0.195587 -0.272278 0.942131 101 105 105 255
-0.246342 -0.492684 0.758148 -0.146697 -0.297247 0.943464 101 105 105 255
0.277291 -0.448682 0.853430 -0.146697 -0.297247 0.943464 101 105 105 255
0.000000 0.000000 0.951676 -0.146697 -0.297247 0.943464 101 105 105 255
0.604599 0.000000 0.832159 0.865502 0.052554 0.498141 101 105 105 255
0.912843 0.000000 0.296597 0.865502 0.052554 0.498141 101 105 105 255
0.744357 0.460043 0.540801 0.865502 0.052554 0.498141 101 105 105 255
0.604599 0.000000 0.832159 0.815719 -0.337908 0.469489 101 105 105 255
0.624661 -0.477205 0.453840 0.815719 -0.337908 0.469489 101 105 105 255
0.912843 0.000000 0.296597 0.815719 -0.337908 0.469489 101 105 105 255
0.624661 -0.477205 0.453840 0.847097 -0.394067 0.356563 101 105 105 255
0.841869 -0.420938 0.000000 0.847097 -0.394067 0.356563 101 105 105 255
0.912843 0.000000 0.296597 0.847097 -0.394067 0.356563 101 105 105 255
1.101363 0.000000 -0.357848 0.627964 0.547578 -0.553009 101 105 105 255
0.640341 0.000000 -0.881356 0.627964 0.547578 -0.553009 101 105 105 255
0.650144 0.401819 -0.472352 0.627964 0.547578 -0.553009 101 105 105 255
1.101363 0.000000 -0.357848 0.699550 -0.362093 -0.616051 101 105 105 255
0.695985 -0.531692 -0.505661 0.699550 -0.362093 -0.616051 101 105 105 255
0.640341 0.000000 -0.881356 0.699550 -0.362093 -0.616051 101 105 105 255
0.695985 -0.531692 -0.505661 0.637130 -0.399201 -0.659321 101 105 105 255
0.298608 -0.483175 -0.919039 0.637130 -0.399201 -0.659321 101 105 105 255
0.640341 0.000000 -0.881356 0.637130 -0.399201 -0.659321 101 105 105 255
0.000000 0.000000 -0.986187 -0.340809 -0.040395 -0.939264 101 105 105 255
-0.567026 0.000000 -0.780443 -0.340809 -0.040395 -0.939264 101 105 105 255
-0.292550 0.473373 -0.900394 -0.340809 -0.040395 -0.939264 101 105 105 255
0.000000 0.000000 -0.986187 -0.331231 -0.238664 -0.912867 101 105 105 255
-0.248826 -0.497652 -0.765792 -0.331231 -0.238664 -0.912867 101 105 105 255
-0.567026 0.000000 -0.780443 -0.331231 -0.238664 -0.912867 101 105 105 255
-0.248826 -0.497652 -0.765792 -0.441431 -0.307073 -0.843116 101 105 105 255
-0.730287 -0.451348 -0.530578 -0.441431 -0.307073 -0.843116 101 105 105 255
-0.567026 0.000000 -0.780443 -0.441431 -0.307073 -0.843116 101 105 105 255
-0.981670 0.000000 -0.318959 -0.977900 0.198114 -0.066806 101 105 105 255
-1.026239 0.000000 0.333439 -0.977900 0.198114 -0.066806 101 105 105 255
-0.911162 0.455583 0.000000 -0.977900 0.198114 -0.066806 101 105 105 255
-0.981670 0.000000 -0.318959 -0.963442 -0.259704 -0.065818 101 105 105 255
-0.860158 -0.531614 0.000000 -0.963442 -0.259704 -0.065818 101 105 105 255
-1.026239 0.000000 0.333439 -0.963442 -0.259704 -0.065818 101 105 105 255
-0.860158 -0.531614 0.000000 -0.792126 -0.482182 0.374215 101 105 105 255
-0.688456 -0.425496 0.500187 -0.792126 -0.482182 0.374215 101 105 105 255
-1.026239 0.000000 0.333439 -0.792126 -0.482182 0.374215 101 105 105 255
-0.405379 -0.810766 0.294522 -0.452484 -0.655327 0.604817 101 105 105 255
-0.246342 -0.492684 0.758148 -0.452484 -0.655327 0.604817 101 105 105 255
-0.688456 -0.425496 0.500187 -0.452484 -0.655327 0.604817 101 105 105 255
-0.405379 -0.810766 0.294522 -0.380285 -0.696610 0.608373 101 105 105 255
0.174741 -0.914987 0.537808 -0.380285 -0.696610 0.608373 101 105 105 255
-0.246342 -0.492684 0.758148 -0.380285 -0.696610 0.608373 101 105 105 255
0.174741 -0.914987 0.537808 -0.106302 -0.541213 0.834139 101 105 105 255
0.277291 -0.448682 0.853430 -0.106302 -0.541213 0.834139 101 105 105 255
-0.246342 -0.492684 0.758148 -0.106302 -0.541213 0.834139 101 105 105 255
0.174741 -0.914987 0.537808 0.621826 -0.528152 0.578263 101 105 105 255
0.624661 -0.477205 0.453840 0.621826 -0.528152 0.578263 101 105 105 255
0.277291 -0.448682 0.853430 0.621826 -0.528152 0.578263 101 105 105 255
0.174741 -0.914987 0.537808 0.672403 -0.610874 0.417981 101 105 105 255
0.542642 -0.878018 0.000000 0.672403 -0.610874 0.417981 101 105 105 255
0.624661 -0.477205 0.453840 0.672403 -0.610874 0.417981 101 105 105 255
0.542642 -0.878018 0.000000 0.793921 -0.519738 0.315533 101 105 105 255
0.841869 -0.420938 0.000000 0.793921 -0.519738 0.315533 101 105 105 255
0.624661 -0.477205 0.453840 0.793921 -0.519738 0.315533 101 105 105 255
0.542642 -0.878018 0.000000 0.830563 -0.543726 -0.120527 101 105 105 255
0.695985 -0.531692 -0.505661 0.830563 -0.543726 -0.120527 101 105 105 255
0.841869 -0.420938 0.000000 0.830563 -0.543726 -0.120527 101 105 105 255
0.542642 -0.878018 0.000000 0.476291 -0.786094 -0.393958 101 105 105 255
0.163422 -0.855717 -0.502971 0.476291 -0.786094 -0.393958 101 105 105 255
0.695985 -0.531692 -0.505661 0.476291 -0.786094 -0.393958 101 105 105 255
0.163422 -0.855717 -0.502971 0.444215 -0.734363 -0.513210 101 105 105 255
0.298608 -0.483175 -0.919039 0.444215 -0.734363 -0.513210 101 105 105 255
0.695985 -0.531692 -0.505661 0.444215 -0.734363 -0.513210 101 105 105 255
-0.860158 -0.531614 0.000000 -0.647036 -0.669840 0.364223 101 105 105 255
-0.405379 -0.810766 0.294522 -0.647036 -0.669840 0.364223 101 105 105 255
-0.688456 -0.425496 0.500187 -0.647036 -0.669840 0.364223 101 105 105 255
-0.860158 -0.531614 0.000000 -0.549637 -0.833326 0.058871 101 105 105 255
-0.421333 -0.842675 -0.306113 -0.549637 -0.833326 0.058871 101 105 105 255
-0.405379 -0.810766 0.294522 -0.549637 -0.833326 0.058871 101 105 105 255
-0.421333 -0.842675 -0.306113 -0.422279 -0.904526 0.059271 101 105 105 255
0.000000 -1.019317 0.000000 -0.422279 -0.904526 0.059271 101 105 105 255
-0.405379 -0.810766 0.294522 -0.422279 -0.904526 0.059271 101 105 105 255
0.163422 -0.855717 -0.502971 -0.173858 -0.704911 -0.687658 101 105 105 255
-0.248826 -0.497652 -0.765792 -0.173858 -0.704911 -0.687658 101 105 105 255
0.298608 -0.483175 -0.919039 -0.173858 -0.704911 -0.687658 101 105 105 255
0.163422 -0.855717 -0.502971 -0.231177 -0.734482 -0.638038 101 105 105 255
-0.421333 -0.842675 -0.306113 -0.231177 -0.734482 -0.638038 101 105 105 255
-0.248826 -0.497652 -0.765792 -0.231177 -0.734482 -0.638038 101 105 105 255
-0.421333 -0.842675 -0.306113 -0.377923 -0.666797 -0.642306 101 105 105 255
-0.730287 -0.451348 -0.530578 -0.377923 -0.666797 -0.642306 101 105 105 255
-0.248826 -0.497652 -0.765792 -0.377923 -0.666797 -0.642306 101 105 105 255
3 0 1 2
3 3 4 5
3 6 7 8
3 9 10 11
3 12 13 14
3 15 16 17
3 18 19 20
3 21 22 23
3 24 25 26
3 27 28 29
3 30 31 32
3 33 34 35
3 36 37 38
3 39 40 41
3 42 43 44
3 45 46 47
3 48 49 50
3 51 52 53
3 54 55 56
3 57 58 59
3 60 61 62
3 63 64 65
3 66 67 68
3 69 70 71
3 72 73 74
3 75 76 77
3 78 79 80
3 81 82 83
3 84 85 86
3 87 88 89
3 90 91 92
3 93 94 95
3 96 97 98
3 99 100 101
3 102 103 104
3 105 106 107
3 108 109 110
3 111 112 113
3 114 115 116
3 117 118 119
3 120 121 122
3 123 124 125
3 126 127 128
3 129 130 131
3 132 133 134
3 135 136 137
3 138 139 140
3 141 142 143
3 144 145 146
3 147 148 149
3 150 151 152
3 153 154 155
3 156 157 158
3 159 160 161
3 162 163 164
3 165 166 167
3 168 169 170
3 171 172 173
3 174 175 176
3 177 178 179
3 180 181 182
3 183 184 185
3 186 187 188
3 189 190 191
3 192 193 194
3 195 196 197
3 198 199 200
3 201 202 203
3 204 205 206
3 207 208 209
3 210 211 212
3 213 214 215
3 216 217 218
3 219 220 221
3 222 223 224
3 225 226 227
3 228 229 230
3 231 232 233
3 234 235 236
3 237 238 239
