ply
format ascii 1.0
comment Created by Blender 2.91.2 - www.blender.org
element vertex 240
property float x
property float y
property float z
property float nx
property float ny
property float nz
property uchar red
property uchar green
property uchar blue
property uchar alpha
element face 80
property list uchar uint vertex_indices
end_header
0.000000 -0.899743 0.000000 -0.083946 -0.986343 0.141707 101 105 105 255
-0.454243 -0.908497 -0.330023 -0.083946 -0.986343 0.141707 101 105 105 255
0.191070 -1.000491 -0.588065 -0.083946 -0.986343 0.141707 101 105 105 255
-0.748354 -0.462513 -0.543704 -0.652904 -0.631184 -0.418716 101 105 105 255
-0.454243 -0.908497 -0.330023 -0.652904 -0.631184 -0.418716 101 105 105 255
-0.966626 -0.597413 0.000000 -0.652904 -0.631184 -0.418716 101 105 105 255
0.000000 -0.899743 0.000000 0.130534 -0.969279 0.208470 101 105 105 255
0.191070 -1.000491 -0.588065 0.130534 -0.969279 0.208470 101 105 105 255
0.513344 -0.830610 0.000000 0.130534 -0.969279 0.208470 101 105 105 255
0.000000 -0.899743 0.000000 0.133330 -0.990040 -0.045203 101 105 105 255
0.513344 -0.830610 0.000000 0.133330 -0.990040 -0.045203 101 105 105 255
0.172022 -0.900749 0.529439 0.133330 -0.990040 -0.045203 101 105 105 255
0.000000 -0.899743 0.000000 -0.134098 -0.990091 0.041688 101 105 105 255
0.172022 -0.900749 0.529439 -0.134098 -0.990091 0.041688 101 105 105 255
-0.415384 -0.830776 0.301791 -0.134098 -0.990091 0.041688 101 105 105 255
-0.748354 -0.462513 -0.543704 -0.895737 -0.183244 -0.405063 101 105 105 255
-0.966626 -0.597413 0.000000 -0.895737 -0.183244 -0.405063 101 105 105 255
-0.949352 0.000000 -0.308458 -0.895737 -0.183244 -0.405063 101 105 105 255
0.227678 -0.368399 -0.700727 0.211753 -0.686519 -0.695595 101 105 105 255
-0.238804 -0.477609 -0.734949 0.211753 -0.686519 -0.695595 101 105 105 255
0.000000 0.000000 -1.133629 0.211753 -0.686519 -0.695595 101 105 105 255
0.944210 -0.472107 0.000000 0.918668 -0.335132 -0.209129 101 105 105 255
0.773112 -0.590612 -0.561698 0.918668 -0.335132 -0.209129 101 105 105 255
1.039546 0.000000 -0.337763 0.918668 -0.335132 -0.209129 101 105 105 255
0.258215 -0.417813 0.794715 0.514608 -0.218590 0.829094 101 105 105 255
0.687792 -0.525433 0.499708 0.514608 -0.218590 0.829094 101 105 105 255
0.533355 0.000000 0.734095 0.514608 -0.218590 0.829094 101 105 105 255
-0.597392 -0.369217 0.434026 -0.635969 -0.570583 0.519595 101 105 105 255
-0.241721 -0.483441 0.743925 -0.635969 -0.570583 0.519595 101 105 105 255
-0.604020 0.000000 0.831363 -0.635969 -0.570583 0.519595 101 105 105 255
-0.748354 -0.462513 -0.543704 -0.833733 -0.084809 -0.545616 101 105 105 255
-0.949352 0.000000 -0.308458 -0.833733 -0.084809 -0.545616 101 105 105 255
-0.605667 0.000000 -0.833629 -0.833733 -0.084809 -0.545616 101 105 105 255
0.227678 -0.368399 -0.700727 0.278019 -0.654439 -0.703147 101 105 105 255
0.000000 0.000000 -1.133629 0.278019 -0.654439 -0.703147 101 105 105 255
0.639825 0.000000 -0.880647 0.278019 -0.654439 -0.703147 101 105 105 255
0.944210 -0.472107 0.000000 0.986760 -0.135512 0.089109 101 105 105 255
1.039546 0.000000 -0.337763 0.986760 -0.135512 0.089109 101 105 105 255
0.980282 0.000000 0.318508 0.986760 -0.135512 0.089109 101 105 105 255
0.258215 -0.417813 0.794715 0.492466 -0.201455 0.846695 101 105 105 255
0.533355 0.000000 0.734095 0.492466 -0.201455 0.846695 101 105 105 255
0.000000 0.000000 1.044312 0.492466 -0.201455 0.846695 101 105 105 255
-0.597392 -0.369217 0.434026 -0.659963 -0.555824 0.505479 101 105 105 255
-0.604020 0.000000 0.831363 -0.659963 -0.555824 0.505479 101 105 105 255
-0.993530 0.000000 0.322812 -0.659963 -0.555824 0.505479 101 105 105 255
-0.273726 0.442912 -0.842456 -0.506388 0.504659 -0.699207 101 105 105 255
-0.679455 0.519064 -0.493651 -0.506388 0.504659 -0.699207 101 105 105 255
-0.179439 0.939583 -0.552265 -0.506388 0.504659 -0.699207 101 105 105 255
0.695091 0.429596 -0.505007 0.653112 0.404583 -0.640123 101 105 105 255
0.277084 0.554168 -0.852762 0.653112 0.404583 -0.640123 101 105 105 255
0.493445 0.986904 -0.358505 0.653112 0.404583 -0.640123 101 105 105 255
0.800458 0.494714 0.581560 0.798116 0.587473 0.133738 101 105 105 255
0.867437 0.536112 0.000000 0.798116 0.587473 0.133738 101 105 105 255
0.486545 0.973103 0.353492 0.798116 0.587473 0.133738 101 105 105 255
-0.309182 0.500286 0.951584 0.034167 0.640674 0.767053 101 105 105 255
0.282864 0.565729 0.870551 0.034167 0.640674 0.767053 101 105 105 255
-0.183033 0.958403 0.563327 0.034167 0.640674 0.767053 101 105 105 255
-0.931323 0.465663 0.000000 -0.705323 0.633895 0.317328 101 105 105 255
-0.670406 0.512151 0.487076 -0.705323 0.633895 0.317328 101 105 105 255
-0.550011 0.889941 0.000000 -0.705323 0.633895 0.317328 101 105 105 255
-0.550011 0.889941 0.000000 -0.062909 0.994814 -0.079918 101 105 105 255
-0.183033 0.958403 0.563327 -0.062909 0.994814 -0.079918 101 105 105 255
0.000000 0.924722 0.000000 -0.062909 0.994814 -0.079918 101 105 105 255
-0.550011 0.889941 0.000000 -0.661704 0.662786 0.350518 101 105 105 255
-0.670406 0.512151 0.487076 -0.661704 0.662786 0.350518 101 105 105 255
-0.183033 0.958403 0.563327 -0.661704 0.662786 0.350518 101 105 105 255
-0.670406 0.512151 0.487076 -0.625550 0.597465 0.501719 101 105 105 255
-0.309182 0.500286 0.951584 -0.625550 0.597465 0.501719 101 105 105 255
-0.183033 0.958403 0.563327 -0.625550 0.597465 0.501719 101 105 105 255
-0.183033 0.958403 0.563327 -0.045133 0.996220 -0.074227 101 105 105 255
0.486545 0.973103 0.353492 -0.045133 0.996220 -0.074227 101 105 105 255
0.000000 0.924722 0.000000 -0.045133 0.996220 -0.074227 101 105 105 255
-0.183033 0.958403 0.563327 0.188368 0.734004 0.652499 101 105 105 255
0.282864 0.565729 0.870551 0.188368 0.734004 0.652499 101 105 105 255
0.486545 0.973103 0.353492 0.188368 0.734004 0.652499 101 105 105 255
0.282864 0.565729 0.870551 0.449221 0.607211 0.655359 101 105 105 255
0.800458 0.494714 0.581560 0.449221 0.607211 0.655359 101 105 105 255
0.486545 0.973103 0.353492 0.449221 0.607211 0.655359 101 105 105 255
0.486545 0.973103 0.353492 -0.111998 0.993542 0.018172 101 105 105 255
0.493445 0.986904 -0.358505 -0.111998 0.993542 0.018172 101 105 105 255
0.000000 0.924722 0.000000 -0.111998 0.993542 0.018172 101 105 105 255
0.486545 0.973103 0.353492 0.761619 0.647718 0.019936 101 105 105 255
0.867437 0.536112 0.000000 0.761619 0.647718 0.019936 101 105 105 255
0.493445 0.986904 -0.358505 0.761619 0.647718 0.019936 101 105 105 255
0.867437 0.536112 0.000000 0.838009 0.400601 -0.370485 101 105 105 255
0.695091 0.429596 -0.505007 0.838009 0.400601 -0.370485 101 105 105 255
0.493445 0.986904 -0.358505 0.838009 0.400601 -0.370485 101 105 105 255
0.493445 0.986904 -0.358505 -0.085687 0.994824 0.054610 101 105 105 255
-0.179439 0.939583 -0.552265 -0.085687 0.994824 0.054610 101 105 105 255
0.000000 0.924722 0.000000 -0.085687 0.994824 0.054610 101 105 105 255
0.493445 0.986904 -0.358505 0.147916 0.711110 -0.687346 101 105 105 255
0.277084 0.554168 -0.852762 0.147916 0.711110 -0.687346 101 105 105 255
-0.179439 0.939583 -0.552265 0.147916 0.711110 -0.687346 101 105 105 255
0.277084 0.554168 -0.852762 -0.120426 0.517748 -0.847015 101 105 105 255
-0.273726 0.442912 -0.842456 -0.120426 0.517748 -0.847015 101 105 105 255
-0.179439 0.939583 -0.552265 -0.120426 0.517748 -0.847015 101 105 105 255
-0.179439 0.939583 -0.552265 -0.063040 0.996889 0.047307 101 105 105 255
-0.550011 0.889941 0.000000 -0.063040 0.996889 0.047307 101 105 105 255
0.000000 0.924722 0.000000 -0.063040 0.996889 0.047307 101 105 105 255
-0.179439 0.939583 -0.552265 -0.625346 0.693769 -0.357250 101 105 105 255
-0.679455 0.519064 -0.493651 -0.625346 0.693769 -0.357250 101 105 105 255
-0.550011 0.889941 0.000000 -0.625346 0.693769 -0.357250 101 105 105 255
-0.679455 0.519064 -0.493651 -0.710977 0.638977 -0.293631 101 105 105 255
-0.931323 0.465663 0.000000 -0.710977 0.638977 -0.293631 101 105 105 255
-0.550011 0.889941 0.000000 -0.710977 0.638977 -0.293631 101 105 105 255
-0.993530 0.000000 0.322812 -0.826229 0.391304 0.405249 101 105 105 255
-0.670406 0.512151 0.487076 -0.826229 0.391304 0.405249 101 105 105 255
-0.931323 0.465663 0.000000 -0.826229 0.391304 0.405249 101 105 105 255
-0.993530 0.000000 0.322812 -0.759177 0.292480 0.581469 101 105 105 255
-0.604020 0.000000 0.831363 -0.759177 0.292480 0.581469 101 105 105 255
-0.670406 0.512151 0.487076 -0.759177 0.292480 0.581469 101 105 105 255
-0.604020 0.000000 0.831363 -0.749376 0.299759 0.590407 101 105 105 255
-0.309182 0.500286 0.951584 -0.749376 0.299759 0.590407 101 105 105 255
-0.670406 0.512151 0.487076 -0.749376 0.299759 0.590407 101 105 105 255
0.000000 0.000000 1.044312 0.105035 0.243621 0.964166 101 105 105 255
0.282864 0.565729 0.870551 0.105035 0.243621 0.964166 101 105 105 255
-0.309182 0.500286 0.951584 0.105035 0.243621 0.964166 101 105 105 255
0.000000 0.000000 1.044312 0.502724 0.014113 0.864332 101 105 105 255
0.533355 0.000000 0.734095 0.502724 0.014113 0.864332 101 105 105 255
0.282864 0.565729 0.870551 0.502724 0.014113 0.864332 101 105 105 255
0.533355 0.000000 0.734095 0.488074 0.005588 0.872784 101 105 105 255
0.800458 0.494714 0.581560 0.488074 0.005588 0.872784 101 105 105 255
0.282864 0.565729 0.870551 0.488074 0.005588 0.872784 101 105 105 255
0.980282 0.000000 0.318508 0.952043 0.277262 0.129383 101 105 105 255
0.867437 0.536112 0.000000 0.952043 0.277262 0.129383 101 105 105 255
0.800458 0.494714 0.581560 0.952043 0.277262 0.129383 101 105 105 255
0.980282 0.000000 0.318508 0.963176 0.254413 0.086979 101 105 105 255
1.039546 0.000000 -0.337763 0.963176 0.254413 0.086979 101 105 105 255
0.867437 0.536112 0.000000 0.963176 0.254413 0.086979 101 105 105 255
1.039546 0.000000 -0.337763 0.789429 0.488018 -0.372344 101 105 105 255
0.695091 0.429596 -0.505007 0.789429 0.488018 -0.372344 101 105 105 255
0.867437 0.536112 0.000000 0.789429 0.488018 -0.372344 101 105 105 255
0.639825 0.000000 -0.880647 0.645951 0.453711 -0.613917 101 105 105 255
0.277084 0.554168 -0.852762 0.645951 0.453711 -0.613917 101 105 105 255
0.695091 0.429596 -0.505007 0.645951 0.453711 -0.613917 101 105 105 255
0.639825 0.000000 -0.880647 0.353382 0.276285 -0.893749 101 105 105 255
0.000000 0.000000 -1.133629 0.353382 0.276285 -0.893749 101 105 105 255
0.277084 0.554168 -0.852762 0.353382 0.276285 -0.893749 101 105 105 255
0.000000 0.000000 -1.133629 -0.116013 0.494568 -0.861362 101 105 105 255
-0.273726 0.442912 -0.842456 -0.116013 0.494568 -0.861362 101 105 105 255
0.277084 0.554168 -0.852762 -0.116013 0.494568 -0.861362 101 105 105 255
-0.605667 0.000000 -0.833629 -0.553159 0.400003 -0.730762 101 105 105 255
-0.679455 0.519064 -0.493651 -0.553159 0.400003 -0.730762 101 105 105 255
-0.273726 0.442912 -0.842456 -0.553159 0.400003 -0.730762 101 105 105 255
-0.605667 0.000000 -0.833629 -0.813696 0.233110 -0.532503 101 105 105 255
-0.949352 0.000000 -0.308458 -0.813696 0.233110 -0.532503 101 105 105 255
-0.679455 0.519064 -0.493651 -0.813696 0.233110 -0.532503 101 105 105 255
-0.949352 0.000000 -0.308458 -0.861775 0.302914 -0.406924 101 105 105 255
-0.931323 0.465663 0.000000 -0.861775 0.302914 -0.406924 101 105 105 255
-0.679455 0.519064 -0.493651 -0.861775 0.302914 -0.406924 101 105 105 255
-0.604020 0.000000 0.831363 -0.332338 -0.030666 0.942662 101 105 105 255
0.000000 0.000000 1.044312 -0.332338 -0.030666 0.942662 101 105 105 255
-0.309182 0.500286 0.951584 -0.332338 -0.030666 0.942662 101 105 105 255
-0.604020 0.000000 0.831363 -0.306581 -0.387039 0.869602 101 105 105 255
-0.241721 -0.483441 0.743925 -0.306581 -0.387039 0.869602 101 105 105 255
0.000000 0.000000 1.044312 -0.306581 -0.387039 0.869602 101 105 105 255
-0.241721 -0.483441 0.743925 -0.018290 -0.521068 0.853319 101 105 105 255
0.258215 -0.417813 0.794715 -0.018290 -0.521068 0.853319 101 105 105 255
0.000000 0.000000 1.044312 -0.018290 -0.521068 0.853319 101 105 105 255
0.533355 0.000000 0.734095 0.674214 -0.140461 0.725056 101 105 105 255
0.980282 0.000000 0.318508 0.674214 -0.140461 0.725056 101 105 105 255
0.800458 0.494714 0.581560 0.674214 -0.140461 0.725056 101 105 105 255
0.533355 0.000000 0.734095 0.675579 -0.125522 0.726524 101 105 105 255
0.687792 -0.525433 0.499708 0.675579 -0.125522 0.726524 101 105 105 255
0.980282 0.000000 0.318508 0.675579 -0.125522 0.726524 101 105 105 255
0.687792 -0.525433 0.499708 0.852088 -0.335904 0.401391 101 105 105 255
0.944210 -0.472107 0.000000 0.852088 -0.335904 0.401391 101 105 105 255
0.980282 0.000000 0.318508 0.852088 -0.335904 0.401391 101 105 105 255
1.039546 0.000000 -0.337763 0.743803 0.383184 -0.547656 101 105 105 255
0.639825 0.000000 -0.880647 0.743803 0.383184 -0.547656 101 105 105 255
0.695091 0.429596 -0.505007 0.743803 0.383184 -0.547656 101 105 105 255
1.039546 0.000000 -0.337763 0.797658 -0.137153 -0.587309 101 105 105 255
0.773112 -0.590612 -0.561698 0.797658 -0.137153 -0.587309 101 105 105 255
0.639825 0.000000 -0.880647 0.797658 -0.137153 -0.587309 101 105 105 255
0.773112 -0.590612 -0.561698 0.033906 -0.468962 -0.882567 101 105 105 255
0.227678 -0.368399 -0.700727 0.033906 -0.468962 -0.882567 101 105 105 255
0.639825 0.000000 -0.880647 0.033906 -0.468962 -0.882567 101 105 105 255
0.000000 0.000000 -1.133629 -0.423375 0.300266 -0.854748 101 105 105 255
-0.605667 0.000000 -0.833629 -0.423375 0.300266 -0.854748 101 105 105 255
-0.273726 0.442912 -0.842456 -0.423375 0.300266 -0.854748 101 105 105 255
0.000000 0.000000 -1.133629 -0.392815 -0.465585 -0.793049 101 105 105 255
-0.238804 -0.477609 -0.734949 -0.392815 -0.465585 -0.793049 101 105 105 255
-0.605667 0.000000 -0.833629 -0.392815 -0.465585 -0.793049 101 105 105 255
-0.238804 -0.477609 -0.734949 -0.328850 -0.426670 -0.842503 101 105 105 255
-0.748354 -0.462513 -0.543704 -0.328850 -0.426670 -0.842503 101 105 105 255
-0.605667 0.000000 -0.833629 -0.328850 -0.426670 -0.842503 101 105 105 255
-0.949352 0.000000 -0.308458 -0.993987 0.084562 -0.069561 101 105 105 255
-0.993530 0.000000 0.322812 -0.993987 0.084562 -0.069561 101 105 105 255
-0.931323 0.465663 0.000000 -0.993987 0.084562 -0.069561 101 105 105 255
-0.949352 0.000000 -0.308458 -0.997534 -0.007201 -0.069809 101 105 105 255
-0.966626 -0.597413 0.000000 -0.997534 -0.007201 -0.069809 101 105 105 255
-0.993530 0.000000 0.322812 -0.997534 -0.007201 -0.069809 101 105 105 255
-0.966626 -0.597413 0.000000 -0.578429 -0.407798 0.706485 101 105 105 255
-0.597392 -0.369217 0.434026 -0.578429 -0.407798 0.706485 101 105 105 255
-0.993530 0.000000 0.322812 -0.578429 -0.407798 0.706485 101 105 105 255
-0.415384 -0.830776 0.301791 -0.666699 -0.436074 0.604443 101 105 105 255
-0.241721 -0.483441 0.743925 -0.666699 -0.436074 0.604443 101 105 105 255
-0.597392 -0.369217 0.434026 -0.666699 -0.436074 0.604443 101 105 105 255
-0.415384 -0.830776 0.301791 -0.335813 -0.672121 0.659911 101 105 105 255
0.172022 -0.900749 0.529439 -0.335813 -0.672121 0.659911 101 105 105 255
-0.241721 -0.483441 0.743925 -0.335813 -0.672121 0.659911 101 105 105 255
0.172022 -0.900749 0.529439 -0.026515 -0.477637 0.878157 101 105 105 255
0.258215 -0.417813 0.794715 -0.026515 -0.477637 0.878157 101 105 105 255
-0.241721 -0.483441 0.743925 -0.026515 -0.477637 0.878157 101 105 105 255
0.172022 -0.900749 0.529439 0.404341 -0.494719 0.769261 101 105 105 255
0.687792 -0.525433 0.499708 0.404341 -0.494719 0.769261 101 105 105 255
0.258215 -0.417813 0.794715 0.404341 -0.494719 0.769261 101 105 105 255
0.172022 -0.900749 0.529439 0.576710 -0.771170 0.269633 101 105 105 255
0.513344 -0.830610 0.000000 0.576710 -0.771170 0.269633 101 105 105 255
0.687792 -0.525433 0.499708 0.576710 -0.771170 0.269633 101 105 105 255
0.513344 -0.830610 0.000000 0.621062 -0.746421 0.239035 101 105 105 255
0.944210 -0.472107 0.000000 0.621062 -0.746421 0.239035 101 105 105 255
0.687792 -0.525433 0.499708 0.621062 -0.746421 0.239035 101 105 105 255
0.513344 -0.830610 0.000000 0.639262 -0.768296 -0.032632 101 105 105 255
0.773112 -0.590612 -0.561698 0.639262 -0.768296 -0.032632 101 105 105 255
0.944210 -0.472107 0.000000 0.639262 -0.768296 -0.032632 101 105 105 255
0.513344 -0.830610 0.000000 0.576329 -0.813201 -0.080924 101 105 105 255
0.191070 -1.000491 -0.588065 0.576329 -0.813201 -0.080924 101 105 105 255
0.773112 -0.590612 -0.561698 0.576329 -0.813201 -0.080924 101 105 105 255
0.191070 -1.000491 -0.588065 0.172377 -0.182512 -0.967975 101 105 105 255
0.227678 -0.368399 -0.700727 0.172377 -0.182512 -0.967975 101 105 105 255
0.773112 -0.590612 -0.561698 0.172377 -0.182512 -0.967975 101 105 105 255
-0.966626 -0.597413 0.000000 -0.566497 -0.425563 0.705675 101 105 105 255
-0.415384 -0.830776 0.301791 -0.566497 -0.425563 0.705675 101 105 105 255
-0.597392 -0.369217 0.434026 -0.566497 -0.425563 0.705675 101 105 105 255
-0.966626 -0.597413 0.000000 -0.448536 -0.883319 0.136246 101 105 105 255
-0.454243 -0.908497 -0.330023 -0.448536 -0.883319 0.136246 101 105 105 255
-0.415384 -0.830776 0.301791 -0.448536 -0.883319 0.136246 101 105 105 255
-0.454243 -0.908497 -0.330023 -0.072598 -0.989349 0.126167 101 105 105 255
0.000000 -0.899743 0.000000 -0.072598 -0.989349 0.126167 101 105 105 255
-0.415384 -0.830776 0.301791 -0.072598 -0.989349 0.126167 101 105 105 255
0.191070 -1.000491 -0.588065 0.113977 -0.180722 -0.976908 101 105 105 255
-0.238804 -0.477609 -0.734949 0.113977 -0.180722 -0.976908 101 105 105 255
0.227678 -0.368399 -0.700727 0.113977 -0.180722 -0.976908 101 105 105 255
0.191070 -1.000491 -0.588065 -0.379388 -0.525772 -0.761334 101 105 105 255
-0.454243 -0.908497 -0.330023 -0.379388 -0.525772 -0.761334 101 105 105 255
-0.238804 -0.477609 -0.734949 -0.379388 -0.525772 -0.761334 101 105 105 255
-0.454243 -0.908497 -0.330023 -0.304065 -0.567228 -0.765373 101 105 105 255
-0.748354 -0.462513 -0.543704 -0.304065 -0.567228 -0.765373 101 105 105 255
-0.238804 -0.477609 -0.734949 -0.304065 -0.567228 -0.765373 101 105 105 255
3 0 1 2
3 3 4 5
3 6 7 8
3 9 10 11
3 12 13 14
3 15 16 17
3 18 19 20
3 21 22 23
3 24 25 26
3 27 28 29
3 30 31 32
3 33 34 35
3 36 37 38
3 39 40 41
3 42 43 44
3 45 46 47
3 48 49 50
3 51 52 53
3 54 55 56
3 57 58 59
3 60 61 62
3 63 64 65
3 66 67 68
3 69 70 71
3 72 73 74
3 75 76 77
3 78 79 80
3 81 82 83
3 84 85 86
3 87 88 89
3 90 91 92
3 93 94 95
3 96 97 98
3 99 100 101
3 102 103 104
3 105 106 107
3 108 109 110
3 111 112 113
3 114 115 116
3 117 118 119
3 120 121 122
3 123 124 125
3 126 127 128
3 129 130 131
3 132 133 134
3 135 136 137
3 138 139 140
3 141 142 143
3 144 145 146
3 147 148 149
3 150 151 152
3 153 154 155
3 156 157 158
3 159 160 161
3 162 163 164
3 165 166 167
3 168 169 170
3 171 172 173
3 174 175 176
3 177 178 179
3 180 181 182
3 183 184 185
3 186 187 188
3 189 190 191
3 192 193 194
3 195 196 197
3 198 199 200
3 201 202 203
3 204 205 206
3 207 208 209
3 210 211 212
3 213 214 215
3 216 217 218
3 219 220 221
3 222 223 224
3 225 226 227
3 228 229 230
3 231 232 233
3 234 235 236
3 237 238 239
