ply
format ascii 1.0
comment Created by Blender 2.91.2 - www.blender.org
element vertex 240
property float x
property float y
property float z
property float nx
property float ny
property float nz
property uchar red
property uchar green
property uchar blue
property uchar alpha
element face 80
property list uchar uint vertex_indices
end_header
0.000000 -0.998634 0.000000 -0.229124 -0.961342 -0.152720 101 105 105 255
-0.424269 -0.848546 -0.308246 -0.229124 -0.961342 -0.152720 101 105 105 255
0.182005 -0.953024 -0.560165 -0.229124 -0.961342 -0.152720 101 105 105 255
-0.747660 -0.462084 -0.543200 -0.655777 -0.708037 -0.261993 101 105 105 255
-0.424269 -0.848546 -0.308246 -0.655777 -0.708037 -0.261993 101 105 105 255
-0.877821 -0.542530 0.000000 -0.655777 -0.708037 -0.261993 101 105 105 255
0.000000 -0.998634 0.000000 0.206307 -0.978406 -0.012632 101 105 105 255
0.182005 -0.953024 -0.560165 0.206307 -0.978406 -0.012632 101 105 105 255
0.546029 -0.883498 0.000000 0.206307 -0.978406 -0.012632 101 105 105 255
0.000000 -0.998634 0.000000 0.205845 -0.976215 0.068058 101 105 105 255
0.546029 -0.883498 0.000000 0.205845 -0.976215 0.068058 101 105 105 255
0.176385 -0.923595 0.542868 0.205845 -0.976215 0.068058 101 105 105 255
0.000000 -0.998634 0.000000 -0.055497 -0.986451 0.154386 101 105 105 255
0.176385 -0.923595 0.542868 -0.055497 -0.986451 0.154386 101 105 105 255
-0.460202 -0.920415 0.334352 -0.055497 -0.986451 0.154386 101 105 105 255
-0.747660 -0.462084 -0.543200 -0.861730 -0.429501 -0.270094 101 105 105 255
-0.877821 -0.542530 0.000000 -0.861730 -0.429501 -0.270094 101 105 105 255
-1.042102 0.000000 -0.338593 -0.861730 -0.429501 -0.270094 101 105 105 255
0.272365 -0.440710 -0.838268 -0.207540 -0.451742 -0.867673 101 105 105 255
-0.230048 -0.460097 -0.708001 -0.207540 -0.451742 -0.867673 101 105 105 255
0.000000 0.000000 -1.002570 -0.207540 -0.451742 -0.867673 101 105 105 255
0.855573 -0.427790 0.000000 0.982823 -0.121381 -0.139015 101 105 105 255
0.758830 -0.579701 -0.551321 0.982823 -0.121381 -0.139015 101 105 105 255
0.868492 0.000000 -0.282187 0.982823 -0.121381 -0.139015 101 105 105 255
0.251531 -0.406998 0.774144 0.344802 -0.385440 0.855890 101 105 105 255
0.718570 -0.548945 0.522070 0.344802 -0.385440 0.855890 101 105 105 255
0.595064 0.000000 0.819036 0.344802 -0.385440 0.855890 101 105 105 255
-0.623877 -0.385585 0.453268 -0.561888 -0.645697 0.517066 101 105 105 255
-0.242085 -0.484170 0.745045 -0.561888 -0.645697 0.517066 101 105 105 255
-0.654765 0.000000 0.901210 -0.561888 -0.645697 0.517066 101 105 105 255
-0.747660 -0.462084 -0.543200 -0.582487 -0.011278 -0.812762 101 105 105 255
-1.042102 0.000000 -0.338593 -0.582487 -0.011278 -0.812762 101 105 105 255
-0.518594 0.000000 -0.713778 -0.582487 -0.011278 -0.812762 101 105 105 255
0.272365 -0.440710 -0.838268 0.520050 0.002968 -0.854131 101 105 105 255
0.000000 0.000000 -1.002570 0.520050 0.002968 -0.854131 101 105 105 255
0.505013 0.000000 -0.695085 0.520050 0.002968 -0.854131 101 105 105 255
0.855573 -0.427790 0.000000 0.982700 -0.121742 -0.139568 101 105 105 255
0.868492 0.000000 -0.282187 0.982700 -0.121742 -0.139568 101 105 105 255
0.952525 0.000000 0.309489 0.982700 -0.121742 -0.139568 101 105 105 255
0.251531 -0.406998 0.774144 0.286943 -0.340941 0.895222 101 105 105 255
0.595064 0.000000 0.819036 0.286943 -0.340941 0.895222 101 105 105 255
0.000000 0.000000 1.009770 0.286943 -0.340941 0.895222 101 105 105 255
-0.623877 -0.385585 0.453268 -0.766967 -0.511525 0.387431 101 105 105 255
-0.654765 0.000000 0.901210 -0.766967 -0.511525 0.387431 101 105 105 255
-0.953509 0.000000 0.309809 -0.766967 -0.511525 0.387431 101 105 105 255
-0.275282 0.445430 -0.847244 -0.556981 0.453253 -0.695941 101 105 105 255
-0.670645 0.512334 -0.487250 -0.556981 0.453253 -0.695941 101 105 105 255
-0.186278 0.975399 -0.573317 -0.556981 0.453253 -0.695941 101 105 105 255
0.757275 0.468027 -0.550186 0.466429 0.780032 -0.417126 101 105 105 255
0.286319 0.572637 -0.881183 0.466429 0.780032 -0.417126 101 105 105 255
0.406852 0.813711 -0.295592 0.466429 0.780032 -0.417126 101 105 105 255
0.704821 0.435609 0.512076 0.719652 0.675228 0.161764 101 105 105 255
0.777677 0.480638 0.000000 0.719652 0.675228 0.161764 101 105 105 255
0.404177 0.808362 0.293648 0.719652 0.675228 0.161764 101 105 105 255
-0.221560 0.358500 0.681898 -0.268197 0.324044 0.907230 101 105 105 255
0.250387 0.500775 0.770598 -0.268197 0.324044 0.907230 101 105 105 255
-0.166954 0.874209 0.513840 -0.268197 0.324044 0.907230 101 105 105 255
-0.864148 0.432077 0.000000 -0.802026 0.583006 0.129838 101 105 105 255
-0.704289 0.538035 0.511694 -0.802026 0.583006 0.129838 101 105 105 255
-0.541422 0.876043 0.000000 -0.802026 0.583006 0.129838 101 105 105 255
-0.541422 0.876043 0.000000 -0.224170 0.960171 0.166795 101 105 105 255
-0.166954 0.874209 0.513840 -0.224170 0.960171 0.166795 101 105 105 255
0.000000 1.002449 0.000000 -0.224170 0.960171 0.166795 101 105 105 255
-0.541422 0.876043 0.000000 -0.495117 0.789066 0.363640 101 105 105 255
-0.704289 0.538035 0.511694 -0.495117 0.789066 0.363640 101 105 105 255
-0.166954 0.874209 0.513840 -0.495117 0.789066 0.363640 101 105 105 255
-0.704289 0.538035 0.511694 -0.205666 0.322835 0.923839 101 105 105 255
-0.221560 0.358500 0.681898 -0.205666 0.322835 0.923839 101 105 105 255
-0.166954 0.874209 0.513840 -0.205666 0.322835 0.923839 101 105 105 255
-0.166954 0.874209 0.513840 0.223915 0.926029 0.303863 101 105 105 255
0.404177 0.808362 0.293648 0.223915 0.926029 0.303863 101 105 105 255
0.000000 1.002449 0.000000 0.223915 0.926029 0.303863 101 105 105 255
-0.166954 0.874209 0.513840 0.311549 0.749655 0.583913 101 105 105 255
0.250387 0.500775 0.770598 0.311549 0.749655 0.583913 101 105 105 255
0.404177 0.808362 0.293648 0.311549 0.749655 0.583913 101 105 105 255
0.250387 0.500775 0.770598 0.430520 0.688934 0.583115 101 105 105 255
0.704821 0.435609 0.512076 0.430520 0.688934 0.583115 101 105 105 255
0.404177 0.808362 0.293648 0.430520 0.688934 0.583115 101 105 105 255
0.404177 0.808362 0.293648 0.426856 0.904262 0.010148 101 105 105 255
0.406852 0.813711 -0.295592 0.426856 0.904262 0.010148 101 105 105 255
0.000000 1.002449 0.000000 0.426856 0.904262 0.010148 101 105 105 255
0.404177 0.808362 0.293648 0.663854 0.747798 0.009803 101 105 105 255
0.777677 0.480638 0.000000 0.663854 0.747798 0.009803 101 105 105 255
0.406852 0.813711 -0.295592 0.663854 0.747798 0.009803 101 105 105 255
0.777677 0.480638 0.000000 0.685991 0.726391 -0.042088 101 105 105 255
0.757275 0.468027 -0.550186 0.685991 0.726391 -0.042088 101 105 105 255
0.406852 0.813711 -0.295592 0.685991 0.726391 -0.042088 101 105 105 255
0.406852 0.813711 -0.295592 0.324614 0.933951 -0.149536 101 105 105 255
-0.186278 0.975399 -0.573317 0.324614 0.933951 -0.149536 101 105 105 255
0.000000 1.002449 0.000000 0.324614 0.933951 -0.149536 101 105 105 255
0.406852 0.813711 -0.295592 0.415914 0.807604 -0.418080 101 105 105 255
0.286319 0.572637 -0.881183 0.415914 0.807604 -0.418080 101 105 105 255
-0.186278 0.975399 -0.573317 0.415914 0.807604 -0.418080 101 105 105 255
0.286319 0.572637 -0.881183 -0.159754 0.474308 -0.865743 101 105 105 255
-0.275282 0.445430 -0.847244 -0.159754 0.474308 -0.865743 101 105 105 255
-0.186278 0.975399 -0.573317 -0.159754 0.474308 -0.865743 101 105 105 255
-0.186278 0.975399 -0.573317 -0.227266 0.973433 0.027915 101 105 105 255
-0.541422 0.876043 0.000000 -0.227266 0.973433 0.027915 101 105 105 255
0.000000 1.002449 0.000000 -0.227266 0.973433 0.027915 101 105 105 255
-0.186278 0.975399 -0.573317 -0.685165 0.659024 -0.310220 101 105 105 255
-0.670645 0.512334 -0.487250 -0.685165 0.659024 -0.310220 101 105 105 255
-0.541422 0.876043 0.000000 -0.685165 0.659024 -0.310220 101 105 105 255
-0.670645 0.512334 -0.487250 -0.789249 0.573718 -0.218938 101 105 105 255
-0.864148 0.432077 0.000000 -0.789249 0.573718 -0.218938 101 105 105 255
-0.541422 0.876043 0.000000 -0.789249 0.573718 -0.218938 101 105 105 255
-0.953509 0.000000 0.309809 -0.914465 0.343039 0.214656 101 105 105 255
-0.704289 0.538035 0.511694 -0.914465 0.343039 0.214656 101 105 105 255
-0.864148 0.432077 0.000000 -0.914465 0.343039 0.214656 101 105 105 255
-0.953509 0.000000 0.309809 -0.867090 0.237287 0.438007 101 105 105 255
-0.654765 0.000000 0.901210 -0.867090 0.237287 0.438007 101 105 105 255
-0.704289 0.538035 0.511694 -0.867090 0.237287 0.438007 101 105 105 255
-0.654765 0.000000 0.901210 -0.069986 0.580742 0.811074 101 105 105 255
-0.221560 0.358500 0.681898 -0.069986 0.580742 0.811074 101 105 105 255
-0.704289 0.538035 0.511694 -0.069986 0.580742 0.811074 101 105 105 255
0.000000 0.000000 1.009770 -0.308433 0.531123 0.789162 101 105 105 255
0.250387 0.500775 0.770598 -0.308433 0.531123 0.789162 101 105 105 255
-0.221560 0.358500 0.681898 -0.308433 0.531123 0.789162 101 105 105 255
0.000000 0.000000 1.009770 0.292181 0.289275 0.911565 101 105 105 255
0.595064 0.000000 0.819036 0.292181 0.289275 0.911565 101 105 105 255
0.250387 0.500775 0.770598 0.292181 0.289275 0.911565 101 105 105 255
0.595064 0.000000 0.819036 0.494224 0.414101 0.764371 101 105 105 255
0.704821 0.435609 0.512076 0.494224 0.414101 0.764371 101 105 105 255
0.250387 0.500775 0.770598 0.494224 0.414101 0.764371 101 105 105 255
0.952525 0.000000 0.309489 0.888353 0.428835 0.164100 101 105 105 255
0.777677 0.480638 0.000000 0.888353 0.428835 0.164100 101 105 105 255
0.704821 0.435609 0.512076 0.888353 0.428835 0.164100 101 105 105 255
0.952525 0.000000 0.309489 0.955927 0.260330 -0.135765 101 105 105 255
0.868492 0.000000 -0.282187 0.955927 0.260330 -0.135765 101 105 105 255
0.777677 0.480638 0.000000 0.955927 0.260330 -0.135765 101 105 105 255
0.868492 0.000000 -0.282187 0.977118 0.208706 -0.041017 101 105 105 255
0.757275 0.468027 -0.550186 0.977118 0.208706 -0.041017 101 105 105 255
0.777677 0.480638 0.000000 0.977118 0.208706 -0.041017 101 105 105 255
0.505013 0.000000 -0.695085 0.566683 -0.050835 -0.822366 101 105 105 255
0.286319 0.572637 -0.881183 0.566683 -0.050835 -0.822366 101 105 105 255
0.757275 0.468027 -0.550186 0.566683 -0.050835 -0.822366 101 105 105 255
0.505013 0.000000 -0.695085 0.518438 -0.078722 -0.851484 101 105 105 255
0.000000 0.000000 -1.002570 0.518438 -0.078722 -0.851484 101 105 105 255
0.286319 0.572637 -0.881183 0.518438 -0.078722 -0.851484 101 105 105 255
0.000000 0.000000 -1.002570 -0.117165 0.261663 -0.958021 101 105 105 255
-0.275282 0.445430 -0.847244 -0.117165 0.261663 -0.958021 101 105 105 255
0.286319 0.572637 -0.881183 -0.117165 0.261663 -0.958021 101 105 105 255
-0.518594 0.000000 -0.713778 -0.654572 0.134655 -0.743911 101 105 105 255
-0.670645 0.512334 -0.487250 -0.654572 0.134655 -0.743911 101 105 105 255
-0.275282 0.445430 -0.847244 -0.654572 0.134655 -0.743911 101 105 105 255
-0.518594 0.000000 -0.713778 -0.572650 0.183342 -0.799036 101 105 105 255
-1.042102 0.000000 -0.338593 -0.572650 0.183342 -0.799036 101 105 105 255
-0.670645 0.512334 -0.487250 -0.572650 0.183342 -0.799036 101 105 105 255
-1.042102 0.000000 -0.338593 -0.817812 0.523730 -0.238515 101 105 105 255
-0.864148 0.432077 0.000000 -0.817812 0.523730 -0.238515 101 105 105 255
-0.670645 0.512334 -0.487250 -0.817812 0.523730 -0.238515 101 105 105 255
-0.654765 0.000000 0.901210 -0.127652 0.625247 0.769916 101 105 105 255
0.000000 0.000000 1.009770 -0.127652 0.625247 0.769916 101 105 105 255
-0.221560 0.358500 0.681898 -0.127652 0.625247 0.769916 101 105 105 255
-0.654765 0.000000 0.901210 -0.148734 -0.416113 0.897066 101 105 105 255
-0.242085 -0.484170 0.745045 -0.148734 -0.416113 0.897066 101 105 105 255
0.000000 0.000000 1.009770 -0.148734 -0.416113 0.897066 101 105 105 255
-0.242085 -0.484170 0.745045 0.025091 -0.489213 0.871804 101 105 105 255
0.251531 -0.406998 0.774144 0.025091 -0.489213 0.871804 101 105 105 255
0.000000 0.000000 1.009770 0.025091 -0.489213 0.871804 101 105 105 255
0.595064 0.000000 0.819036 0.802989 0.194630 0.563319 101 105 105 255
0.952525 0.000000 0.309489 0.802989 0.194630 0.563319 101 105 105 255
0.704821 0.435609 0.512076 0.802989 0.194630 0.563319 101 105 105 255
0.595064 0.000000 0.819036 0.812172 -0.125499 0.569761 101 105 105 255
0.718570 -0.548945 0.522070 0.812172 -0.125499 0.569761 101 105 105 255
0.952525 0.000000 0.309489 0.812172 -0.125499 0.569761 101 105 105 255
0.718570 -0.548945 0.522070 0.928695 -0.331187 0.166854 101 105 105 255
0.855573 -0.427790 0.000000 0.928695 -0.331187 0.166854 101 105 105 255
0.952525 0.000000 0.309489 0.928695 -0.331187 0.166854 101 105 105 255
0.868492 0.000000 -0.282187 0.736022 -0.196112 -0.647928 101 105 105 255
0.505013 0.000000 -0.695085 0.736022 -0.196112 -0.647928 101 105 105 255
0.757275 0.468027 -0.550186 0.736022 -0.196112 -0.647928 101 105 105 255
0.868492 0.000000 -0.282187 0.740611 0.162584 -0.651968 101 105 105 255
0.758830 -0.579701 -0.551321 0.740611 0.162584 -0.651968 101 105 105 255
0.505013 0.000000 -0.695085 0.740611 0.162584 -0.651968 101 105 105 255
0.758830 -0.579701 -0.551321 0.510172 0.010094 -0.860013 101 105 105 255
0.272365 -0.440710 -0.838268 0.510172 0.010094 -0.860013 101 105 105 255
0.505013 0.000000 -0.695085 0.510172 0.010094 -0.860013 101 105 105 255
0.000000 0.000000 -1.002570 -0.486519 0.003980 -0.873661 101 105 105 255
-0.518594 0.000000 -0.713778 -0.486519 0.003980 -0.873661 101 105 105 255
-0.275282 0.445430 -0.847244 -0.486519 0.003980 -0.873661 101 105 105 255
0.000000 0.000000 -1.002570 -0.463900 -0.301391 -0.833043 101 105 105 255
-0.230048 -0.460097 -0.708001 -0.463900 -0.301391 -0.833043 101 105 105 255
-0.518594 0.000000 -0.713778 -0.463900 -0.301391 -0.833043 101 105 105 255
-0.230048 -0.460097 -0.708001 -0.296697 -0.197802 -0.934262 101 105 105 255
-0.747660 -0.462084 -0.543200 -0.296697 -0.197802 -0.934262 101 105 105 255
-0.518594 0.000000 -0.713778 -0.296697 -0.197802 -0.934262 101 105 105 255
-1.042102 0.000000 -0.338593 -0.948491 0.289085 0.129595 101 105 105 255
-0.953509 0.000000 0.309809 -0.948491 0.289085 0.129595 101 105 105 255
-0.864148 0.432077 0.000000 -0.948491 0.289085 0.129595 101 105 105 255
-1.042102 0.000000 -0.338593 -0.968554 -0.210691 0.132336 101 105 105 255
-0.877821 -0.542530 0.000000 -0.968554 -0.210691 0.132336 101 105 105 255
-0.953509 0.000000 0.309809 -0.968554 -0.210691 0.132336 101 105 105 255
-0.877821 -0.542530 0.000000 -0.724841 -0.415094 0.549821 101 105 105 255
-0.623877 -0.385585 0.453268 -0.724841 -0.415094 0.549821 101 105 105 255
-0.953509 0.000000 0.309809 -0.724841 -0.415094 0.549821 101 105 105 255
-0.460202 -0.920415 0.334352 -0.624425 -0.346715 0.699916 101 105 105 255
-0.242085 -0.484170 0.745045 -0.624425 -0.346715 0.699916 101 105 105 255
-0.623877 -0.385585 0.453268 -0.624425 -0.346715 0.699916 101 105 105 255
-0.460202 -0.920415 0.334352 -0.253331 -0.592932 0.764366 101 105 105 255
0.176385 -0.923595 0.542868 -0.253331 -0.592932 0.764366 101 105 105 255
-0.242085 -0.484170 0.745045 -0.253331 -0.592932 0.764366 101 105 105 255
0.176385 -0.923595 0.542868 0.010306 -0.409839 0.912100 101 105 105 255
0.251531 -0.406998 0.774144 0.010306 -0.409839 0.912100 101 105 105 255
-0.242085 -0.484170 0.745045 0.010306 -0.409839 0.912100 101 105 105 255
0.176385 -0.923595 0.542868 0.326320 -0.425381 0.844137 101 105 105 255
0.718570 -0.548945 0.522070 0.326320 -0.425381 0.844137 101 105 105 255
0.251531 -0.406998 0.774144 0.326320 -0.425381 0.844137 101 105 105 255
0.176385 -0.923595 0.542868 0.547590 -0.774937 0.315622 101 105 105 255
0.546029 -0.883498 0.000000 0.547590 -0.774937 0.315622 101 105 105 255
0.718570 -0.548945 0.522070 0.547590 -0.774937 0.315622 101 105 105 255
0.546029 -0.883498 0.000000 0.824121 -0.559791 0.086360 101 105 105 255
0.855573 -0.427790 0.000000 0.824121 -0.559791 0.086360 101 105 105 255
0.718570 -0.548945 0.522070 0.824121 -0.559791 0.086360 101 105 105 255
0.546029 -0.883498 0.000000 0.827173 -0.561864 0.009669 101 105 105 255
0.758830 -0.579701 -0.551321 0.827173 -0.561864 0.009669 101 105 105 255
0.855573 -0.427790 0.000000 0.827173 -0.561864 0.009669 101 105 105 255
0.546029 -0.883498 0.000000 0.529633 -0.812576 -0.243328 101 105 105 255
0.182005 -0.953024 -0.560165 0.529633 -0.812576 -0.243328 101 105 105 255
0.758830 -0.579701 -0.551321 0.529633 -0.812576 -0.243328 101 105 105 255
0.182005 -0.953024 -0.560165 0.332395 -0.494562 -0.803070 101 105 105 255
0.272365 -0.440710 -0.838268 0.332395 -0.494562 -0.803070 101 105 105 255
0.758830 -0.579701 -0.551321 0.332395 -0.494562 -0.803070 101 105 105 255
-0.877821 -0.542530 0.000000 -0.758401 -0.353806 0.547402 101 105 105 255
-0.460202 -0.920415 0.334352 -0.758401 -0.353806 0.547402 101 105 105 255
-0.623877 -0.385585 0.453268 -0.758401 -0.353806 0.547402 101 105 105 255
-0.877821 -0.542530 0.000000 -0.610647 -0.782502 -0.121662 101 105 105 255
-0.424269 -0.848546 -0.308246 -0.610647 -0.782502 -0.121662 101 105 105 255
-0.460202 -0.920415 0.334352 -0.610647 -0.782502 -0.121662 101 105 105 255
-0.424269 -0.848546 -0.308246 -0.251445 -0.960221 -0.121452 101 105 105 255
0.000000 -0.998634 0.000000 -0.251445 -0.960221 -0.121452 101 105 105 255
-0.460202 -0.920415 0.334352 -0.251445 -0.960221 -0.121452 101 105 105 255
0.182005 -0.953024 -0.560165 -0.209814 -0.437617 -0.874340 101 105 105 255
-0.230048 -0.460097 -0.708001 -0.209814 -0.437617 -0.874340 101 105 105 255
0.272365 -0.440710 -0.838268 -0.209814 -0.437617 -0.874340 101 105 105 255
0.182005 -0.953024 -0.560165 -0.399179 -0.553019 -0.731318 101 105 105 255
-0.424269 -0.848546 -0.308246 -0.399179 -0.553019 -0.731318 101 105 105 255
-0.230048 -0.460097 -0.708001 -0.399179 -0.553019 -0.731318 101 105 105 255
-0.424269 -0.848546 -0.308246 -0.231066 -0.639266 -0.733449 101 105 105 255
-0.747660 -0.462084 -0.543200 -0.231066 -0.639266 -0.733449 101 105 105 255
-0.230048 -0.460097 -0.708001 -0.231066 -0.639266 -0.733449 101 105 105 255
3 0 1 2
3 3 4 5
3 6 7 8
3 9 10 11
3 12 13 14
3 15 16 17
3 18 19 20
3 21 22 23
3 24 25 26
3 27 28 29
3 30 31 32
3 33 34 35
3 36 37 38
3 39 40 41
3 42 43 44
3 45 46 47
3 48 49 50
3 51 52 53
3 54 55 56
3 57 58 59
3 60 61 62
3 63 64 65
3 66 67 68
3 69 70 71
3 72 73 74
3 75 76 77
3 78 79 80
3 81 82 83
3 84 85 86
3 87 88 89
3 90 91 92
3 93 94 95
3 96 97 98
3 99 100 101
3 102 103 104
3 105 106 107
3 108 109 110
3 111 112 113
3 114 115 116
3 117 118 119
3 120 121 122
3 123 124 125
3 126 127 128
3 129 130 131
3 132 133 134
3 135 136 137
3 138 139 140
3 141 142 143
3 144 145 146
3 147 148 149
3 150 151 152
3 153 154 155
3 156 157 158
3 159 160 161
3 162 163 164
3 165 166 167
3 168 169 170
3 171 172 173
3 174 175 176
3 177 178 179
3 180 181 182
3 183 184 185
3 186 187 188
3 189 190 191
3 192 193 194
3 195 196 197
3 198 199 200
3 201 202 203
3 204 205 206
3 207 208 209
3 210 211 212
3 213 214 215
3 216 217 218
3 219 220 221
3 222 223 224
3 225 226 227
3 228 229 230
3 231 232 233
3 234 235 236
3 237 238 239
