ply
format ascii 1.0
comment Created by Blender 2.91.2 - www.blender.org
element vertex 240
property float x
property float y
property float z
property float nx
property float ny
property float nz
property uchar red
property uchar green
property uchar blue
property uchar alpha
element face 80
property list uchar uint vertex_indices
end_header
0.000000 -1.056043 0.000000 -0.025303 -0.978173 -0.206243 101 105 105 255
-0.484628 -0.969268 -0.352099 -0.025303 -0.978173 -0.206243 101 105 105 255
0.180234 -0.943747 -0.554712 -0.025303 -0.978173 -0.206243 101 105 105 255
-0.622990 -0.385037 -0.452624 -0.761499 -0.280858 -0.584156 101 105 105 255
-0.484628 -0.969268 -0.352099 -0.761499 -0.280858 -0.584156 101 105 105 255
-0.905752 -0.559791 0.000000 -0.761499 -0.280858 -0.584156 101 105 105 255
0.000000 -1.056043 0.000000 0.473942 -0.880223 -0.024203 101 105 105 255
0.180234 -0.943747 -0.554712 0.473942 -0.880223 -0.024203 101 105 105 255
0.489709 -0.792367 0.000000 0.473942 -0.880223 -0.024203 101 105 105 255
0.000000 -1.056043 0.000000 0.474025 -0.880376 0.015467 101 105 105 255
0.489709 -0.792367 0.000000 0.474025 -0.880376 0.015467 101 105 105 255
0.181178 -0.948693 0.557620 0.474025 -0.880376 0.015467 101 105 105 255
0.000000 -1.056043 0.000000 -0.448404 -0.839353 0.307280 101 105 105 255
0.181178 -0.948693 0.557620 -0.448404 -0.839353 0.307280 101 105 105 255
-0.377129 -0.754263 0.273997 -0.448404 -0.839353 0.307280 101 105 105 255
-0.622990 -0.385037 -0.452624 -0.755353 -0.294311 -0.585511 101 105 105 255
-0.905752 -0.559791 0.000000 -0.755353 -0.294311 -0.585511 101 105 105 255
-0.897758 0.000000 -0.291695 -0.755353 -0.294311 -0.585511 101 105 105 255
0.283548 -0.458806 -0.872686 -0.213867 -0.281374 -0.935462 101 105 105 255
-0.242044 -0.484088 -0.744920 -0.213867 -0.281374 -0.935462 101 105 105 255
0.000000 0.000000 -0.945863 -0.213867 -0.281374 -0.935462 101 105 105 255
0.760519 -0.380264 0.000000 0.797274 -0.586350 0.143344 101 105 105 255
0.726785 -0.555221 -0.528039 0.797274 -0.586350 0.143344 101 105 105 255
1.104716 0.000000 -0.358937 0.797274 -0.586350 0.143344 101 105 105 255
0.256585 -0.415176 0.789699 0.491336 -0.248151 0.834871 101 105 105 255
0.690026 -0.527140 0.501332 0.491336 -0.248151 0.834871 101 105 105 255
0.541560 0.000000 0.745390 0.491336 -0.248151 0.834871 101 105 105 255
-0.699294 -0.432194 0.508061 -0.442047 -0.445013 0.778818 101 105 105 255
-0.240586 -0.481172 0.740432 -0.442047 -0.445013 0.778818 101 105 105 255
-0.592564 0.000000 0.815593 -0.442047 -0.445013 0.778818 101 105 105 255
-0.622990 -0.385037 -0.452624 -0.752545 -0.289886 -0.591305 101 105 105 255
-0.897758 0.000000 -0.291695 -0.752545 -0.289886 -0.591305 101 105 105 255
-0.541422 0.000000 -0.745199 -0.752545 -0.289886 -0.591305 101 105 105 255
0.283548 -0.458806 -0.872686 -0.000137 -0.157586 -0.987505 101 105 105 255
0.000000 0.000000 -0.945863 -0.000137 -0.157586 -0.987505 101 105 105 255
0.687275 0.000000 -0.945959 -0.000137 -0.157586 -0.987505 101 105 105 255
0.760519 -0.380264 0.000000 0.790427 -0.600280 0.122021 101 105 105 255
1.104716 0.000000 -0.358937 0.790427 -0.600280 0.122021 101 105 105 255
0.999188 0.000000 0.324650 0.790427 -0.600280 0.122021 101 105 105 255
0.256585 -0.415176 0.789699 0.566928 -0.307581 0.764190 101 105 105 255
0.541560 0.000000 0.745390 0.566928 -0.307581 0.764190 101 105 105 255
0.000000 0.000000 1.147156 0.566928 -0.307581 0.764190 101 105 105 255
-0.699294 -0.432194 0.508061 -0.754186 -0.246761 0.608533 101 105 105 255
-0.592564 0.000000 0.815593 -0.754186 -0.246761 0.608533 101 105 105 255
-0.990872 0.000000 0.321949 -0.754186 -0.246761 0.608533 101 105 105 255
-0.309604 0.500968 -0.952883 -0.429342 0.634609 -0.642602 101 105 105 255
-0.769842 0.588114 -0.559322 -0.429342 0.634609 -0.642602 101 105 105 255
-0.185542 0.971543 -0.571051 -0.429342 0.634609 -0.642602 101 105 105 255
0.685723 0.423806 -0.498201 0.465234 0.430935 -0.773209 101 105 105 255
0.239258 0.478515 -0.736344 0.465234 0.430935 -0.773209 101 105 105 255
0.469521 0.939054 -0.341123 0.465234 0.430935 -0.773209 101 105 105 255
0.682575 0.421861 0.495914 0.710759 0.639933 0.292075 101 105 105 255
0.813506 0.502781 0.000000 0.710759 0.639933 0.292075 101 105 105 255
0.408542 0.817092 0.296820 0.710759 0.639933 0.292075 101 105 105 255
-0.288163 0.466274 0.886892 -0.029373 0.909643 0.414352 101 105 105 255
0.261030 0.522061 0.803354 -0.029373 0.909643 0.414352 101 105 105 255
-0.131861 0.690450 0.405831 -0.029373 0.909643 0.414352 101 105 105 255
-1.024675 0.512338 0.000000 -0.558623 0.800384 0.217546 101 105 105 255
-0.739746 0.565122 0.537455 -0.558623 0.800384 0.217546 101 105 105 255
-0.530014 0.857584 0.000000 -0.558623 0.800384 0.217546 101 105 105 255
-0.530014 0.857584 0.000000 -0.092002 0.885713 0.455026 101 105 105 255
-0.131861 0.690450 0.405831 -0.092002 0.885713 0.455026 101 105 105 255
0.000000 0.912639 0.000000 -0.092002 0.885713 0.455026 101 105 105 255
-0.530014 0.857584 0.000000 -0.085769 0.888807 0.450185 101 105 105 255
-0.739746 0.565122 0.537455 -0.085769 0.888807 0.450185 101 105 105 255
-0.131861 0.690450 0.405831 -0.085769 0.888807 0.450185 101 105 105 255
-0.739746 0.565122 0.537455 -0.103496 0.913997 0.392298 101 105 105 255
-0.288163 0.466274 0.886892 -0.103496 0.913997 0.392298 101 105 105 255
-0.131861 0.690450 0.405831 -0.103496 0.913997 0.392298 101 105 105 255
-0.131861 0.690450 0.405831 -0.117568 0.886656 0.447236 101 105 105 255
0.408542 0.817092 0.296820 -0.117568 0.886656 0.447236 101 105 105 255
0.000000 0.912639 0.000000 -0.117568 0.886656 0.447236 101 105 105 255
-0.131861 0.690450 0.405831 -0.108309 0.872422 0.476602 101 105 105 255
0.261030 0.522061 0.803354 -0.108309 0.872422 0.476602 101 105 105 255
0.408542 0.817092 0.296820 -0.108309 0.872422 0.476602 101 105 105 255
0.261030 0.522061 0.803354 0.543848 0.646560 0.534968 101 105 105 255
0.682575 0.421861 0.495914 0.543848 0.646560 0.534968 101 105 105 255
0.408542 0.817092 0.296820 0.543848 0.646560 0.534968 101 105 105 255
0.408542 0.817092 0.296820 0.086758 0.976945 0.195066 101 105 105 255
0.469521 0.939054 -0.341123 0.086758 0.976945 0.195066 101 105 105 255
0.000000 0.912639 0.000000 0.086758 0.976945 0.195066 101 105 105 255
0.408542 0.817092 0.296820 0.687788 0.698046 0.199196 101 105 105 255
0.813506 0.502781 0.000000 0.687788 0.698046 0.199196 101 105 105 255
0.469521 0.939054 -0.341123 0.687788 0.698046 0.199196 101 105 105 255
0.813506 0.502781 0.000000 0.848553 0.443859 -0.288005 101 105 105 255
0.685723 0.423806 -0.498201 0.848553 0.443859 -0.288005 101 105 105 255
0.469521 0.939054 -0.341123 0.848553 0.443859 -0.288005 101 105 105 255
0.469521 0.939054 -0.341123 0.015040 0.995096 0.097759 101 105 105 255
-0.185542 0.971543 -0.571051 0.015040 0.995096 0.097759 101 105 105 255
0.000000 0.912639 0.000000 0.015040 0.995096 0.097759 101 105 105 255
0.469521 0.939054 -0.341123 0.304443 0.528089 -0.792740 101 105 105 255
0.239258 0.478515 -0.736344 0.304443 0.528089 -0.792740 101 105 105 255
-0.185542 0.971543 -0.571051 0.304443 0.528089 -0.792740 101 105 105 255
0.239258 0.478515 -0.736344 0.327557 0.541751 -0.774088 101 105 105 255
-0.309604 0.500968 -0.952883 0.327557 0.541751 -0.774088 101 105 105 255
-0.185542 0.971543 -0.571051 0.327557 0.541751 -0.774088 101 105 105 255
-0.185542 0.971543 -0.571051 -0.102373 0.985553 0.134924 101 105 105 255
-0.530014 0.857584 0.000000 -0.102373 0.985553 0.134924 101 105 105 255
0.000000 0.912639 0.000000 -0.102373 0.985553 0.134924 101 105 105 255
-0.185542 0.971543 -0.571051 -0.543542 0.823288 -0.163582 101 105 105 255
-0.769842 0.588114 -0.559322 -0.543542 0.823288 -0.163582 101 105 105 255
-0.530014 0.857584 0.000000 -0.543542 0.823288 -0.163582 101 105 105 255
-0.769842 0.588114 -0.559322 -0.566026 0.810990 -0.148016 101 105 105 255
-1.024675 0.512338 0.000000 -0.566026 0.810990 -0.148016 101 105 105 255
-0.530014 0.857584 0.000000 -0.566026 0.810990 -0.148016 101 105 105 255
-0.990872 0.000000 0.321949 -0.870790 0.219118 0.440126 101 105 105 255
-0.739746 0.565122 0.537455 -0.870790 0.219118 0.440126 101 105 105 255
-1.024675 0.512338 0.000000 -0.870790 0.219118 0.440126 101 105 105 255
-0.990872 0.000000 0.321949 -0.773887 0.105774 0.624428 101 105 105 255
-0.592564 0.000000 0.815593 -0.773887 0.105774 0.624428 101 105 105 255
-0.739746 0.565122 0.537455 -0.773887 0.105774 0.624428 101 105 105 255
-0.592564 0.000000 0.815593 -0.559477 0.244128 0.792077 101 105 105 255
-0.288163 0.466274 0.886892 -0.559477 0.244128 0.792077 101 105 105 255
-0.739746 0.565122 0.537455 -0.559477 0.244128 0.792077 101 105 105 255
0.000000 0.000000 1.147156 0.076294 0.521506 0.849830 101 105 105 255
0.261030 0.522061 0.803354 0.076294 0.521506 0.849830 101 105 105 255
-0.288163 0.466274 0.886892 0.076294 0.521506 0.849830 101 105 105 255
0.000000 0.000000 1.147156 0.580526 0.225063 0.782519 101 105 105 255
0.541560 0.000000 0.745390 0.580526 0.225063 0.782519 101 105 105 255
0.261030 0.522061 0.803354 0.580526 0.225063 0.782519 101 105 105 255
0.541560 0.000000 0.745390 0.608634 0.243193 0.755263 101 105 105 255
0.682575 0.421861 0.495914 0.608634 0.243193 0.755263 101 105 105 255
0.261030 0.522061 0.803354 0.608634 0.243193 0.755263 101 105 105 255
0.999188 0.000000 0.324650 0.817742 0.493395 0.296410 101 105 105 255
0.813506 0.502781 0.000000 0.817742 0.493395 0.296410 101 105 105 255
0.682575 0.421861 0.495914 0.817742 0.493395 0.296410 101 105 105 255
0.999188 0.000000 0.324650 0.896660 0.420525 0.138420 101 105 105 255
1.104716 0.000000 -0.358937 0.896660 0.420525 0.138420 101 105 105 255
0.813506 0.502781 0.000000 0.896660 0.420525 0.138420 101 105 105 255
1.104716 0.000000 -0.358937 0.726790 0.624737 -0.285447 101 105 105 255
0.685723 0.423806 -0.498201 0.726790 0.624737 -0.285447 101 105 105 255
0.813506 0.502781 0.000000 0.726790 0.624737 -0.285447 101 105 105 255
0.687275 0.000000 -0.945959 0.414382 0.661692 -0.624861 101 105 105 255
0.239258 0.478515 -0.736344 0.414382 0.661692 -0.624861 101 105 105 255
0.685723 0.423806 -0.498201 0.414382 0.661692 -0.624861 101 105 105 255
0.687275 0.000000 -0.945959 -0.000127 0.401143 -0.916016 101 105 105 255
0.000000 0.000000 -0.945863 -0.000127 0.401143 -0.916016 101 105 105 255
0.239258 0.478515 -0.736344 -0.000127 0.401143 -0.916016 101 105 105 255
0.000000 0.000000 -0.945863 0.366075 0.213548 -0.905752 101 105 105 255
-0.309604 0.500968 -0.952883 0.366075 0.213548 -0.905752 101 105 105 255
0.239258 0.478515 -0.736344 0.366075 0.213548 -0.905752 101 105 105 255
-0.541422 0.000000 -0.745199 -0.651288 -0.013160 -0.758716 101 105 105 255
-0.769842 0.588114 -0.559322 -0.651288 -0.013160 -0.758716 101 105 105 255
-0.309604 0.500968 -0.952883 -0.651288 -0.013160 -0.758716 101 105 105 255
-0.541422 0.000000 -0.745199 -0.781583 -0.109466 -0.614121 101 105 105 255
-0.897758 0.000000 -0.291695 -0.781583 -0.109466 -0.614121 101 105 105 255
-0.769842 0.588114 -0.559322 -0.781583 -0.109466 -0.614121 101 105 105 255
-0.897758 0.000000 -0.291695 -0.910460 0.009869 -0.413478 101 105 105 255
-1.024675 0.512338 0.000000 -0.910460 0.009869 -0.413478 101 105 105 255
-0.769842 0.588114 -0.559322 -0.910460 0.009869 -0.413478 101 105 105 255
-0.592564 0.000000 0.815593 -0.480121 0.182231 0.858065 101 105 105 255
0.000000 0.000000 1.147156 -0.480121 0.182231 0.858065 101 105 105 255
-0.288163 0.466274 0.886892 -0.480121 0.182231 0.858065 101 105 105 255
-0.592564 0.000000 0.815593 -0.437878 -0.442549 0.782569 101 105 105 255
-0.240586 -0.481172 0.740432 -0.437878 -0.442549 0.782569 101 105 105 255
0.000000 0.000000 1.147156 -0.437878 -0.442549 0.782569 101 105 105 255
-0.240586 -0.481172 0.740432 0.010688 -0.648627 0.761031 101 105 105 255
0.256585 -0.415176 0.789699 0.010688 -0.648627 0.761031 101 105 105 255
0.000000 0.000000 1.147156 0.010688 -0.648627 0.761031 101 105 105 255
0.541560 0.000000 0.745390 0.662485 0.204676 0.720570 101 105 105 255
0.999188 0.000000 0.324650 0.662485 0.204676 0.720570 101 105 105 255
0.682575 0.421861 0.495914 0.662485 0.204676 0.720570 101 105 105 255
0.541560 0.000000 0.745390 0.669305 -0.148541 0.727988 101 105 105 255
0.690026 -0.527140 0.501332 0.669305 -0.148541 0.727988 101 105 105 255
0.999188 0.000000 0.324650 0.669305 -0.148541 0.727988 101 105 105 255
0.690026 -0.527140 0.501332 0.857837 -0.513064 -0.029692 101 105 105 255
0.760519 -0.380264 0.000000 0.857837 -0.513064 -0.029692 101 105 105 255
0.999188 0.000000 0.324650 0.857837 -0.513064 -0.029692 101 105 105 255
1.104716 0.000000 -0.358937 0.694099 0.524023 -0.493585 101 105 105 255
0.687275 0.000000 -0.945959 0.694099 0.524023 -0.493585 101 105 105 255
0.685723 0.423806 -0.498201 0.694099 0.524023 -0.493585 101 105 105 255
1.104716 0.000000 -0.358937 0.762254 -0.353764 -0.542051 101 105 105 255
0.726785 -0.555221 -0.528039 0.762254 -0.353764 -0.542051 101 105 105 255
0.687275 0.000000 -0.945959 0.762254 -0.353764 -0.542051 101 105 105 255
0.726785 -0.555221 -0.528039 0.453462 -0.515176 -0.727300 101 105 105 255
0.283548 -0.458806 -0.872686 0.453462 -0.515176 -0.727300 101 105 105 255
0.687275 0.000000 -0.945959 0.453462 -0.515176 -0.727300 101 105 105 255
0.000000 0.000000 -0.945863 -0.338835 -0.222214 -0.914227 101 105 105 255
-0.541422 0.000000 -0.745199 -0.338835 -0.222214 -0.914227 101 105 105 255
-0.309604 0.500968 -0.952883 -0.338835 -0.222214 -0.914227 101 105 105 255
0.000000 0.000000 -0.945863 -0.339728 -0.210629 -0.916636 101 105 105 255
-0.242044 -0.484088 -0.744920 -0.339728 -0.210629 -0.916636 101 105 105 255
-0.541422 0.000000 -0.745199 -0.339728 -0.210629 -0.916636 101 105 105 255
-0.242044 -0.484088 -0.744920 -0.622693 -0.385489 -0.680919 101 105 105 255
-0.622990 -0.385037 -0.452624 -0.622693 -0.385489 -0.680919 101 105 105 255
-0.541422 0.000000 -0.745199 -0.622693 -0.385489 -0.680919 101 105 105 255
-0.897758 0.000000 -0.291695 -0.976341 -0.157513 -0.148150 101 105 105 255
-0.990872 0.000000 0.321949 -0.976341 -0.157513 -0.148150 101 105 105 255
-1.024675 0.512338 0.000000 -0.976341 -0.157513 -0.148150 101 105 105 255
-0.897758 0.000000 -0.291695 -0.986660 -0.063924 -0.149716 101 105 105 255
-0.905752 -0.559791 0.000000 -0.986660 -0.063924 -0.149716 101 105 105 255
-0.990872 0.000000 0.321949 -0.986660 -0.063924 -0.149716 101 105 105 255
-0.905752 -0.559791 0.000000 -0.823864 -0.371475 0.428082 101 105 105 255
-0.699294 -0.432194 0.508061 -0.823864 -0.371475 0.428082 101 105 105 255
-0.990872 0.000000 0.321949 -0.823864 -0.371475 0.428082 101 105 105 255
-0.377129 -0.754263 0.273997 -0.358145 -0.756220 0.547598 101 105 105 255
-0.240586 -0.481172 0.740432 -0.358145 -0.756220 0.547598 101 105 105 255
-0.699294 -0.432194 0.508061 -0.358145 -0.756220 0.547598 101 105 105 255
-0.377129 -0.754263 0.273997 -0.508212 -0.670045 0.541074 101 105 105 255
0.181178 -0.948693 0.557620 -0.508212 -0.670045 0.541074 101 105 105 255
-0.240586 -0.481172 0.740432 -0.508212 -0.670045 0.541074 101 105 105 255
0.181178 -0.948693 0.557620 -0.038698 -0.393988 0.918300 101 105 105 255
0.256585 -0.415176 0.789699 -0.038698 -0.393988 0.918300 101 105 105 255
-0.240586 -0.481172 0.740432 -0.038698 -0.393988 0.918300 101 105 105 255
0.181178 -0.948693 0.557620 0.429163 -0.410612 0.804498 101 105 105 255
0.690026 -0.527140 0.501332 0.429163 -0.410612 0.804498 101 105 105 255
0.256585 -0.415176 0.789699 0.429163 -0.410612 0.804498 101 105 105 255
0.181178 -0.948693 0.557620 0.640736 -0.754317 0.143049 101 105 105 255
0.489709 -0.792367 0.000000 0.640736 -0.754317 0.143049 101 105 105 255
0.690026 -0.527140 0.501332 0.640736 -0.754317 0.143049 101 105 105 255
0.489709 -0.792367 0.000000 0.834921 -0.548661 -0.043343 101 105 105 255
0.760519 -0.380264 0.000000 0.834921 -0.548661 -0.043343 101 105 105 255
0.690026 -0.527140 0.501332 0.834921 -0.548661 -0.043343 101 105 105 255
0.489709 -0.792367 0.000000 0.828883 -0.544693 0.127522 101 105 105 255
0.726785 -0.555221 -0.528039 0.828883 -0.544693 0.127522 101 105 105 255
0.760519 -0.380264 0.000000 0.828883 -0.544693 0.127522 101 105 105 255
0.489709 -0.792367 0.000000 0.579651 -0.808356 -0.102790 101 105 105 255
0.180234 -0.943747 -0.554712 0.579651 -0.808356 -0.102790 101 105 105 255
0.726785 -0.555221 -0.528039 0.579651 -0.808356 -0.102790 101 105 105 255
0.180234 -0.943747 -0.554712 0.430766 -0.557237 -0.709878 101 105 105 255
0.283548 -0.458806 -0.872686 0.430766 -0.557237 -0.709878 101 105 105 255
0.726785 -0.555221 -0.528039 0.430766 -0.557237 -0.709878 101 105 105 255
-0.905752 -0.559791 0.000000 -0.490351 -0.777157 0.394440 101 105 105 255
-0.377129 -0.754263 0.273997 -0.490351 -0.777157 0.394440 101 105 105 255
-0.699294 -0.432194 0.508061 -0.490351 -0.777157 0.394440 101 105 105 255
-0.905752 -0.559791 0.000000 -0.480022 -0.801098 0.357521 101 105 105 255
-0.484628 -0.969268 -0.352099 -0.480022 -0.801098 0.357521 101 105 105 255
-0.377129 -0.754263 0.273997 -0.480022 -0.801098 0.357521 101 105 105 255
-0.484628 -0.969268 -0.352099 -0.410531 -0.838452 0.358417 101 105 105 255
0.000000 -1.056043 0.000000 -0.410531 -0.838452 0.358417 101 105 105 255
-0.377129 -0.754263 0.273997 -0.410531 -0.838452 0.358417 101 105 105 255
0.180234 -0.943747 -0.554712 -0.179495 -0.512399 -0.839779 101 105 105 255
-0.242044 -0.484088 -0.744920 -0.179495 -0.512399 -0.839779 101 105 105 255
0.283548 -0.458806 -0.872686 -0.179495 -0.512399 -0.839779 101 105 105 255
0.180234 -0.943747 -0.554712 -0.225803 -0.542314 -0.809264 101 105 105 255
-0.484628 -0.969268 -0.352099 -0.225803 -0.542314 -0.809264 101 105 105 255
-0.242044 -0.484088 -0.744920 -0.225803 -0.542314 -0.809264 101 105 105 255
-0.484628 -0.969268 -0.352099 -0.629274 -0.274160 -0.727222 101 105 105 255
-0.622990 -0.385037 -0.452624 -0.629274 -0.274160 -0.727222 101 105 105 255
-0.242044 -0.484088 -0.744920 -0.629274 -0.274160 -0.727222 101 105 105 255
3 0 1 2
3 3 4 5
3 6 7 8
3 9 10 11
3 12 13 14
3 15 16 17
3 18 19 20
3 21 22 23
3 24 25 26
3 27 28 29
3 30 31 32
3 33 34 35
3 36 37 38
3 39 40 41
3 42 43 44
3 45 46 47
3 48 49 50
3 51 52 53
3 54 55 56
3 57 58 59
3 60 61 62
3 63 64 65
3 66 67 68
3 69 70 71
3 72 73 74
3 75 76 77
3 78 79 80
3 81 82 83
3 84 85 86
3 87 88 89
3 90 91 92
3 93 94 95
3 96 97 98
3 99 100 101
3 102 103 104
3 105 106 107
3 108 109 110
3 111 112 113
3 114 115 116
3 117 118 119
3 120 121 122
3 123 124 125
3 126 127 128
3 129 130 131
3 132 133 134
3 135 136 137
3 138 139 140
3 141 142 143
3 144 145 146
3 147 148 149
3 150 151 152
3 153 154 155
3 156 157 158
3 159 160 161
3 162 163 164
3 165 166 167
3 168 169 170
3 171 172 173
3 174 175 176
3 177 178 179
3 180 181 182
3 183 184 185
3 186 187 188
3 189 190 191
3 192 193 194
3 195 196 197
3 198 199 200
3 201 202 203
3 204 205 206
3 207 208 209
3 210 211 212
3 213 214 215
3 216 217 218
3 219 220 221
3 222 223 224
3 225 226 227
3 228 229 230
3 231 232 233
3 234 235 236
3 237 238 239
