ply
format ascii 1.0
comment Created by Blender 2.91.2 - www.blender.org
element vertex 240
property float x
property float y
property float z
property float nx
property float ny
property float nz
property uchar red
property uchar green
property uchar blue
property uchar alpha
element face 80
property list uchar uint vertex_indices
end_header
0.000000 -0.981176 0.000000 -0.103133 -0.974244 -0.200528 101 105 105 255
-0.435030 -0.870069 -0.316064 -0.103133 -0.974244 -0.200528 101 105 105 255
0.170229 -0.891358 -0.523920 -0.103133 -0.974244 -0.200528 101 105 105 255
-0.654581 -0.404560 -0.475575 -0.661167 -0.502671 -0.556938 101 105 105 255
-0.435030 -0.870069 -0.316064 -0.661167 -0.502671 -0.556938 101 105 105 255
-0.927124 -0.572999 0.000000 -0.661167 -0.502671 -0.556938 101 105 105 255
0.000000 -0.981176 0.000000 0.103966 -0.985356 -0.135144 101 105 105 255
0.170229 -0.891358 -0.523920 0.103966 -0.985356 -0.135144 101 105 105 255
0.569275 -0.921111 0.000000 0.103966 -0.985356 -0.135144 101 105 105 255
0.000000 -0.981176 0.000000 0.102220 -0.968808 0.225749 101 105 105 255
0.569275 -0.921111 0.000000 0.102220 -0.968808 0.225749 101 105 105 255
0.161940 -0.847952 0.498407 0.102220 -0.968808 0.225749 101 105 105 255
0.000000 -0.981176 0.000000 -0.169126 -0.937074 0.305431 101 105 105 255
0.161940 -0.847952 0.498407 -0.169126 -0.937074 0.305431 101 105 105 255
-0.405896 -0.811799 0.294897 -0.169126 -0.937074 0.305431 101 105 105 255
-0.654581 -0.404560 -0.475575 -0.717435 -0.416264 -0.558580 101 105 105 255
-0.927124 -0.572999 0.000000 -0.717435 -0.416264 -0.558580 101 105 105 255
-1.005278 0.000000 -0.326629 -0.717435 -0.416264 -0.558580 101 105 105 255
0.255559 -0.413514 -0.786539 0.184674 -0.251444 -0.950090 101 105 105 255
-0.277109 -0.554218 -0.852839 0.184674 -0.251444 -0.950090 101 105 105 255
0.000000 0.000000 -0.945651 0.184674 -0.251444 -0.950090 101 105 105 255
0.939550 -0.469777 0.000000 0.874242 -0.356666 -0.329378 101 105 105 255
0.713516 -0.545084 -0.518398 0.874242 -0.356666 -0.329378 101 105 105 255
1.007833 0.000000 -0.327459 0.874242 -0.356666 -0.329378 101 105 105 255
0.265258 -0.429210 0.816394 0.500924 -0.272084 0.821611 101 105 105 255
0.704913 -0.538512 0.512147 0.500924 -0.272084 0.821611 101 105 105 255
0.564058 0.000000 0.776357 0.500924 -0.272084 0.821611 101 105 105 255
-0.794281 -0.490896 0.577071 -0.158292 -0.205174 0.965840 101 105 105 255
-0.221344 -0.442688 0.681211 -0.158292 -0.205174 0.965840 101 105 105 255
-0.526876 0.000000 0.725178 -0.158292 -0.205174 0.965840 101 105 105 255
-0.654581 -0.404560 -0.475575 -0.656992 -0.317831 -0.683626 101 105 105 255
-1.005278 0.000000 -0.326629 -0.656992 -0.317831 -0.683626 101 105 105 255
-0.553064 0.000000 -0.761225 -0.656992 -0.317831 -0.683626 101 105 105 255
0.255559 -0.413514 -0.786539 -0.011996 -0.365536 -0.930720 101 105 105 255
0.000000 0.000000 -0.945651 -0.011996 -0.365536 -0.930720 101 105 105 255
0.693546 0.000000 -0.954591 -0.011996 -0.365536 -0.930720 101 105 105 255
0.939550 -0.469777 0.000000 0.971306 -0.213801 -0.104182 101 105 105 255
1.007833 0.000000 -0.327459 0.971306 -0.213801 -0.104182 101 105 105 255
1.080616 0.000000 0.351107 0.971306 -0.213801 -0.104182 101 105 105 255
0.265258 -0.429210 0.816394 0.553099 -0.313027 0.772073 101 105 105 255
0.564058 0.000000 0.776357 0.553099 -0.313027 0.772073 101 105 105 255
0.000000 0.000000 1.180438 0.553099 -0.313027 0.772073 101 105 105 255
-0.794281 -0.490896 0.577071 -0.734896 0.205309 0.646356 101 105 105 255
-0.526876 0.000000 0.725178 -0.734896 0.205309 0.646356 101 105 105 255
-0.905827 0.000000 0.294317 -0.734896 0.205309 0.646356 101 105 105 255
-0.259090 0.419230 -0.797410 -0.323261 0.733467 -0.597937 101 105 105 255
-0.658602 0.503134 -0.478501 -0.323261 0.733467 -0.597937 101 105 105 255
-0.144574 0.757023 -0.444961 -0.323261 0.733467 -0.597937 101 105 105 255
0.795652 0.491744 -0.578068 0.374991 0.646807 -0.664096 101 105 105 255
0.269450 0.538900 -0.829266 0.374991 0.646807 -0.664096 101 105 105 255
0.465024 0.930060 -0.337856 0.374991 0.646807 -0.664096 101 105 105 255
0.666817 0.412123 0.484465 0.730303 0.539195 0.419435 101 105 105 255
0.857878 0.530204 0.000000 0.730303 0.539195 0.419435 101 105 105 255
0.431711 0.863431 0.313653 0.730303 0.539195 0.419435 101 105 105 255
-0.307311 0.497258 0.945825 -0.018356 0.586635 0.809644 101 105 105 255
0.291533 0.583065 0.897230 -0.018356 0.586635 0.809644 101 105 105 255
-0.190457 0.997281 0.586178 -0.018356 0.586635 0.809644 101 105 105 255
-0.916160 0.458082 0.000000 -0.515814 0.843224 0.151356 101 105 105 255
-0.676272 0.516632 0.491338 -0.515814 0.843224 0.151356 101 105 105 255
-0.456783 0.739090 0.000000 -0.515814 0.843224 0.151356 101 105 105 255
-0.456783 0.739090 0.000000 -0.676347 0.736386 -0.017059 101 105 105 255
-0.190457 0.997281 0.586178 -0.676347 0.736386 -0.017059 101 105 105 255
0.000000 1.158631 0.000000 -0.676347 0.736386 -0.017059 101 105 105 255
-0.456783 0.739090 0.000000 -0.703995 0.710170 0.007051 101 105 105 255
-0.676272 0.516632 0.491338 -0.703995 0.710170 0.007051 101 105 105 255
-0.190457 0.997281 0.586178 -0.703995 0.710170 0.007051 101 105 105 255
-0.676272 0.516632 0.491338 -0.641480 0.541067 0.543829 101 105 105 255
-0.307311 0.497258 0.945825 -0.641480 0.541067 0.543829 101 105 105 255
-0.190457 0.997281 0.586178 -0.641480 0.541067 0.543829 101 105 105 255
-0.190457 0.997281 0.586178 0.341305 0.871991 0.350917 101 105 105 255
0.431711 0.863431 0.313653 0.341305 0.871991 0.350917 101 105 105 255
0.000000 1.158631 0.000000 0.341305 0.871991 0.350917 101 105 105 255
-0.190457 0.997281 0.586178 0.378398 0.795596 0.473119 101 105 105 255
0.291533 0.583065 0.897230 0.378398 0.795596 0.473119 101 105 105 255
0.431711 0.863431 0.313653 0.378398 0.795596 0.473119 101 105 105 255
0.291533 0.583065 0.897230 0.721942 0.539896 0.432795 101 105 105 255
0.666817 0.412123 0.484465 0.721942 0.539896 0.432795 101 105 105 255
0.431711 0.863431 0.313653 0.721942 0.539896 0.432795 101 105 105 255
0.431711 0.863431 0.313653 0.503385 0.856596 0.113342 101 105 105 255
0.465024 0.930060 -0.337856 0.503385 0.856596 0.113342 101 105 105 255
0.000000 1.158631 0.000000 0.503385 0.856596 0.113342 101 105 105 255
0.431711 0.863431 0.313653 0.661105 0.742229 0.109711 101 105 105 255
0.857878 0.530204 0.000000 0.661105 0.742229 0.109711 101 105 105 255
0.465024 0.930060 -0.337856 0.661105 0.742229 0.109711 101 105 105 255
0.857878 0.530204 0.000000 0.758249 0.640025 -0.124205 101 105 105 255
0.795652 0.491744 -0.578068 0.758249 0.640025 -0.124205 101 105 105 255
0.465024 0.930060 -0.337856 0.758249 0.640025 -0.124205 101 105 105 255
0.465024 0.930060 -0.337856 -0.100254 0.754589 -0.648494 101 105 105 255
-0.144574 0.757023 -0.444961 -0.100254 0.754589 -0.648494 101 105 105 255
0.000000 1.158631 0.000000 -0.100254 0.754589 -0.648494 101 105 105 255
0.465024 0.930060 -0.337856 -0.123829 0.799801 -0.587355 101 105 105 255
0.269450 0.538900 -0.829266 -0.123829 0.799801 -0.587355 101 105 105 255
-0.144574 0.757023 -0.444961 -0.123829 0.799801 -0.587355 101 105 105 255
0.269450 0.538900 -0.829266 -0.205991 0.739046 -0.641388 101 105 105 255
-0.259090 0.419230 -0.797410 -0.205991 0.739046 -0.641388 101 105 105 255
-0.144574 0.757023 -0.444961 -0.205991 0.739046 -0.641388 101 105 105 255
-0.144574 0.757023 -0.444961 -0.618028 0.672890 -0.406522 101 105 105 255
-0.456783 0.739090 0.000000 -0.618028 0.672890 -0.406522 101 105 105 255
0.000000 1.158631 0.000000 -0.618028 0.672890 -0.406522 101 105 105 255
-0.144574 0.757023 -0.444961 -0.414655 0.873301 -0.255748 101 105 105 255
-0.658602 0.503134 -0.478501 -0.414655 0.873301 -0.255748 101 105 105 255
-0.456783 0.739090 0.000000 -0.414655 0.873301 -0.255748 101 105 105 255
-0.658602 0.503134 -0.478501 -0.511637 0.836396 -0.196645 101 105 105 255
-0.916160 0.458082 0.000000 -0.511637 0.836396 -0.196645 101 105 105 255
-0.456783 0.739090 0.000000 -0.511637 0.836396 -0.196645 101 105 105 255
-0.905827 0.000000 0.294317 -0.883512 0.238926 0.402889 101 105 105 255
-0.676272 0.516632 0.491338 -0.883512 0.238926 0.402889 101 105 105 255
-0.916160 0.458082 0.000000 -0.883512 0.238926 0.402889 101 105 105 255
-0.905827 0.000000 0.294317 -0.748393 0.081514 0.658227 101 105 105 255
-0.526876 0.000000 0.725178 -0.748393 0.081514 0.658227 101 105 105 255
-0.676272 0.516632 0.491338 -0.748393 0.081514 0.658227 101 105 105 255
-0.526876 0.000000 0.725178 -0.773602 0.061745 0.630656 101 105 105 255
-0.307311 0.497258 0.945825 -0.773602 0.061745 0.630656 101 105 105 255
-0.676272 0.516632 0.491338 -0.773602 0.061745 0.630656 101 105 105 255
0.000000 0.000000 1.180438 0.011218 0.432339 0.901642 101 105 105 255
0.291533 0.583065 0.897230 0.011218 0.432339 0.901642 101 105 105 255
-0.307311 0.497258 0.945825 0.011218 0.432339 0.901642 101 105 105 255
0.000000 0.000000 1.180438 0.579261 0.103121 0.808593 101 105 105 255
0.564058 0.000000 0.776357 0.579261 0.103121 0.808593 101 105 105 255
0.291533 0.583065 0.897230 0.579261 0.103121 0.808593 101 105 105 255
0.564058 0.000000 0.776357 0.765631 0.233605 0.599365 101 105 105 255
0.666817 0.412123 0.484465 0.765631 0.233605 0.599365 101 105 105 255
0.291533 0.583065 0.897230 0.765631 0.233605 0.599365 101 105 105 255
1.080616 0.000000 0.351107 0.705192 0.572883 0.417743 101 105 105 255
0.857878 0.530204 0.000000 0.705192 0.572883 0.417743 101 105 105 255
0.666817 0.412123 0.484465 0.705192 0.572883 0.417743 101 105 105 255
1.080616 0.000000 0.351107 0.939328 0.327890 -0.100752 101 105 105 255
1.007833 0.000000 -0.327459 0.939328 0.327890 -0.100752 101 105 105 255
0.857878 0.530204 0.000000 0.939328 0.327890 -0.100752 101 105 105 255
1.007833 0.000000 -0.327459 0.932468 0.339676 -0.122976 101 105 105 255
0.795652 0.491744 -0.578068 0.932468 0.339676 -0.122976 101 105 105 255
0.857878 0.530204 0.000000 0.932468 0.339676 -0.122976 101 105 105 255
0.693546 0.000000 -0.954591 0.409245 0.499614 -0.763482 101 105 105 255
0.269450 0.538900 -0.829266 0.409245 0.499614 -0.763482 101 105 105 255
0.795652 0.491744 -0.578068 0.409245 0.499614 -0.763482 101 105 105 255
0.693546 0.000000 -0.954591 -0.012581 0.217090 -0.976070 101 105 105 255
0.000000 0.000000 -0.945651 -0.012581 0.217090 -0.976070 101 105 105 255
0.269450 0.538900 -0.829266 -0.012581 0.217090 -0.976070 101 105 105 255
0.000000 0.000000 -0.945651 -0.117800 0.265553 -0.956872 101 105 105 255
-0.259090 0.419230 -0.797410 -0.117800 0.265553 -0.956872 101 105 105 255
0.269450 0.538900 -0.829266 -0.117800 0.265553 -0.956872 101 105 105 255
-0.553064 0.000000 -0.761225 -0.549546 0.318697 -0.772290 101 105 105 255
-0.658602 0.503134 -0.478501 -0.549546 0.318697 -0.772290 101 105 105 255
-0.259090 0.419230 -0.797410 -0.549546 0.318697 -0.772290 101 105 105 255
-0.553064 0.000000 -0.761225 -0.670657 0.251459 -0.697845 101 105 105 255
-1.005278 0.000000 -0.326629 -0.670657 0.251459 -0.697845 101 105 105 255
-0.658602 0.503134 -0.478501 -0.670657 0.251459 -0.697845 101 105 105 255
-1.005278 0.000000 -0.326629 -0.808157 0.437990 -0.393760 101 105 105 255
-0.916160 0.458082 0.000000 -0.808157 0.437990 -0.393760 101 105 105 255
-0.658602 0.503134 -0.478501 -0.808157 0.437990 -0.393760 101 105 105 255
-0.526876 0.000000 0.725178 -0.653087 -0.047009 0.755823 101 105 105 255
0.000000 0.000000 1.180438 -0.653087 -0.047009 0.755823 101 105 105 255
-0.307311 0.497258 0.945825 -0.653087 -0.047009 0.755823 101 105 105 255
-0.526876 0.000000 0.725178 -0.578550 -0.465800 0.669560 101 105 105 255
-0.221344 -0.442688 0.681211 -0.578550 -0.465800 0.669560 101 105 105 255
0.000000 0.000000 1.180438 -0.578550 -0.465800 0.669560 101 105 105 255
-0.221344 -0.442688 0.681211 -0.173876 -0.697273 0.695397 101 105 105 255
0.265258 -0.429210 0.816394 -0.173876 -0.697273 0.695397 101 105 105 255
0.000000 0.000000 1.180438 -0.173876 -0.697273 0.695397 101 105 105 255
0.564058 0.000000 0.776357 0.592469 0.361997 0.719680 101 105 105 255
1.080616 0.000000 0.351107 0.592469 0.361997 0.719680 101 105 105 255
0.666817 0.412123 0.484465 0.592469 0.361997 0.719680 101 105 105 255
0.564058 0.000000 0.776357 0.621686 -0.207899 0.755171 101 105 105 255
0.704913 -0.538512 0.512147 0.621686 -0.207899 0.755171 101 105 105 255
1.080616 0.000000 0.351107 0.621686 -0.207899 0.755171 101 105 105 255
0.704913 -0.538512 0.512147 0.820502 -0.479259 0.311588 101 105 105 255
0.939550 -0.469777 0.000000 0.820502 -0.479259 0.311588 101 105 105 255
1.080616 0.000000 0.351107 0.820502 -0.479259 0.311588 101 105 105 255
1.007833 0.000000 -0.327459 0.883140 0.155508 -0.442585 101 105 105 255
0.693546 0.000000 -0.954591 0.883140 0.155508 -0.442585 101 105 105 255
0.795652 0.491744 -0.578068 0.883140 0.155508 -0.442585 101 105 105 255
1.007833 0.000000 -0.327459 0.850045 -0.309755 -0.426000 101 105 105 255
0.713516 -0.545084 -0.518398 0.850045 -0.309755 -0.426000 101 105 105 255
0.693546 0.000000 -0.954591 0.850045 -0.309755 -0.426000 101 105 105 255
0.713516 -0.545084 -0.518398 0.271783 -0.595196 -0.756225 101 105 105 255
0.255559 -0.413514 -0.786539 0.271783 -0.595196 -0.756225 101 105 105 255
0.693546 0.000000 -0.954591 0.271783 -0.595196 -0.756225 101 105 105 255
0.000000 0.000000 -0.945651 -0.313286 0.138594 -0.939491 101 105 105 255
-0.553064 0.000000 -0.761225 -0.313286 0.138594 -0.939491 101 105 105 255
-0.259090 0.419230 -0.797410 -0.313286 0.138594 -0.939491 101 105 105 255
0.000000 0.000000 -0.945651 -0.316339 -0.000696 -0.948646 101 105 105 255
-0.277109 -0.554218 -0.852839 -0.316339 -0.000696 -0.948646 101 105 105 255
-0.553064 0.000000 -0.761225 -0.316339 -0.000696 -0.948646 101 105 105 255
-0.277109 -0.554218 -0.852839 -0.732217 -0.260566 -0.629256 101 105 105 255
-0.654581 -0.404560 -0.475575 -0.732217 -0.260566 -0.629256 101 105 105 255
-0.553064 0.000000 -0.761225 -0.732217 -0.260566 -0.629256 101 105 105 255
-1.005278 0.000000 -0.326629 -0.984323 0.079087 0.157650 101 105 105 255
-0.905827 0.000000 0.294317 -0.984323 0.079087 0.157650 101 105 105 255
-0.916160 0.458082 0.000000 -0.984323 0.079087 0.157650 101 105 105 255
-1.005278 0.000000 -0.326629 -0.986438 -0.044486 0.157989 101 105 105 255
-0.927124 -0.572999 0.000000 -0.986438 -0.044486 0.157989 101 105 105 255
-0.905827 0.000000 0.294317 -0.986438 -0.044486 0.157989 101 105 105 255
-0.927124 -0.572999 0.000000 -0.968309 -0.084694 0.234957 101 105 105 255
-0.794281 -0.490896 0.577071 -0.968309 -0.084694 0.234957 101 105 105 255
-0.905827 0.000000 0.294317 -0.968309 -0.084694 0.234957 101 105 105 255
-0.405896 -0.811799 0.294897 -0.069080 -0.704604 0.706230 101 105 105 255
-0.221344 -0.442688 0.681211 -0.069080 -0.704604 0.706230 101 105 105 255
-0.794281 -0.490896 0.577071 -0.069080 -0.704604 0.706230 101 105 105 255
-0.405896 -0.811799 0.294897 -0.300712 -0.613699 0.730031 101 105 105 255
0.161940 -0.847952 0.498407 -0.300712 -0.613699 0.730031 101 105 105 255
-0.221344 -0.442688 0.681211 -0.300712 -0.613699 0.730031 101 105 105 255
0.161940 -0.847952 0.498407 -0.207621 -0.558589 0.803039 101 105 105 255
0.265258 -0.429210 0.816394 -0.207621 -0.558589 0.803039 101 105 105 255
-0.221344 -0.442688 0.681211 -0.207621 -0.558589 0.803039 101 105 105 255
0.161940 -0.847952 0.498407 0.335870 -0.620802 0.708376 101 105 105 255
0.704913 -0.538512 0.512147 0.335870 -0.620802 0.708376 101 105 105 255
0.265258 -0.429210 0.816394 0.335870 -0.620802 0.708376 101 105 105 255
0.161940 -0.847952 0.498407 0.429524 -0.774316 0.464698 101 105 105 255
0.569275 -0.921111 0.000000 0.429524 -0.774316 0.464698 101 105 105 255
0.704913 -0.538512 0.512147 0.429524 -0.774316 0.464698 101 105 105 255
0.569275 -0.921111 0.000000 0.746562 -0.612480 0.259833 101 105 105 255
0.939550 -0.469777 0.000000 0.746562 -0.612480 0.259833 101 105 105 255
0.704913 -0.538512 0.512147 0.746562 -0.612480 0.259833 101 105 105 255
0.569275 -0.921111 0.000000 0.750915 -0.616051 -0.237923 101 105 105 255
0.713516 -0.545084 -0.518398 0.750915 -0.616051 -0.237923 101 105 105 255
0.939550 -0.469777 0.000000 0.750915 -0.616051 -0.237923 101 105 105 255
0.569275 -0.921111 0.000000 0.491370 -0.764276 -0.417657 101 105 105 255
0.170229 -0.891358 -0.523920 0.491370 -0.764276 -0.417657 101 105 105 255
0.713516 -0.545084 -0.518398 0.491370 -0.764276 -0.417657 101 105 105 255
0.170229 -0.891358 -0.523920 0.326435 -0.499364 -0.802543 101 105 105 255
0.255559 -0.413514 -0.786539 0.326435 -0.499364 -0.802543 101 105 105 255
0.713516 -0.545084 -0.518398 0.326435 -0.499364 -0.802543 101 105 105 255
-0.927124 -0.572999 0.000000 -0.511722 -0.826285 0.235360 101 105 105 255
-0.405896 -0.811799 0.294897 -0.511722 -0.826285 0.235360 101 105 105 255
-0.794281 -0.490896 0.577071 -0.511722 -0.826285 0.235360 101 105 105 255
-0.927124 -0.572999 0.000000 -0.463117 -0.879935 0.106006 101 105 105 255
-0.435030 -0.870069 -0.316064 -0.463117 -0.879935 0.106006 101 105 105 255
-0.405896 -0.811799 0.294897 -0.463117 -0.879935 0.106006 101 105 105 255
-0.435030 -0.870069 -0.316064 -0.317034 -0.942582 0.105015 101 105 105 255
0.000000 -0.981176 0.000000 -0.317034 -0.942582 0.105015 101 105 105 255
-0.405896 -0.811799 0.294897 -0.317034 -0.942582 0.105015 101 105 105 255
0.170229 -0.891358 -0.523920 0.235806 -0.500064 -0.833265 101 105 105 255
-0.277109 -0.554218 -0.852839 0.235806 -0.500064 -0.833265 101 105 105 255
0.255559 -0.413514 -0.786539 0.235806 -0.500064 -0.833265 101 105 105 255
0.170229 -0.891358 -0.523920 -0.214535 -0.812902 -0.541447 101 105 105 255
-0.435030 -0.870069 -0.316064 -0.214535 -0.812902 -0.541447 101 105 105 255
-0.277109 -0.554218 -0.852839 -0.214535 -0.812902 -0.541447 101 105 105 255
-0.435030 -0.870069 -0.316064 -0.702392 -0.503630 -0.502993 101 105 105 255
-0.654581 -0.404560 -0.475575 -0.702392 -0.503630 -0.502993 101 105 105 255
-0.277109 -0.554218 -0.852839 -0.702392 -0.503630 -0.502993 101 105 105 255
3 0 1 2
3 3 4 5
3 6 7 8
3 9 10 11
3 12 13 14
3 15 16 17
3 18 19 20
3 21 22 23
3 24 25 26
3 27 28 29
3 30 31 32
3 33 34 35
3 36 37 38
3 39 40 41
3 42 43 44
3 45 46 47
3 48 49 50
3 51 52 53
3 54 55 56
3 57 58 59
3 60 61 62
3 63 64 65
3 66 67 68
3 69 70 71
3 72 73 74
3 75 76 77
3 78 79 80
3 81 82 83
3 84 85 86
3 87 88 89
3 90 91 92
3 93 94 95
3 96 97 98
3 99 100 101
3 102 103 104
3 105 106 107
3 108 109 110
3 111 112 113
3 114 115 116
3 117 118 119
3 120 121 122
3 123 124 125
3 126 127 128
3 129 130 131
3 132 133 134
3 135 136 137
3 138 139 140
3 141 142 143
3 144 145 146
3 147 148 149
3 150 151 152
3 153 154 155
3 156 157 158
3 159 160 161
3 162 163 164
3 165 166 167
3 168 169 170
3 171 172 173
3 174 175 176
3 177 178 179
3 180 181 182
3 183 184 185
3 186 187 188
3 189 190 191
3 192 193 194
3 195 196 197
3 198 199 200
3 201 202 203
3 204 205 206
3 207 208 209
3 210 211 212
3 213 214 215
3 216 217 218
3 219 220 221
3 222 223 224
3 225 226 227
3 228 229 230
3 231 232 233
3 234 235 236
3 237 238 239
