ply
format ascii 1.0
comment Created by Blender 2.91.2 - www.blender.org
element vertex 60
property float x
property float y
property float z
property float nx
property float ny
property float nz
property uchar red
property uchar green
property uchar blue
property uchar alpha
element face 20
property list uchar uint vertex_indices
end_header
0.000000 -0.517239 0.000000 -0.310237 -0.436110 -0.844725 171 0 255 255
-0.169758 -0.159334 -0.122431 -0.310237 -0.436110 -0.844725 171 0 255 255
0.128197 -0.207435 -0.207026 -0.310237 -0.436110 -0.844725 171 2 255 255
-0.169758 -0.159334 -0.122431 -0.905489 -0.424076 0.015802 171 0 255 255
0.000000 -0.517239 0.000000 -0.905489 -0.424076 0.015802 171 0 255 255
-0.182587 -0.122935 0.119243 -0.905489 -0.424076 0.015802 130 0 255 255
0.000000 -0.517239 0.000000 0.788351 -0.532327 -0.308431 171 0 255 255
0.128197 -0.207435 -0.207026 0.788351 -0.532327 -0.308431 171 2 255 255
0.201416 -0.218951 0.000000 0.788351 -0.532327 -0.308431 131 0 255 255
0.000000 -0.517239 0.000000 0.693625 -0.468364 0.547284 171 0 255 255
0.201416 -0.218951 0.000000 0.693625 -0.468364 0.547284 131 0 255 255
0.032481 -0.162124 0.262740 0.693625 -0.468364 0.547284 171 8 255 255
0.000000 -0.517239 0.000000 -0.548553 -0.464299 0.695353 171 0 255 255
0.032481 -0.162124 0.262740 -0.548553 -0.464299 0.695353 171 8 255 255
-0.182587 -0.122935 0.119243 -0.548553 -0.464299 0.695353 130 0 255 255
-0.169758 -0.159334 -0.122431 -0.878335 -0.477376 0.025271 171 0 255 255
-0.182587 -0.122935 0.119243 -0.878335 -0.477376 0.025271 130 0 255 255
-0.347183 0.173596 0.000000 -0.878335 -0.477376 0.025271 118 56 255 255
0.128197 -0.207435 -0.207026 -0.308818 -0.377894 -0.872827 171 2 255 255
-0.169758 -0.159334 -0.122431 -0.308818 -0.377894 -0.872827 171 0 255 255
-0.092086 0.149007 -0.283410 -0.308818 -0.377894 -0.872827 117 57 255 255
0.201416 -0.218951 0.000000 0.876564 -0.350777 -0.329530 131 0 255 255
0.128197 -0.207435 -0.207026 0.876564 -0.350777 -0.329530 171 2 255 255
0.281765 0.174147 -0.204712 0.876564 -0.350777 -0.329530 171 0 255 255
0.032481 -0.162124 0.262740 0.726259 -0.405936 0.554765 171 8 255 255
0.201416 -0.218951 0.000000 0.726259 -0.405936 0.554765 131 0 255 255
0.267707 0.165459 0.194499 0.726259 -0.405936 0.554765 171 0 255 255
-0.182587 -0.122935 0.119243 -0.567845 -0.273449 0.776388 130 0 255 255
0.032481 -0.162124 0.262740 -0.567845 -0.273449 0.776388 171 8 255 255
-0.091409 0.147910 0.281324 -0.567845 -0.273449 0.776388 171 0 255 255
-0.169758 -0.159334 -0.122431 -0.740959 -0.154545 -0.653526 171 0 255 255
-0.347183 0.173596 0.000000 -0.740959 -0.154545 -0.653526 118 56 255 255
-0.092086 0.149007 -0.283410 -0.740959 -0.154545 -0.653526 117 57 255 255
0.128197 -0.207435 -0.207026 0.210420 -0.078776 -0.974432 171 2 255 255
-0.092086 0.149007 -0.283410 0.210420 -0.078776 -0.974432 117 57 255 255
0.281765 0.174147 -0.204712 0.210420 -0.078776 -0.974432 171 0 255 255
0.201416 -0.218951 0.000000 0.982289 -0.184861 0.030566 131 0 255 255
0.281765 0.174147 -0.204712 0.982289 -0.184861 0.030566 171 0 255 255
0.267707 0.165459 0.194499 0.982289 -0.184861 0.030566 171 0 255 255
0.032481 -0.162124 0.262740 0.233245 0.034954 0.971790 171 8 255 255
0.267707 0.165459 0.194499 0.233245 0.034954 0.971790 171 0 255 255
-0.091409 0.147910 0.281324 0.233245 0.034954 0.971790 171 0 255 255
-0.182587 -0.122935 0.119243 -0.738624 -0.145277 0.658277 130 0 255 255
-0.091409 0.147910 0.281324 -0.738624 -0.145277 0.658277 171 0 255 255
-0.347183 0.173596 0.000000 -0.738624 -0.145277 0.658277 118 56 255 255
-0.092086 0.149007 -0.283410 -0.388894 0.819395 -0.421133 117 57 255 255
-0.347183 0.173596 0.000000 -0.388894 0.819395 -0.421133 118 56 255 255
0.000000 0.338372 0.000000 -0.388894 0.819395 -0.421133 93 45 202 255
0.281765 0.174147 -0.204712 0.064606 0.819913 -0.568832 171 0 255 255
-0.092086 0.149007 -0.283410 0.064606 0.819913 -0.568832 117 57 255 255
0.000000 0.338372 0.000000 0.064606 0.819913 -0.568832 93 45 202 255
0.267707 0.165459 0.194499 0.523116 0.851460 0.036949 171 0 255 255
0.281765 0.174147 -0.204712 0.523116 0.851460 0.036949 171 0 255 255
0.000000 0.338372 0.000000 0.523116 0.851460 0.036949 93 45 202 255
-0.091409 0.147910 0.281324 0.100727 0.808361 0.580005 171 0 255 255
0.267707 0.165459 0.194499 0.100727 0.808361 0.580005 171 0 255 255
0.000000 0.338372 0.000000 0.100727 0.808361 0.580005 93 45 202 255
-0.347183 0.173596 0.000000 -0.387701 0.816882 0.427073 118 56 255 255
-0.091409 0.147910 0.281324 -0.387701 0.816882 0.427073 171 0 255 255
0.000000 0.338372 0.000000 -0.387701 0.816882 0.427073 93 45 202 255
3 0 1 2
3 3 4 5
3 6 7 8
3 9 10 11
3 12 13 14
3 15 16 17
3 18 19 20
3 21 22 23
3 24 25 26
3 27 28 29
3 30 31 32
3 33 34 35
3 36 37 38
3 39 40 41
3 42 43 44
3 45 46 47
3 48 49 50
3 51 52 53
3 54 55 56
3 57 58 59
